<?xml version="1.0" encoding="UTF-8" standalone="no"?>
<!-- Created with Inkscape (http://www.inkscape.org/) -->

<svg
   width="81mm"
   height="42mm"
   viewBox="0 0 81 42"
   version="1.1"
   id="svg1"
   inkscape:version="1.3 (0e150ed6c4, 2023-07-21)"
   sodipodi:docname="drawing.svg"
   xmlns:inkscape="http://www.inkscape.org/namespaces/inkscape"
   xmlns:sodipodi="http://sodipodi.sourceforge.net/DTD/sodipodi-0.dtd"
   xmlns="http://www.w3.org/2000/svg"
   xmlns:svg="http://www.w3.org/2000/svg">
  <sodipodi:namedview
     id="namedview1"
     pagecolor="#ffffff"
     bordercolor="#666666"
     borderopacity="1.0"
     inkscape:showpageshadow="2"
     inkscape:pageopacity="0.0"
     inkscape:pagecheckerboard="0"
     inkscape:deskcolor="#d1d1d1"
     inkscape:document-units="mm"
     inkscape:zoom="2.7936749"
     inkscape:cx="250.56602"
     inkscape:cy="129.0415"
     inkscape:window-width="1776"
     inkscape:window-height="1415"
     inkscape:window-x="0"
     inkscape:window-y="0"
     inkscape:window-maximized="1"
     inkscape:current-layer="layer4" />
  <defs
     id="defs1">
    <inkscape:path-effect
       effect="fillet_chamfer"
       id="path-effect5"
       is_visible="true"
       lpeversion="1"
       nodesatellites_param="F,0,0,1,0,3.67,0,1 @ F,0,0,1,0,3.67,0,1 @ F,0,0,1,0,3.67,0,1 @ F,0,0,1,0,3.67,0,1"
       radius="3.67"
       unit="mm"
       method="auto"
       mode="F"
       chamfer_steps="1"
       flexible="false"
       use_knot_distance="true"
       apply_no_radius="true"
       apply_with_radius="true"
       only_selected="false"
       hide_knots="false" />
    <inkscape:path-effect
       effect="fillet_chamfer"
       id="path-effect3"
       is_visible="true"
       lpeversion="1"
       nodesatellites_param="F,0,0,1,0,3.67,0,1 @ F,0,0,1,0,3.67,0,1 @ F,0,0,1,0,3.67,0,1 @ F,0,0,1,0,3.67,0,1"
       radius="3.67"
       unit="mm"
       method="auto"
       mode="F"
       chamfer_steps="1"
       flexible="false"
       use_knot_distance="true"
       apply_no_radius="true"
       apply_with_radius="true"
       only_selected="false"
       hide_knots="false" />
    <inkscape:path-effect
       effect="fillet_chamfer"
       id="path-effect2"
       is_visible="true"
       lpeversion="1"
       nodesatellites_param="F,0,0,1,0,0,0,1 @ F,0,0,1,0,0,0,1 @ F,0,0,1,0,0,0,1 @ F,0,0,1,0,0,0,1"
       radius="0"
       unit="px"
       method="auto"
       mode="F"
       chamfer_steps="1"
       flexible="false"
       use_knot_distance="true"
       apply_no_radius="true"
       apply_with_radius="true"
       only_selected="false"
       hide_knots="false" />
    <inkscape:path-effect
       effect="fillet_chamfer"
       id="path-effect1"
       is_visible="true"
       lpeversion="1"
       nodesatellites_param="F,0,0,1,0,0,0,1 @ F,0,0,1,0,0,0,1 @ F,0,0,1,0,0,0,1 @ F,0,0,1,0,0,0,1"
       radius="0"
       unit="px"
       method="auto"
       mode="F"
       chamfer_steps="1"
       flexible="false"
       use_knot_distance="true"
       apply_no_radius="true"
       apply_with_radius="true"
       only_selected="false"
       hide_knots="false" />
    <inkscape:path-effect
       effect="fillet_chamfer"
       id="path-effect5-2"
       is_visible="true"
       lpeversion="1"
       nodesatellites_param="F,0,0,1,0,3.67,0,1 @ F,0,0,1,0,3.67,0,1 @ F,0,0,1,0,3.67,0,1 @ F,0,0,1,0,3.67,0,1"
       radius="3.67"
       unit="mm"
       method="auto"
       mode="F"
       chamfer_steps="1"
       flexible="false"
       use_knot_distance="true"
       apply_no_radius="true"
       apply_with_radius="true"
       only_selected="false"
       hide_knots="false" />
  </defs>
  <g
     inkscape:label="cut"
     inkscape:groupmode="layer"
     id="layer1">
    <path
       style="fill:#000000;fill-opacity:1;stroke:none;stroke-width:0.264583;stroke-opacity:1"
       id="rect1"
       width="99.260269"
       height="100.14645"
       x="66.410027"
       y="75.282455"
       sodipodi:type="rect"
       transform="matrix(0.40298097,0,0,0.41938583,-26.761977,-31.572395)"
       inkscape:path-effect="#path-effect3"
       d="M 70.080027,75.282455 H 162.0003 a 3.67,3.67 45 0 1 3.67,3.67 V 171.7589 a 3.67,3.67 135 0 1 -3.67,3.67 H 70.080027 a 3.67,3.67 45 0 1 -3.67,-3.67 V 78.952455 a 3.67,3.67 135 0 1 3.67,-3.67 z" />
    <path
       style="fill:#000000;fill-opacity:1;stroke:none;stroke-width:0.264583;stroke-opacity:1"
       id="path1"
       width="99.260269"
       height="100.14645"
       x="66.410027"
       y="75.282455"
       sodipodi:type="rect"
       transform="matrix(0.40298097,0,0,0.41938583,14.238023,-31.572395)"
       inkscape:path-effect="#path-effect5"
       d="M 70.080027,75.282455 H 162.0003 a 3.67,3.67 45 0 1 3.67,3.67 V 171.7589 a 3.67,3.67 135 0 1 -3.67,3.67 H 70.080027 a 3.67,3.67 45 0 1 -3.67,-3.67 V 78.952455 a 3.67,3.67 135 0 1 3.67,-3.67 z" />
  </g>
  <g
     inkscape:groupmode="layer"
     id="layer2"
     inkscape:label="tag">
    <circle
       style="fill:#ff0000;fill-opacity:1;stroke:none;stroke-width:0.264583;stroke-opacity:1"
       id="path3"
       cx="20"
       cy="21"
       r="12.75" />
  </g>
  <g
     inkscape:groupmode="layer"
     id="layer3"
     inkscape:label="magnets">
    <circle
       style="fill:#ff0000;fill-opacity:1;stroke:none;stroke-width:0.264583;stroke-opacity:1"
       id="path4"
       cx="7.25"
       cy="35"
       r="2.55" />
    <circle
       style="fill:#ff0000;fill-opacity:1;stroke:none;stroke-width:0.264583;stroke-opacity:1"
       id="path4-5"
       cx="32.75"
       cy="7"
       r="2.55" />
  </g>
  <g
     inkscape:groupmode="layer"
     id="layer4"
     inkscape:label="engrave">
    <path
       id="path1-1"
       style="display:inline;fill:#00ffff;fill-opacity:1;stroke:none;stroke-width:0.264583;stroke-opacity:1"
       d="m 123.66093,86.081396 c -0.58362,0.01525 -1.20596,0.127889 -1.86967,0.354871 -5.61741,1.921053 -5.20088,8.541573 -7.33635,12.733484 -0.72271,-2.470247 -0.37816,-6.624776 -3.19819,-7.772674 l -1.12847,3.434122 h -0.18851 c -1.01689,-2.577934 -3.71157,-4.585533 -6.3951,-5.405631 -0.70386,-0.214886 -2.90399,-0.51442 -3.24051,0.401695 -0.26182,0.712865 0.3252,1.883053 0.69632,2.474243 1.15529,1.840573 2.99826,3.261383 4.2369,5.060617 -4.32569,-1.728053 -8.65428,-2.685971 -13.355721,-2.178517 -1.457072,0.15754 -3.437251,0.312936 -4.694698,1.09542 -1.149495,0.715216 -1.270027,2.322997 0,2.9893 1.595508,0.837414 4.413254,0.799914 6.1989,0.804624 v 0.18113 c -4.362301,0.56496 -9.659004,3.12009 -12.522189,6.32608 -0.822593,0.92112 -3.747457,4.13215 -1.377248,5.10744 1.250172,0.51442 2.730853,-0.39917 3.741909,-1.00793 2.285409,-1.37586 4.655648,-2.91618 7.147843,-3.91838 -1.901371,1.90885 -3.73679,3.53855 -3.198192,6.32608 1.663861,-0.29766 2.745308,-0.66711 4.13944,-1.62649 0,3.92686 1.459237,7.16345 3.573921,10.4835 -4.710005,1.47513 -9.286517,3.77341 -11.4168,8.31483 -0.683143,1.45635 -0.804283,2.98961 -1.187459,4.51846 h -0.187224 c -2.878518,-5.3385 -9.878927,-8.07425 -15.689603,-10.2383 v 3.99231 c 3.242112,1.25564 6.372491,2.72825 9.105997,4.87702 3.467321,2.7257 6.301849,5.99058 8.594337,9.68381 1.147373,1.84851 2.143191,5.01859 3.861169,6.40863 1.072682,0.86789 0.759674,-1.70552 0.711706,-2.07008 2.382597,1.04865 4.876179,4.63528 7.900584,3.97136 1.937253,-0.42527 3.015781,-2.59405 4.120208,-3.97013 0.41339,-0.51508 1.23869,-1.53832 2.04792,-1.22234 1.60284,0.62589 0.59995,4.94144 0.96561,6.28172 1.47642,5.41163 6.90981,7.06532 12.05413,5.59786 5.19974,-1.48329 8.53326,-5.62019 10.49607,-10.29744 3.47893,-8.29004 2.17837,-18.73785 -1.0541,-26.93204 -0.98593,-2.49912 -2.10129,-4.89061 -3.44825,-7.23051 -0.49621,-0.86194 -0.82135,-2.02198 -1.68501,-2.62457 -0.90518,-0.63159 -1.65282,0.22713 -2.00048,0.99807 -1.03267,2.29035 -1.29109,4.75017 -3.14305,6.65754 -3.07938,3.17156 -8.43015,2.56173 -12.5209,2.56173 -1.29869,0 -3.162732,0.46556 -4.326664,-0.17004 -2.23089,-1.21826 -5.791036,-6.6987 -3.999663,-9.21065 0.809986,-1.13587 2.711343,-1.4748 3.999663,-1.82611 l -3.198191,-1.62649 c 0.567758,-0.79801 1.57892,-1.49807 1.316977,-2.53093 l -3.573921,1.98753 c 1.933179,-2.63702 6.150928,-5.60473 9.404789,-6.50721 v -0.1799 c -7.401154,0.14657 -14.125593,4.64076 -20.31634,7.95257 1.180694,-2.27759 3.734837,-3.64295 6.020652,-4.74394 2.696425,-1.29899 5.488092,-2.55173 8.46482,-3.12731 2.857053,-0.55234 5.796308,-0.47596 8.653328,-0.98575 v -0.1799 l -5.643642,-1.577207 -8.277597,-0.953717 v -0.181133 c 6.784249,-0.515203 12.191459,0.517901 18.247899,3.615257 -0.56259,-4.011239 -4.607,-5.887029 -6.02065,-9.399171 4.19556,1.687196 5.98068,5.442715 7.14912,9.399171 1.50772,-0.90251 1.24786,-3.333699 1.31698,-4.880719 h 0.18722 c 0.072,3.358838 1.01354,5.724479 4.32667,7.230509 0.68368,-3.387369 1.54549,-6.905761 2.86093,-10.122466 0.62631,-1.531541 1.60327,-3.237259 3.15844,-4.05638 1.75348,-0.923604 3.27989,-0.06238 4.37154,1.345555 1.97389,2.545627 3.80129,6.293105 4.47029,9.399169 l 0.18851,-0.361033 h 0.18722 c -0.76932,3.119225 -3.15122,5.421645 -6.58361,5.421645 -0.83752,0 -2.26251,0.0277 -2.86991,-0.63457 -0.69063,-0.75344 -0.40532,-4.86559 0.63349,-5.291042 0.80999,-0.331825 2.02351,0.470599 2.80066,0.683868 -0.0791,-1.635623 -1.0648,-2.214528 -2.63267,-2.529693 l 3.57392,-5.242981 c -5.55288,2.233284 -6.39988,6.839982 -6.39639,11.930098 l -1.6927,-0.54217 c 2.32627,4.18246 6.12159,3.75775 10.34603,3.08664 3.64564,-0.57909 7.979,-1.20436 11.47451,0.16635 v 0.18113 l -2.63268,-0.7233 5.83087,5.60402 -4.32667,-3.25422 c 0.92749,3.25849 2.99744,6.14761 3.35464,9.5803 0.71104,6.83301 -2.89642,12.83179 -4.2946,19.3405 2.55213,-2.8339 4.42397,-5.91385 5.83086,-9.39917 h 0.18851 c 1.32476,3.2762 4.09769,5.86539 7.71208,6.68835 v 0.1799 c -1.05049,0.47189 -2.25029,0.9806 -2.44545,2.16989 5.48869,0 10.95168,-0.95651 16.41541,-1.74602 v -3.7052 c -0.26665,0.0317 -0.53494,0.0483 -0.80147,0.0801 -4.42645,0.52918 -9.74176,1.28565 -13.92124,-0.65183 -4.17345,-1.93459 -4.69671,-6.746 -5.62055,-10.60672 -0.42306,-1.76803 -0.99785,-3.6131 -1.15156,-5.42165 l 2.06972,0.1799 c -3.7e-4,-2.51616 -1.22731,-3.49543 -2.40313,-5.58676 -0.51583,-0.91746 0.21968,-1.93118 -0.42061,-2.89196 -2.60034,-3.90446 -8.01886,-3.16072 -12.03746,-3.08911 1.1483,-1.83278 2.18169,-3.933711 2.0492,-6.146177 -0.0889,-1.484459 -1.28902,-2.358452 -1.91455,-3.614022 -1.56317,-3.137612 -3.77294,-7.773457 -7.85827,-7.666705 z m 2.6455,5.677945 0.18722,0.179901 z m -24.26727,9.218039 0.1885,0.18113 z m 0.56423,3.26161 c -3.054337,-0.11858 -4.955239,2.07715 -4.138154,4.87209 l 3.573924,-1.58336 6.77211,-0.0431 c -1.35454,-1.80979 -3.86933,-3.15465 -6.20788,-3.2456 z m 2.63268,3.75942 c -0.65299,-0.0588 -1.29825,0.0516 -1.87737,0.39184 -0.78364,0.46033 -1.99204,2.09602 -0.3783,2.16743 0.0475,2.19481 1.09631,4.12311 2.82118,5.54856 0.47714,0.39415 1.35133,1.24064 2.05305,1.05846 0.80639,-0.20962 1.51647,-1.49504 2.01073,-2.08857 1.67357,-2.01051 4.06205,-4.15302 5.15379,-6.50721 -1.99859,0.0414 -3.93009,1.19794 -4.8909,2.89196 h -0.37573 c -0.5275,-1.5874 -2.5575,-3.28613 -4.51645,-3.46247 z m 0.94253,2.0171 c -0.17924,2.18121 0.16201,3.47995 2.06843,4.87949 l -0.1885,0.5434 c -1.42415,-0.63814 -5.22587,-5.06057 -1.87993,-5.42289 z m -8.448153,1.10775 c -0.252635,-0.0113 -0.510038,0.0357 -0.766848,0.16265 -4.031819,1.99333 1.305476,10.05096 5.067861,8.12384 3.3205,-1.70083 -0.67918,-6.05369 -2.249247,-7.26008 -0.573376,-0.44053 -1.293864,-0.99255 -2.051766,-1.02641 z m 21.803863,1.06091 c 1.5433,2.54129 2.55144,5.5213 3.48031,8.31484 2.47758,7.45098 3.88639,15.78027 1.9043,23.49793 -1.39625,5.43652 -4.74304,10.79336 -10.83974,11.93009 l 1.3157,-1.80763 c -1.78164,0.58293 -3.54871,1.98976 -5.45514,2.128 -3.31138,0.24015 -4.6954,-4.20962 -4.70239,-6.64768 h 0.1885 c 0.48317,1.42729 0.83233,3.12385 1.79786,4.33608 3.1591,3.96635 7.07225,-1.82831 8.49047,-4.33608 2.68391,-4.74588 4.52475,-9.70554 5.62569,-15.00195 0.50718,-2.44023 1.05788,-5.11006 0.68991,-7.59155 -0.24921,-1.68039 -0.62373,-3.27888 -1.21952,-4.88071 -0.22522,-0.60548 -0.87216,-1.64161 -0.58989,-2.29188 0.23376,-0.53841 1.08708,-0.41728 1.57089,-0.41895 -3.91659,-3.7294 -4.45676,2.88353 -4.51517,5.60279 h 0.1885 l 1.31698,-3.25299 c 3.58412,5.47984 -0.60306,13.11224 -4.53184,17.17184 -1.02833,1.06262 -2.20661,2.49221 -3.55725,3.1729 -1.39475,0.70291 -3.35317,0.66187 -4.8909,0.85391 -2.31624,0.28918 -4.86531,0.73485 -6.959332,-0.54094 -2.687725,-1.63751 -0.07115,-4.4289 0.787365,-6.55896 1.694457,-4.20338 2.014757,-7.93388 -0.600142,-11.74896 6.230129,-1.4253 12.793559,1.19632 17.277159,-4.69959 1.67928,-2.20837 1.77776,-5.01371 3.22768,-7.23051 z m -20.880568,0.7233 c -0.427102,2.2118 0.731555,3.29263 1.881218,5.06062 -1.33899,-0.47821 -2.522076,-1.38043 -3.016102,-2.71083 -0.431384,-1.16176 -0.277008,-2.30453 1.134884,-2.34979 z m 19.939328,25.30432 -3.3867,9.5803 c -0.67645,-0.20573 -1.52381,-0.92195 -2.23771,-0.86007 -1.51958,0.13181 -1.07721,2.68457 -0.96048,3.57213 -2.17643,-0.0448 -4.5747,-2.88952 -3.13792,-4.98422 0.60986,-0.8891 2.92289,-1.05776 3.89066,-1.71152 2.27369,-1.53598 3.66122,-4.00134 5.83215,-5.59662 z m -31.603622,1.98876 c 2.906023,1.62944 5.444692,1.15159 8.466102,1.90867 1.547268,0.38763 3.043945,1.72789 4.325381,2.60978 -0.437665,1.09328 -2.107708,4.03826 -3.402086,4.26462 -0.949259,0.16598 -2.066462,-0.63362 -2.804508,-1.10404 -2.145236,-1.36748 -4.019572,-3.1059 -5.476935,-5.14811 -0.490491,-0.68733 -1.256263,-1.67518 -1.107954,-2.53092 z m 28.405432,13.73772 0.1885,0.18113 z m -16.491079,0.84282 0.06283,0.12075 z m -0.06155,0.24274 c -5.817233,6.07297 -9.232124,13.32211 -13.268519,20.40512 h 4.018898 z m 14.295682,8.321 c -2.53985,0.10299 -5.1722,0.70928 -7.52357,1.6228 -4.3192,1.67806 -8.255327,4.19294 -11.663011,7.24283 -1.088669,0.97437 -2.068739,2.13057 -3.094321,3.21849 h 2.991733 c 2.246846,-2.16764 4.826358,-4.11682 7.814669,-5.79993 5.17429,-2.91435 11.26967,-5.01701 17.11814,-2.63567 4.06114,1.65358 7.1403,4.77352 9.57149,8.4356 h 3.02636 c -3.95876,-6.26077 -10.0288,-12.41709 -18.24149,-12.08412 z m -45.522288,6.31992 0.564235,3.43412 c -0.623192,-0.42182 -1.205183,-0.9269 -1.769648,-1.45891 v 0.11952 c 2.93e-4,2.02672 1.643381,3.66952 3.670097,3.66947 h 8.527655 c -3.850575,-1.42454 -7.365989,-3.25931 -10.992339,-5.7642 z"
       transform="matrix(0.40298097,0,0,0.41938583,14.238023,-31.572395)"
       sodipodi:nodetypes="scccccccccccccccscccccsccccccscsssssscssccsscccccccccccccccccccccssccccscccccccccccccsccccccccccsccsccssscccccccccccsccccccccsccccsccssccsccccccscssccccccscsccccccscccccssccccscscccccccccccsssccssccscccsccc" />
  </g>
</svg>
