<?xml version="1.0" encoding="UTF-8" standalone="no"?>
<!-- Created with Inkscape (http://www.inkscape.org/) -->

<svg
   width="81mm"
   height="42mm"
   viewBox="0 0 81 42"
   version="1.1"
   id="svg1"
   inkscape:version="1.3 (0e150ed6c4, 2023-07-21)"
   sodipodi:docname="bird.svg"
   xmlns:inkscape="http://www.inkscape.org/namespaces/inkscape"
   xmlns:sodipodi="http://sodipodi.sourceforge.net/DTD/sodipodi-0.dtd"
   xmlns="http://www.w3.org/2000/svg"
   xmlns:svg="http://www.w3.org/2000/svg">
  <sodipodi:namedview
     id="namedview1"
     pagecolor="#ffffff"
     bordercolor="#666666"
     borderopacity="1.0"
     inkscape:showpageshadow="2"
     inkscape:pageopacity="0.0"
     inkscape:pagecheckerboard="0"
     inkscape:deskcolor="#d1d1d1"
     inkscape:document-units="mm"
     inkscape:zoom="3.0464099"
     inkscape:cx="182.67404"
     inkscape:cy="103.56453"
     inkscape:window-width="2560"
     inkscape:window-height="1415"
     inkscape:window-x="0"
     inkscape:window-y="0"
     inkscape:window-maximized="1"
     inkscape:current-layer="layer3" />
  <defs
     id="defs1">
    <inkscape:path-effect
       effect="fillet_chamfer"
       id="path-effect5"
       is_visible="true"
       lpeversion="1"
       nodesatellites_param="F,0,0,1,0,3.67,0,1 @ F,0,0,1,0,3.67,0,1 @ F,0,0,1,0,3.67,0,1 @ F,0,0,1,0,3.67,0,1"
       radius="3.67"
       unit="mm"
       method="auto"
       mode="F"
       chamfer_steps="1"
       flexible="false"
       use_knot_distance="true"
       apply_no_radius="true"
       apply_with_radius="true"
       only_selected="false"
       hide_knots="false" />
    <inkscape:path-effect
       effect="fillet_chamfer"
       id="path-effect3"
       is_visible="true"
       lpeversion="1"
       nodesatellites_param="F,0,0,1,0,3.67,0,1 @ F,0,0,1,0,3.67,0,1 @ F,0,0,1,0,3.67,0,1 @ F,0,0,1,0,3.67,0,1"
       radius="3.67"
       unit="mm"
       method="auto"
       mode="F"
       chamfer_steps="1"
       flexible="false"
       use_knot_distance="true"
       apply_no_radius="true"
       apply_with_radius="true"
       only_selected="false"
       hide_knots="false" />
    <inkscape:path-effect
       effect="fillet_chamfer"
       id="path-effect2"
       is_visible="true"
       lpeversion="1"
       nodesatellites_param="F,0,0,1,0,0,0,1 @ F,0,0,1,0,0,0,1 @ F,0,0,1,0,0,0,1 @ F,0,0,1,0,0,0,1"
       radius="0"
       unit="px"
       method="auto"
       mode="F"
       chamfer_steps="1"
       flexible="false"
       use_knot_distance="true"
       apply_no_radius="true"
       apply_with_radius="true"
       only_selected="false"
       hide_knots="false" />
    <inkscape:path-effect
       effect="fillet_chamfer"
       id="path-effect1"
       is_visible="true"
       lpeversion="1"
       nodesatellites_param="F,0,0,1,0,0,0,1 @ F,0,0,1,0,0,0,1 @ F,0,0,1,0,0,0,1 @ F,0,0,1,0,0,0,1"
       radius="0"
       unit="px"
       method="auto"
       mode="F"
       chamfer_steps="1"
       flexible="false"
       use_knot_distance="true"
       apply_no_radius="true"
       apply_with_radius="true"
       only_selected="false"
       hide_knots="false" />
  </defs>
  <g
     inkscape:label="cut"
     inkscape:groupmode="layer"
     id="layer1">
    <path
       style="fill:#000000;fill-opacity:1;stroke:none;stroke-width:0.264583;stroke-opacity:1"
       id="rect1"
       width="99.260269"
       height="100.14645"
       x="66.410027"
       y="75.282455"
       sodipodi:type="rect"
       transform="matrix(0.40298097,0,0,0.41938583,-26.761977,-31.572395)"
       inkscape:path-effect="#path-effect3"
       d="M 70.080027,75.282455 H 162.0003 a 3.67,3.67 45 0 1 3.67,3.67 V 171.7589 a 3.67,3.67 135 0 1 -3.67,3.67 H 70.080027 a 3.67,3.67 45 0 1 -3.67,-3.67 V 78.952455 a 3.67,3.67 135 0 1 3.67,-3.67 z" />
    <path
       style="fill:#000000;fill-opacity:1;stroke:none;stroke-width:0.264583;stroke-opacity:1"
       id="path1"
       width="99.260269"
       height="100.14645"
       x="66.410027"
       y="75.282455"
       sodipodi:type="rect"
       transform="matrix(0.40298097,0,0,0.41938583,14.238023,-31.572395)"
       inkscape:path-effect="#path-effect5"
       d="M 70.080027,75.282455 H 162.0003 a 3.67,3.67 45 0 1 3.67,3.67 V 171.7589 a 3.67,3.67 135 0 1 -3.67,3.67 H 70.080027 a 3.67,3.67 45 0 1 -3.67,-3.67 V 78.952455 a 3.67,3.67 135 0 1 3.67,-3.67 z" />
  </g>
  <g
     inkscape:groupmode="layer"
     id="layer2"
     inkscape:label="tag">
    <circle
       style="fill:#ff0000;fill-opacity:1;stroke:none;stroke-width:0.264583;stroke-opacity:1"
       id="path3"
       cx="20"
       cy="21"
       r="12.75" />
  </g>
  <g
     inkscape:groupmode="layer"
     id="layer3"
     inkscape:label="magnets">
    <circle
       style="fill:#ff0000;fill-opacity:1;stroke:none;stroke-width:0.264583;stroke-opacity:1"
       id="path4"
       cx="7.25"
       cy="7"
       r="2.55" />
    <circle
       style="fill:#ff0000;fill-opacity:1;stroke:none;stroke-width:0.264583;stroke-opacity:1"
       id="path4-5"
       cx="32.75"
       cy="35"
       r="2.55" />
  </g>
  <g
     inkscape:groupmode="layer"
     id="layer4"
     inkscape:label="engrave">
    <path
       style="fill:#00ffff;stroke:none;stroke-width:0.255016"
       d="m 51.739771,22.181335 c -0.41397,0.587679 -1.042171,1.082975 -1.550502,1.591305 -1.4159,1.4159 -2.957475,2.684714 -4.488296,3.974579 -0.840936,0.708569 -2.239115,1.50924 -2.596732,2.594653 -0.438407,1.330622 0.594381,2.157981 1.454257,2.980203 1.079235,1.031977 2.388004,2.845477 4.080268,1.924592 0.591468,-0.321862 0.922341,-0.972989 1.278925,-1.518172 0.651572,-0.996189 1.311436,-1.988215 1.97169,-2.978596 l 0.680045,-1.020067 c 0.08036,-0.120526 0.174825,-0.338961 0.308696,-0.407145 0.200186,-0.101963 0.86401,0.404834 1.064994,0.49442 1.030395,0.459275 2.073952,0.848382 3.18261,1.071509 2.883885,0.580413 5.910022,0.146721 8.568565,-1.109041 3.395869,-1.60403 6.146647,-4.116847 7.490348,-7.679845 0.318297,-0.844006 0.516044,-1.758348 0.623059,-2.652175 0.04279,-0.35742 -0.05062,-1.088534 0.153357,-1.380366 0.390352,-0.558494 1.044837,-0.933894 1.443109,-1.516625 0.207449,-0.303527 0.405982,-0.982522 0.703975,-1.17758 0.874187,-0.572217 2.662739,0.0076 2.875551,-1.433792 0.165801,-1.123035 -0.968145,-1.389115 -1.783042,-1.69643 C 77.002411,12.168002 76.67936,12.112218 76.531025,11.954185 76.374947,11.787901 76.365119,11.381928 76.307712,11.164609 76.183973,10.696177 75.990591,10.243545 75.759961,9.8181198 74.765437,7.9836129 72.81043,6.6603869 70.71302,6.5167529 c -1.564747,-0.107157 -3.105446,0.313083 -4.365887,1.256952 -0.689569,0.516376 -1.265966,1.194781 -1.876923,1.7994419 -0.827443,0.8189172 -1.66526,1.6246142 -2.488964,2.4483182 l -2.080938,2.080937 c -0.180546,0.180547 -0.547252,0.710267 -0.816053,0.722107 -0.204483,0.009 -0.519213,-0.239236 -0.693646,-0.337567 -0.553676,-0.312121 -1.120224,-0.601067 -1.67291,-0.914974 -1.93884,-1.1012 -3.93323,-2.104968 -5.875588,-3.199926 -0.634469,-0.357666 -1.27448,-0.7108442 -1.917725,-1.0525272 -0.306168,-0.1626309 -0.618302,-0.3639249 -0.979265,-0.2417929 -0.419297,0.1418709 -0.480373,0.5703289 -0.566389,0.9444121 -0.203687,0.885825 -0.293256,1.788168 -0.332876,2.692977 -0.132448,3.024676 0.584565,6.267234 2.980202,8.329069 0.499533,0.429929 1.087396,0.909163 1.713713,1.137155 m 25.093653,-8.527763 v 0.0408 c -0.523927,0.135607 -1.375775,0.136662 -1.791478,0.503515 -0.357605,0.315587 -0.48243,0.968014 -0.740492,1.373408 -0.52052,0.817693 -1.275997,1.450822 -2.160339,1.841757 -0.514055,0.227244 -1.107653,0.395513 -1.672911,0.402235 -0.501628,0.006 -1.151508,-0.148849 -1.483062,0.326735 -0.312715,0.448558 0.04898,1.01989 0.544601,1.094557 0.964274,0.145273 1.940703,-0.06248 2.856188,-0.360266 -0.01114,1.346295 -0.538456,2.77013 -1.132402,3.957862 -2.181335,4.362094 -7.682801,7.309821 -12.536498,6.847921 -3.210868,-0.305555 -5.983978,-1.855984 -8.242144,-4.114142 v -0.0408 l 1.958529,-1.958529 c 0.201352,-0.201352 0.520675,-0.672079 0.816054,-0.714394 0.236289,-0.03385 0.545897,0.13423 0.775251,0.18868 0.565764,0.134313 1.136353,0.246246 1.713713,0.315372 1.737879,0.208073 3.528748,0.181562 5.263548,-0.05179 0.652377,-0.08776 2.147382,-0.02078 2.38088,-0.798737 0.154009,-0.513127 -0.352628,-0.934601 -0.830379,-0.890701 -1.990081,0.182865 -3.947861,0.609768 -5.957193,0.371916 -1.855846,-0.219687 -3.690667,-0.563092 -5.222743,-1.721209 -2.315272,-1.750143 -3.049502,-4.78302 -2.859841,-7.552652 0.04088,-0.596866 0.01365,-1.262978 0.207666,-1.836121 1.025389,0.441852 1.996455,1.087081 2.978596,1.619514 2.068563,1.121397 4.132505,2.251626 6.202009,3.371008 0.763104,0.412759 1.530485,0.82402 2.284951,1.25229 0.32029,0.181811 0.761605,0.522961 1.142475,0.522816 0.507233,-1.94e-4 0.875024,-0.616333 0.611694,-1.053219 -0.263593,-0.437322 -1.019289,-0.728746 -1.468551,-0.938494 0.205069,-0.429726 0.72401,-0.772062 1.060901,-1.10227 0.738547,-0.723898 1.43994,-1.648328 2.28492,-2.243551 -0.05146,1.198601 0.09768,2.336744 0.643021,3.427426 0.203129,0.406261 0.51555,1.027524 1.070692,0.898982 0.426916,-0.09885 0.703089,-0.571674 0.527979,-0.980587 -0.184947,-0.431883 -0.46028,-0.804882 -0.592142,-1.264884 -0.510317,-1.780268 -0.09524,-3.70197 1.247473,-5.0181332 2.087609,-2.0463369 5.631789,-1.8275459 7.398917,0.529838 0.395965,0.5282252 0.683622,1.1529862 0.833592,1.7953172 0.09218,0.394843 0.0436,0.937693 0.311279,1.263121 0.317032,0.385441 1.114214,0.539437 1.575246,0.695408 m -5.91639,-2.919847 c -0.593375,0.0963 -0.903568,0.847799 -0.404186,1.271683 0.318057,0.269971 1.03241,0.235949 1.424253,0.165825 0.569563,-0.101929 0.783371,-0.849141 0.362946,-1.242719 -0.318445,-0.298106 -0.979308,-0.260304 -1.383013,-0.194789 M 51.658165,28.424146 c -0.191688,0.405207 -0.492319,0.764341 -0.732275,1.142475 -0.672962,1.060485 -1.402726,2.084637 -2.081064,3.141807 -0.258902,0.40349 -0.633905,1.311687 -1.185323,1.335123 -0.280949,0.01193 -0.468552,-0.219139 -0.652844,-0.395055 -0.336393,-0.321099 -0.669105,-0.658674 -1.020067,-0.963555 -0.341711,-0.296842 -0.637684,-0.641729 -0.979265,-0.938462 -0.217224,-0.188702 -0.499319,-0.401817 -0.525996,-0.710961 -0.0427,-0.494771 0.526439,-0.793993 0.852417,-1.071951 0.963054,-0.821184 1.930186,-1.637531 2.896992,-2.454396 0.272587,-0.23031 0.542437,-0.463993 0.816054,-0.693079 0.09566,-0.0801 0.229683,-0.232754 0.367224,-0.22328 0.220406,0.01517 0.458346,0.379661 0.61204,0.518719 0.510939,0.462287 1.045807,0.9475 1.632107,1.312615 z"
       id="path1-2" />
  </g>
</svg>
