<?xml version="1.0" encoding="UTF-8" standalone="no"?>
<!-- Created with Inkscape (http://www.inkscape.org/) -->

<svg
   width="81mm"
   height="42mm"
   viewBox="0 0 81 42"
   version="1.1"
   id="svg1"
   inkscape:version="1.3 (0e150ed6c4, 2023-07-21)"
   sodipodi:docname="coconut.svg"
   xmlns:inkscape="http://www.inkscape.org/namespaces/inkscape"
   xmlns:sodipodi="http://sodipodi.sourceforge.net/DTD/sodipodi-0.dtd"
   xmlns="http://www.w3.org/2000/svg"
   xmlns:svg="http://www.w3.org/2000/svg">
  <sodipodi:namedview
     id="namedview1"
     pagecolor="#ffffff"
     bordercolor="#666666"
     borderopacity="1.0"
     inkscape:showpageshadow="2"
     inkscape:pageopacity="0.0"
     inkscape:pagecheckerboard="0"
     inkscape:deskcolor="#d1d1d1"
     inkscape:document-units="mm"
     inkscape:zoom="4.453212"
     inkscape:cx="150.90231"
     inkscape:cy="79.605462"
     inkscape:window-width="2560"
     inkscape:window-height="1415"
     inkscape:window-x="0"
     inkscape:window-y="0"
     inkscape:window-maximized="1"
     inkscape:current-layer="layer3" />
  <defs
     id="defs1">
    <inkscape:path-effect
       effect="fillet_chamfer"
       id="path-effect5"
       is_visible="true"
       lpeversion="1"
       nodesatellites_param="F,0,0,1,0,3.67,0,1 @ F,0,0,1,0,3.67,0,1 @ F,0,0,1,0,3.67,0,1 @ F,0,0,1,0,3.67,0,1"
       radius="3.67"
       unit="mm"
       method="auto"
       mode="F"
       chamfer_steps="1"
       flexible="false"
       use_knot_distance="true"
       apply_no_radius="true"
       apply_with_radius="true"
       only_selected="false"
       hide_knots="false" />
    <inkscape:path-effect
       effect="fillet_chamfer"
       id="path-effect3"
       is_visible="true"
       lpeversion="1"
       nodesatellites_param="F,0,0,1,0,3.67,0,1 @ F,0,0,1,0,3.67,0,1 @ F,0,0,1,0,3.67,0,1 @ F,0,0,1,0,3.67,0,1"
       radius="3.67"
       unit="mm"
       method="auto"
       mode="F"
       chamfer_steps="1"
       flexible="false"
       use_knot_distance="true"
       apply_no_radius="true"
       apply_with_radius="true"
       only_selected="false"
       hide_knots="false" />
    <inkscape:path-effect
       effect="fillet_chamfer"
       id="path-effect2"
       is_visible="true"
       lpeversion="1"
       nodesatellites_param="F,0,0,1,0,0,0,1 @ F,0,0,1,0,0,0,1 @ F,0,0,1,0,0,0,1 @ F,0,0,1,0,0,0,1"
       radius="0"
       unit="px"
       method="auto"
       mode="F"
       chamfer_steps="1"
       flexible="false"
       use_knot_distance="true"
       apply_no_radius="true"
       apply_with_radius="true"
       only_selected="false"
       hide_knots="false" />
    <inkscape:path-effect
       effect="fillet_chamfer"
       id="path-effect1"
       is_visible="true"
       lpeversion="1"
       nodesatellites_param="F,0,0,1,0,0,0,1 @ F,0,0,1,0,0,0,1 @ F,0,0,1,0,0,0,1 @ F,0,0,1,0,0,0,1"
       radius="0"
       unit="px"
       method="auto"
       mode="F"
       chamfer_steps="1"
       flexible="false"
       use_knot_distance="true"
       apply_no_radius="true"
       apply_with_radius="true"
       only_selected="false"
       hide_knots="false" />
  </defs>
  <g
     inkscape:label="cut"
     inkscape:groupmode="layer"
     id="layer1">
    <path
       style="fill:#000000;fill-opacity:1;stroke:none;stroke-width:0.264583;stroke-opacity:1"
       id="rect1"
       width="99.260269"
       height="100.14645"
       x="66.410027"
       y="75.282455"
       sodipodi:type="rect"
       transform="matrix(0.40298097,0,0,0.41938583,-26.761977,-31.572395)"
       inkscape:path-effect="#path-effect3"
       d="M 70.080027,75.282455 H 162.0003 a 3.67,3.67 45 0 1 3.67,3.67 V 171.7589 a 3.67,3.67 135 0 1 -3.67,3.67 H 70.080027 a 3.67,3.67 45 0 1 -3.67,-3.67 V 78.952455 a 3.67,3.67 135 0 1 3.67,-3.67 z" />
    <path
       style="fill:#000000;fill-opacity:1;stroke:none;stroke-width:0.264583;stroke-opacity:1"
       id="path1"
       width="99.260269"
       height="100.14645"
       x="66.410027"
       y="75.282455"
       sodipodi:type="rect"
       transform="matrix(0.40298097,0,0,0.41938583,14.238023,-31.572395)"
       inkscape:path-effect="#path-effect5"
       d="M 70.080027,75.282455 H 162.0003 a 3.67,3.67 45 0 1 3.67,3.67 V 171.7589 a 3.67,3.67 135 0 1 -3.67,3.67 H 70.080027 a 3.67,3.67 45 0 1 -3.67,-3.67 V 78.952455 a 3.67,3.67 135 0 1 3.67,-3.67 z" />
  </g>
  <g
     inkscape:groupmode="layer"
     id="layer2"
     inkscape:label="tag">
    <circle
       style="fill:#ff0000;fill-opacity:1;stroke:none;stroke-width:0.264583;stroke-opacity:1"
       id="path3"
       cx="20"
       cy="21"
       r="12.75" />
  </g>
  <g
     inkscape:groupmode="layer"
     id="layer3"
     inkscape:label="magnets">
    <circle
       style="fill:#ff0000;fill-opacity:1;stroke:none;stroke-width:0.264583;stroke-opacity:1"
       id="path4"
       cx="7.25"
       cy="7"
       r="2.55" />
    <circle
       style="fill:#ff0000;fill-opacity:1;stroke:none;stroke-width:0.264583;stroke-opacity:1"
       id="path4-5"
       cx="32.75"
       cy="35"
       r="2.55" />
  </g>
  <g
     inkscape:groupmode="layer"
     id="layer4"
     inkscape:label="engrave">
    <path
       style="fill:#00ffff;stroke:none;stroke-width:0.0781798"
       d="m 58.965914,11.428273 h -0.07819 c -0.6624,-2.2993852 -2.986702,-4.5449327 -5.159735,-5.4252198 -0.553565,-0.224253 -2.332631,-0.9824205 -2.70823,-0.199004 -0.266549,0.5559687 0.502243,1.5275845 0.720613,2.0280458 0.853914,1.9569717 1.948968,3.814552 2.769402,5.785153 -2.598297,-1.446562 -5.145683,-2.629895 -8.208673,-2.142836 -0.6468,0.102854 -2.881741,0.530849 -2.62294,1.510117 0.09762,0.369385 0.601015,0.553235 0.903027,0.721818 0.791798,0.441972 1.863744,0.827722 2.501689,1.474462 -2.667303,0.232879 -3.184462,2.669536 -3.611501,4.847022 -0.885765,4.516533 -0.72556,9.540961 2.256359,13.290237 3.665749,4.609071 11.685323,6.662528 17.068893,4.197466 1.259899,-0.576881 2.451565,-1.344982 3.439825,-2.321496 0.54845,-0.541931 1.155358,-1.583305 1.811661,-1.95199 0.444169,-0.249491 1.20618,-0.158751 1.706343,-0.243023 1.001577,-0.168721 1.967997,-0.454397 2.892586,-0.877752 C 76.9003,30.173778 79.286404,25.628752 78.972456,21.044146 78.718863,17.341281 76.46388,13.991886 73.272458,12.165291 71.985183,11.428523 70.527415,11.191425 69.207216,10.548047 68.324836,10.118039 67.4923,9.5390699 66.806021,8.8351268 66.516039,8.5376856 66.181339,7.987893 65.690419,8.092983 65.329103,8.1703282 65.219889,8.5560546 65.080922,8.8483987 64.766335,9.5102201 64.292668,10.074637 63.969295,10.724671 63.705731,10.020895 63.732284,9.1953877 63.560009,8.4575112 63.240993,7.0911488 62.622921,5.7907994 61.732182,4.7049744 61.39408,4.2928282 60.530119,3.2695781 59.905557,3.4540077 c -0.648597,0.191527 -0.44873,1.3673125 -0.515574,1.87639 -0.261602,1.992319 -0.337855,4.0899114 -0.424069,6.0978753 m 1.563559,-6.3324095 c 1.455096,1.0467077 2.000473,3.3267445 2.201104,5.0033855 0.05894,0.492587 0.232351,1.333926 -0.01429,1.791032 -0.19681,0.364741 -0.688098,0.589145 -1.014145,0.822255 -0.628019,0.449004 -1.169204,1.010697 -1.798092,1.451959 l 0.383887,-5.9415172 0.24153,-3.1271143 m -7.974134,1.6417367 c 3.467853,1.1303022 6.80166,5.3559578 6.097869,9.1468058 -0.53846,-0.111138 -1.643205,-0.169221 -2.056147,-0.536084 -0.4994,-0.443666 -0.837307,-1.588633 -1.10414,-2.200141 -0.62158,-1.424525 -1.342607,-2.822339 -2.019654,-4.2216022 -0.274144,-0.566583 -1.024517,-1.5519886 -0.917923,-2.1889786 m 13.446591,2.8144061 c 2.661297,2.6392527 6.706501,2.6314307 9.202599,5.4724457 4.363905,4.96686 3.26449,13.021543 -2.870183,16.045522 -1.076108,0.530438 -2.31201,0.91827 -3.518011,0.919068 0.688952,-1.892649 1.803528,-3.610611 2.449571,-5.550624 0.252634,-0.758645 0.579009,-1.613434 0.51389,-2.423513 -0.110495,-1.37465 -1.408771,-2.551897 -2.416219,-3.345179 -2.687012,-2.115799 -6.287199,-3.70253 -9.615879,-4.472607 0.770549,-1.619759 2.480447,-2.39575 3.752541,-3.531573 1.045082,-0.933135 1.612208,-2.089793 2.501688,-3.1135397 M 54.4316,14.94627 v 0.07819 l -3.283471,-0.234535 -2.345332,-0.0041 -3.439829,-1.871683 c 0.62022,-0.462098 1.678484,-0.469302 2.423515,-0.469066 2.462334,0.0011 4.704955,1.064775 6.645117,2.501689 m 12.273923,-2.460387 c -1.914456,0.441076 -1.113437,2.994498 0.703597,2.575284 1.92209,-0.443457 1.122518,-2.996007 -0.703597,-2.575284 m 0.78178,1.36582 c -0.347206,0.16682 -0.655515,0.214358 -0.859959,-0.15636 0.347209,-0.166818 0.655519,-0.214354 0.859959,0.15636 m 1.954444,0.505679 c -1.91645,0.367715 -1.19086,2.914805 0.625423,2.595735 1.91553,-0.336507 1.213778,-2.948626 -0.625423,-2.595735 m -3.830713,0.942888 c -1.897376,0.437754 -1.096096,2.988293 0.7036,2.57528 1.934501,-0.443945 1.127941,-2.997844 -0.7036,-2.57528 m 4.612494,0.271329 c -0.237357,0.365228 -0.578401,0.348096 -0.938135,0.156355 0.279478,-0.335491 0.556834,-0.339554 0.938135,-0.156355 m -21.264377,0.334973 c 1.469965,-0.174007 3.070644,-0.03565 4.534313,0.121063 4.453302,0.476773 8.85996,1.813322 12.82117,3.904729 1.432734,0.756448 2.952781,1.738178 3.914622,3.066068 0.679392,0.937939 0.591897,1.997596 -0.474795,2.587289 -0.334475,0.184909 -0.727267,0.301605 -1.094493,0.403377 -1.637222,0.453737 -3.332184,0.369709 -5.003378,0.295883 -4.594123,-0.203143 -9.538526,-1.594094 -13.60295,-3.738684 -1.558531,-0.822377 -3.23343,-1.806073 -4.324755,-3.222435 -0.76701,-0.995462 -0.774458,-2.071728 0.415864,-2.710892 0.318287,-0.170909 0.669882,-0.283948 1.016314,-0.382812 0.589321,-0.16816 1.190944,-0.251933 1.798088,-0.323803 m 17.433664,0.524921 c -0.142425,0.450895 -0.634803,0.486458 -0.859962,0.07818 l 0.859962,-0.07818 m -17.355487,0.346154 c -0.392965,0.05629 -0.799201,0.117784 -1.172662,0.256612 -0.988996,0.367626 -1.428014,1.38681 -0.797402,2.289782 0.650766,0.931839 1.760365,1.578785 2.751849,2.090587 3.958668,2.043481 8.481702,3.33414 12.899344,3.863048 1.676519,0.200725 3.603586,0.491557 5.237909,-0.09736 1.10934,-0.399743 1.501115,-1.458219 0.751249,-2.416455 -0.937602,-1.19823 -2.397555,-1.82493 -3.722005,-2.482383 -3.083639,-1.53073 -6.485456,-2.407937 -9.850407,-3.052918 -1.936332,-0.371161 -4.126705,-0.733226 -6.097875,-0.45097 m 0.859956,1.005152 c 1.373228,-0.162025 2.94261,0.13915 4.299789,0.362294 3.332014,0.547841 6.5916,1.490344 9.694049,2.820738 1.200682,0.514874 2.424912,1.088056 3.439763,1.924336 0.333748,0.275038 1.023524,0.894362 0.38637,1.236438 -1.172203,0.62933 -3.19242,0.29953 -4.451558,0.144889 -3.81793,-0.468908 -7.745984,-1.40925 -11.257605,-3.011061 -1.083368,-0.494177 -2.139363,-1.005553 -3.127117,-1.676125 -0.355585,-0.241402 -0.890953,-0.595987 -1.004011,-1.041705 -0.191212,-0.75387 1.599481,-0.710167 2.02032,-0.759822 m -5.15974,1.932124 c 0.318724,0.509551 1.009993,0.926004 1.202531,1.485384 0.111816,0.324856 -0.05158,0.765384 -0.09785,1.094488 -0.102433,0.728757 -0.117371,1.462491 -0.211547,2.18898 -0.0476,0.36719 -0.0088,1.026691 0.514067,1.026691 0.367523,0 0.524797,-0.412162 0.543802,-0.71398 0.05782,-0.918225 0.04688,-1.92812 0.316152,-2.814402 0.399903,0.189139 1.349077,0.599952 1.513312,1.03272 0.1537,0.405002 -0.111272,1.12464 -0.161965,1.547151 -0.127155,1.059753 -0.344003,2.551943 -0.07566,3.595816 0.128616,0.500287 0.749828,0.5816 0.944288,0.07704 0.250657,-0.650384 0.120877,-1.873091 0.125414,-2.578363 0.004,-0.696017 0.107367,-1.426555 0.234473,-2.1108 0.726704,0.129538 1.431678,0.614938 2.1108,0.904718 1.325431,0.565561 2.68486,1.051146 4.065247,1.462457 3.811956,1.135842 7.551269,1.463539 11.492145,1.463539 -0.266483,0.687058 -0.55152,1.372356 -0.879322,2.032624 -0.407345,0.820504 -1.074032,1.648813 -1.3777,2.50169 -0.161038,0.452303 0.358893,0.858834 0.757162,0.577968 0.322619,-0.227538 0.522548,-0.713857 0.717175,-1.047025 0.543225,-0.929921 1.031873,-1.895215 1.439114,-2.892593 0.157407,-0.385495 0.280269,-1.046994 0.582108,-1.340414 0.3064,-0.297855 1.16039,-0.439681 1.575864,-0.535849 -0.861775,2.648475 -2.201976,5.324884 -4.146506,7.348685 -3.920201,4.079931 -9.769049,4.107179 -14.694351,1.999255 -5.033493,-2.154268 -7.349212,-6.787041 -7.117257,-12.08418 0.05157,-1.177689 -0.06664,-3.221311 0.628496,-4.221606 z"
       id="path1-7" />
  </g>
</svg>
