<?xml version="1.0" encoding="UTF-8" standalone="no"?>
<!-- Created with Inkscape (http://www.inkscape.org/) -->

<svg
   width="81mm"
   height="42mm"
   viewBox="0 0 81 42"
   version="1.1"
   id="svg1"
   inkscape:version="1.3.2 (091e20ef0f, 2023-11-25, custom)"
   sodipodi:docname="elsa.svg"
   xmlns:inkscape="http://www.inkscape.org/namespaces/inkscape"
   xmlns:sodipodi="http://sodipodi.sourceforge.net/DTD/sodipodi-0.dtd"
   xmlns="http://www.w3.org/2000/svg"
   xmlns:svg="http://www.w3.org/2000/svg">
  <sodipodi:namedview
     id="namedview1"
     pagecolor="#ffffff"
     bordercolor="#666666"
     borderopacity="1.0"
     inkscape:showpageshadow="2"
     inkscape:pageopacity="0.0"
     inkscape:pagecheckerboard="0"
     inkscape:deskcolor="#d1d1d1"
     inkscape:document-units="mm"
     inkscape:zoom="3.195316"
     inkscape:cx="192.31275"
     inkscape:cy="91.227285"
     inkscape:window-width="1422"
     inkscape:window-height="1415"
     inkscape:window-x="0"
     inkscape:window-y="0"
     inkscape:window-maximized="0"
     inkscape:current-layer="layer4" />
  <defs
     id="defs1">
    <inkscape:path-effect
       effect="fillet_chamfer"
       id="path-effect5"
       is_visible="true"
       lpeversion="1"
       nodesatellites_param="F,0,0,1,0,3.67,0,1 @ F,0,0,1,0,3.67,0,1 @ F,0,0,1,0,3.67,0,1 @ F,0,0,1,0,3.67,0,1"
       radius="3.67"
       unit="mm"
       method="auto"
       mode="F"
       chamfer_steps="1"
       flexible="false"
       use_knot_distance="true"
       apply_no_radius="true"
       apply_with_radius="true"
       only_selected="false"
       hide_knots="false" />
    <inkscape:path-effect
       effect="fillet_chamfer"
       id="path-effect3"
       is_visible="true"
       lpeversion="1"
       nodesatellites_param="F,0,0,1,0,3.67,0,1 @ F,0,0,1,0,3.67,0,1 @ F,0,0,1,0,3.67,0,1 @ F,0,0,1,0,3.67,0,1"
       radius="3.67"
       unit="mm"
       method="auto"
       mode="F"
       chamfer_steps="1"
       flexible="false"
       use_knot_distance="true"
       apply_no_radius="true"
       apply_with_radius="true"
       only_selected="false"
       hide_knots="false" />
    <inkscape:path-effect
       effect="fillet_chamfer"
       id="path-effect2"
       is_visible="true"
       lpeversion="1"
       nodesatellites_param="F,0,0,1,0,0,0,1 @ F,0,0,1,0,0,0,1 @ F,0,0,1,0,0,0,1 @ F,0,0,1,0,0,0,1"
       radius="0"
       unit="px"
       method="auto"
       mode="F"
       chamfer_steps="1"
       flexible="false"
       use_knot_distance="true"
       apply_no_radius="true"
       apply_with_radius="true"
       only_selected="false"
       hide_knots="false" />
    <inkscape:path-effect
       effect="fillet_chamfer"
       id="path-effect1"
       is_visible="true"
       lpeversion="1"
       nodesatellites_param="F,0,0,1,0,0,0,1 @ F,0,0,1,0,0,0,1 @ F,0,0,1,0,0,0,1 @ F,0,0,1,0,0,0,1"
       radius="0"
       unit="px"
       method="auto"
       mode="F"
       chamfer_steps="1"
       flexible="false"
       use_knot_distance="true"
       apply_no_radius="true"
       apply_with_radius="true"
       only_selected="false"
       hide_knots="false" />
    <inkscape:path-effect
       effect="fillet_chamfer"
       id="path-effect5-9"
       is_visible="true"
       lpeversion="1"
       nodesatellites_param="F,0,0,1,0,3.67,0,1 @ F,0,0,1,0,3.67,0,1 @ F,0,0,1,0,3.67,0,1 @ F,0,0,1,0,3.67,0,1"
       radius="3.67"
       unit="mm"
       method="auto"
       mode="F"
       chamfer_steps="1"
       flexible="false"
       use_knot_distance="true"
       apply_no_radius="true"
       apply_with_radius="true"
       only_selected="false"
       hide_knots="false" />
  </defs>
  <g
     inkscape:label="cut"
     inkscape:groupmode="layer"
     id="layer1">
    <path
       style="fill:#000000;fill-opacity:1;stroke:none;stroke-width:0.264583;stroke-opacity:1"
       id="rect1"
       width="99.260269"
       height="100.14645"
       x="66.410027"
       y="75.282455"
       sodipodi:type="rect"
       transform="matrix(0.40298097,0,0,0.41938583,-26.761977,-31.572395)"
       inkscape:path-effect="#path-effect3"
       d="M 70.080027,75.282455 H 162.0003 a 3.67,3.67 45 0 1 3.67,3.67 V 171.7589 a 3.67,3.67 135 0 1 -3.67,3.67 H 70.080027 a 3.67,3.67 45 0 1 -3.67,-3.67 V 78.952455 a 3.67,3.67 135 0 1 3.67,-3.67 z" />
    <path
       style="fill:#000000;fill-opacity:1;stroke:none;stroke-width:0.264583;stroke-opacity:1"
       id="path1"
       width="99.260269"
       height="100.14645"
       x="66.410027"
       y="75.282455"
       sodipodi:type="rect"
       transform="matrix(0.40298097,0,0,0.41938583,14.238023,-31.572395)"
       d="M 70.080027,75.282455 H 162.0003 a 3.67,3.67 45 0 1 3.67,3.67 V 171.7589 a 3.67,3.67 135 0 1 -3.67,3.67 H 70.080027 a 3.67,3.67 45 0 1 -3.67,-3.67 V 78.952455 a 3.67,3.67 135 0 1 3.67,-3.67 z"
       inkscape:path-effect="#path-effect5" />
  </g>
  <g
     inkscape:groupmode="layer"
     id="layer2"
     inkscape:label="tag">
    <circle
       style="fill:#ff0000;fill-opacity:1;stroke:none;stroke-width:0.264583;stroke-opacity:1"
       id="path3"
       cx="20"
       cy="21"
       r="12.75" />
  </g>
  <g
     inkscape:groupmode="layer"
     id="layer3"
     inkscape:label="magnets">
    <circle
       style="fill:#ff0000;fill-opacity:1;stroke:none;stroke-width:0.264583;stroke-opacity:1"
       id="path4"
       cx="7.25"
       cy="7"
       r="2.55" />
    <circle
       style="fill:#ff0000;fill-opacity:1;stroke:none;stroke-width:0.264583;stroke-opacity:1"
       id="path4-5"
       cx="32.75"
       cy="35"
       r="2.55" />
  </g>
  <g
     inkscape:groupmode="layer"
     id="layer4"
     inkscape:label="engrave"
     style="display:inline">
    <path
       id="path1-2"
       style="fill:#00ffff;fill-opacity:1;stroke:none;stroke-width:0.264583;stroke-opacity:1"
       d="m 121.67969,76.839947 c -1.8784,-0.03934 -3.67031,0.532047 -6.69132,1.980135 -1.54315,0.73969 -3.31814,1.419178 -3.94452,1.509436 -1.42399,0.205181 -3.35554,-0.165386 -5.55773,-1.065847 -2.6057,-1.065457 -4.4159,-1.434026 -7.064484,-1.436737 -4.793398,-0.0052 -7.767712,1.492385 -10.40374,5.235588 -0.625066,0.887636 -1.338328,1.786125 -1.584989,1.996153 -0.246662,0.210045 -2.010184,1.134393 -3.917592,2.055298 -3.057586,1.476224 -3.6808,1.880372 -5.274323,3.410711 -4.113689,3.950554 -6.200218,8.477051 -5.560288,12.066866 0.155094,0.8702 0.69982,2.28688 1.36186,3.54625 0.60643,1.15362 1.102825,2.18333 1.102825,2.28819 0,0.10484 -0.694544,1.03816 -1.542672,2.07254 -0.848129,1.03439 -1.896883,2.57386 -2.33132,3.4218 -1.461904,2.85338 -0.950431,5.74213 1.401613,7.91438 0.798623,0.73758 3.262095,2.31645 3.966322,2.54201 0.144423,0.0463 0.07532,0.39008 -0.171836,0.84899 -0.25356,0.47112 -0.408341,1.25705 -0.398812,2.02326 0.01985,1.6326 0.778813,2.88589 2.533932,4.18699 2.054785,1.52323 2.760908,2.40064 2.760908,3.42919 0,1.1198 0.393025,2.24288 1.109237,3.17044 0.310709,0.40236 0.564235,0.7909 0.564235,0.86253 0,0.0716 -0.427346,0.13061 -0.950224,0.13061 -0.943741,0 -0.949493,0.005 -0.801471,0.74671 0.246909,1.23712 0.951352,1.93624 2.795532,2.77737 l 1.751696,0.79846 0.009,4.33115 c 0.01489,6.26176 0.887206,9.86611 2.926332,12.09768 1.064144,1.16459 5.739659,4.7484 9.217562,7.06416 1.578534,1.05107 3.730821,2.49952 4.783181,3.21849 1.05236,0.71897 2.50549,1.62237 3.22897,2.00847 3.51512,1.87586 7.09823,1.8972 10.11392,0.0591 0.62939,-0.38363 1.19424,-0.69742 1.25543,-0.69742 0.0613,0 0.11156,1.19572 0.11156,2.65784 0,0.76639 -0.0261,0.95408 -0.0397,1.33816 h 1.65296 c -0.2083,-0.40674 -0.20873,-4.87926 0.018,-5.41056 0.0893,-0.2089 1.34654,-1.25495 2.79425,-2.32392 2.92547,-2.16013 8.49388,-6.88159 10.87436,-9.2205 0.85126,-0.83637 1.63128,-1.52052 1.73374,-1.52052 h 0.001 c 0.10248,0 0.18594,0.19356 0.18594,0.43003 0,0.23649 0.31956,1.49823 0.71042,2.80324 0.39086,1.305 0.67039,2.41168 0.62066,2.45946 -0.0496,0.0478 -0.88061,0.24341 -1.84659,0.43496 -4.09699,0.81244 -7.87411,2.79218 -10.41271,5.45862 -1.41146,1.48252 -3.41002,4.48089 -4.08174,6.124 -0.14978,0.36644 -0.31119,0.62315 -0.43984,0.76519 h 1.70296 c 1.8798,-4.04588 4.31661,-7.02512 7.2312,-8.65985 0.82331,-0.46177 2.97686,-1.37182 4.78446,-2.02203 3.6965,-1.32967 5.58143,-2.20245 6.6349,-3.07309 l 0.71684,-0.59392 -1.39392,0.63704 c -1.36642,0.62389 -1.4029,0.62746 -1.73503,0.19099 -0.55283,-0.72644 -1.28163,-2.80701 -1.44136,-4.11306 -0.12954,-1.0594 -0.007,-1.61765 0.94894,-4.30405 0.64536,-1.81495 1.21918,-3.95315 1.39264,-5.18876 l 0.29494,-2.10089 2.5211,-0.15895 c 3.60126,-0.22719 4.52175,-0.79969 6.12068,-3.80748 0.36627,-0.68902 1.01049,-2.26635 1.43111,-3.50436 0.42061,-1.23801 0.84267,-2.25213 0.93868,-2.25368 0.096,-0.002 0.69604,0.80478 1.33237,1.79161 1.79547,2.78433 4.12341,5.41461 6.65157,7.51515 4.11026,3.41501 4.22404,3.62609 4.18176,7.72338 -0.0402,3.88868 -0.53757,5.61071 -2.94557,10.1927 -1.5191,2.89056 -1.91456,3.84935 -1.91456,4.64291 0,1.88722 0.66785,2.56769 2.63139,2.68248 l 1.0759,0.0628 -0.76557,0.4017 c -0.42098,0.2212 -1.23424,0.40292 -1.80812,0.40292 -0.82668,0 -1.17376,-0.13137 -1.6709,-0.63211 -0.88602,-0.89242 -1.13617,-1.68322 -1.13617,-3.59061 0,-1.44039 0.20926,-2.26193 1.55421,-6.10059 2.52695,-7.21224 2.51649,-8.52295 -0.0898,-11.28319 l -0.97459,-1.03135 0.95023,1.79408 c 0.5229,0.9864 0.9515,1.99914 0.9515,2.25121 0,0.42475 -0.0747,0.40972 -1.01691,-0.2107 -1.04029,-0.68514 -4.90649,-2.8314 -7.47356,-4.1488 l -1.43495,-0.73685 0.98228,0.86993 c 0.5406,0.47875 2.309,1.59437 3.93042,2.47917 3.18873,1.74007 4.64602,2.88114 4.89475,3.83336 0.11141,0.42667 -0.17415,1.51249 -0.96818,3.67316 -2.62362,7.13876 -2.73945,7.9948 -1.67091,12.37369 0.35264,1.44515 0.56048,2.76267 0.67708,3.996 h 1.60679 c -0.0815,-0.73459 -0.1967,-1.49267 -0.37701,-2.31283 l -0.16029,-0.72822 0.96048,0.23411 c 0.74398,0.18146 1.25932,0.15152 2.28259,-0.13431 2.73921,-0.76515 3.60927,-2.68289 2.17359,-4.78953 -0.83996,-1.23252 -1.07723,-1.09572 -0.90149,0.51998 0.12432,1.14212 0.0761,1.46088 -0.27956,1.83844 -0.86185,0.91509 -2.57316,0.36405 -2.86734,-0.92292 -0.25532,-1.11705 0.0474,-1.86951 2.03381,-5.05692 3.13915,-5.03701 4.03234,-7.72833 3.74704,-11.28319 -0.17619,-2.19527 -0.80738,-3.96924 -2.08126,-5.84799 l -0.97715,-1.44166 0.79121,-1.34186 c 1.05054,-1.78139 1.0894,-3.70248 0.11156,-5.53624 -0.35388,-0.6636 -0.69154,-1.20632 -0.75017,-1.20632 -0.0586,0 -0.54886,0.62667 -1.09,1.39238 -0.54117,0.7657 -1.11131,1.35245 -1.26569,1.30366 -0.15435,-0.0488 -0.30903,-0.54636 -0.34367,-1.10528 -0.0506,-0.81529 0.10375,-1.28911 0.78095,-2.39538 1.9527,-3.19055 2.3761,-4.25758 2.3698,-5.97491 -0.007,-1.82395 -0.25823,-2.41226 -2.02228,-4.7156 -0.63097,-0.82389 -1.2153,-1.75577 -1.29774,-2.07132 -0.18487,-0.70771 1.15278,-5.81642 2.62883,-10.03991 0.58945,-1.68671 1.07204,-3.45751 1.07204,-3.93439 0,-1.93309 -1.81747,-4.14626 -4.31768,-5.25777 -0.822,-0.36542 -0.95231,-0.53982 -1.18361,-1.58706 -0.14294,-0.64713 -0.64361,-1.93938 -1.11309,-2.87224 -0.4695,-0.93287 -0.99375,-2.324408 -1.16438,-3.091576 -0.68506,-3.080085 -2.12236,-4.956274 -4.73188,-6.178217 -0.9466,-0.443259 -2.42008,-0.910618 -3.27514,-1.038738 -1.72357,-0.258256 -5.50129,-0.318957 -5.50129,-0.08872 0,0.08086 0.78504,1.141223 1.744,2.355953 2.38912,3.026301 2.56214,3.321985 2.56214,4.396465 v 0.940163 l -0.73351,-0.415249 c -1.37321,-0.778199 -3.3543,-2.389526 -3.79705,-3.089108 -0.24294,-0.383894 -0.54918,-1.395806 -0.68093,-2.248752 -0.46659,-3.020822 -2.05257,-5.949988 -4.71008,-8.698051 -3.09216,-3.19749 -6.52994,-5.2481 -9.94851,-5.93301 -0.69392,-0.139037 -1.32945,-0.21977 -1.95559,-0.232885 z m -0.50653,2.020797 c 5.21387,-0.415464 13.70264,6.215606 15.74475,12.299751 0.22135,0.659483 0.36775,1.435324 0.32572,1.723839 -0.0901,0.61826 -0.39422,0.613893 -3.57008,-0.05915 -2.43011,-0.514978 -3.08782,-0.738917 -4.50106,-1.531616 l -1.05666,-0.593917 1.12591,-0.549558 c 4.15778,-2.030388 1.67055,-7.076743 -4.38822,-8.902595 -0.98873,-0.297966 -2.38877,-0.613725 -3.11227,-0.70235 l -1.3157,-0.161417 1.08231,0.672777 c 1.99801,1.240587 2.66447,3.072297 1.34262,3.692883 -0.56352,0.264579 -0.9443,0.272961 -2.15307,0.04559 -1.59131,-0.299361 -8.76361,-2.763041 -8.76361,-3.010248 0,-0.292685 8.003,-2.825476 9.23936,-2.923994 z m -23.196501,1.139779 c 1.358028,-0.04833 2.756281,-0.01804 3.107141,0.06654 0.57519,0.138703 0.41631,0.257436 -1.610634,1.205085 -1.860086,0.869609 -2.579132,1.3727 -4.165086,2.916601 -4.458196,4.339942 -6.09503,10.05157 -6.09503,21.265193 0,2.88308 0.06823,5.72592 0.152601,6.31745 0.152116,1.06662 0.160498,1.05207 0.932271,-1.86308 2.01714,-7.61997 5.310121,-13.617123 9.663821,-17.598178 3.402187,-3.110982 6.863337,-4.532007 11.041067,-4.532007 4.3306,0 7.74195,1.628815 15.64088,7.464626 4.95283,3.659205 8.35996,6.086979 10.64354,7.585379 l 2.03253,1.33447 -2.63139,-0.12569 c -3.66561,-0.17482 -6.30558,-1.11755 -12.07722,-4.31144 -5.7043,-3.156638 -9.45433,-4.363196 -13.5673,-4.363196 -7.50268,0 -13.752626,4.475006 -18.217126,13.042766 -0.543375,1.0428 -0.900581,1.89634 -0.793777,1.89634 0.106705,0 0.441982,-0.49132 0.745048,-1.09172 1.186804,-2.35132 3.262361,-5.06649 5.493605,-7.18492 2.57071,-2.440708 4.46058,-3.609537 7.32481,-4.532004 1.72832,-0.556635 2.2607,-0.617029 5.5013,-0.625954 3.10905,-0.0086 3.82624,0.06142 5.38075,0.527378 2.62268,0.786211 4.65384,1.67992 9.20859,4.05392 4.72692,2.46372 7.14166,3.52926 9.81642,4.33115 2.43192,0.7291 6.29785,1.1663 7.76209,0.87733 0.69549,-0.13728 0.85943,-0.22153 0.46165,-0.23782 -1.09755,-0.0449 -5.11878,-0.75346 -5.32177,-0.9377 -0.10844,-0.0985 0.21371,-0.25046 0.71683,-0.33762 0.50313,-0.0872 1.3207,-0.27113 1.8171,-0.41032 l 0.90278,-0.25383 -1.1554,-0.60747 c -0.63579,-0.33408 -1.98392,-1.15658 -2.99558,-1.82858 -1.79051,-1.18936 -2.34535,-1.80914 -1.34647,-1.5045 0.86688,0.26437 5.80706,0.18685 6.91317,-0.10844 1.36708,-0.36498 2.78107,-1.694281 3.00071,-2.819254 0.17172,-0.879089 -0.32903,-2.953431 -0.89124,-3.69165 -0.26996,-0.354494 -0.30036,-0.269534 -0.2257,0.632115 0.0541,0.654773 -0.0124,1.041203 -0.17696,1.041203 -0.14467,0 -0.26288,-0.08962 -0.26288,-0.199615 0,-0.10997 -0.70294,-1.21017 -1.56191,-2.444671 -0.85897,-1.234502 -1.52267,-2.282761 -1.47471,-2.328845 0.20448,-0.196406 3.89026,0.878712 4.99734,1.457684 3.5253,1.843649 5.18099,5.294028 4.52927,9.438603 -0.1536,0.97631 -0.33814,2.08519 -0.41035,2.46438 l -0.13208,0.69003 0.58475,-0.65799 c 0.32108,-0.36177 0.7232,-1.08498 0.8938,-1.60801 0.46573,-1.42775 0.62966,-1.45612 0.91945,-0.15772 0.77976,3.49368 -0.073,6.89615 -2.70962,10.81249 -1.21881,1.8104 -1.75947,2.12798 -5.11531,3.00532 -1.38569,0.36227 -2.83846,0.5107 -5.91421,0.60377 -5.59801,0.16942 -9.41716,-0.3364 -14.54318,-1.92468 -2.59556,-0.80422 -8.17565,-3.09206 -8.63922,-3.54256 -0.65078,-0.63243 3.03031,0.22991 7.40816,1.73616 0.92798,0.31929 -0.17078,-0.3361 -2.11332,-1.26053 -2.0363,-0.96898 -3.36322,-1.29998 -6.22968,-1.55503 l -1.85941,-0.16511 -0.4219,-1.14964 c -1.47565,-4.01776 -3.51562,-6.00037 -6.43357,-6.25461 -2.7031,-0.23551 -5.25226,0.92662 -8.210912,3.74464 -1.938452,1.8463 -5.225593,6.32178 -5.225593,7.11468 0,0.0804 0.661112,-0.71569 1.468296,-1.76943 2.24596,-2.93203 5.746359,-6.16179 7.655659,-7.06416 3.55043,-1.67801 6.8084,-1.02031 8.47379,1.71028 1.00541,1.64847 1.49823,3.09828 3.08791,9.0751 0.82463,3.10049 1.85205,6.45117 2.28259,7.44491 0.90766,2.09501 2.36834,3.72587 3.53673,3.95041 0.41863,0.0804 0.76172,0.23689 0.76172,0.34748 0,0.39462 -1.61837,0.19177 -2.65447,-0.33269 -1.49652,-0.75755 -2.92391,-2.58064 -5.09351,-6.50721 -3.72164,-6.73543 -4.94321,-8.34987 -7.12604,-9.41272 -1.43057,-0.69658 -3.33052,-0.78032 -4.59596,-0.20332 -1.243037,0.56679 -1.2485,0.75911 -0.0192,0.62596 0.7087,-0.0768 1.07205,-0.0275 1.07205,0.14416 0,0.14283 -0.13725,0.26 -0.3052,0.26 -0.32714,0 -5.730608,2.58242 -9.561232,4.5702 -2.665185,1.38302 -2.586142,1.38569 -5.800088,-0.1454 -5.629763,-2.68193 -10.497794,-7.20038 -12.047717,-11.18092 -1.087991,-2.79411 -0.82067,-6.004481 0.766848,-9.208177 1.334181,-2.692444 4.165922,-5.704081 6.389971,-6.794312 1.366663,-0.669946 1.537564,-0.565259 0.868153,0.532307 -2.061385,3.379915 -2.467576,8.191159 -1.098977,13.032902 0.623081,2.2043 2.332381,6.10028 3.564945,8.12632 0.527567,0.86721 0.9592,1.63754 0.9592,1.71151 0,0.30656 -1.813076,-1.57227 -3.125097,-3.2382 -2.624662,-3.33265 -3.827741,-6.49361 -3.857321,-10.134788 -0.01985,-2.298699 0.267623,-3.91648 1.138731,-6.423422 0.640575,-1.843461 0.303508,-1.626216 -0.851484,0.548326 -3.311666,6.234947 -1.28685,12.865354 6.05143,19.809964 1.168962,1.10624 2.44928,2.23233 2.844261,2.50259 l 0.718118,0.49164 -0.641177,-0.97466 c -1.04774,-1.59479 -3.653825,-6.71117 -4.533122,-8.8989 -1.299762,-3.2339 -1.836772,-5.47013 -1.979954,-8.238443 -0.215891,-4.172602 0.573616,-6.403974 3.223838,-9.103443 0.857062,-0.87299 1.601538,-1.546501 1.652955,-1.497114 0.05137,0.04938 -0.02828,0.595312 -0.175683,1.212478 -0.852099,3.568934 -1.181352,8.307916 -0.732224,10.543876 0.170727,0.850432 0.197577,0.781642 0.3488,-0.919216 0.510545,-5.744313 1.145524,-8.479442 2.673709,-11.521005 1.408477,-2.803309 2.956804,-4.41557 5.31664,-5.536244 1.669481,-0.79283 2.001542,-0.86654 4.279216,-0.947556 z m 6.375861,1.070775 c 1.93218,-0.01073 3.50716,0.426093 7.63514,2.119373 5.14671,2.111154 6.81182,2.562567 9.94979,2.694806 1.92339,0.08107 2.78893,0.03384 2.98916,-0.161417 0.21689,-0.211405 0.18489,-0.343178 -0.13721,-0.571738 -0.26711,-0.189634 -0.41805,-0.6036 -0.41805,-1.144707 0,-0.466344 -0.16869,-1.162966 -0.37573,-1.547635 -0.20695,-0.384662 -0.33741,-0.737945 -0.28853,-0.784907 0.17272,-0.166028 3.42891,1.560168 4.43695,2.352257 0.56221,0.44175 1.23526,1.204628 1.49523,1.694265 0.82065,1.545695 0.61343,2.316997 -0.81302,3.031195 -0.8253,0.413223 -1.50669,0.51012 -4.15867,0.591453 -3.85827,0.118339 -4.64255,-0.04761 -8.06986,-1.695498 -3.04401,-1.463584 -4.39822,-1.737793 -7.12989,-1.44413 -3.99785,0.429783 -6.77625,1.779018 -10.106229,4.906593 -2.432891,2.284986 -4.422505,5.011436 -6.145041,8.42204 -1.127223,2.231892 -3.046873,7.060792 -3.046873,7.664242 0,0.19021 -0.123797,0.34624 -0.274424,0.34624 -0.437911,0 -0.08085,-7.46448 0.48473,-10.136016 2.110494,-9.970329 7.524491,-16.30067 13.972527,-16.336416 z m 19.25199,9.465708 c 1.23191,0 1.76409,0.164345 4.13559,1.282713 3.35857,1.583855 5.48234,2.276603 8.09678,2.639357 l 2.01715,0.279708 2.57625,2.188375 c 1.41706,1.203533 2.52326,2.27095 2.45827,2.371972 -0.065,0.101028 -0.51812,0.289801 -1.00665,0.420178 -2.49113,0.664791 -7.38676,-0.0542 -9.34323,-1.372663 -1.78991,-1.206223 -10.05361,-7.352238 -10.20754,-7.591542 -0.0829,-0.12895 0.43976,-0.218096 1.27338,-0.218098 z m 31.50103,15.397484 c 0.4752,0 2.47076,1.33565 2.86991,1.92099 0.54682,0.80194 0.72714,2.90453 0.35777,4.17221 -0.16824,0.57719 -0.88493,1.99125 -1.59268,3.14209 -0.70775,1.15083 -1.24225,2.13573 -1.18746,2.18837 0.0548,0.0526 0.47485,-0.2217 0.93355,-0.6087 0.45871,-0.38699 0.90099,-0.70358 0.98229,-0.70358 0.56347,0 -0.46901,4.27084 -1.46189,6.0476 -0.89758,1.60625 -3.22128,3.79198 -4.96784,4.67371 -0.78924,0.39845 -2.18761,0.94903 -3.10843,1.22233 -1.87968,0.55791 -5.95354,0.80542 -7.83005,0.47563 -2.616,-0.45974 -4.62661,-1.29042 -6.64003,-2.74409 -1.19824,-0.86512 -2.87119,-2.61864 -2.87119,-3.00902 0,-0.0901 0.5264,0.0789 1.16951,0.37459 1.42053,0.65324 3.87017,1.22997 5.16917,1.21741 0.86125,-0.008 0.78671,-0.0528 -0.75018,-0.4399 -2.0936,-0.5274 -3.59991,-1.24564 -5.47181,-2.60855 -1.72181,-1.25364 -5.93576,-5.34193 -5.25893,-5.10251 1.40714,0.49773 6.0438,1.49412 8.10704,1.74232 3.18563,0.38323 8.47953,0.1637 11.11417,-0.46084 4.99412,-1.18383 8.76352,-3.30791 10.21138,-5.75434 0.11217,-0.18961 -0.1559,-0.0552 -0.59629,0.29942 -0.71262,0.57375 -2.90004,1.7682 -3.23795,1.7682 -0.0712,0 0.28851,-0.59411 0.80019,-1.32091 1.22802,-1.74422 1.77054,-2.81587 2.44032,-4.8265 0.30525,-0.9164 0.67376,-1.66593 0.81943,-1.66593 z m -79.626503,3.90605 c 0.146657,0 0.471383,0.22349 0.721966,0.49534 0.250582,0.27187 1.424407,1.26995 2.608308,2.21795 1.183901,0.94802 2.184585,1.80295 2.224885,1.90004 0.0402,0.0971 -0.433819,0.0291 -1.054096,-0.15032 -2.377231,-0.68747 -4.638781,-0.30601 -5.865488,0.98822 -0.50774,0.53569 -0.51674,0.57875 -0.08848,0.41401 3.245088,-1.24837 6.326487,-1.0074 10.358857,0.80832 1.118488,0.50363 1.984121,0.96204 1.924814,1.01902 -0.05931,0.057 -1.071031,0.005 -2.24925,-0.11582 -3.586791,-0.36696 -5.700909,0.0711 -6.230959,1.2901 -0.500966,1.15205 -0.412489,1.28353 0.362907,0.53847 0.425578,-0.40893 0.950381,-0.67154 1.341342,-0.67154 0.579258,0 0.627508,0.0621 0.486012,0.63211 -0.256016,1.03115 -1.356904,2.99142 -2.228731,3.97013 -0.447366,0.50218 -0.886173,0.90793 -0.974589,0.90196 -0.44682,-0.0302 -2.943667,-2.1745 -3.78038,-3.24682 -1.847257,-2.36735 -1.973734,-3.54494 -0.666825,-6.17083 1.127546,-2.26552 2.775525,-4.82034 3.109709,-4.82034 z m 38.704013,2.06885 c 0.61752,0 3.77777,1.14826 5.33844,1.93948 3.59635,1.82327 7.0536,4.92528 9.50225,8.52677 0.76976,1.13216 2.44375,3.09686 3.71882,4.36443 2.53521,2.52032 3.0711,3.4799 3.61239,6.46655 0.27133,1.49717 0.16698,7.71349 -0.16927,10.07318 -0.11489,0.80591 -0.0311,0.70297 0.68735,-0.83666 1.62702,-3.48669 2.78566,-5.2805 5.01015,-7.75789 0.91233,-1.01604 1.62218,-2.7595 1.62218,-3.98368 0,-0.65727 0.005,-0.65895 1.37468,-0.59022 l 1.37469,0.069 0.40009,1.37883 c 0.46442,1.60216 0.55232,4.72275 0.17697,6.27556 -0.14343,0.59317 -0.85229,2.24538 -1.57602,3.6707 -1.61421,3.17908 -1.94431,3.393 -5.82188,3.78899 l -2.60318,0.26616 -0.14234,1.27285 c -0.41221,3.69042 -1.39622,6.17943 -3.40465,8.61057 -0.61907,0.74934 -2.85609,2.81742 -4.97041,4.59608 -2.11434,1.77866 -5.01352,4.24989 -6.44255,5.49188 -3.34626,2.90832 -5.90486,4.77258 -8.07883,5.88619 -0.95577,0.4896 -2.16805,0.94566 -2.69422,1.01286 -2.15169,0.2748 -5.13999,-0.88506 -8.25323,-3.20247 -0.98586,-0.73384 -3.030611,-2.15751 -4.543386,-3.16427 -5.862901,-3.90181 -9.148214,-6.79624 -10.187021,-8.97653 -1.02908,-2.1599 -1.715062,-5.317 -2.022273,-9.29689 -0.158071,-2.04864 -0.227541,-3.78369 -0.1526,-3.85553 0.07469,-0.0718 0.291056,0.22434 0.479601,0.65799 0.519875,1.19557 1.8332,2.50125 3.03405,3.01764 1.480142,0.63649 4.263691,0.60884 6.85803,-0.069 l 1.954307,-0.51136 -0.314176,-0.8576 c -1.1036,-3.0056 -2.946862,-5.15955 -5.358958,-6.2657 -1.339368,-0.61422 -1.930858,-0.73864 -4.086863,-0.85638 l -2.521108,-0.138 0.657847,-0.42881 c 0.402947,-0.26258 1.283403,-0.47861 2.272332,-0.55818 1.202785,-0.0968 1.462411,-0.17245 1.016907,-0.29573 -0.940763,-0.26032 -2.612513,-0.23542 -3.185368,0.0468 -0.287333,0.14156 -0.859719,0.5642 -1.272095,0.93893 -1.103947,1.00313 -1.678313,0.81839 -2.898121,-0.93031 -1.150351,-1.64908 -1.251232,-2.19726 -0.478318,-2.59746 0.721001,-0.37333 4.124994,-0.30437 6.474606,0.13061 2.126798,0.39373 3.450171,1.18574 5.325617,3.18892 2.826483,3.01896 5.343688,7.74937 5.966794,11.21172 0.100501,0.55812 0.228016,0.88931 0.283396,0.73685 0.1886,-0.51948 -0.683471,-4.30265 -1.408021,-6.10798 -0.397388,-0.99014 -1.255275,-2.56395 -1.905578,-3.49819 -1.21085,-1.73956 -5.855205,-6.19957 -7.860831,-7.54842 -0.9894,-0.66539 -1.230252,-0.7233 -2.989167,-0.7233 -1.052357,0 -2.519487,0.0829 -3.259745,0.18483 -1.280555,0.17638 -1.351998,0.16058 -1.482401,-0.34378 -0.256538,-0.99228 -0.697672,-9.63983 -0.591165,-11.59001 0.144671,-2.64906 0.21616,-2.70051 2.94172,-2.14894 2.670992,0.54051 4.79468,0.5691 6.006547,0.0826 0.507195,-0.20364 2.430304,-1.20363 4.274086,-2.22288 6.414715,-3.54604 9.706735,-4.73051 11.338575,-4.08102 1.04536,0.41607 2.88272,2.41774 4.3241,4.71067 1.47865,2.35224 3.40901,6.29077 3.22384,6.57868 -0.22756,0.35368 -6.56842,3.91336 -8.59819,4.8265 -1.05235,0.47343 -2.69795,1.08741 -3.65727,1.36527 l -1.745285,0.5052 0.400094,0.60624 c 0.616133,0.93705 1.340611,1.40033 2.199241,1.40593 0.93796,0.006 2.01675,-0.5068 8.39044,-3.99354 l 4.8691,-2.664 0.87072,0.65676 c 0.47883,0.36148 1.23744,0.83892 1.68629,1.05969 1.0531,0.51796 3.30869,0.71083 4.36898,0.37458 1.18845,-0.37688 2.33555,-1.60147 2.51598,-2.68618 l 0.15004,-0.8995 -0.66554,0.7541 c -0.75637,0.85878 -1.77195,1.42811 -2.54804,1.42811 -0.58283,0 -2.60446,-1.05474 -2.60446,-1.35911 0,-0.24243 0.8798,-0.41097 3.19306,-0.6124 1.0067,-0.0876 1.82992,-0.24128 1.82992,-0.34008 0,-0.3527 -2.54389,-0.99888 -4.42412,-1.12376 l -1.91199,-0.12692 -0.75659,-2.41879 c -1.59253,-5.10068 -2.44725,-8.49721 -2.13897,-8.49721 z m -34.913374,10.82729 c 0.04938,0.0495 0.209052,1.64039 0.355212,3.53639 0.146161,1.89599 0.318847,3.83498 0.384707,4.30898 0.06576,0.474 0.02099,0.86253 -0.102589,0.86253 -0.36081,0 -2.206803,-1.43785 -2.750649,-2.14278 -0.806514,-1.04544 -0.689397,-2.74706 0.294941,-4.30159 0.898032,-1.41826 1.685047,-2.39738 1.818378,-2.26353 z m 38.988694,0.89334 c 0.46819,0 0.85149,0.10402 0.85149,0.23042 0,0.12639 -0.31713,0.22918 -0.70402,0.22918 -0.38686,0 -0.77016,-0.10279 -0.85148,-0.22918 -0.0879,-0.13678 0.19754,-0.23042 0.70401,-0.23042 z m -4.78446,0.76149 c 0.12333,0.0393 0.26046,0.17783 0.3052,0.30682 0.0953,0.27461 -9.71218,6.10703 -10.90899,6.48749 -0.94967,0.30189 -1.37984,0.30582 -2.11716,0.0209 -0.74639,-0.28827 -0.67234,-0.59852 0.18209,-0.76273 1.03211,-0.19833 4.07934,-1.65081 8.4879,-4.04529 2.10474,-1.14316 3.92763,-2.04656 4.05096,-2.00724 z m 42.44336,0.8687 0.96689,1.39114 c 1.01444,1.45974 1.69239,3.24213 1.68502,4.4322 -0.002,0.38786 -0.39633,1.58468 -0.87457,2.65907 -0.47824,1.0744 -1.16323,2.78026 -1.52215,3.79146 l -0.65272,1.83843 -0.26545,-0.91921 c -0.14616,-0.5056 -0.27578,-1.69506 -0.28725,-2.64306 l -0.0192,-1.7226 -0.37317,0.80339 c -0.95044,2.05075 -0.52473,4.42072 1.02973,5.73216 1.56663,1.3217 2.25709,1.19736 3.46236,-0.62226 0.76785,-1.1592 0.94253,-0.95124 0.94253,1.1213 0,1.39848 -0.4331,2.73954 -1.12206,3.47109 -0.21267,0.22583 -0.68398,0.41032 -1.0464,0.41032 -1.8211,0 -6.67008,-5.29378 -8.93929,-9.7602 -1.02707,-2.02152 -1.95763,-5.14638 -1.61833,-5.43274 0.0931,-0.0785 0.69217,-0.26397 1.33108,-0.41279 1.65891,-0.38637 4.10047,-1.63674 5.82189,-2.98067 z m -27.84248,2.08733 c -0.13843,-0.0259 -0.4456,0.11233 -1.02332,0.39554 -0.89959,0.44099 -5.0216,1.70683 -6.44767,1.98013 -0.49231,0.0943 -1.23796,0 -2.03253,-0.25753 -2.74135,-0.88832 -5.62277,-0.10926 -7.83262,2.11937 -1.04742,1.05633 -1.05453,1.07176 -0.2398,0.57051 1.87646,-1.15458 3.95391,-1.95433 5.31792,-2.04914 0.91826,-0.0638 1.37981,-0.01 1.37981,0.16142 0,0.14159 -0.16479,0.25753 -0.36547,0.25753 -0.73529,0 -3.60969,1.59478 -4.6216,2.56419 -1.96642,1.88388 -2.65923,3.88187 -2.66345,7.68149 -0.002,1.40093 0.0545,2.60301 0.12567,2.6714 0.0712,0.0684 1.2282,-0.12388 2.57112,-0.42757 9.86088,-2.2299 12.10684,-3.8415 12.53758,-8.99748 0.13648,-1.63483 0.16741,-1.70011 1.1554,-2.47794 0.96101,-0.75667 1.75444,-2.08686 2.14922,-3.60047 0.0978,-0.37501 0.12846,-0.56514 -0.0103,-0.59145 z m 7.81723,1.45399 c 0.0551,-0.0528 0.75119,0.0981 1.54781,0.33639 0.79663,0.23823 2.33525,0.56392 3.41875,0.7233 l 1.9697,0.28956 -0.16286,1.04613 c -0.18413,1.17933 -0.65583,2.18378 -1.38494,2.94987 -0.55469,0.58284 -0.85992,0.36752 -0.90022,-0.63458 -0.0149,-0.35284 -0.2333,0.0471 -0.56808,1.03505 -0.29974,0.88479 -0.9024,2.35754 -1.33878,3.27393 -0.43637,0.9164 -0.88176,1.66593 -0.98997,1.66593 -0.1082,0 -0.1962,-1.2331 -0.1962,-2.74163 0,-2.79272 -0.37809,-5.16476 -1.0977,-6.89289 -0.21887,-0.5254 -0.3525,-0.99821 -0.29751,-1.05106 z m -15.22795,2.82049 1.07718,0.15649 c 0.59196,0.0864 1.43608,0.26503 1.87736,0.39676 l 0.80276,0.24028 -0.16799,1.52423 c -0.38761,3.5169 -2.47994,5.70353 -6.69902,7.00132 -0.65772,0.20232 -2.52248,0.66863 -4.14457,1.03627 -2.47284,0.56046 -2.97085,0.61471 -3.0815,0.33762 -0.25837,-0.64695 0.12093,-4.55145 0.5309,-5.4697 0.44846,-1.00432 1.96766,-3.10267 2.24668,-3.10267 0.0958,0 0.12868,0.60519 0.0731,1.34556 -0.2144,2.84955 1.66955,4.85977 4.55492,4.85977 2.08474,0 3.42385,-0.75023 4.30614,-2.4114 0.89444,-1.68399 0.54121,-3.87299 -0.86558,-5.37113 z m -2.45443,0.13924 c 0.67415,0.0855 1.32816,0.37878 1.96072,0.87978 2.15541,1.70717 2.00377,4.58726 -0.32187,6.0932 -0.84403,0.54654 -2.72096,0.70081 -3.73165,0.30681 -0.83699,-0.32626 -2.01836,-1.67337 -2.17615,-2.48163 -0.38992,-1.9971 0.40226,-3.59928 2.19026,-4.43097 0.71067,-0.33058 1.40452,-0.45273 2.07869,-0.36719 z m -0.41163,0.71713 c -0.089,-0.0169 -0.1975,-0.0143 -0.32957,0.005 -0.17618,0.0257 -0.39357,0.0818 -0.66041,0.16635 -1.06136,0.33615 -2.00304,1.52019 -2.00304,2.51737 0,0.84035 0.55517,1.88738 1.24773,2.35349 0.3061,0.20601 1.02909,0.35857 1.69912,0.35857 1.00779,0 1.27744,-0.10618 1.97996,-0.78121 0.67886,-0.65232 0.81301,-0.94943 0.81301,-1.79531 0,-0.55728 -0.14837,-1.20839 -0.32957,-1.44659 -0.30954,-0.40677 -0.35484,-0.4082 -0.73478,-0.0431 -0.53574,0.51477 -1.32724,0.13305 -1.32724,-0.63951 0,-0.4238 -0.0884,-0.64411 -0.35521,-0.69496 z m -31.786998,0.7652 c 1.703826,-0.0155 2.789986,0.32006 3.427733,1.05845 0.267754,0.31 0.232261,0.35562 -0.256471,0.33392 -0.312074,-0.0138 -1.052015,-0.12363 -1.643978,-0.24397 -0.591938,-0.12034 -2.179431,-0.15755 -3.527756,-0.0826 -1.563894,0.087 -2.450579,0.0537 -2.450579,-0.0924 0,-0.56375 1.763706,-0.94913 4.451051,-0.97343 z m 59.356328,1.29133 c -0.0643,-0.0618 -0.34857,0.56349 -0.63092,1.38992 -0.70222,2.05547 -2.31453,4.48272 -2.97891,4.48272 -0.1345,0 -0.17053,-0.4234 -0.0859,-1.01779 0.27069,-1.89768 -1.06242,-2.56983 -1.91583,-0.96604 -0.37737,0.70911 -0.37514,0.71329 0.0885,0.31667 0.81495,-0.6972 1.02973,-0.50049 1.02973,0.93893 0,0.73733 0.0727,1.40915 0.16029,1.49342 0.68971,0.66272 2.23381,-0.52014 3.26103,-2.49766 0.58462,-1.12544 1.30692,-3.9145 1.07205,-4.14017 z m -55.614419,5.42289 c 0.402451,-0.03 0.681762,0.0186 0.61553,0.16265 -0.796587,1.73297 -0.960289,2.42018 -0.809165,3.38853 0.278301,1.78323 2.135829,3.33308 3.995816,3.33308 0.812643,0 2.271422,-0.54559 2.885296,-1.0794 0.480469,-0.41781 0.539071,-0.39351 0.766848,0.31914 0.13822,0.43234 0.03294,0.5392 -0.747612,0.76642 -0.499626,0.14547 -2.038809,0.31465 -3.420039,0.37459 -2.243354,0.0973 -2.620983,0.0547 -3.536733,-0.3943 -1.131144,-0.55461 -2.137561,-1.8109 -2.795532,-3.48834 l -0.427024,-1.08803 0.660413,-0.83173 c 0.363317,-0.45771 1.020465,-0.97714 1.459319,-1.15333 0.425627,-0.17087 0.950408,-0.27926 1.352883,-0.30928 z m 2.168461,0.44975 c 1.529649,0 1.92386,1.42984 0.432154,1.56735 -0.761475,0.0702 -0.794661,0.11091 -0.656566,0.80462 0.08338,0.41856 0.514029,1.06018 1.009213,1.50327 0.804479,0.71986 0.953067,0.76594 2.153073,0.67032 0.708965,-0.0565 1.290048,-0.0189 1.290048,0.0838 0,0.10262 -0.426718,0.39523 -0.94766,0.65059 -1.137422,0.55757 -2.01266,0.58147 -3.066109,0.0826 -1.70854,-0.80917 -2.32938,-2.5543 -1.527283,-4.29666 0.446422,-0.96974 0.566098,-1.06584 1.31313,-1.06584 z m 23.002868,12.60903 0.71043,0.58159 0.71042,0.5816 -0.49242,0.64074 c -2.18192,2.83394 -11.58209,6.73024 -16.237173,6.73024 -1.278768,0 -1.792731,-0.17743 -1.792731,-0.61856 0,-0.50431 -0.585464,-0.22632 -0.669389,0.3179 -0.05931,0.38475 0.125538,0.51686 1.03486,0.73685 0.729711,0.17657 1.489119,0.60817 2.224883,1.26423 1.09655,0.97779 2.19892,1.63011 3.38798,2.00478 1.04521,0.32936 3.18536,0.0594 4.46388,-0.56311 1.80331,-0.87805 4.20607,-3.51486 6.39381,-7.01487 2.00258,-3.20378 2.3498,-3.61949 2.79682,-3.35403 0.17519,0.10405 0.24086,0.0453 0.17312,-0.15403 -0.12631,-0.37196 -0.96588,-0.79734 -1.98637,-1.0067 z m -15.996085,1.06215 c -0.07916,-0.0473 -0.362728,0.12484 -0.819424,0.53477 -1.882519,1.68976 -0.982578,3.45972 2.081259,4.09335 2.47639,0.51214 2.64502,0.34982 0.38727,-0.37213 -0.852791,-0.27268 -1.785022,-0.67967 -2.072281,-0.90319 -0.688841,-0.53599 -0.680988,-1.6627 0.01795,-2.57036 0.359942,-0.46778 0.484284,-0.73519 0.405223,-0.78244 z m 7.941615,0.11706 c -0.4012,0 -0.17839,0.49802 0.46037,1.02888 0.36175,0.30061 0.69679,0.44278 0.74377,0.31667 0.0935,-0.25095 -0.8862,-1.34555 -1.20414,-1.34555 z m 36.00851,2.13539 c -0.0462,0.0443 0.0698,0.8524 0.25775,1.79654 0.47777,2.3994 0.93169,8.48974 0.73992,9.92531 -0.0878,0.658 -0.28797,1.42262 -0.44498,1.6992 -0.15708,0.27657 -1.41457,1.22259 -2.79553,2.10212 -1.80181,1.14757 -3.26997,2.31323 -4.6075,3.57459 h 1.68758 c 2.58492,-2.19906 5.91932,-4.16799 9.49583,-5.52269 l 1.43624,-0.54463 -1.47984,0.0592 -1.48111,0.0579 -0.13465,-1.72384 c -0.25942,-3.33355 -0.65216,-6.01153 -1.12206,-7.64083 -0.48918,-1.6962 -1.40363,-3.92508 -1.55165,-3.78283 z m -37.02157,0.0246 c -0.4653,-0.17156 -1.81453,0.53398 -1.81453,0.94879 0,0.43228 0.12501,0.42515 1.23106,-0.0641 0.96506,-0.42684 1.1331,-0.68206 0.58347,-0.88472 z m 7.035,2.39292 c 0,0.11152 -0.41301,0.81356 -0.91688,1.55996 -1.04787,1.55219 -2.46172,2.85183 -3.83809,3.52653 -2.04756,1.00374 -4.78803,0.72957 -6.48615,-0.64813 l -0.83737,-0.67894 1.8312,0.002 c 2.85676,0.005 5.62276,-0.95199 8.87132,-3.0694 0.75639,-0.49301 1.37597,-0.804 1.37597,-0.69249 z"
       transform="matrix(0.40298097,0,0,0.41938583,14.238023,-31.572396)"
       sodipodi:nodetypes="sssscsssscssssssccsssssccccssscssscccsssssscsssccssccccscsccssscscsscccsssscccscccssscscccccssccscscccsssscccsssssssssssssccssssssssscccscccscssccccsscssscccsssscssscssscsscccssscscssscsccccssssssssccccssssssssssssssssssccsscsssscssscccscsccccsscsssccsccsssssssssscssscccssscssscssssssssssssssssscsscssssscsscsccssscsscsssssssccssccccscccsssssssscccscccscccsssccsssccssssssssscsscscccccccsscccsssscccscscscscssscsccscssccccsccccccsssssscscccsscscsssccsccccccscccsccsssccccccsssscscssccscsscsssscssssscssscssssscssscssscssscssscssscccsssscsssssssccccssscsssssccccssssccsscsccccscccccccscssssssscccss" />
  </g>
</svg>
