<?xml version="1.0" encoding="UTF-8" standalone="no"?>
<!-- Created with Inkscape (http://www.inkscape.org/) -->

<svg
   width="81mm"
   height="42mm"
   viewBox="0 0 81 42"
   version="1.1"
   id="svg1"
   inkscape:version="1.3.2 (091e20ef0f, 2023-11-25, custom)"
   sodipodi:docname="hakkebakke.svg"
   xmlns:inkscape="http://www.inkscape.org/namespaces/inkscape"
   xmlns:sodipodi="http://sodipodi.sourceforge.net/DTD/sodipodi-0.dtd"
   xmlns="http://www.w3.org/2000/svg"
   xmlns:svg="http://www.w3.org/2000/svg">
  <sodipodi:namedview
     id="namedview1"
     pagecolor="#ffffff"
     bordercolor="#666666"
     borderopacity="1.0"
     inkscape:showpageshadow="2"
     inkscape:pageopacity="0.0"
     inkscape:pagecheckerboard="0"
     inkscape:deskcolor="#d1d1d1"
     inkscape:document-units="mm"
     inkscape:zoom="2.5633442"
     inkscape:cx="125.22704"
     inkscape:cy="19.700826"
     inkscape:window-width="2560"
     inkscape:window-height="1415"
     inkscape:window-x="0"
     inkscape:window-y="0"
     inkscape:window-maximized="0"
     inkscape:current-layer="layer4" />
  <defs
     id="defs1">
    <inkscape:path-effect
       effect="fillet_chamfer"
       id="path-effect6"
       is_visible="true"
       lpeversion="1"
       nodesatellites_param="F,0,0,1,0,3.67,0,1 @ F,0,0,1,0,3.67,0,1 @ F,0,0,1,0,3.67,0,1 @ F,0,0,1,0,3.67,0,1"
       radius="3.67"
       unit="mm"
       method="auto"
       mode="F"
       chamfer_steps="1"
       flexible="false"
       use_knot_distance="true"
       apply_no_radius="true"
       apply_with_radius="true"
       only_selected="false"
       hide_knots="false" />
    <inkscape:path-effect
       effect="fillet_chamfer"
       id="path-effect5"
       is_visible="true"
       lpeversion="1"
       nodesatellites_param="F,0,0,1,0,3.67,0,1 @ F,0,0,1,0,3.67,0,1 @ F,0,0,1,0,3.67,0,1 @ F,0,0,1,0,3.67,0,1"
       radius="3.67"
       unit="mm"
       method="auto"
       mode="F"
       chamfer_steps="1"
       flexible="false"
       use_knot_distance="true"
       apply_no_radius="true"
       apply_with_radius="true"
       only_selected="false"
       hide_knots="false" />
    <inkscape:path-effect
       effect="fillet_chamfer"
       id="path-effect3"
       is_visible="true"
       lpeversion="1"
       nodesatellites_param="F,0,0,1,0,3.67,0,1 @ F,0,0,1,0,3.67,0,1 @ F,0,0,1,0,3.67,0,1 @ F,0,0,1,0,3.67,0,1"
       radius="3.67"
       unit="mm"
       method="auto"
       mode="F"
       chamfer_steps="1"
       flexible="false"
       use_knot_distance="true"
       apply_no_radius="true"
       apply_with_radius="true"
       only_selected="false"
       hide_knots="false" />
    <inkscape:path-effect
       effect="fillet_chamfer"
       id="path-effect2"
       is_visible="true"
       lpeversion="1"
       nodesatellites_param="F,0,0,1,0,0,0,1 @ F,0,0,1,0,0,0,1 @ F,0,0,1,0,0,0,1 @ F,0,0,1,0,0,0,1"
       radius="0"
       unit="px"
       method="auto"
       mode="F"
       chamfer_steps="1"
       flexible="false"
       use_knot_distance="true"
       apply_no_radius="true"
       apply_with_radius="true"
       only_selected="false"
       hide_knots="false" />
    <inkscape:path-effect
       effect="fillet_chamfer"
       id="path-effect1"
       is_visible="true"
       lpeversion="1"
       nodesatellites_param="F,0,0,1,0,0,0,1 @ F,0,0,1,0,0,0,1 @ F,0,0,1,0,0,0,1 @ F,0,0,1,0,0,0,1"
       radius="0"
       unit="px"
       method="auto"
       mode="F"
       chamfer_steps="1"
       flexible="false"
       use_knot_distance="true"
       apply_no_radius="true"
       apply_with_radius="true"
       only_selected="false"
       hide_knots="false" />
    <inkscape:path-effect
       effect="fillet_chamfer"
       id="path-effect5-9"
       is_visible="true"
       lpeversion="1"
       nodesatellites_param="F,0,0,1,0,3.67,0,1 @ F,0,0,1,0,3.67,0,1 @ F,0,0,1,0,3.67,0,1 @ F,0,0,1,0,3.67,0,1"
       radius="3.67"
       unit="mm"
       method="auto"
       mode="F"
       chamfer_steps="1"
       flexible="false"
       use_knot_distance="true"
       apply_no_radius="true"
       apply_with_radius="true"
       only_selected="false"
       hide_knots="false" />
    <inkscape:path-effect
       effect="fillet_chamfer"
       id="path-effect5-6"
       is_visible="true"
       lpeversion="1"
       nodesatellites_param="F,0,0,1,0,3.67,0,1 @ F,0,0,1,0,3.67,0,1 @ F,0,0,1,0,3.67,0,1 @ F,0,0,1,0,3.67,0,1"
       radius="3.67"
       unit="mm"
       method="auto"
       mode="F"
       chamfer_steps="1"
       flexible="false"
       use_knot_distance="true"
       apply_no_radius="true"
       apply_with_radius="true"
       only_selected="false"
       hide_knots="false" />
  </defs>
  <g
     inkscape:label="cut"
     inkscape:groupmode="layer"
     id="layer1">
    <path
       style="fill:#000000;fill-opacity:1;stroke:none;stroke-width:0.264583;stroke-opacity:1"
       id="rect1"
       width="99.260269"
       height="100.14645"
       x="66.410027"
       y="75.282455"
       sodipodi:type="rect"
       transform="matrix(0.40298097,0,0,0.41938583,-26.761977,-31.572395)"
       inkscape:path-effect="#path-effect3"
       d="M 70.080027,75.282455 H 162.0003 a 3.67,3.67 45 0 1 3.67,3.67 V 171.7589 a 3.67,3.67 135 0 1 -3.67,3.67 H 70.080027 a 3.67,3.67 45 0 1 -3.67,-3.67 V 78.952455 a 3.67,3.67 135 0 1 3.67,-3.67 z" />
    <path
       style="fill:#000000;fill-opacity:1;stroke:none;stroke-width:0.264583;stroke-opacity:1"
       id="path1"
       width="99.260269"
       height="100.14645"
       x="66.410027"
       y="75.282455"
       sodipodi:type="rect"
       transform="matrix(0.40298097,0,0,0.41938583,14.238023,-31.572395)"
       d="M 70.080027,75.282455 H 162.0003 a 3.67,3.67 45 0 1 3.67,3.67 V 171.7589 a 3.67,3.67 135 0 1 -3.67,3.67 H 70.080027 a 3.67,3.67 45 0 1 -3.67,-3.67 V 78.952455 a 3.67,3.67 135 0 1 3.67,-3.67 z"
       inkscape:path-effect="#path-effect5" />
  </g>
  <g
     inkscape:groupmode="layer"
     id="layer2"
     inkscape:label="tag">
    <circle
       style="fill:#ff0000;fill-opacity:1;stroke:none;stroke-width:0.264583;stroke-opacity:1"
       id="path3"
       cx="20"
       cy="21"
       r="12.75" />
  </g>
  <g
     inkscape:groupmode="layer"
     id="layer3"
     inkscape:label="magnets">
    <circle
       style="fill:#ff0000;fill-opacity:1;stroke:none;stroke-width:0.264583;stroke-opacity:1"
       id="path4"
       cx="7.25"
       cy="7"
       r="2.55" />
    <circle
       style="fill:#ff0000;fill-opacity:1;stroke:none;stroke-width:0.264583;stroke-opacity:1"
       id="path4-5"
       cx="32.75"
       cy="35"
       r="2.55" />
  </g>
  <g
     inkscape:groupmode="layer"
     id="layer4"
     inkscape:label="engrave"
     style="display:inline">
    <path
       id="path2"
       style="fill:#00ffff;fill-opacity:1;stroke:none;stroke-width:0.264583;stroke-opacity:1"
       d="M 99.973284 80.291323 C 94.07869 79.741155 85.524519 83.418481 82.095985 88.396689 L 79.930089 91.542478 L 81.438137 97.740409 C 82.267391 101.14945 83.569363 104.65759 84.331128 105.53649 C 85.651395 107.05979 85.59327 107.10816 83.089809 106.54936 C 81.645368 106.22694 79.37936 105.21177 78.055287 104.29444 C 76.731213 103.37712 75.648308 103.02254 75.648308 103.50584 C 75.648308 103.98914 76.929035 105.16369 78.493852 106.11563 L 81.338113 107.84562 L 78.274569 107.27635 C 75.962113 106.84615 75.448367 106.94559 76.179203 107.68298 C 77.21092 108.72395 85.422411 109.09883 86.976625 108.17585 C 87.486554 107.87303 87.903767 107.9681 87.903767 108.38779 C 87.903767 109.49873 81.399809 112.14105 78.664405 112.14105 C 77.377256 112.14105 75.981745 111.62016 75.56239 110.98402 C 74.933532 110.03006 74.801997 110.04806 74.810931 111.08876 C 74.816939 111.78273 75.976361 113.43939 77.38718 114.76932 C 79.964012 117.19841 80.618865 117.26779 85.934071 115.68484 C 87.548617 115.204 87.903767 115.4194 87.903767 116.87883 C 87.903767 118.30957 87.345775 118.67576 85.059505 118.74314 C 83.494688 118.78926 81.228684 119.13193 80.024983 119.50464 C 78.702157 119.91423 80.000746 119.99999 83.307809 119.7215 L 88.779615 119.26066 L 88.779615 121.74969 C 88.779615 123.97293 88.265871 124.44287 83.964375 126.15601 C 81.316188 127.21069 78.911826 128.44394 78.620805 128.89641 C 78.329774 129.34888 79.610464 128.98194 81.466349 128.08193 C 87.663387 125.07669 88.180857 125.1024 91.993194 128.58713 C 93.929212 130.35679 95.931934 132.52412 96.444245 133.40377 C 96.956562 134.28342 98.587547 135.3953 100.06818 135.87432 C 103.25523 136.90542 103.64091 138.39269 100.75167 138.50998 C 99.628435 138.55558 97.679837 138.84101 96.421163 139.14456 C 95.16249 139.44811 93.078441 139.23523 91.790582 138.6714 C 89.706029 137.75877 89.267624 137.86258 87.794767 139.61033 C 86.884826 140.6901 85.89555 143.04216 85.596812 144.83729 C 85.208501 147.17066 84.622217 148.10137 83.538633 148.10137 C 80.422355 148.10137 74.210971 154.55307 71.815351 160.27914 C 70.552881 163.29673 68.451093 168.32117 67.143735 171.44404 C 66.998103 171.79191 66.793188 172.17741 66.620535 172.54439 A 3.67 3.67 0 0 0 67.596406 174.28917 C 67.767731 174.09903 67.891484 173.9391 68.143972 173.69649 C 69.686413 172.21437 73.969404 172.13014 75.790649 173.54616 C 76.273173 173.92132 76.942161 174.65374 77.589792 175.42895 L 80.208359 175.42895 C 80.28637 175.29995 80.394521 175.28345 80.543054 175.42895 L 131.89621 175.42895 C 133.87246 174.27135 137.91791 172.50151 138.86196 172.5333 C 139.48299 172.5542 138.21898 173.48365 136.05232 174.59845 C 135.18696 175.04371 134.87739 175.13377 134.25189 175.42895 L 136.9987 175.42895 C 138.08905 174.82442 139.2427 174.21915 140.42899 173.67554 C 143.12673 172.43931 146.66582 169.66429 144.80695 170.24265 C 144.08473 170.46736 142.70509 170.92742 141.74212 171.26537 L 139.99171 171.88024 L 141.74212 170.53222 C 142.70509 169.79071 143.96294 169.17187 144.53637 169.15709 C 145.1098 169.14238 145.86299 168.68795 146.21113 168.14669 C 146.64945 167.4652 146.32888 167.33846 145.16857 167.73637 C 141.36806 169.03966 149.22054 163.87782 156.95854 159.98588 C 158.02306 159.45046 161.9571 157.0966 165.67085 154.83777 L 165.67085 153.44663 C 165.14715 153.78502 164.49498 154.14834 164.06534 154.43854 C 161.89868 155.90204 157.0828 158.69195 153.36282 160.63894 C 149.64283 162.58593 146.36995 164.53623 146.0893 164.97256 C 145.80865 165.40889 145.18456 165.76609 144.70308 165.76609 C 144.22161 165.76609 144.13474 165.2921 144.51073 164.7138 C 144.88671 164.13549 145.27965 163.12666 145.38273 162.47121 C 145.48582 161.81575 146.77961 160.11734 148.25777 158.697 C 150.65155 156.39686 151.14482 156.23489 152.7755 157.21344 C 155.44807 158.8172 155.55032 158.04741 153.0371 155.237 C 151.80062 153.85432 151.01109 152.11631 151.23924 151.27797 C 151.46293 150.45598 151.37435 149.78332 151.04176 149.78332 C 150.70917 149.78332 149.70464 148.55268 148.81046 147.04908 C 147.91628 145.54547 146.15777 143.22943 144.90184 141.90221 C 142.68642 139.56102 142.6767 139.50628 144.58767 140.06624 C 145.89073 140.44807 146.55736 140.29214 146.55736 139.6054 C 146.55736 139.03446 146.3063 138.80914 145.99954 139.1039 C 145.3479 139.73005 140.42899 136.54752 140.42899 135.49973 C 140.42899 135.10902 142.49718 135.88444 145.02495 137.22357 C 147.55272 138.56271 150.11419 139.66606 150.71604 139.6744 C 152.85713 139.70422 151.75052 138.40673 148.52193 137.10159 L 145.24423 135.77698 L 149.09514 135.83982 C 151.21302 135.87474 153.09891 135.48015 153.28716 134.9625 C 153.50377 134.3668 152.81812 134.17068 151.41877 134.42773 C 148.41723 134.97906 142.88258 133.90965 143.52973 132.9035 C 143.81712 132.45669 144.40751 132.30194 144.84157 132.55972 C 146.49058 133.539 151.0732 130.20882 154.09504 125.83564 C 156.87276 121.81574 157.19131 120.81691 156.83159 117.23986 C 156.34011 112.35263 155.77555 110.13983 154.36562 107.56838 C 152.92028 104.93236 152.25268 104.60733 147.00875 103.97777 C 142.83438 103.47662 142.36422 103.18842 141.03042 100.32185 C 138.17687 94.189084 136.14775 91.917752 131.23836 89.362728 C 122.77934 84.960338 114.15132 85.051422 111.06693 89.574665 C 109.3901 92.03373 110.75131 96.098605 113.77141 97.651691 C 114.95208 98.258847 115.91808 99.06992 115.91808 99.45439 C 115.91808 99.838859 116.60662 100.18316 117.44921 100.21835 C 119.72919 100.31359 113.24123 102.53934 110.46679 102.61373 C 109.15436 102.64893 106.79072 101.92189 105.21427 100.99833 C 103.63781 100.07476 101.68682 99.316857 100.87863 99.315152 C 99.343853 99.311868 96.280039 96.871778 96.973858 96.205096 C 97.193563 95.99399 100.06859 95.616543 103.36255 95.367205 C 106.65651 95.117867 109.51601 94.768143 109.71661 94.589691 C 110.83659 93.593471 108.27956 93.361317 101.98914 93.888573 C 96.458527 94.352146 94.907985 94.766981 94.907985 95.77999 C 94.907985 97.548643 97.484642 100.15428 99.234648 100.15428 C 100.02118 100.15428 102.12682 100.87017 103.91268 101.74504 C 108.54869 104.01616 110.86406 104.42826 114.04584 103.55143 C 117.4622 102.60996 124.34604 104.36294 126.8899 106.82167 C 130.00651 109.834 130.89495 111.1005 130.41509 111.84656 C 129.62709 113.0717 135.13329 113.4117 136.74222 112.23716 C 137.56648 111.63544 137.8274 111.13065 137.32185 111.11587 C 136.81629 111.10115 135.92993 111.54274 135.35215 112.09792 C 133.95417 113.44125 133.99327 111.76333 135.39575 110.22869 C 135.9976 109.57013 135.60105 109.74397 134.51478 110.61559 C 131.31001 113.18708 131.40948 111.60952 134.65455 108.39888 C 138.04685 105.04257 142.1464 104.05244 148.1244 105.14343 C 150.18977 105.52036 151.9625 105.97078 152.06379 106.1452 C 152.16507 106.31963 152.76644 107.34866 153.40001 108.43215 C 154.03358 109.51564 154.77389 112.94791 155.04527 116.05819 C 155.49263 121.18567 155.31871 122.04677 153.18329 125.29718 C 149.43765 130.99856 140.57467 133.54961 134.81485 130.58328 C 131.9358 129.10056 131.74798 128.8035 132.95672 127.64204 C 134.52183 126.13815 134.72106 124.548 133.34399 124.548 C 132.81743 124.548 132.17614 125.32066 131.91929 126.26445 C 131.47736 127.88829 131.36388 127.90271 129.80725 126.54908 C 128.00733 124.98404 126.3349 125.64121 128.01324 127.2539 C 129.3001 128.49041 129.37565 131.27701 128.12224 131.27701 C 127.61235 131.27701 127.44421 130.80426 127.74908 130.22595 C 128.05393 129.64764 127.69428 129.89438 126.95017 130.77427 C 125.63133 132.33379 125.50842 132.3179 122.08876 130.14339 C 120.15934 128.91651 117.72608 127.91312 116.68108 127.91312 C 115.34778 127.91312 116.06061 128.56054 119.0701 130.08548 C 121.42885 131.28067 123.71769 132.59151 124.1572 132.99838 C 125.55709 134.29432 120.09603 135.65408 115.69879 135.1042 C 113.06918 134.77536 111.54012 134.90388 111.54012 135.45414 C 111.54012 136.26916 115.88503 136.76584 121.3886 136.57914 C 122.71267 136.53421 123.79686 136.84891 123.79686 137.27902 C 123.79686 137.70913 124.63751 138.3603 125.66525 138.72562 C 127.41038 139.34593 127.3184 139.51168 124.28415 141.2319 C 122.49723 142.24497 120.57368 142.7943 120.00879 142.453 C 118.10516 141.30284 113.0618 141.44254 110.49756 142.71669 C 108.9186 143.50126 107.21924 143.74252 106.02471 143.3525 C 104.96544 143.00663 103.60662 142.81519 103.00477 142.92616 C 101.45224 143.21246 101.64267 141.65025 103.23175 141.06432 C 103.95843 140.79637 104.50245 140.28317 104.44101 139.92331 C 104.11723 138.02827 104.7843 137.24666 107.15319 136.74671 C 111.51881 135.82537 111.33712 134.44262 106.9339 135.07709 C 102.0215 135.78494 99.218997 134.48386 94.05522 129.10096 C 90.384296 125.27425 90.305905 125.08563 92.130406 124.4371 C 94.743643 123.50822 94.531298 122.71311 91.843159 123.3614 C 89.941505 123.82002 89.655463 123.61007 89.655463 121.76448 C 89.655463 120.59626 90.147464 119.44964 90.749311 119.2163 C 91.403026 118.96284 91.227219 118.76557 90.312028 118.72589 C 89.163196 118.67609 88.779615 117.93549 88.779615 115.76493 C 88.779615 114.17297 89.173979 112.63645 89.655463 112.35052 C 90.136941 112.06459 90.530028 111.19112 90.530028 110.40859 C 90.530028 109.62605 92.113617 107.32061 94.048808 105.28636 C 98.169467 100.95476 97.949872 99.462117 93.765408 103.35921 C 90.996654 105.93782 90.829173 105.98102 88.819368 104.62837 C 87.675042 103.8582 87.023856 103.67172 87.372872 104.21435 C 88.649919 106.19984 87.302319 105.12923 85.380094 102.63098 C 84.29245 101.21741 82.907477 98.226994 82.302444 95.985766 C 81.351569 92.46344 81.397464 91.547681 82.640985 89.237044 C 85.124735 84.621881 93.950694 80.962581 101.23127 81.529677 C 103.17815 81.681322 105.43406 85.891536 105.58102 89.647365 C 105.71853 93.16211 107.16344 93.632406 107.16344 90.162421 C 107.16344 86.367869 104.73696 81.678919 102.31486 80.794057 C 101.60401 80.534365 100.81537 80.369918 99.973284 80.291323 z M 118.98803 87.064688 C 121.21981 86.95218 123.67203 87.656475 126.87579 89.225955 C 128.75615 90.147115 130.72854 90.900505 131.25888 90.900505 C 133.09567 90.900505 140.42899 99.903224 140.42899 102.15782 C 140.42899 102.83465 139.06435 103.8209 137.39623 104.34989 C 135.7281 104.87889 133.56095 106.3278 132.5797 107.56961 C 131.59845 108.81142 131.03593 109.16538 131.32941 108.35575 C 131.71202 107.30021 131.40251 106.87903 130.23684 106.86973 C 129.00446 106.85996 128.89602 106.68396 129.78674 106.1415 C 130.76662 105.54469 130.7675 105.12872 129.79443 103.63152 C 129.15275 102.64423 128.30473 101.83622 127.91065 101.83622 C 127.51657 101.83622 127.39723 101.52064 127.6452 101.1351 C 127.89318 100.74956 127.62189 100.3885 127.04122 100.33294 C 123.18334 99.963754 116.03869 97.288255 114.20357 95.524926 C 113.00145 94.369824 112.50086 93.424037 113.09177 93.424037 C 113.68268 93.424037 114.16638 93.046328 114.16638 92.583681 C 114.16638 92.121036 113.5425 91.742093 112.78016 91.742093 C 110.55708 91.742093 111.82631 89.767273 115.0948 88.13916 C 116.38934 87.494321 117.64896 87.132193 118.98803 87.064688 z M 120.70254 101.0661 C 121.47663 100.77922 123.22125 101.39109 124.79325 102.64947 C 125.92992 103.55937 126.66388 104.26279 126.42312 104.21312 C 123.90973 103.69463 120.29475 102.19038 120.29475 101.66248 C 120.29475 101.35799 120.44451 101.16173 120.70254 101.0661 z M 101.46594 104.39179 C 100.30102 104.28483 99.28466 104.5078 99.28466 105.13973 C 99.28466 105.56845 99.974483 106.09135 100.81707 106.30292 C 101.65966 106.5145 103.08679 106.73226 103.98833 106.78594 C 105.34884 106.86693 105.4417 106.66877 104.53718 105.62152 C 103.94436 104.93515 102.63087 104.49875 101.46594 104.39179 z M 117.05552 108.56523 C 115.87727 108.56523 115.47354 111.22226 116.50155 112.21005 C 117.52955 113.19785 120.29475 112.80991 120.29475 111.67775 C 120.29475 110.27104 118.5195 108.56523 117.05552 108.56523 z M 104.03578 110.12888 C 102.28195 110.1577 101.91092 110.60911 101.91092 111.86011 C 101.91092 112.74685 102.40292 113.66358 103.00477 113.89692 C 105.01416 114.67601 106.81316 114.46485 108.52787 113.24879 C 110.5462 111.8174 109.54999 110.4741 106.2876 110.22745 C 105.35821 110.15719 104.62039 110.11927 104.03578 110.12888 z M 88.397473 110.59095 C 88.634193 110.55382 88.779615 110.64837 88.779615 110.88298 C 88.779615 111.34563 88.188706 112.19599 87.466484 112.77193 C 86.733989 113.35607 86.153353 113.44694 86.153353 112.97771 C 86.153353 112.51506 86.744265 111.6647 87.466484 111.08876 C 87.832735 110.79669 88.160753 110.62809 88.397473 110.59095 z M 84.701728 113.23154 C 85.05799 113.23711 85.277505 113.34133 85.277505 113.54329 C 85.277505 113.94498 84.654166 114.50329 83.892563 114.7841 C 81.79084 115.55907 80.195299 115.39852 79.517171 114.34421 C 79.144334 113.76456 79.380621 113.55384 80.122442 113.80328 C 80.791309 114.02819 82.224477 113.89725 83.307809 113.51248 C 83.852456 113.31904 84.345467 113.22597 84.701728 113.23154 z M 140.65341 113.61229 C 140.10294 113.61229 139.13846 114.31578 138.50931 115.17471 C 137.73352 116.23383 135.71596 116.9327 132.23988 117.3483 C 126.53969 118.02981 118.13536 120.23049 118.79824 120.86744 C 119.03321 121.09322 121.59164 120.68907 124.48292 119.96917 C 130.24558 118.53433 136.43541 118.22524 135.67274 119.41099 C 135.40692 119.82428 136.2264 120.41272 137.49368 120.71835 C 139.28812 121.15111 140.35071 120.76425 142.30123 118.96863 C 143.67876 117.70051 144.80695 117.09606 144.80695 117.62554 C 144.80695 118.15502 143.4273 119.64444 141.74212 120.93644 C 140.05696 122.22845 138.67859 123.57013 138.67858 123.91712 C 138.67852 125.39384 140.66468 124.31687 143.9606 121.0535 C 147.6885 117.36241 148.0142 115.67439 144.98007 115.77725 C 143.96941 115.81151 143.34349 115.52762 143.58871 115.14637 C 144.35739 113.95128 142.82779 114.39145 141.15481 115.84625 C 139.40375 117.36896 138.90381 116.25578 140.60468 114.62145 C 141.36384 113.89198 141.3767 113.61229 140.65341 113.61229 z M 96.327551 113.89323 C 95.573675 113.89323 94.696139 115.22076 94.194996 117.11788 C 93.726501 118.89136 93.665373 120.34253 94.060349 120.34253 C 94.455333 120.34253 94.95966 119.67969 95.179844 118.87006 C 95.400038 118.06043 95.625361 118.58244 95.681245 120.02955 C 95.798225 123.06032 98.136296 128.88303 99.601401 129.79222 C 100.98568 130.65124 104.0149 130.58541 106.60434 129.63942 C 107.80428 129.20105 109.87587 127.05501 111.20799 124.87084 C 112.54011 122.68666 113.78391 121.34213 113.97146 121.88277 C 114.719 124.03765 115.91612 122.68312 115.88986 119.71164 C 115.86512 116.90858 115.73197 116.72037 114.69856 118.02847 C 112.95485 120.23566 103.52693 120.07738 99.651413 117.77587 C 98.043448 116.82097 96.939106 115.57023 97.177752 114.97263 C 97.414818 114.37901 97.032293 113.89323 96.327551 113.89323 z M 97.534246 117.819 C 98.015725 117.819 98.408812 118.95459 98.408812 120.34253 C 98.408812 122.95595 98.230893 123.25451 97.24187 122.30418 C 96.32543 121.42359 96.560529 117.819 97.534246 117.819 z M 100.11691 119.57857 C 100.49243 119.55757 101.01878 119.78294 101.74293 120.22424 C 102.48721 120.67781 102.6838 121.70386 102.3046 123.15562 C 101.36423 126.75582 99.28466 125.88012 99.28466 121.884 C 99.28466 120.33358 99.49103 119.61356 100.11691 119.57857 z M 106.38121 120.34253 C 108.06628 120.34253 108.46534 121.65941 107.50711 124.05882 C 106.847 125.71176 103.66133 125.82491 103.66133 124.19559 C 103.66133 121.87596 104.74419 120.34253 106.38121 120.34253 z M 122.0862 122.29555 C 121.68666 122.39035 121.32704 122.60133 121.09494 122.95354 C 120.66943 123.59926 120.31502 124.43745 120.30757 124.81662 C 120.28642 125.90424 124.0563 125.08706 124.45727 123.91712 C 124.84932 122.77324 123.28483 122.01115 122.0862 122.29555 z M 99.521895 126.34084 C 99.688693 126.34748 99.951589 126.5344 100.33491 126.90272 C 100.91269 127.4579 102.38996 127.91829 103.61773 127.92544 C 105.38045 127.93561 105.57407 128.10959 104.53718 128.75348 C 102.92093 129.75711 102.72439 129.75439 100.81707 128.68694 C 99.974483 128.21537 99.28466 127.39302 99.28466 126.86083 C 99.28466 126.50776 99.355098 126.33421 99.521895 126.34084 z M 157.02266 130.05098 C 156.47519 129.99171 155.8107 130.01947 155.05809 130.15448 C 151.11318 130.86212 150.29534 131.85265 153.99886 131.43719 C 156.12198 131.19903 157.06241 131.43157 157.06241 132.19499 C 157.06241 133.00375 157.32164 133.04748 158.037 132.36011 C 159.25786 131.18701 158.66504 130.22879 157.02266 130.05098 z M 130.63309 130.57589 C 130.78964 130.59947 130.7998 131.03173 130.7998 131.8931 C 130.7998 132.87132 131.81921 134.83656 133.06572 136.26 C 136.09827 139.72299 134.52694 139.57678 131.09089 136.0764 C 128.6619 133.60193 128.50105 133.13568 129.58541 131.71074 C 130.17348 130.93795 130.47654 130.55231 130.63309 130.57589 z M 131.99495 131.16118 C 132.60865 131.1334 134.02306 132.48142 135.51116 134.64213 C 136.78568 136.49271 137.66574 138.00725 137.46804 138.00725 C 137.00022 138.00725 131.67564 132.18065 131.67564 131.66885 C 131.67564 131.33315 131.79038 131.17044 131.99495 131.16118 z M 138.2336 133.80054 C 138.97054 133.80054 139.55443 134.54487 139.55443 135.48372 C 139.55443 136.40901 139.45109 137.16566 139.32617 137.16566 C 139.20125 137.16566 138.60801 136.40901 138.00663 135.48372 C 137.09466 134.08055 137.1322 133.80054 138.2336 133.80054 z M 127.12329 134.64213 C 128.92415 134.64213 130.7998 136.18436 130.7998 137.6647 C 130.7998 139.33397 128.70878 139.53583 127.07969 138.0245 C 125.10211 136.18985 125.12195 134.64213 127.12329 134.64213 z M 89.873463 139.22589 C 90.372385 139.11649 90.964634 139.47628 92.122712 140.20302 C 95.857028 142.54643 99.826398 146.66568 98.698624 147.0269 C 97.983259 147.25602 97.920365 148.14469 98.484471 150.03468 C 99.604649 153.78775 99.606642 153.77926 96.439116 155.41074 C 93.228193 157.06458 89.693822 157.45583 89.933733 156.13034 C 90.021281 155.64665 89.607668 155.34338 89.014285 155.45633 C 86.433653 155.94755 85.778075 144.59662 88.18332 141.06678 C 88.968942 139.91384 89.374541 139.33529 89.873463 139.22589 z M 117.97369 142.61195 C 118.98677 142.49894 119.5577 145.6603 119.25476 150.25894 C 118.98852 154.3005 118.89331 154.4301 115.63339 155.20373 C 113.25908 155.7672 111.79612 155.70454 110.60015 154.98687 C 108.61509 153.79567 108.32223 154.99335 110.22699 156.51232 C 111.20585 157.29294 112.42887 157.34162 115.04095 156.70455 C 118.23488 155.92554 118.54434 155.99523 118.54434 157.49315 C 118.54434 158.39656 118.93742 158.9016 119.4189 158.61568 C 119.90039 158.32975 120.29475 156.62636 120.29475 154.83038 C 120.29475 150.61064 121.72053 149.7104 121.90667 153.81259 C 122.10428 158.16757 121.2347 161.55939 119.92159 161.55939 C 118.76449 161.55939 112.42519 167.08975 112.40186 168.11958 C 112.39449 168.4443 112.06676 169.1973 111.67348 169.7929 C 111.1182 170.63385 110.09498 170.40131 107.09163 168.7517 C 104.46087 167.30673 101.96433 166.64214 99.28466 166.67545 C 96.137864 166.71458 95.697106 166.88447 97.095681 167.5195 C 98.524353 168.1682 98.392984 168.22916 96.38141 167.85096 C 93.854239 167.37583 85.866304 171.04752 83.521963 173.76179 C 82.104341 175.4031 81.577145 175.35137 78.870864 173.30588 C 77.389103 172.18592 75.207679 171.56656 72.562964 171.51551 C 69.686928 171.46004 68.789759 171.17715 69.457102 170.53591 C 69.973124 170.04008 70.395785 168.6218 70.395785 167.38396 C 70.395785 161.47165 79.364426 148.94173 83.596339 148.94173 C 85.40079 148.94173 85.993191 152.10365 84.470905 153.61051 C 84.026892 154.05002 83.39211 155.82969 83.060315 157.56462 C 82.540527 160.28259 82.682225 160.72178 84.086198 160.74491 C 84.982369 160.75962 86.47771 161.32621 87.408778 162.00298 C 88.900125 163.08699 89.35023 163.07569 91.193005 161.91549 C 93.215533 160.64211 93.251338 160.6579 92.289418 162.38496 C 91.742249 163.36735 91.442097 164.81436 91.621311 165.59975 C 91.800526 166.38513 92.605129 164.91142 93.410196 162.32581 C 94.703712 158.17144 95.385301 157.31962 99.267989 155.00042 C 101.68451 153.55699 103.66133 151.9359 103.66133 151.39749 C 103.66133 150.69028 103.29162 150.7138 102.32769 151.48251 C 100.33761 153.06952 99.810852 151.922 100.68884 147.90792 C 101.28665 145.17476 101.9226 144.254 103.34844 144.05855 C 105.07032 143.82252 105.21285 144.15716 105.09885 148.17777 C 105.02328 150.84281 105.37303 152.68696 105.99265 152.89584 C 106.70427 153.13574 106.86645 152.2187 106.53509 149.84493 C 106.06307 146.46338 106.07697 146.44522 110.26802 144.719 C 112.58128 143.76621 114.94788 143.16115 115.52696 143.37468 C 116.10604 143.5882 116.99983 143.3592 117.51332 142.86578 C 117.67481 142.71062 117.82896 142.6281 117.97369 142.61195 z M 132.3835 144.74858 C 133.65922 144.75967 133.68186 144.87513 132.55021 145.57784 C 130.83581 146.64244 129.67777 146.64244 130.36251 145.57784 C 130.66008 145.1152 131.56932 144.74142 132.3835 144.74858 z M 137.36032 146.72501 C 137.97118 146.75016 138.57823 146.80539 139.17485 146.89136 C 144.06331 147.59575 144.64983 148.45754 141.55105 150.37723 C 138.17019 152.47168 136.25123 154.81255 135.48808 157.77409 C 134.52033 161.52957 134.5288 161.49459 134.41091 162.40097 C 134.26833 163.49693 132.73439 163.36885 129.48667 161.99065 L 126.8604 160.87675 L 129.04938 160.48491 C 130.25308 160.26924 129.42721 160.23843 127.21433 160.41714 L 123.19031 160.74244 L 123.34932 156.3891 C 123.48013 152.81702 123.92979 151.68877 125.85504 150.09753 C 128.59839 147.8301 133.08427 146.549 137.36032 146.72501 z M 129.58541 150.01867 C 129.14443 149.59493 126.42312 154.79819 126.42312 156.06504 C 126.42312 156.31123 126.78558 156.51232 127.22972 156.51232 C 128.20758 156.51232 130.31057 150.71546 129.58541 150.01867 z M 144.37608 150.74196 C 145.36626 150.73634 146.1677 151.39596 147.07031 152.71963 C 147.85629 153.87228 148.8227 154.62415 149.21825 154.38925 C 149.6138 154.15435 150.18536 154.34664 150.48778 154.81683 C 150.79021 155.28702 150.64793 155.67197 150.17232 155.67197 C 149.6967 155.67197 147.9011 156.94655 146.18163 158.50478 C 143.76347 160.69619 143.05525 161.99925 143.05525 164.25789 C 143.05525 166.50312 142.58247 167.38562 141.00733 168.07522 C 139.20776 168.8631 138.77439 168.67323 137.44624 166.5128 C 135.24003 162.92408 136.86204 155.74012 140.5521 152.7566 C 142.2072 151.4184 143.3859 150.74759 144.37608 150.74196 z M 165.67085 156.26219 C 165.53744 156.34593 165.51465 156.354 165.37848 156.43962 C 163.45256 157.65053 159.22332 159.96066 155.9801 161.57294 C 152.7369 163.18521 149.19144 165.15774 148.10132 165.95708 C 144.50818 168.5918 147.34116 167.51251 155.54538 163.12181 C 159.09967 161.21964 162.52504 159.25562 165.67085 157.39457 L 165.67085 156.26219 z M 90.869852 158.5171 C 91.183771 158.53046 91.405876 158.86579 91.405876 159.40674 C 91.405876 160.12802 91.011507 160.71903 90.530028 160.71903 C 90.048549 160.71903 89.655463 160.36207 89.655463 159.92673 C 89.655463 159.49139 90.048549 158.9016 90.530028 158.61568 C 90.650398 158.54419 90.765212 158.51265 90.869852 158.5171 z M 165.67085 158.54544 C 160.97942 161.14274 158.09457 162.83212 158.30116 163.03062 C 158.48925 163.21135 160.29569 162.54923 162.31493 161.55939 C 163.83821 160.81266 164.99827 160.38343 165.67085 160.22615 L 165.67085 158.54544 z M 75.463649 159.07528 C 74.108048 159.10189 74.832708 159.62994 77.701357 160.70671 C 82.257444 162.41687 84.330284 164.36652 84.374728 166.98473 C 84.394136 168.12822 84.68033 168.35824 85.319823 167.74376 C 87.831105 165.33072 80.603666 158.9744 75.463649 159.07528 z M 106.80823 159.31063 C 106.41463 159.1627 106.24302 159.6097 106.18629 160.76092 C 106.11517 162.20423 105.96415 162.37697 105.68232 161.33882 C 105.22488 159.65375 103.66133 160.18863 103.66133 162.03008 C 103.66133 163.6678 107.08346 163.57901 107.74435 161.92411 C 108.03391 161.19905 107.82555 160.17726 107.28014 159.65318 C 107.09549 159.47576 106.93943 159.35994 106.80823 159.31063 z M 165.67085 160.62785 C 164.88151 161.14358 163.43389 161.93609 161.634 162.80267 C 158.87899 164.1291 152.88185 167.53885 148.30778 170.37942 C 145.01065 172.42699 142.43881 173.97576 140.03018 175.42895 L 142.72184 175.42895 C 144.29484 174.40269 145.78174 173.3442 147.06005 172.29179 C 148.05899 171.46937 153.37717 168.34157 158.87822 165.34099 C 161.70845 163.79722 164.08875 162.4146 165.67085 161.41892 L 165.67085 160.62785 z M 157.55868 163.43848 C 157.16339 163.05864 151.50073 165.8662 147.87049 168.24157 C 146.42605 169.18671 145.55682 169.96231 145.93927 169.96541 C 146.96421 169.97358 157.94217 163.80697 157.55868 163.43848 z M 165.67085 163.92396 C 160.8218 166.98702 154.19113 170.9676 146.4163 175.42895 L 151.09562 175.42895 C 152.35193 174.07585 154.16699 172.61032 156.40584 171.24566 C 158.92022 169.71305 159.77544 170.68046 157.5061 172.49017 C 156.96721 172.91992 156.33486 174.13385 155.81724 175.42895 L 157.20603 175.42895 C 157.29374 175.21248 157.36614 174.98757 157.46763 174.78205 C 158.60743 172.47406 162.86734 167.84261 165.67085 165.51719 L 165.67085 163.92396 z M 114.63572 167.78196 C 114.72465 167.76165 114.80558 167.78129 114.87296 167.84604 C 115.14249 168.10503 114.87366 168.78365 114.27538 169.35424 C 113.4108 170.17882 113.31044 170.08238 113.78552 168.88354 C 114.03208 168.26136 114.36893 167.84289 114.63572 167.78196 z M 105.25658 169.12998 C 105.70596 169.12998 106.56405 169.69778 107.16344 170.39175 C 107.76283 171.08572 108.79559 171.65351 109.45886 171.65351 C 110.12213 171.65351 110.66555 172.03245 110.66555 172.4951 C 110.66555 172.95774 110.3701 173.32412 110.00899 173.30958 C 109.01989 173.26953 104.31302 169.12998 105.25658 169.12998 z M 99.538566 170.10095 C 100.88607 169.89664 101.03507 170.32972 101.03507 171.82232 C 101.03507 173.21994 100.78828 173.43471 100.02586 172.70211 C 99.331288 172.03471 98.511931 171.99208 97.399599 172.5641 C 96.180739 173.1909 95.782551 173.10144 95.782551 172.20184 C 95.782551 171.54555 96.668916 170.78038 97.752247 170.50141 C 98.5064 170.30721 99.089398 170.16905 99.538566 170.10095 z M 70.307303 175.13076 C 70.296171 175.09769 69.783194 175.19679 69.432737 175.25521 A 3.67 3.67 0 0 0 69.828985 175.36118 C 69.945056 175.30125 70.314057 175.15083 70.307303 175.13076 z "
       transform="matrix(0.40298097,0,0,0.41938583,14.238023,-31.572396)" />
  </g>
</svg>
