<?xml version="1.0" encoding="UTF-8" standalone="no"?>
<!-- Created with Inkscape (http://www.inkscape.org/) -->

<svg
   width="81mm"
   height="42mm"
   viewBox="0 0 81 42"
   version="1.1"
   id="svg1"
   inkscape:version="1.3.2 (091e20ef0f, 2023-11-25, custom)"
   sodipodi:docname="kardemomme.svg"
   xmlns:inkscape="http://www.inkscape.org/namespaces/inkscape"
   xmlns:sodipodi="http://sodipodi.sourceforge.net/DTD/sodipodi-0.dtd"
   xmlns="http://www.w3.org/2000/svg"
   xmlns:svg="http://www.w3.org/2000/svg">
  <sodipodi:namedview
     id="namedview1"
     pagecolor="#ffffff"
     bordercolor="#666666"
     borderopacity="1.0"
     inkscape:showpageshadow="2"
     inkscape:pageopacity="0.0"
     inkscape:pagecheckerboard="0"
     inkscape:deskcolor="#d1d1d1"
     inkscape:document-units="mm"
     inkscape:zoom="2.9200016"
     inkscape:cx="147.60266"
     inkscape:cy="116.95199"
     inkscape:window-width="1276"
     inkscape:window-height="1411"
     inkscape:window-x="0"
     inkscape:window-y="0"
     inkscape:window-maximized="0"
     inkscape:current-layer="layer4" />
  <defs
     id="defs1">
    <inkscape:path-effect
       effect="fillet_chamfer"
       id="path-effect5"
       is_visible="true"
       lpeversion="1"
       nodesatellites_param="F,0,0,1,0,3.67,0,1 @ F,0,0,1,0,3.67,0,1 @ F,0,0,1,0,3.67,0,1 @ F,0,0,1,0,3.67,0,1"
       radius="3.67"
       unit="mm"
       method="auto"
       mode="F"
       chamfer_steps="1"
       flexible="false"
       use_knot_distance="true"
       apply_no_radius="true"
       apply_with_radius="true"
       only_selected="false"
       hide_knots="false" />
    <inkscape:path-effect
       effect="fillet_chamfer"
       id="path-effect3"
       is_visible="true"
       lpeversion="1"
       nodesatellites_param="F,0,0,1,0,3.67,0,1 @ F,0,0,1,0,3.67,0,1 @ F,0,0,1,0,3.67,0,1 @ F,0,0,1,0,3.67,0,1"
       radius="3.67"
       unit="mm"
       method="auto"
       mode="F"
       chamfer_steps="1"
       flexible="false"
       use_knot_distance="true"
       apply_no_radius="true"
       apply_with_radius="true"
       only_selected="false"
       hide_knots="false" />
    <inkscape:path-effect
       effect="fillet_chamfer"
       id="path-effect2"
       is_visible="true"
       lpeversion="1"
       nodesatellites_param="F,0,0,1,0,0,0,1 @ F,0,0,1,0,0,0,1 @ F,0,0,1,0,0,0,1 @ F,0,0,1,0,0,0,1"
       radius="0"
       unit="px"
       method="auto"
       mode="F"
       chamfer_steps="1"
       flexible="false"
       use_knot_distance="true"
       apply_no_radius="true"
       apply_with_radius="true"
       only_selected="false"
       hide_knots="false" />
    <inkscape:path-effect
       effect="fillet_chamfer"
       id="path-effect1"
       is_visible="true"
       lpeversion="1"
       nodesatellites_param="F,0,0,1,0,0,0,1 @ F,0,0,1,0,0,0,1 @ F,0,0,1,0,0,0,1 @ F,0,0,1,0,0,0,1"
       radius="0"
       unit="px"
       method="auto"
       mode="F"
       chamfer_steps="1"
       flexible="false"
       use_knot_distance="true"
       apply_no_radius="true"
       apply_with_radius="true"
       only_selected="false"
       hide_knots="false" />
    <inkscape:path-effect
       effect="fillet_chamfer"
       id="path-effect5-9"
       is_visible="true"
       lpeversion="1"
       nodesatellites_param="F,0,0,1,0,3.67,0,1 @ F,0,0,1,0,3.67,0,1 @ F,0,0,1,0,3.67,0,1 @ F,0,0,1,0,3.67,0,1"
       radius="3.67"
       unit="mm"
       method="auto"
       mode="F"
       chamfer_steps="1"
       flexible="false"
       use_knot_distance="true"
       apply_no_radius="true"
       apply_with_radius="true"
       only_selected="false"
       hide_knots="false" />
    <inkscape:path-effect
       effect="fillet_chamfer"
       id="path-effect5-6"
       is_visible="true"
       lpeversion="1"
       nodesatellites_param="F,0,0,1,0,3.67,0,1 @ F,0,0,1,0,3.67,0,1 @ F,0,0,1,0,3.67,0,1 @ F,0,0,1,0,3.67,0,1"
       radius="3.67"
       unit="mm"
       method="auto"
       mode="F"
       chamfer_steps="1"
       flexible="false"
       use_knot_distance="true"
       apply_no_radius="true"
       apply_with_radius="true"
       only_selected="false"
       hide_knots="false" />
  </defs>
  <g
     inkscape:label="cut"
     inkscape:groupmode="layer"
     id="layer1">
    <path
       style="fill:#000000;fill-opacity:1;stroke:none;stroke-width:0.264583;stroke-opacity:1"
       id="rect1"
       width="99.260269"
       height="100.14645"
       x="66.410027"
       y="75.282455"
       sodipodi:type="rect"
       transform="matrix(0.40298097,0,0,0.41938583,-26.761977,-31.572395)"
       inkscape:path-effect="#path-effect3"
       d="M 70.080027,75.282455 H 162.0003 a 3.67,3.67 45 0 1 3.67,3.67 V 171.7589 a 3.67,3.67 135 0 1 -3.67,3.67 H 70.080027 a 3.67,3.67 45 0 1 -3.67,-3.67 V 78.952455 a 3.67,3.67 135 0 1 3.67,-3.67 z" />
    <path
       style="fill:#000000;fill-opacity:1;stroke:none;stroke-width:0.264583;stroke-opacity:1"
       id="path1"
       width="99.260269"
       height="100.14645"
       x="66.410027"
       y="75.282455"
       sodipodi:type="rect"
       transform="matrix(0.40298097,0,0,0.41938583,14.238023,-31.572395)"
       d="M 70.080027,75.282455 H 162.0003 a 3.67,3.67 45 0 1 3.67,3.67 V 171.7589 a 3.67,3.67 135 0 1 -3.67,3.67 H 70.080027 a 3.67,3.67 45 0 1 -3.67,-3.67 V 78.952455 a 3.67,3.67 135 0 1 3.67,-3.67 z"
       inkscape:path-effect="#path-effect5" />
  </g>
  <g
     inkscape:groupmode="layer"
     id="layer2"
     inkscape:label="tag">
    <circle
       style="fill:#ff0000;fill-opacity:1;stroke:none;stroke-width:0.264583;stroke-opacity:1"
       id="path3"
       cx="20"
       cy="21"
       r="12.75" />
  </g>
  <g
     inkscape:groupmode="layer"
     id="layer3"
     inkscape:label="magnets">
    <circle
       style="fill:#ff0000;fill-opacity:1;stroke:none;stroke-width:0.264583;stroke-opacity:1"
       id="path4"
       cx="7.25"
       cy="7"
       r="2.55" />
    <circle
       style="fill:#ff0000;fill-opacity:1;stroke:none;stroke-width:0.264583;stroke-opacity:1"
       id="path4-5"
       cx="32.75"
       cy="35"
       r="2.55" />
  </g>
  <g
     inkscape:groupmode="layer"
     id="layer4"
     inkscape:label="engrave"
     style="display:inline">
    <path
       id="path1-5"
       style="fill:#00ffff;stroke-width:0.167726"
       d="M 66.701355 0.56172282 C 66.332719 0.56606248 66.119015 0.72655695 65.696248 1.1911418 C 65.338404 1.5843813 65.042524 2.0262192 65.038924 2.172994 C 65.035318 2.3197678 64.856264 2.5708926 64.641016 2.7316162 C 64.425767 2.89234 63.956377 3.4561193 63.597668 3.9842529 C 63.238961 4.5123865 62.867576 4.9925523 62.772396 5.0513713 C 62.677222 5.1101928 62.235722 4.8393044 61.791577 4.4493408 C 61.347434 4.0593754 60.843677 3.4682006 60.671749 3.1357259 C 60.49982 2.8032521 60.099261 2.3613128 59.781881 2.1533569 C 59.274041 1.8206037 59.165459 1.8147991 58.875993 2.1042643 C 58.695088 2.2851686 58.546814 2.6299656 58.546814 2.8706258 C 58.546814 3.1112851 58.713533 3.8230117 58.916817 4.4524414 C 59.260535 5.5167001 59.260535 5.6255132 58.916817 6.0053182 C 58.713533 6.2299432 58.546814 6.5542558 58.546814 6.7256877 C 58.546814 6.9118225 58.688238 6.8355986 58.897697 6.5365519 C 59.090614 6.2611292 59.353307 6.1006746 59.481641 6.1799845 C 59.609976 6.2593015 59.799211 6.1883167 59.90177 6.0223714 C 60.00433 5.856427 60.161136 5.7939149 60.250586 5.8833618 C 60.340029 5.972805 59.988889 6.4094867 59.469755 6.8538452 C 58.95062 7.2982058 58.57432 7.7102517 58.63363 7.7695516 C 58.692932 7.8288525 59.084425 7.6155974 59.503861 7.2956787 C 59.923298 6.975759 60.330693 6.7143188 60.409233 6.7143188 C 60.48777 6.7143188 60.347323 7.091264 60.097107 7.5525106 C 59.846891 8.0137591 59.337697 8.6568733 58.965393 8.9813639 C 58.288477 9.5713463 58.28816 9.571533 58.798995 10.047449 C 59.309831 10.523364 59.31002 10.522927 58.842403 10.990544 C 58.585212 11.247733 58.059154 11.483169 57.673482 11.513509 C 57.287812 11.543848 56.920948 11.620088 56.858028 11.683008 C 56.795112 11.745924 57.048053 11.923638 57.420268 12.077816 C 57.996537 12.316519 58.183321 12.301576 58.677039 11.97808 C 58.995935 11.769128 59.298509 11.639919 59.349349 11.690759 C 59.400194 11.741604 59.479269 12.104749 59.525049 12.497945 C 59.57083 12.891141 59.774873 13.397123 59.978768 13.622424 C 60.182664 13.847724 60.389235 14.345257 60.437655 14.727783 C 60.486066 15.110309 60.596765 15.538057 60.683634 15.67863 C 60.782447 15.838516 61.228425 15.8929 61.874776 15.82384 C 62.443041 15.76312 63.084247 15.640549 63.299495 15.550989 C 63.57741 15.435365 63.690686 15.492155 63.690686 15.747359 C 63.690686 15.945018 63.788072 16.10651 63.90721 16.10651 C 64.02635 16.10651 64.06586 15.95563 63.99506 15.77113 C 63.913546 15.558713 63.998484 15.43575 64.226054 15.43575 C 64.423713 15.43575 64.585205 15.553686 64.585205 15.69775 C 64.585205 15.841812 64.738785 16.129766 64.926786 16.337504 C 65.183727 16.62142 65.215337 16.855499 65.05391 17.280082 C 64.935799 17.590736 64.338938 18.275682 63.727376 18.80247 C 63.092784 19.349094 62.664304 19.888283 62.729504 20.058207 C 62.792343 20.221963 62.712494 20.355863 62.551737 20.355863 C 62.32441 20.355863 62.319241 20.415339 62.527966 20.624064 C 62.675565 20.771663 62.796167 20.98551 62.796167 21.098971 C 62.796167 21.212428 62.642934 21.177946 62.455619 21.022489 C 62.166606 20.782628 62.13817 20.804093 62.269584 21.163049 C 62.420794 21.576007 62.41313 21.575933 61.939372 21.159949 C 61.672515 20.925634 61.45413 20.834729 61.45413 20.957894 C 61.45413 21.081061 61.614334 21.502721 61.810181 21.895304 C 62.080112 22.4364 62.269662 22.576212 62.593079 22.473564 C 62.90544 22.374424 63.020627 22.447297 63.023027 22.744865 C 63.025962 23.093232 63.060495 23.103189 63.263839 22.815662 C 63.474714 22.517482 63.489944 22.517482 63.400264 22.815662 C 63.344776 23.000162 63.161145 23.111268 62.992021 23.062158 C 62.822898 23.01305 62.407328 22.925988 62.06908 22.868888 C 61.730831 22.811788 61.45413 22.67562 61.45413 22.566581 C 61.45413 22.457538 61.34156 22.36866 61.203499 22.36866 C 61.025071 22.36866 61.029078 22.461345 61.218486 22.689571 C 61.365044 22.866163 61.771566 23.073605 62.12179 23.150525 C 62.472013 23.227449 62.816734 23.441685 62.887634 23.626465 C 62.959106 23.812721 63.132229 23.890658 63.276241 23.801648 C 63.437751 23.701826 63.475703 23.73879 63.376493 23.899316 C 63.28873 24.041318 63.072108 24.157699 62.894869 24.157699 C 62.717629 24.157699 62.572408 24.067891 62.572408 23.958228 C 62.572408 23.848564 62.345828 23.701426 62.06908 23.631116 C 61.792332 23.560803 61.219437 23.185489 60.795772 22.797058 C 60.131312 22.18786 60.073204 22.055691 60.370992 21.837944 C 60.560863 21.699106 60.711789 21.485003 60.706889 21.362004 C 60.701953 21.239005 61.044338 20.906135 61.467566 20.621997 C 61.890793 20.337859 62.278779 19.985457 62.329529 19.839099 C 62.390158 19.664263 62.294251 19.678268 62.049959 19.879924 C 61.734809 20.14007 61.676954 20.14007 61.670654 19.879924 C 61.66627 19.699096 61.478839 19.802716 61.214351 20.132104 C 60.967441 20.439602 60.543719 20.967944 60.273324 21.306193 C 60.00293 21.644442 59.65787 21.921143 59.505929 21.921143 C 59.353989 21.921143 59.074742 22.22035 58.885811 22.585701 C 58.696882 22.951053 58.34823 23.353597 58.110665 23.480737 C 57.739266 23.679505 57.532047 23.531962 56.634269 22.425505 C 56.060012 21.717764 55.508741 21.107812 55.409021 21.070032 C 55.309301 21.032259 55.40054 21.33402 55.611593 21.740792 C 55.822646 22.147562 56.352881 22.843873 56.790332 23.288501 C 57.471111 23.980448 57.651187 24.061045 58.038835 23.84764 C 58.287928 23.710511 58.759016 23.278041 59.085799 22.886458 C 59.679949 22.174492 59.679886 22.174684 60.452124 22.94692 C 60.876854 23.371649 61.502786 23.833898 61.842737 23.974247 C 62.458593 24.228504 62.456634 24.230473 61.342509 24.507548 C 60.727512 24.660494 59.732196 24.794945 59.130758 24.806755 C 58.365649 24.821776 57.951401 24.945826 57.750997 25.219649 C 57.506533 25.55369 57.155502 25.601094 55.355794 25.543144 C 53.247177 25.475252 53.2473 25.47551 52.54408 26.276432 C 52.157308 26.716942 51.628315 27.493009 51.368958 28.001392 C 50.937546 28.847028 50.921063 29.035065 51.17052 30.210559 C 51.320518 30.91725 51.384043 31.59073 51.312113 31.707109 C 51.240187 31.823486 51.326152 32.109877 51.502799 32.343245 C 51.679445 32.576614 51.826945 32.876321 51.830945 33.009355 C 51.834856 33.14239 51.358011 33.562301 50.771061 33.942631 C 50.184113 34.322961 49.426294 34.704051 49.087443 34.789091 C 48.594036 34.912928 48.522447 35.005118 48.728292 35.253145 C 48.869657 35.423479 49.224954 35.563204 49.517391 35.563204 C 49.875108 35.563204 50.048289 35.691099 50.047591 35.954395 C 50.046983 36.169645 50.193585 36.798746 50.373153 37.352242 C 50.552717 37.905738 50.820557 39.147534 50.968465 40.11228 C 51.237387 41.866364 51.237529 41.86647 51.92913 41.720451 C 52.309511 41.640141 53.173964 41.531375 53.85046 41.478605 C 54.526955 41.42584 55.397837 41.328261 55.785225 41.262081 C 56.172615 41.195901 56.6133 40.993125 56.764494 40.810946 C 56.984162 40.546262 56.939872 39.996955 56.545903 38.077262 C 56.274736 36.755957 56.003815 35.498885 55.943355 35.283634 C 55.864157 35.001666 55.962679 34.891927 56.295789 34.891927 C 56.64139 34.891927 56.757776 34.749237 56.757776 34.32607 C 56.757776 34.014711 56.631954 33.724231 56.478206 33.680632 C 56.324457 33.63704 55.758794 33.481434 55.220919 33.334916 C 54.497504 33.137868 54.308581 33.003405 54.494348 32.817635 C 54.632478 32.679508 54.745496 32.166632 54.745496 31.67817 C 54.745496 31.17837 54.589002 30.617266 54.387895 30.395044 C 54.191337 30.17786 54.096762 29.893272 54.177572 29.762524 C 54.25838 29.631774 54.569798 29.524813 54.870036 29.524813 C 55.170275 29.524813 55.631021 29.310046 55.893746 29.047323 C 56.15647 28.784598 56.709872 28.493137 57.123645 28.399817 C 57.815436 28.243793 57.876054 28.273232 57.876054 28.765686 C 57.876054 29.060231 57.96846 29.301054 58.081209 29.301054 C 58.193958 29.301054 58.322737 29.191421 58.367497 29.057141 C 58.423177 28.890103 58.861406 28.932756 59.755009 29.192533 C 60.76111 29.485021 61.453033 29.535433 62.767228 29.412675 C 63.705585 29.325023 64.775346 29.099089 65.144344 28.91038 C 65.513343 28.721671 66.099418 28.329825 66.447107 28.039632 C 66.794788 27.749438 67.172251 27.512016 67.285815 27.512016 C 67.399377 27.512016 67.492521 27.857953 67.492521 28.280444 C 67.492521 28.702933 67.588797 29.301622 67.706462 29.611112 C 67.824135 29.920603 67.932681 30.606291 67.947791 31.13505 C 67.962943 31.663812 67.909348 32.398511 67.828418 32.767509 C 67.711014 33.302656 67.733777 33.370464 67.940556 33.102889 C 68.152318 32.828906 68.177759 32.870008 68.080599 33.326648 C 67.970434 33.844403 68.028104 33.88971 68.86298 33.93798 C 69.358818 33.966644 70.146823 34.092845 70.613778 34.218583 C 71.46278 34.447196 71.462615 34.447347 71.343449 35.508427 C 71.277553 36.095235 71.06513 36.691425 70.868026 36.842196 C 70.672002 36.992139 70.209699 37.212719 69.840698 37.332605 C 69.471707 37.452491 68.743452 37.660333 68.222192 37.794592 C 67.525583 37.974015 67.127133 38.255284 66.718925 38.856026 C 66.363409 39.379202 66.20778 39.85076 66.28691 40.166024 C 66.354901 40.436905 66.254706 40.959801 66.064185 41.328227 C 65.978069 41.494755 65.89681 41.743186 65.826473 42.00002 L 66.155652 42.00002 C 66.155624 41.793516 66.252895 41.564778 66.37476 41.489457 C 66.497755 41.41344 66.596702 41.432322 66.594902 41.531832 C 66.593179 41.623013 66.506267 41.824779 66.400598 42.00002 L 68.767896 42.00002 C 68.739385 41.30581 68.763351 40.743431 68.826807 40.748934 C 68.892523 40.754664 69.079699 40.747474 69.242802 40.732914 C 69.446047 40.714764 69.37607 40.499528 69.01956 40.048201 C 68.733459 39.686009 68.37336 39.384241 68.219609 39.377441 C 68.065858 39.370635 67.937571 39.138459 67.934871 38.861711 C 67.929898 38.358533 67.929846 38.358434 67.492521 38.917521 C 67.251994 39.225018 67.053388 39.652601 67.050688 39.867851 C 67.047955 40.083099 66.944758 40.259558 66.821761 40.259558 C 66.698754 40.259558 66.598002 40.130918 66.598002 39.973787 C 66.598002 39.816658 66.763956 39.439196 66.966455 39.135079 C 67.168944 38.830962 67.490089 38.456321 67.680107 38.302572 C 67.870114 38.148824 68.112861 38.023002 68.219609 38.023002 C 68.326348 38.023002 68.346734 38.131218 68.265084 38.263298 C 68.160646 38.432281 68.239888 38.43492 68.531734 38.273116 C 68.759852 38.146642 69.449453 37.817453 70.064457 37.541378 C 70.679452 37.265303 71.258434 37.00058 71.350684 36.9533 C 71.442959 36.906021 71.518115 36.966959 71.518115 37.088175 C 71.518115 37.209392 71.191299 37.42447 70.791545 37.566182 C 70.08641 37.816162 70.07805 37.833847 70.511975 38.156844 C 70.757979 38.339956 70.961061 38.610936 70.964661 38.759391 C 70.967817 38.907844 70.816932 39.152156 70.629281 39.301994 C 70.336985 39.535378 70.3654 39.575463 70.826168 39.581563 C 71.333236 39.588267 71.342479 39.611995 70.993083 39.998075 C 70.78923 40.223305 70.690144 40.474944 70.772424 40.557214 C 70.854686 40.63948 71.181758 40.713979 71.499512 40.722579 C 71.817255 40.731225 72.278777 40.832839 72.524772 40.948405 C 72.835943 41.094602 72.485666 41.133396 71.374455 41.076046 C 69.777235 40.993607 69.777302 40.993504 69.643811 41.800549 C 69.634811 41.85494 69.629111 41.937881 69.620557 42.00002 L 70.093913 42.00002 C 70.097653 41.973092 70.097396 41.879922 70.101664 41.863595 C 70.178567 41.569262 70.447009 41.49574 71.362052 41.51943 C 72.12401 41.539161 73.121687 41.338263 74.257483 40.936519 C 75.990648 40.323478 75.99071 40.323699 75.99071 41.83879 C 75.99071 41.896084 75.99584 41.942885 75.996395 42.00002 L 76.540548 42.00002 C 76.619178 41.76096 76.743379 41.557734 76.927604 41.386104 C 77.19679 41.135314 77.498554 40.930318 77.598364 40.930318 C 77.698179 40.930318 77.779749 41.031079 77.779749 41.154077 C 77.779749 41.277078 78.006329 41.603899 78.283077 41.880648 C 78.316975 41.914546 78.346637 41.960137 78.378678 42.00002 L 79.378101 42.00002 C 79.449935 41.929178 79.520587 41.850857 79.597209 41.809851 C 79.87607 41.660596 79.974609 41.668464 80.003385 41.865662 A 1.4789402 1.539146 0 0 0 80.8762 40.942721 C 80.859744 40.605803 80.861906 40.133239 80.884985 39.8663 C 80.892464 39.779547 80.938651 39.64345 81.000224 39.490613 L 81.000224 38.421944 C 80.958733 38.471134 80.931821 38.513711 80.881885 38.565088 C 80.651753 38.801857 80.463822 38.889884 80.463822 38.760425 C 80.463822 38.630965 80.616897 38.397698 80.80437 38.24211 C 80.873992 38.184329 80.937874 38.148503 81.000224 38.112919 L 81.000224 32.885331 C 80.95609 32.951728 80.891401 33.026526 80.80437 33.098755 C 80.591827 33.275151 80.463822 33.292005 80.463822 33.143713 C 80.463822 33.012914 80.570871 32.839287 80.702051 32.758207 C 80.813506 32.689332 80.92988 32.675912 81.000224 32.704464 L 81.000224 28.569316 C 80.870671 28.472055 80.627176 28.076015 80.351685 27.488761 C 79.982684 26.702192 79.530049 25.904457 79.345544 25.71626 C 79.161049 25.528063 78.814429 25.2263 78.575566 25.0455 C 78.336722 24.864697 78.21299 24.835652 78.30013 24.980904 C 78.387259 25.126153 78.355896 25.308271 78.230884 25.385531 C 78.105882 25.462793 78.003507 25.419154 78.003507 25.288896 C 78.003507 25.158637 77.988438 24.976519 77.969918 24.884269 C 77.951375 24.792019 77.775435 24.594342 77.578727 24.444503 C 77.272549 24.211287 77.269346 24.169879 77.556506 24.157699 C 77.827309 24.146215 77.815485 24.085241 77.495528 23.842472 C 77.176282 23.600239 77.142717 23.427794 77.322412 22.955188 C 77.503068 22.480005 77.479896 22.36866 77.202006 22.36866 C 77.013288 22.36866 76.909906 22.286321 76.972046 22.185726 C 77.034219 22.085132 76.894808 21.865193 76.661987 21.697384 C 76.429165 21.529575 76.288532 21.311322 76.349862 21.212142 C 76.411163 21.112952 76.287707 21.098663 76.07546 21.180103 C 75.788398 21.290258 75.723622 21.238988 75.822762 20.980632 C 75.907057 20.760978 75.633912 20.298115 75.079138 19.72076 C 74.596691 19.21868 74.201672 18.849178 74.201672 18.900138 C 74.201672 18.951097 74.322049 19.274406 74.46884 19.618441 C 74.615622 19.962475 74.882818 20.420185 75.062602 20.635433 C 75.242383 20.850682 75.298459 21.028341 75.187142 21.030241 C 75.07583 21.032124 75.109948 21.113332 75.263106 21.210592 C 75.416254 21.307848 75.565235 21.670251 75.593835 22.016227 C 75.622476 22.362204 75.773791 22.694643 75.930249 22.754683 C 76.086716 22.814723 76.214469 23.003991 76.214469 23.17533 C 76.214469 23.346668 76.164201 23.486938 76.102332 23.486938 C 76.040518 23.486938 75.615203 23.072026 75.15717 22.565031 C 74.530493 21.871375 74.341032 21.483569 74.391842 20.999235 C 74.42898 20.645235 74.367708 20.355863 74.255933 20.355863 C 74.144168 20.355863 73.989458 20.41926 73.911768 20.49694 C 73.834092 20.574612 73.879845 20.851314 74.01357 21.11189 C 74.213727 21.501924 74.204327 21.536327 73.96086 21.306193 C 73.798206 21.152444 73.577294 21.026624 73.469934 21.026624 C 73.362584 21.026624 73.583945 21.401643 73.961894 21.860164 C 74.33985 22.318687 74.64919 22.856094 74.64919 23.05389 C 74.64919 23.251687 75.054927 23.777521 75.550944 24.222811 C 76.046971 24.668099 76.594552 25.37213 76.767924 25.787056 C 76.941288 26.201982 77.214784 26.649311 77.375639 26.781311 C 77.536494 26.913307 77.988437 27.004453 78.379712 26.983883 C 78.770987 26.963315 79.161143 26.876293 79.246842 26.790613 C 79.332512 26.704936 79.599004 27.008539 79.839054 27.46499 C 80.079096 27.921443 80.410111 28.660687 80.57441 29.107784 C 80.794032 29.705633 80.806901 29.986857 80.623503 30.170251 C 80.486361 30.307401 80.16668 30.419332 79.912952 30.419332 C 79.655016 30.419332 79.354252 30.203716 79.230823 29.930473 C 79.109408 29.661681 78.87787 29.399699 78.716125 29.348079 C 78.495069 29.277517 78.457026 29.441144 78.563163 30.006954 C 78.640821 30.420899 78.595372 31.010216 78.462394 31.316435 C 78.329406 31.622652 78.037751 32.174752 77.814372 32.54375 C 77.591002 32.912749 77.224965 33.250205 77.000985 33.293575 C 76.777003 33.336942 76.391596 33.561242 76.144189 33.791736 C 75.896775 34.022233 75.166647 34.363996 74.522066 34.551379 C 73.877487 34.738765 73.31506 34.883377 73.27253 34.872807 C 73.22996 34.862233 72.934887 34.774913 72.616756 34.678503 C 72.298626 34.582096 71.795351 34.347176 71.498478 34.156571 C 71.201613 33.965969 70.379997 33.739856 69.67275 33.654277 C 68.386854 33.498668 68.38704 33.498725 68.38704 31.87454 C 68.38704 30.912152 68.245555 29.911883 68.039775 29.419393 C 67.84881 28.962258 67.722975 28.177401 67.760205 27.67583 C 67.797461 27.17426 67.95372 26.722834 68.107471 26.672274 C 68.271959 26.618183 68.38704 26.774851 68.38704 27.053129 C 68.38704 27.313237 68.543776 27.5863 68.735339 27.65981 C 68.926934 27.733321 69.032137 27.928172 68.968917 28.092859 C 68.905718 28.257547 68.94999 28.451657 69.067619 28.524357 C 69.185253 28.597055 69.281559 28.80187 69.281559 28.97911 C 69.281559 29.156349 69.457999 29.495373 69.673267 29.732552 C 69.888507 29.969734 70.213356 30.3427 70.395703 30.561442 C 70.578059 30.780184 70.749398 31.305955 70.776558 31.729846 C 70.803679 32.153737 70.932371 32.60706 71.062329 32.73702 C 71.228329 32.902985 71.254422 32.64918 71.149662 31.884875 C 71.029955 31.011498 71.059223 30.832782 71.297457 30.980021 C 71.522832 31.119313 71.551342 31.060607 71.416313 30.735592 C 71.318503 30.500165 71.159249 29.90519 71.062329 29.413192 C 70.965389 28.921195 70.927287 28.476398 70.978097 28.425138 C 71.028886 28.373889 71.070597 28.442352 71.070597 28.577067 C 71.070597 28.711779 71.197925 28.955068 71.353267 29.117603 C 71.50861 29.280137 71.821196 29.703127 72.048315 30.057597 C 72.341177 30.514681 72.511653 30.620415 72.634326 30.421916 C 72.748997 30.236384 72.886545 30.396258 73.041536 30.895789 C 73.170136 31.310251 73.340318 32.001632 73.419808 32.432129 C 73.499282 32.862626 73.613446 33.39097 73.674056 33.606217 C 73.734656 33.821467 73.876065 33.997408 73.987732 33.997408 C 74.107157 33.997408 74.1101 33.785724 73.995483 33.484261 C 73.888205 33.202089 73.765028 32.472742 73.721598 31.863171 C 73.66384 31.052395 73.71929 30.77036 73.927787 30.81259 C 74.131077 30.853759 74.18589 30.629035 74.11899 30.029692 C 74.067436 29.567442 74.103992 29.038551 74.200122 28.854053 C 74.299802 28.66272 74.152739 27.665682 73.858024 26.533781 C 73.573855 25.442304 73.420913 24.637261 73.517993 24.744743 C 73.615083 24.852227 73.957422 25.644882 74.279187 26.505876 C 74.619745 27.41715 74.809112 28.279432 74.731873 28.569832 C 74.628236 28.959646 74.826228 29.290097 75.638794 30.079818 C 76.210733 30.635684 76.718847 31.090092 76.767407 31.090092 C 76.815967 31.090092 76.807187 30.062771 76.748287 28.807027 C 76.675053 27.2458 76.507299 26.220462 76.217053 25.564331 C 75.915559 24.88275 75.65899 24.6047 75.332353 24.6047 C 75.072689 24.6047 74.872949 24.750658 74.872949 24.94008 C 74.872949 25.124578 74.776125 25.275977 74.657975 25.275977 C 74.539824 25.275977 74.335266 25.150156 74.203223 24.996407 C 74.071179 24.842656 73.822838 24.515315 73.651318 24.26932 C 73.339465 23.822049 73.339416 23.822049 73.192948 24.26932 C 73.112386 24.515315 72.959333 24.917839 72.852917 25.163839 C 72.659484 25.611108 72.659499 25.611108 72.683419 25.163839 C 72.696549 24.917839 72.691043 24.490258 72.671533 24.213509 C 72.652047 23.936761 72.53564 23.710181 72.412634 23.710181 C 72.289636 23.710181 72.191477 24.037519 72.195076 24.437268 C 72.19825 24.837015 72.441015 25.868124 72.734578 26.729118 C 73.028142 27.590114 73.225808 28.337995 73.173828 28.390515 C 73.121817 28.443036 72.944106 28.301901 72.779537 28.076839 C 72.614968 27.851776 72.375007 27.732676 72.246236 27.812256 C 72.117466 27.891841 71.951636 27.798367 71.877266 27.604517 C 71.802893 27.410663 71.741874 27.064769 71.741874 26.836088 C 71.741874 26.607409 71.650161 26.363679 71.538269 26.294519 C 71.426368 26.225389 71.183218 26.226966 70.997734 26.298136 C 70.764073 26.387812 70.683037 26.669323 70.733667 27.21436 C 70.80146 27.943782 70.783896 27.968209 70.494405 27.554907 C 70.322705 27.309777 70.077279 26.833919 69.949219 26.497091 C 69.821159 26.160259 69.657717 25.943703 69.585417 26.015983 C 69.513185 26.088263 69.552158 26.429551 69.672233 26.774076 C 69.866027 27.330092 69.836677 27.403394 69.411267 27.429333 C 69.109726 27.447718 68.840144 27.263728 68.68418 26.93324 C 68.486286 26.513899 68.506658 26.350262 68.785465 26.121403 C 68.977551 25.963733 69.394266 25.430177 69.711507 24.935429 C 70.092405 24.341409 70.420967 24.062207 70.679407 24.113257 C 70.894657 24.155779 71.071114 24.355321 71.071114 24.557157 C 71.071114 24.893048 71.101287 24.89389 71.427681 24.567493 C 71.745331 24.249872 71.748161 24.142497 71.455587 23.58409 C 71.135855 22.973864 71.123277 22.970248 70.972412 23.445597 C 70.887156 23.714207 70.723316 23.93394 70.60861 23.93394 C 70.493853 23.93394 70.402438 23.808119 70.406038 23.65437 C 70.409365 23.50062 70.711134 22.673171 71.076799 21.815723 C 71.442472 20.958277 71.733687 19.952228 71.723787 19.579683 C 71.713931 19.207136 71.537991 18.399853 71.332597 17.785994 C 71.075173 17.016592 70.820305 16.643948 70.511975 16.586068 C 70.095607 16.507898 70.089337 16.530849 70.422575 16.919381 C 70.619454 17.148923 70.946794 17.858954 71.149662 18.497062 C 71.352529 19.13517 71.518115 19.811021 71.518115 19.999296 C 71.518115 20.227495 71.393462 20.29399 71.143978 20.19825 C 70.860526 20.089496 70.804374 20.14517 70.912984 20.42821 C 70.993699 20.638552 70.702737 21.687703 70.247392 22.827547 C 69.802343 23.941619 69.173188 25.124374 68.849544 25.455811 C 68.525902 25.787248 67.718833 26.511518 67.055855 27.065015 C 66.392877 27.618511 65.563385 28.247096 65.212557 28.462345 C 64.86173 28.677594 64.239899 28.854053 63.830729 28.854053 C 63.42156 28.854053 62.780949 28.960388 62.407043 29.090731 C 61.883743 29.273155 61.43752 29.243929 60.469694 28.962573 C 59.77817 28.761542 59.270224 28.50381 59.340564 28.389998 C 59.410904 28.276187 59.717043 28.182776 60.021143 28.182776 C 60.325241 28.182776 60.631955 28.334174 60.702755 28.518673 C 60.788849 28.743026 61.138318 28.852635 61.757987 28.850435 C 62.267575 28.848551 62.832788 28.753507 63.013725 28.639079 C 63.194665 28.52465 63.287237 28.375673 63.219397 28.307833 C 63.151558 28.239993 62.827374 28.161887 62.499028 28.134717 C 62.158988 28.106574 61.902165 27.950316 61.902165 27.771431 C 61.902165 27.550719 61.98528 27.523222 62.181734 27.679447 C 62.335482 27.801707 62.646129 27.87198 62.872648 27.83551 C 63.099168 27.799036 63.336164 27.718216 63.398714 27.655676 C 63.461264 27.593131 63.448569 27.438871 63.370809 27.313062 C 63.293054 27.187244 63.056567 27.141115 62.84526 27.210225 C 62.633949 27.279326 62.763065 27.124222 63.132064 26.86606 C 63.501061 26.607901 63.903582 26.392303 64.026583 26.386503 C 64.149581 26.380695 64.593343 26.081878 65.013086 25.722978 C 65.43283 25.364077 65.852756 25.117678 65.945846 25.175208 C 66.038936 25.23274 66.21849 24.951838 66.344788 24.550956 C 66.471093 24.150078 66.641476 23.344097 66.723576 22.759851 C 66.819768 22.075126 66.983116 21.697384 67.182979 21.697384 C 67.35351 21.697384 67.493038 21.590963 67.493038 21.460706 C 67.493038 21.330446 67.593273 21.285984 67.71628 21.362004 C 67.839277 21.438023 67.940039 21.349615 67.940039 21.165116 C 67.940039 20.980618 67.844478 20.770161 67.727649 20.697961 C 67.61082 20.625756 67.402382 20.777506 67.264628 21.034892 C 67.064188 21.409421 66.950622 21.449915 66.694637 21.237463 C 66.518711 21.091464 66.363042 21.059874 66.348922 21.167183 C 66.334712 21.274494 66.343312 21.551749 66.368042 21.783683 C 66.392761 22.015617 66.34921 22.546743 66.27089 22.963973 C 66.19262 23.381203 66.039661 23.668063 65.931376 23.601143 C 65.82309 23.534218 65.671179 23.581558 65.593929 23.706563 C 65.516671 23.831569 65.308666 23.93394 65.131425 23.93394 C 64.895898 23.93394 64.809691 23.64786 64.810514 22.871472 C 64.811201 22.287227 64.907648 21.457123 65.024972 21.026624 C 65.142296 20.596128 65.307374 19.891843 65.391874 19.461344 C 65.476374 19.030847 65.564638 18.323278 65.587728 17.888831 C 65.610819 17.454384 65.798472 16.840953 66.004757 16.526123 C 66.211037 16.211294 66.755676 15.653901 67.215535 15.287439 C 67.675394 14.920975 68.384059 14.457233 68.790116 14.257011 C 69.196175 14.056784 69.674392 13.949369 69.852584 14.017749 C 70.030777 14.086127 70.176595 14.030401 70.176595 13.894242 C 70.176595 13.758083 70.316096 13.646712 70.486654 13.646712 C 70.657211 13.646712 71.281799 14.074293 71.874683 14.597042 C 72.467556 15.119789 73.321639 15.923961 73.772758 16.384013 C 74.238552 16.859031 74.810388 17.802064 75.096191 18.566309 C 75.481513 19.596646 75.903727 20.193777 76.897632 21.113957 C 77.831693 21.978734 78.264615 22.571196 78.441207 23.227006 C 78.576191 23.728304 78.780125 24.196623 78.894409 24.267253 C 79.008699 24.337886 79.049403 24.533033 78.984843 24.701335 C 78.909865 24.896707 79.014541 24.995646 79.274231 24.974186 C 79.531763 24.952896 79.670259 25.08075 79.651469 25.323002 C 79.635193 25.533429 79.68531 25.697538 79.76309 25.687838 C 79.840865 25.678128 80.026569 25.682063 80.175985 25.696623 C 80.325411 25.711189 80.561928 25.936527 80.701534 26.197367 C 80.880156 26.530691 80.882662 26.626662 80.709802 26.519828 C 80.574531 26.436226 80.463822 26.474318 80.463822 26.604578 C 80.463822 26.734836 80.564576 26.853781 80.687581 26.869161 C 80.785884 26.881453 80.903998 26.900545 81.000224 26.916703 L 81.000224 25.901778 C 80.726642 25.578209 80.404455 25.214064 80.076766 24.876518 C 79.546397 24.330186 79.030642 23.530843 78.903194 23.057507 C 78.742599 22.461141 78.297625 21.881042 77.389075 21.082951 C 76.358696 20.17784 75.980647 19.647903 75.489449 18.421098 C 75.083957 17.408321 74.511693 16.510492 73.800146 15.77113 C 73.20828 15.156134 72.293292 14.351091 71.767196 13.982092 C 70.810654 13.311188 70.811063 13.311082 72.003357 13.134082 C 72.74304 13.024273 73.577343 13.05154 74.201672 13.205912 C 74.755169 13.342766 75.98646 13.966222 76.937939 14.591357 C 77.88942 15.216494 78.822201 15.963553 79.010681 16.251204 C 79.199161 16.538858 79.842138 17.021796 80.439535 17.324524 C 80.63709 17.424632 80.822596 17.53918 81.000224 17.663521 L 81.000224 17.122986 C 80.954418 17.072563 80.910824 17.020641 80.910824 16.977258 C 80.910824 16.911696 80.949092 16.86128 81.000224 16.824813 L 81.000224 16.47393 C 80.402502 16.765864 80.116153 16.809362 79.84939 16.641361 C 79.63378 16.505581 79.428493 16.249323 79.393604 16.072404 C 79.358678 15.895485 79.850312 15.32761 80.486043 14.810465 C 80.658898 14.669854 80.826454 14.56934 81.000224 14.449247 L 81.000224 14.118001 C 80.766118 14.28075 80.522845 14.450569 80.265902 14.654403 C 79.055254 15.614808 79.046141 15.617487 78.470146 15.222327 C 78.151781 15.003919 77.336416 14.469402 76.657853 14.034802 C 75.979291 13.600202 75.01472 13.13447 74.514315 12.999723 C 74.013909 12.864976 72.757256 12.777036 71.722237 12.804386 C 70.687219 12.831736 69.784521 12.932002 69.715641 13.027112 C 69.646768 13.122219 69.36955 12.994891 69.100175 12.743925 C 68.830791 12.492961 68.610799 12.137698 68.610799 11.954309 C 68.610799 11.6957 68.762594 11.733085 69.288277 12.121741 C 69.966075 12.622858 69.966008 12.622672 70.797746 12.193054 C 71.255213 11.956763 71.673882 11.73233 71.727922 11.69386 C 71.782001 11.65539 71.604502 11.468465 71.333114 11.278381 C 71.061737 11.088297 70.897418 10.838993 70.968278 10.72441 C 71.039093 10.609827 71.284703 10.515637 71.513981 10.515637 C 71.743268 10.515637 72.240363 10.206284 72.618823 9.8278239 C 72.997284 9.4493643 73.307153 9.0578694 73.307153 8.9581095 C 73.307153 8.8583416 72.074016 8.8062744 70.567269 8.8423543 C 68.712725 8.8867583 67.972638 8.8392594 68.275419 8.6950765 C 68.555738 8.5615886 68.993983 7.7752072 69.449508 6.5882284 C 69.978203 5.21057 70.176078 4.3284782 70.176078 3.3527669 C 70.176078 2.6150372 70.052698 1.8145393 69.902193 1.5735474 C 69.635363 1.1462727 69.613834 1.1494299 69.031445 1.7073893 C 68.434219 2.2795737 68.434212 2.2797959 68.178784 1.5058512 C 67.966529 0.86270824 67.790013 0.71040399 67.13492 0.60409749 C 66.964171 0.57638895 66.824234 0.56027627 66.701355 0.56172282 z M 69.521855 1.8117757 C 69.560879 1.8021789 69.591877 1.8064439 69.611772 1.8262451 C 69.691318 1.9054496 69.498322 2.2280449 69.183374 2.5429972 C 68.868417 2.8579461 68.610799 3.0307346 68.610799 2.9269531 C 68.610799 2.8231707 68.803787 2.5005754 69.039197 2.210201 C 69.215755 1.9924206 69.404783 1.8405662 69.521855 1.8117757 z M 66.309131 1.8737874 C 66.349665 1.8892697 66.37476 1.9295934 66.37476 1.9910929 C 66.37476 2.1140919 66.274007 2.2773238 66.151001 2.3533447 C 66.028004 2.4293654 65.927242 2.3905608 65.927242 2.2675618 C 65.927242 2.1445628 66.028004 1.9818477 66.151001 1.9058268 C 66.212504 1.867816 66.268597 1.8583051 66.309131 1.8737874 z M 67.157141 1.947168 C 67.280139 1.9245738 67.414651 2.1440589 67.455831 2.4349935 C 67.496989 2.725928 67.433921 3.0604787 67.315788 3.1786174 C 67.17846 3.3159258 67.140475 3.18563 67.210885 2.8173991 C 67.271484 2.5005747 67.245003 2.2412069 67.151973 2.2412069 C 67.058939 2.2412069 66.835111 2.4176645 66.654329 2.6329142 C 66.360693 2.982558 66.357902 2.969096 66.629525 2.506307 C 66.796738 2.2214036 67.034144 1.9697659 67.157141 1.947168 z M 59.837691 2.9124837 C 59.962592 2.9124837 60.122942 3.0633644 60.193742 3.2478638 C 60.264542 3.4323623 60.287481 3.5832438 60.244902 3.5832438 C 60.202324 3.5832438 60.042489 3.4323623 59.889368 3.2478638 C 59.728899 3.0545105 59.706796 2.9124837 59.837691 2.9124837 z M 64.499939 3.1357259 C 64.561449 3.1357259 64.549604 3.2364849 64.473584 3.3594849 C 64.397567 3.4824829 64.28498 3.5832438 64.22347 3.5832438 C 64.16197 3.5832438 64.173805 3.4824829 64.249825 3.3594849 C 64.325842 3.2364849 64.438439 3.1357259 64.499939 3.1357259 z M 67.940039 3.3594849 C 68.063037 3.3594849 68.163798 3.4602447 68.163798 3.5832438 C 68.163798 3.7062437 68.063037 3.8070028 67.940039 3.8070028 C 67.817042 3.8070028 67.71628 3.7062437 67.71628 3.5832438 C 67.71628 3.4602447 67.817042 3.3594849 67.940039 3.3594849 z M 69.617456 4.4777629 C 69.678997 4.4777629 69.729077 4.527885 69.729077 4.589384 C 69.729077 4.6508801 69.678966 4.7015218 69.617456 4.7015218 C 69.555906 4.7015218 69.505318 4.6508829 69.505318 4.589384 C 69.505318 4.5278888 69.555946 4.4777629 69.617456 4.4777629 z M 61.05002 4.5206543 C 61.067038 4.5036369 61.116282 4.5187642 61.196265 4.5681966 C 61.338269 4.6559591 61.454647 4.7723368 61.454647 4.8265788 C 61.454647 4.8808197 61.410185 4.924764 61.355945 4.924764 C 61.301704 4.924764 61.185849 4.8089021 61.098079 4.6668986 C 61.048647 4.5869157 61.033003 4.5376717 61.05002 4.5206543 z M 64.585722 4.924764 C 64.708721 4.924764 64.808964 5.0255221 64.808964 5.1485229 C 64.808964 5.271521 64.708721 5.3722819 64.585722 5.3722819 C 64.462724 5.3722819 64.361963 5.271521 64.361963 5.1485229 C 64.361963 5.0255221 64.462724 4.924764 64.585722 4.924764 z M 60.39373 5.016748 C 60.430935 4.9795422 60.60863 5.0404341 60.788538 5.1516235 C 61.02801 5.2996303 61.049152 5.4201744 60.867603 5.6017253 C 60.686054 5.7832735 60.580252 5.7468793 60.472795 5.4668498 C 60.391975 5.2564794 60.35652 5.053949 60.39373 5.016748 z M 65.256482 5.1485229 C 65.379482 5.1485229 65.480241 5.2431065 65.480241 5.358846 C 65.480241 5.4745846 65.379482 5.63165 65.256482 5.7076619 C 65.133484 5.7836796 65.032723 5.6890961 65.032723 5.4973389 C 65.032723 5.3055809 65.133484 5.1485229 65.256482 5.1485229 z M 66.262622 5.1485229 C 66.324082 5.1485229 66.37476 5.1991619 66.37476 5.2606608 C 66.37476 5.3221668 66.324132 5.3722819 66.262622 5.3722819 C 66.201163 5.3722819 66.151001 5.3221687 66.151001 5.2606608 C 66.151001 5.1991567 66.201112 5.1485229 66.262622 5.1485229 z M 63.335152 5.1888306 C 63.352973 5.1915096 63.37253 5.2024368 63.39303 5.222937 C 63.47503 5.3049364 63.47503 5.4391091 63.39303 5.52111 C 63.311029 5.6031094 63.243685 5.5362814 63.243685 5.3722819 C 63.243685 5.2492824 63.281689 5.1807935 63.335152 5.1888306 z M 63.779053 5.3722819 C 63.827394 5.3722819 63.924777 5.5231777 63.995577 5.7076619 C 64.066377 5.8921614 64.026865 6.043042 63.907727 6.043042 C 63.788591 6.043042 63.691203 5.8921614 63.691203 5.7076619 C 63.691203 5.5231633 63.730723 5.3722819 63.779053 5.3722819 z M 63.355306 5.819283 C 63.416814 5.819283 63.467444 5.869922 63.467444 5.9314209 C 63.467444 5.9929179 63.416806 6.043042 63.355306 6.043042 C 63.293808 6.043042 63.243685 5.9929198 63.243685 5.9314209 C 63.243685 5.8699158 63.293806 5.819283 63.355306 5.819283 z M 61.792611 5.8570068 C 61.931101 5.8582788 62.103815 5.8784105 62.277336 5.9169515 C 62.663599 6.0027402 63.111638 6.3688804 63.432304 6.8610799 C 63.768609 7.3772894 63.917126 7.8691929 63.847266 8.2346395 C 63.784529 8.5628232 63.927641 9.1667115 64.185229 9.660909 C 64.430957 10.13235 64.728762 10.57783 64.847205 10.651029 C 64.96565 10.724249 65.12053 10.72652 65.19137 10.65568 C 65.262214 10.584836 65.181726 10.348353 65.012569 10.130131 C 64.737515 9.7752972 64.756235 9.7768411 65.189303 10.145634 C 65.455633 10.372438 65.619465 10.699262 65.553105 10.872205 C 65.480281 11.061978 65.574955 11.186914 65.79185 11.186914 C 65.989509 11.186914 66.151001 11.086156 66.151001 10.963155 C 66.151001 10.840157 66.301885 10.739396 66.486381 10.739396 C 66.670886 10.739396 66.821761 10.92632 66.821761 11.154358 C 66.821761 11.382395 66.575096 11.835038 66.273474 12.160498 C 65.950664 12.508813 65.485423 12.752193 65.142277 12.752193 C 64.80916 12.752193 64.61859 12.848209 64.69786 12.976469 C 64.774156 13.099919 65.107157 13.139766 65.437866 13.064836 C 65.768576 12.989906 66.200767 12.745102 66.398014 12.520683 C 66.739039 12.132687 66.767641 12.149695 66.987126 12.864848 C 67.192564 13.534221 67.157431 13.673873 66.665181 14.135055 C 66.360989 14.42005 65.974835 14.980191 65.807353 15.37994 C 65.639871 15.779685 65.395113 16.107027 65.2632 16.107027 C 65.131288 16.107027 64.907749 15.853048 64.766589 15.543237 C 64.540651 15.047358 64.58608 14.900782 65.146411 14.315922 C 65.49649 13.950518 65.733117 13.601932 65.672477 13.541292 C 65.611843 13.480659 65.216892 13.779815 64.794495 14.206368 C 64.372097 14.63292 63.638798 15.090997 63.165137 15.223877 C 62.691471 15.356757 62.238827 15.394539 62.158997 15.30811 C 62.079162 15.221687 62.139607 15.106188 62.293355 15.051278 C 62.447106 14.996368 62.572925 14.86829 62.572925 14.767057 C 62.572925 14.665817 62.371406 14.636075 62.125407 14.700395 C 61.87941 14.764724 61.678406 14.997021 61.678406 15.217159 C 61.678406 15.498779 61.553536 15.58492 61.25776 15.507581 C 60.96674 15.431476 60.801561 15.130157 60.720841 14.528312 C 60.656708 14.050165 60.447699 13.502242 60.25627 13.310815 C 60.064843 13.119386 59.961014 12.824894 60.025793 12.656075 C 60.090575 12.487256 60.338141 12.298046 60.575631 12.235946 C 60.813121 12.173841 61.007129 12.217751 61.007129 12.333097 C 61.007129 12.448441 60.856248 12.600778 60.671749 12.671578 C 60.48725 12.742376 60.336369 12.889882 60.336369 12.999723 C 60.336369 13.109561 60.437129 13.199711 60.560128 13.199711 C 60.683127 13.199711 60.972061 13.011536 61.201949 12.781649 C 61.504053 12.479552 61.875751 12.381656 62.543469 12.429215 C 63.206277 12.476425 63.467444 12.409056 63.467444 12.19047 C 63.467444 11.963513 63.253459 11.920464 62.628735 12.020972 C 61.877468 12.141839 61.821065 12.118071 62.086133 11.796179 C 62.248876 11.598545 62.525578 11.492161 62.701082 11.559501 C 62.876588 11.626851 63.019926 11.614346 63.019926 11.531596 C 63.019926 11.448851 62.915743 11.186597 62.788416 10.948686 C 62.661089 10.710773 62.460087 10.516154 62.341414 10.516154 C 62.222749 10.516154 62.125407 10.713733 62.125407 10.955404 C 62.125407 11.197075 61.919839 11.504616 61.668587 11.639083 C 61.290942 11.841193 61.137523 11.793965 60.78182 11.367265 C 60.545167 11.083378 60.34822 10.725713 60.34412 10.571965 C 60.340027 10.418215 60.168312 10.292395 59.962748 10.292395 C 59.757184 10.292395 59.412717 10.132738 59.19742 9.9378947 C 58.827953 9.603531 58.84461 9.5495048 59.491459 8.9715454 C 59.868396 8.6347527 60.341101 7.9140592 60.542041 7.3700928 C 60.834742 6.5777166 61.039718 6.3524928 61.572469 6.2383789 C 61.948274 6.1578783 62.050872 6.08436 61.80863 6.069397 C 61.572886 6.0548447 61.439831 5.9834405 61.513041 5.9102336 C 61.549643 5.8736146 61.65412 5.8557348 61.792611 5.8570068 z M 65.815621 6.043042 C 65.877119 6.043042 65.927242 6.0936799 65.927242 6.1551799 C 65.927242 6.2166858 65.877121 6.2668009 65.815621 6.2668009 C 65.754114 6.2668009 65.703483 6.2166798 65.703483 6.1551799 C 65.703483 6.0936744 65.754121 6.043042 65.815621 6.043042 z M 67.604659 6.4905599 C 67.666119 6.4905599 67.71628 6.5406811 67.71628 6.602181 C 67.71628 6.6636899 67.666169 6.7143188 67.604659 6.7143188 C 67.543199 6.7143188 67.493038 6.6636809 67.493038 6.602181 C 67.493038 6.5406841 67.543149 6.4905599 67.604659 6.4905599 z M 63.695337 6.494694 C 63.704981 6.4850503 63.830804 6.5917423 64.082393 6.8047526 C 64.359142 7.0390644 64.585722 7.2656411 64.585722 7.3080811 C 64.585722 7.350511 64.550637 7.3850789 64.508207 7.3850789 C 64.465771 7.3850789 64.239708 7.1584982 64.005396 6.8817505 C 63.792381 6.6301652 63.685693 6.5043378 63.695337 6.494694 z M 67.926603 7.16132 C 68.056857 7.16132 68.163798 7.2620811 68.163798 7.3850789 C 68.163798 7.5080778 68.119316 7.6088379 68.065096 7.6088379 C 68.010854 7.6088379 67.904408 7.5080778 67.828418 7.3850789 C 67.752407 7.2620811 67.796339 7.16132 67.926603 7.16132 z M 62.037557 7.3850789 C 61.839898 7.3850789 61.678406 7.4271733 61.678406 7.4786133 C 61.678406 7.5300532 61.617147 7.7310576 61.542497 7.9256144 C 61.453421 8.1577432 61.530427 8.279598 61.766256 8.279598 C 61.963914 8.279598 62.125407 8.2375036 62.125407 8.1860636 C 62.125407 8.1346237 62.186666 7.9331045 62.261316 7.7385457 C 62.350393 7.506415 62.273386 7.3850789 62.037557 7.3850789 z M 65.368103 7.3850789 C 65.4296 7.3850789 65.480241 7.4352001 65.480241 7.4967 C 65.480241 7.558207 65.429603 7.6088379 65.368103 7.6088379 C 65.306594 7.6088379 65.256482 7.5582 65.256482 7.4967 C 65.256482 7.4351921 65.306593 7.3850789 65.368103 7.3850789 z M 67.269279 8.055839 C 67.392276 8.055839 67.493038 8.1565991 67.493038 8.279598 C 67.493038 8.4025979 67.392276 8.5033569 67.269279 8.5033569 C 67.146282 8.5033569 67.04552 8.4025979 67.04552 8.279598 C 67.04552 8.1565991 67.146282 8.055839 67.269279 8.055839 z M 67.828418 8.055839 C 67.889878 8.055839 67.940039 8.1059602 67.940039 8.1674601 C 67.940039 8.2289571 67.889928 8.279598 67.828418 8.279598 C 67.766968 8.279598 67.71628 8.2289601 67.71628 8.1674601 C 67.71628 8.1059522 67.766908 8.055839 67.828418 8.055839 z M 66.09519 8.0718587 C 66.371939 8.0632137 66.598002 8.1565991 66.598002 8.279598 L 66.598519 8.279598 C 66.598519 8.4026039 66.572942 8.4959372 66.542192 8.4873372 C 66.511447 8.4786932 66.285374 8.3853069 66.03938 8.279598 C 65.612594 8.0962102 65.615068 8.0868487 66.09519 8.0718587 z M 64.646183 8.3044027 C 64.665043 8.2855432 64.726437 8.3338014 64.836869 8.4434123 C 64.989706 8.5951131 65.058681 8.7755715 64.989832 8.8444214 C 64.920978 8.9132753 64.795792 8.789023 64.711812 8.5684692 C 64.65113 8.4091074 64.627324 8.3232622 64.646183 8.3044027 z M 65.815621 8.7265991 C 65.877119 8.7265991 65.927242 8.777237 65.927242 8.838737 C 65.927242 8.9002439 65.877121 8.9503581 65.815621 8.9503581 C 65.754114 8.9503581 65.703483 8.9002369 65.703483 8.838737 C 65.703483 8.777239 65.754121 8.7265991 65.815621 8.7265991 z M 66.440389 8.8103149 C 66.480922 8.7924387 66.536504 8.800727 66.598002 8.838737 C 66.720999 8.9147549 66.821761 9.0211751 66.821761 9.075415 C 66.821761 9.129655 66.720999 9.174117 66.598002 9.174117 C 66.475005 9.174117 66.37476 9.0676998 66.37476 8.937439 C 66.37476 8.872314 66.399856 8.8281912 66.440389 8.8103149 z M 72.813127 9.0196045 C 72.836209 9.0283245 72.700766 9.1771059 72.429687 9.4743571 C 72.131493 9.8013326 71.804676 10.068636 71.703117 10.068636 C 71.601549 10.068636 71.518115 10.037243 71.518115 9.9988729 C 71.518115 9.9605039 71.845457 9.6932006 72.245203 9.4045939 C 72.60861 9.1422227 72.790045 9.0108845 72.813127 9.0196045 z M 69.149268 9.2144246 C 69.167089 9.2171037 69.186643 9.2280311 69.207145 9.2485311 C 69.289155 9.330531 69.289155 9.4647042 69.207145 9.5467041 C 69.125132 9.628703 69.058317 9.5618748 69.058317 9.397876 C 69.058317 9.2748753 69.095803 9.2063875 69.149268 9.2144246 z M 65.475073 9.5017456 C 65.517321 9.4954935 65.57608 9.4961656 65.651807 9.5017456 C 65.795037 9.5122977 65.914842 9.5687858 66.003723 9.6361043 C 65.96155 9.6521453 65.927242 9.6856335 65.927242 9.733256 C 65.927242 9.794765 65.97788 9.8448771 66.03938 9.8448771 C 66.066085 9.8448771 66.0883 9.8322472 66.107593 9.8164551 C 66.104044 9.9034261 66.064888 9.9853767 65.977885 10.014376 C 65.864121 10.052296 65.656779 9.9460984 65.517448 9.7782145 C 65.368923 9.5992534 65.34833 9.5205019 65.475073 9.5017456 z M 60.961137 9.5281006 C 60.863292 9.5155333 60.787298 9.6528126 60.73221 9.9409953 C 60.671779 10.257109 60.711808 10.515637 60.821611 10.515637 C 60.931413 10.515637 61.081987 10.358039 61.155957 10.165271 C 61.229929 9.972505 61.189386 9.7139749 61.06604 9.5906291 C 61.028557 9.5531464 60.993752 9.5322897 60.961137 9.5281006 z M 66.933899 9.6211182 C 66.995439 9.6211182 67.04552 9.6717561 67.04552 9.733256 C 67.04552 9.794765 66.995409 9.8448771 66.933899 9.8448771 C 66.872439 9.8448771 66.821761 9.794756 66.821761 9.733256 C 66.821761 9.6717491 66.872389 9.6211182 66.933899 9.6211182 z M 67.76744 9.706901 C 67.801042 9.6642446 67.855574 9.7141767 67.940039 9.8448771 C 68.059278 10.029377 68.158381 10.306079 68.160181 10.459827 C 68.162069 10.613576 68.063037 10.739396 67.940039 10.739396 C 67.817045 10.739396 67.718097 10.462695 67.719897 10.124447 C 67.721228 9.8848283 67.733838 9.7495575 67.76744 9.706901 z M 68.946179 10.068636 C 69.007639 10.068636 69.058317 10.118747 69.058317 10.180257 C 69.058317 10.241764 69.007689 10.292395 68.946179 10.292395 C 68.884719 10.292395 68.834558 10.241757 68.834558 10.180257 C 68.834558 10.118749 68.884669 10.068636 68.946179 10.068636 z M 66.440389 10.152352 C 66.480922 10.134477 66.536504 10.142247 66.598002 10.180257 C 66.720999 10.256274 66.821761 10.363212 66.821761 10.417452 C 66.821761 10.471692 66.720999 10.515637 66.598002 10.515637 C 66.475005 10.515637 66.37476 10.409219 66.37476 10.278959 C 66.37476 10.213829 66.399856 10.170227 66.440389 10.152352 z M 69.393697 10.515637 C 69.455156 10.515637 69.505318 10.566275 69.505318 10.627775 C 69.505318 10.689274 69.455207 10.739396 69.393697 10.739396 C 69.332237 10.739396 69.282076 10.689275 69.282076 10.627775 C 69.282076 10.566279 69.332187 10.515637 69.393697 10.515637 z M 59.79635 10.683586 C 59.86833 10.652835 60.064934 10.954597 60.233016 11.354346 C 60.517302 12.030459 60.508305 12.081433 60.102275 12.081433 C 59.785792 12.081433 59.665609 11.927682 59.665609 11.522294 L 59.665609 10.851534 C 59.665609 10.790034 59.72438 10.714336 59.79635 10.683586 z M 69.85155 10.963155 C 70.089229 10.963155 70.178057 11.083412 70.096497 11.295951 C 70.026267 11.478977 70.078302 11.604801 70.212252 11.575521 C 70.346202 11.546246 70.502104 11.648116 70.558484 11.801864 C 70.614857 11.955614 70.523813 12.081433 70.356429 12.081433 C 70.189046 12.081433 69.828811 11.924609 69.555444 11.733134 C 69.282078 11.541661 69.058317 11.27769 69.058317 11.146606 C 69.058317 11.00494 69.211681 11.032899 69.436589 11.215336 C 69.693697 11.423886 69.761025 11.432671 69.646912 11.242725 C 69.539381 11.063748 69.613011 10.963155 69.85155 10.963155 z M 68.499178 11.186914 C 68.560637 11.186914 68.610799 11.237035 68.610799 11.298535 C 68.610799 11.360043 68.560688 11.410673 68.499178 11.410673 C 68.437718 11.410673 68.387557 11.360035 68.387557 11.298535 C 68.387557 11.237029 68.437668 11.186914 68.499178 11.186914 z M 67.108049 11.494906 C 67.13156 11.471392 67.162782 11.502857 67.198482 11.592057 C 67.263132 11.753494 67.254675 11.946662 67.180396 12.020972 C 67.106098 12.095283 67.05339 11.963196 67.06309 11.72745 C 67.068454 11.597188 67.084537 11.518419 67.108049 11.494906 z M 58.43571 11.633915 C 58.497218 11.633915 58.547331 11.684553 58.547331 11.746053 C 58.547331 11.807551 58.49721 11.857674 58.43571 11.857674 C 58.374202 11.857674 58.323572 11.807553 58.323572 11.746053 C 58.323572 11.684555 58.37421 11.633915 58.43571 11.633915 z M 65.927242 11.633915 C 65.804243 11.633915 65.703483 11.784796 65.703483 11.969295 C 65.703483 12.153795 65.804243 12.305192 65.927242 12.305192 C 66.050241 12.305192 66.151001 12.153795 66.151001 11.969295 C 66.151001 11.784796 66.050241 11.633915 65.927242 11.633915 z M 69.173039 12.411129 C 69.135518 12.426801 69.132328 12.467633 69.171488 12.531018 C 69.246629 12.652613 69.403023 12.752193 69.518754 12.752193 C 69.634503 12.752193 69.729077 12.712673 69.729077 12.664343 C 69.729077 12.616002 69.572701 12.516418 69.381812 12.443168 C 69.282307 12.404982 69.21056 12.395456 69.173039 12.411129 z M 68.05166 12.528434 C 68.11312 12.528434 68.163798 12.579072 68.163798 12.640572 C 68.163798 12.70208 68.11317 12.752193 68.05166 12.752193 C 67.9902 12.752193 67.940039 12.702072 67.940039 12.640572 C 67.940039 12.579075 67.99015 12.528434 68.05166 12.528434 z M 68.499178 12.975952 C 68.560637 12.975952 68.610799 13.026073 68.610799 13.087573 C 68.610799 13.149072 68.560688 13.199711 68.499178 13.199711 C 68.437718 13.199711 68.387557 13.149073 68.387557 13.087573 C 68.387557 13.026075 68.437668 12.975952 68.499178 12.975952 z M 67.940039 13.436389 C 67.994083 13.436389 68.048379 13.456884 68.089384 13.497884 C 68.171386 13.579884 68.104042 13.646712 67.940039 13.646712 C 67.776025 13.646712 67.709201 13.579884 67.791211 13.497884 C 67.832207 13.456884 67.885995 13.436389 67.940039 13.436389 z M 63.927881 13.870471 C 63.797623 13.870471 63.691203 13.971231 63.691203 14.09423 C 63.691203 14.217229 63.735148 14.317472 63.789388 14.317472 C 63.843629 14.317472 63.950563 14.217229 64.026583 14.09423 C 64.1026 13.971231 64.058139 13.870471 63.927881 13.870471 z M 67.583988 14.134021 C 67.60181 14.1367 67.621364 14.148144 67.641866 14.168644 C 67.723876 14.250644 67.723876 14.384817 67.641866 14.466817 C 67.559853 14.548817 67.493038 14.481471 67.493038 14.317472 C 67.493038 14.194472 67.530523 14.125984 67.583988 14.134021 z M 67.129753 14.401188 C 67.169814 14.393933 67.201324 14.398855 67.220186 14.417725 C 67.295659 14.493201 67.085784 14.826523 66.754065 15.158248 C 66.422338 15.490024 66.151001 15.637864 66.151001 15.48691 C 66.151001 15.335956 66.360868 15.002637 66.617122 14.746387 C 66.809307 14.554196 67.009569 14.422954 67.129753 14.401188 z M 70.916602 14.544849 C 70.770108 14.542966 70.585084 14.646421 70.505774 14.774809 C 70.42643 14.903195 70.46988 15.138612 70.602409 15.298291 C 70.734959 15.457968 70.77739 15.65506 70.69646 15.73599 C 70.615529 15.81692 70.761231 15.883268 71.020471 15.883268 C 71.279712 15.883268 71.554263 15.983513 71.630253 16.10651 C 71.706274 16.229508 71.818857 16.330269 71.880367 16.330269 C 71.941821 16.330269 71.915176 16.204448 71.821456 16.0507 C 71.727729 15.89695 71.411555 15.581265 71.118656 15.348934 C 70.704685 15.020569 70.652605 14.884117 70.884562 14.737085 C 71.087966 14.608118 71.098192 14.547149 70.916602 14.544849 z M 68.928092 14.657503 C 68.834276 14.669062 68.716633 14.708395 68.597363 14.772225 C 68.358833 14.899883 68.163798 15.198475 68.163798 15.43575 C 68.163798 15.843501 68.19186 15.840223 68.681079 15.372188 C 68.965767 15.099837 69.161291 14.801243 69.115161 14.708663 C 69.092087 14.662368 69.021908 14.645945 68.928092 14.657503 z M 69.126013 15.565975 C 69.094843 15.551935 69.052837 15.575588 68.998889 15.629537 C 68.837441 15.790984 68.704144 16.655367 68.673844 17.737935 C 68.640617 18.923689 68.686485 19.3751 68.804069 19.013826 C 68.904145 18.706328 69.050951 17.757702 69.129631 16.905428 C 69.214271 15.988993 69.219524 15.608096 69.126013 15.565975 z M 70.735734 16.10651 C 70.674274 16.10651 70.623596 16.157148 70.623596 16.218648 C 70.623596 16.280154 70.674224 16.330269 70.735734 16.330269 C 70.797194 16.330269 70.847355 16.280148 70.847355 16.218648 C 70.847355 16.15714 70.797244 16.10651 70.735734 16.10651 z M 58.848088 16.167489 C 58.566363 16.141302 58.349244 16.214564 58.146838 16.395382 C 57.936546 16.583244 57.513679 16.770957 57.206844 16.812927 C 56.831373 16.864277 56.522297 17.145513 56.262199 17.672306 C 56.049645 18.102805 55.884519 18.656207 55.894779 18.902205 C 55.905049 19.148203 55.902188 19.514548 55.888578 19.716109 C 55.87271 19.950994 55.578869 20.135863 55.070024 20.231323 C 54.462843 20.345231 54.301911 20.4695 54.386861 20.759456 C 54.447956 20.967977 54.56515 21.517681 54.64731 21.981087 C 54.737541 22.490068 55.019966 22.998976 55.360445 23.266797 C 55.670438 23.510636 56.061215 23.710181 56.229126 23.710181 C 56.397038 23.710181 56.534534 23.609936 56.534534 23.486938 C 56.534534 23.36394 56.328692 23.26318 56.076681 23.26318 C 55.754383 23.26318 55.490277 22.981392 55.186812 22.31285 C 54.94953 21.790103 54.753363 21.193353 54.750663 20.986833 C 54.747188 20.721214 55.117236 20.503365 56.015702 20.242175 C 56.94059 19.973302 57.198814 19.817947 56.966032 19.670634 C 56.698175 19.501121 56.704735 19.467862 57.005306 19.464962 C 57.202595 19.463079 57.630177 19.708005 57.955636 20.009631 C 58.281095 20.311256 58.547331 20.656138 58.547331 20.775993 C 58.547331 20.895847 58.719743 21.026908 58.930253 21.067448 C 59.140761 21.107988 59.52961 20.939564 59.794283 20.692794 C 60.058953 20.446022 60.486606 19.804527 60.745129 19.267558 C 61.179474 18.365404 61.190133 18.231334 60.884656 17.500224 C 60.702835 17.065061 60.599249 16.664252 60.654179 16.609322 C 60.709108 16.554392 60.863087 16.576612 60.996277 16.658931 C 61.12947 16.741247 61.176283 16.908658 61.100663 17.031002 C 61.012581 17.173522 61.272727 17.197821 61.824133 17.098181 C 62.29749 17.012648 62.860489 16.851717 63.075736 16.74058 C 63.290984 16.629443 63.467444 16.438858 63.467444 16.31735 C 63.467444 16.195844 63.215514 16.261448 62.907788 16.463078 C 62.538733 16.704896 62.139085 16.779359 61.7337 16.681669 C 61.395678 16.600212 60.817505 16.503068 60.448507 16.466178 C 60.07951 16.429295 59.496699 16.32143 59.153495 16.2264 C 59.043384 16.19591 58.941996 16.176217 58.848088 16.167489 z M 58.8238 16.42122 C 59.000565 16.442392 59.237312 16.563584 59.658891 16.800525 C 60.189021 17.098474 60.629645 17.536104 60.705855 17.839738 C 60.778235 18.12813 60.766864 18.434503 60.680534 18.520833 C 60.594207 18.607161 60.405602 18.51645 60.261438 18.319295 C 60.117273 18.122137 59.747842 17.881861 59.440816 17.784961 C 58.9266 17.622672 58.942087 17.664046 59.633569 18.311544 C 60.115936 18.763228 60.335699 19.140622 60.248519 19.36781 C 60.173898 19.562265 60.11261 19.814009 60.11261 19.926949 C 60.11261 20.039893 60.012367 20.132104 59.889368 20.132104 C 59.76637 20.132104 59.665609 19.989928 59.665609 19.816361 C 59.665609 19.642797 59.35087 19.236545 58.966427 18.913057 C 58.581985 18.589571 58.22529 18.366934 58.17371 18.418514 C 58.122136 18.470087 58.380486 18.812874 58.747835 19.180225 C 59.220484 19.65287 59.379325 19.987471 59.290955 20.325374 C 59.222276 20.588002 59.083844 20.802865 58.98348 20.802865 C 58.883114 20.802865 58.74025 20.611013 58.66567 20.376017 C 58.591085 20.141021 58.257048 19.763825 57.923596 19.538342 C 57.590145 19.312861 57.065791 19.127822 56.758293 19.126998 C 56.296673 19.125842 56.210115 19.029911 56.261165 18.574577 C 56.295171 18.271271 56.473444 17.793048 56.657524 17.512109 C 56.8416 17.231169 57.208233 17.001546 57.472461 17.001546 C 57.736689 17.001546 58.131075 16.840603 58.348376 16.643945 C 58.530319 16.47929 58.647034 16.400048 58.8238 16.42122 z M 71.348617 16.841349 C 71.313685 16.829756 71.294356 16.831368 71.294356 16.849101 C 71.294356 16.920028 71.520937 17.23063 71.797685 17.538981 C 72.074433 17.847334 72.602773 18.605476 72.971773 19.223633 C 73.340774 19.841788 73.718232 20.349429 73.810482 20.351729 C 73.902757 20.354059 73.97843 20.310464 73.97843 20.255094 C 73.97843 20.199725 73.683873 19.621263 73.324207 18.969385 C 72.964549 18.317507 72.361021 17.544688 71.982686 17.252177 C 71.698935 17.032794 71.45341 16.876129 71.348617 16.841349 z M 64.089628 16.901811 C 63.995937 16.889082 63.77694 16.963959 63.523254 17.102832 C 63.185007 17.287995 62.732361 17.578467 62.517114 17.748271 C 62.301863 17.918074 62.125407 18.121233 62.125407 18.199923 C 62.125407 18.278605 62.226166 18.343066 62.349166 18.343066 C 62.472166 18.343066 62.572925 18.258077 62.572925 18.154447 C 62.572925 18.050817 62.924809 17.776503 63.355306 17.544666 C 63.785803 17.312827 64.138204 17.042892 64.138204 16.944702 C 64.138204 16.920155 64.120858 16.906054 64.089628 16.901811 z M 79.345544 17.224788 C 79.222548 17.224788 79.121785 17.325548 79.121785 17.448547 C 79.121785 17.571545 79.222548 17.672306 79.345544 17.672306 C 79.468542 17.672306 79.569303 17.571545 79.569303 17.448547 C 79.569303 17.325548 79.468542 17.224788 79.345544 17.224788 z M 76.440812 17.335376 C 76.326762 17.405865 76.698771 18.18302 77.267635 19.062402 C 77.836509 19.941784 78.301681 20.793805 78.301681 20.955827 C 78.301681 21.117845 78.351321 21.200742 78.411751 21.140312 C 78.472188 21.079878 78.675302 21.155577 78.863403 21.30826 C 79.155259 21.545173 79.17875 21.520471 79.024117 21.138761 C 78.924455 20.892762 78.734464 20.418116 78.601404 20.084562 C 78.468304 19.751009 78.427117 19.410352 78.509937 19.327502 C 78.592792 19.244648 78.923681 19.34932 79.245292 19.560046 C 79.566904 19.770774 79.972829 20.284599 80.147046 20.701579 C 80.321273 21.118559 80.463822 21.714596 80.463822 22.026046 C 80.463822 22.337494 80.564067 22.592419 80.687065 22.592419 C 80.810061 22.592419 80.910824 22.406136 80.910824 22.178491 C 80.910824 21.950848 80.796581 21.422504 80.657092 21.004403 C 80.517594 20.586301 80.095274 19.916904 79.718648 19.517155 C 79.342013 19.117408 78.899582 18.790584 78.735246 18.790584 C 78.570911 18.790584 78.356756 19.005671 78.259306 19.269108 C 78.101383 19.696015 78.003908 19.610415 77.364787 18.477942 C 76.970383 17.779108 76.554871 17.264886 76.440812 17.335376 z M 68.163798 17.672306 C 68.040801 17.672306 67.940039 17.828848 67.940039 18.020605 C 67.940039 18.212353 68.040801 18.307455 68.163798 18.231445 C 68.286795 18.155426 68.387557 17.998368 68.387557 17.882629 C 68.387557 17.766892 68.286795 17.672306 68.163798 17.672306 z M 65.112821 18.126542 C 65.218221 18.122676 65.243292 18.278733 65.168632 18.473291 C 65.093968 18.667851 65.032723 18.919491 65.032723 19.03243 C 65.032722 19.145375 64.826611 19.237585 64.57487 19.237585 C 64.128777 19.237585 64.127458 19.223729 64.519059 18.685681 C 64.740051 18.382047 65.007412 18.130442 65.112821 18.126542 z M 66.714274 18.966801 C 66.656392 18.956892 66.581287 18.963292 66.484831 18.980237 C 66.239807 19.023281 65.965419 19.174678 65.875049 19.316134 C 65.784683 19.457588 65.709 19.856883 65.7071 20.203418 C 65.704108 20.754086 65.767036 20.813503 66.206812 20.678324 C 66.483559 20.593257 66.725793 20.511367 66.744763 20.495907 C 66.763771 20.480437 66.813294 20.115601 66.854834 19.685103 C 66.903864 19.176716 66.88792 18.996528 66.714274 18.966801 z M 63.835897 19.302698 C 63.881344 19.307021 63.862714 19.364178 63.794039 19.475297 C 63.698067 19.630581 63.555799 20.068629 63.477779 20.448364 C 63.362099 21.011393 63.306828 21.063029 63.178056 20.728967 C 63.091205 20.503659 63.019926 20.180259 63.019926 20.010148 C 63.019926 19.840035 63.233473 19.586473 63.494316 19.446875 C 63.680969 19.346981 63.79045 19.298374 63.835897 19.302698 z M 64.676672 19.501652 C 64.694493 19.504331 64.71405 19.515258 64.73455 19.535758 C 64.81655 19.617758 64.81655 19.751932 64.73455 19.833931 C 64.65255 19.915932 64.585722 19.849104 64.585722 19.685103 C 64.585722 19.562103 64.62321 19.493615 64.676672 19.501652 z M 77.152913 19.566248 C 77.106318 19.612886 77.134916 19.861614 77.216475 20.118669 C 77.298062 20.375716 77.456253 20.529757 77.567875 20.460767 C 77.683234 20.389446 77.655834 20.150979 77.504313 19.908346 C 77.357737 19.673643 77.199583 19.519618 77.152913 19.566248 z M 56.422913 19.685103 C 56.484422 19.685103 56.534534 19.735215 56.534534 19.796724 C 56.534534 19.858232 56.484413 19.908346 56.422913 19.908346 C 56.361406 19.908346 56.310775 19.858224 56.310775 19.796724 C 56.310775 19.735216 56.361413 19.685103 56.422913 19.685103 z M 72.412634 20.145024 C 72.358591 20.145024 72.304811 20.165519 72.263806 20.206519 C 72.181804 20.288517 72.24864 20.355863 72.412634 20.355863 C 72.576657 20.355863 72.643989 20.288518 72.561979 20.206519 C 72.520979 20.165519 72.466677 20.145024 72.412634 20.145024 z M 64.452913 20.396171 C 64.470734 20.39885 64.490291 20.409778 64.510791 20.430278 C 64.592791 20.512277 64.592791 20.646451 64.510791 20.728451 C 64.42879 20.810448 64.361963 20.74362 64.361963 20.579622 C 64.361963 20.456622 64.39945 20.388134 64.452913 20.396171 z M 72.971773 20.579622 C 72.910313 20.579622 72.860152 20.629744 72.860152 20.691243 C 72.860152 20.752751 72.910263 20.802865 72.971773 20.802865 C 73.033323 20.802865 73.083911 20.752743 73.083911 20.691243 C 73.083911 20.629737 73.033283 20.579622 72.971773 20.579622 z M 56.596029 20.608561 C 56.504601 20.598946 56.388327 20.67388 56.302507 20.809583 C 56.188081 20.99052 56.092533 21.235647 56.090633 21.354252 C 56.088749 21.47286 56.25736 21.399915 56.465287 21.191988 C 56.673263 20.984061 56.768781 20.738938 56.677161 20.647319 C 56.654256 20.624415 56.626505 20.611766 56.596029 20.608561 z M 57.884322 21.026624 C 57.765651 21.026624 57.564647 21.221245 57.437321 21.459155 C 57.309989 21.697068 57.207761 22.024407 57.210461 22.186243 C 57.213195 22.348079 57.412282 22.22864 57.652812 21.921143 C 57.893339 21.613643 58.092462 21.286822 58.095162 21.194572 C 58.097896 21.102316 58.002994 21.026624 57.884322 21.026624 z M 78.562646 21.474141 C 78.501106 21.474141 78.451025 21.524263 78.451025 21.585763 C 78.451025 21.647258 78.501137 21.697384 78.562646 21.697384 C 78.624106 21.697384 78.674784 21.647262 78.674784 21.585763 C 78.674784 21.524265 78.624156 21.474141 78.562646 21.474141 z M 71.741874 21.487061 C 71.687829 21.487061 71.633534 21.507556 71.592529 21.548556 C 71.510528 21.630556 71.577871 21.697384 71.741874 21.697384 C 71.905897 21.697384 71.972712 21.630555 71.890702 21.548556 C 71.849702 21.507556 71.79592 21.487061 71.741874 21.487061 z M 74.692082 21.516516 C 74.675063 21.533533 74.690194 21.583294 74.739624 21.663277 C 74.827389 21.805281 74.943786 21.921143 74.998006 21.921143 C 75.052206 21.921143 75.096191 21.876681 75.096191 21.822441 C 75.096191 21.7682 74.980333 21.652345 74.838326 21.564575 C 74.758351 21.515144 74.7091 21.499499 74.692082 21.516516 z M 66.03938 21.697384 C 65.977873 21.697384 65.927242 21.748022 65.927242 21.809521 C 65.927242 21.87103 65.97788 21.921143 66.03938 21.921143 C 66.100836 21.921143 66.151001 21.871021 66.151001 21.809521 C 66.151001 21.748014 66.10088 21.697384 66.03938 21.697384 z M 63.174438 21.701001 C 63.273947 21.702885 63.506704 21.80191 63.691203 21.921143 C 63.980294 22.107972 63.97421 22.138284 63.648311 22.141284 C 63.440323 22.143167 63.208084 22.044141 63.132064 21.921143 C 63.056046 21.798141 63.074929 21.699101 63.174438 21.701001 z M 68.499178 21.921143 C 68.437718 21.921143 68.387557 21.97178 68.387557 22.03328 C 68.387557 22.094777 68.437668 22.144902 68.499178 22.144902 C 68.560637 22.144902 68.610799 22.09478 68.610799 22.03328 C 68.610799 21.971774 68.560688 21.921143 68.499178 21.921143 z M 64.299434 21.99814 C 64.34314 21.976658 64.348978 22.115716 64.353178 22.397083 C 64.357991 22.72027 64.21108 23.110059 64.026583 23.26318 C 63.842083 23.416294 63.691203 23.490467 63.691203 23.428027 C 63.691203 23.365589 63.838113 22.975801 64.017798 22.56193 C 64.174229 22.201617 64.255729 22.019622 64.299434 21.99814 z M 67.18453 22.008476 C 67.103028 22.011219 67.04552 22.099785 67.04552 22.243604 C 67.04552 22.435361 67.090002 22.592419 67.144222 22.592419 C 67.198463 22.592419 67.300828 22.498665 67.371598 22.384163 C 67.442357 22.269663 67.397908 22.112597 67.272896 22.035347 C 67.241646 22.016033 67.211697 22.007561 67.18453 22.008476 z M 75.432088 22.144902 C 75.370628 22.144902 75.31995 22.195023 75.31995 22.256523 C 75.31995 22.318029 75.370578 22.36866 75.432088 22.36866 C 75.493629 22.36866 75.543709 22.318023 75.543709 22.256523 C 75.543709 22.195014 75.493598 22.144902 75.432088 22.144902 z M 68.298674 22.707658 C 68.17093 22.741563 67.975828 22.885165 67.802063 23.083346 C 67.570372 23.347586 67.506728 23.490032 67.66047 23.400122 C 67.81422 23.310215 67.940039 23.32525 67.940039 23.433712 C 67.940039 23.542173 67.638877 24.252634 67.270829 25.012427 C 66.902782 25.772219 66.500251 26.393738 66.37631 26.393738 C 66.252359 26.393738 66.151001 26.510057 66.151001 26.65212 C 66.151001 26.798985 66.343273 26.736551 66.596452 26.507426 C 66.84135 26.285794 67.303845 25.657403 67.624296 25.110612 C 67.944729 24.563817 68.290626 23.824825 68.392725 23.468852 C 68.494565 23.112878 68.498483 22.772569 68.400993 22.712309 C 68.376617 22.697245 68.341255 22.696356 68.298674 22.707658 z M 71.814221 22.861654 C 71.768122 22.855809 71.741874 22.88719 71.741874 22.957255 C 71.741874 23.084355 71.808692 23.255594 71.890702 23.337594 C 71.972694 23.419594 72.092222 23.434733 72.155802 23.371183 C 72.219351 23.307633 72.152008 23.136395 72.006458 22.990845 C 71.926219 22.910606 71.86032 22.867498 71.814221 22.861654 z M 77.774064 23.039421 C 77.65422 23.039421 77.556506 23.145839 77.556506 23.276099 C 77.556506 23.406359 77.654155 23.452725 77.773547 23.378935 C 77.892938 23.305145 78.054805 23.500487 78.133215 23.813017 C 78.211655 24.125544 78.368171 24.381458 78.480998 24.381458 C 78.593816 24.381458 78.529705 24.079178 78.338888 23.710181 C 78.148071 23.341182 77.893905 23.039421 77.774064 23.039421 z M 64.249825 23.710181 C 64.311323 23.710181 64.361963 23.760819 64.361963 23.822319 C 64.361963 23.883816 64.311325 23.93394 64.249825 23.93394 C 64.188327 23.93394 64.138204 23.883818 64.138204 23.822319 C 64.138204 23.760811 64.188325 23.710181 64.249825 23.710181 z M 63.704122 24.157699 C 63.819858 24.157699 63.914109 24.23288 63.913411 24.32513 C 63.9128 24.41738 63.208518 24.825593 62.348132 25.232052 C 61.487748 25.638514 60.783887 26.063237 60.783887 26.175663 C 60.783887 26.288083 60.959828 26.323451 61.175077 26.254211 C 61.505407 26.147947 61.514037 26.165769 61.230888 26.36945 C 61.046389 26.502169 60.551461 26.612496 60.131213 26.614396 C 59.710967 26.61628 59.426404 26.676982 59.498694 26.749272 C 59.570988 26.821566 60.148417 26.912427 60.78182 26.951326 C 61.415221 26.990231 61.993713 27.082148 62.067013 27.155448 C 62.140311 27.22874 62.026573 27.288774 61.814315 27.288774 C 61.602055 27.288774 61.490248 27.389017 61.566268 27.512016 C 61.64228 27.635015 61.606697 27.735775 61.486686 27.735775 C 61.366678 27.735775 61.20962 27.609953 61.13787 27.456205 C 61.043523 27.254029 60.973286 27.247428 60.884656 27.432434 C 60.817258 27.57313 60.591195 27.654848 60.381844 27.613818 C 60.172492 27.572784 59.724288 27.480956 59.386039 27.409696 C 59.01139 27.330777 58.765304 27.12875 58.756104 26.892932 C 58.744238 26.58943 58.688115 26.614409 58.497721 27.009204 C 58.302819 27.413354 58.334887 27.601285 58.660502 27.961084 L 58.661019 27.961084 C 58.884152 28.207638 59.011849 28.463958 58.945239 28.530558 C 58.878635 28.597161 58.661243 28.488927 58.462065 28.289746 C 58.174549 28.002242 58.12947 27.665428 58.242957 26.657288 C 58.321582 25.958863 58.397815 25.369804 58.412455 25.348324 C 58.427106 25.326838 59.089992 25.242685 59.88575 25.161255 C 60.68151 25.079833 61.504666 24.92168 61.714579 24.809338 C 61.924494 24.696999 62.348316 24.6047 62.656641 24.6047 C 62.964967 24.6047 63.279286 24.504457 63.355306 24.381458 C 63.431323 24.258459 63.588381 24.157699 63.704122 24.157699 z M 75.448625 24.936462 C 75.482964 24.934504 75.513321 24.945755 75.537508 24.972119 C 75.634257 25.077574 75.829839 25.528411 75.972107 25.974125 C 76.114375 26.41984 76.282821 27.35122 76.346761 28.04325 C 76.410701 28.73528 76.43241 29.290789 76.39482 29.277799 C 76.357241 29.264823 76.10891 29.035674 75.842916 28.768787 C 75.576932 28.501901 75.295568 27.883593 75.218148 27.39471 C 75.077408 26.505835 75.077619 26.506036 75.550427 27.365771 C 75.810468 27.838624 76.073715 28.174693 76.135404 28.113013 C 76.197083 28.051337 76.077161 27.664812 75.868754 27.253634 C 75.660357 26.842457 75.342841 26.338305 75.163371 26.133289 C 74.903344 25.836234 74.890364 25.660685 75.099292 25.270292 C 75.207443 25.068213 75.345606 24.942337 75.448625 24.936462 z M 74.363936 25.59482 C 74.388482 25.604159 74.421667 25.629813 74.463155 25.671301 C 74.592655 25.801255 74.655428 26.039645 74.601648 26.200985 C 74.545815 26.368475 74.444527 26.267222 74.365487 25.964823 C 74.292532 25.685835 74.2903 25.566802 74.363936 25.59482 z M 55.800728 25.777755 C 57.862333 25.834636 57.862415 25.835073 57.813525 26.896033 C 57.76739 27.897322 57.724576 27.964659 57.052332 28.092342 C 56.660565 28.166752 56.232981 28.161406 56.102002 28.080457 C 55.971021 27.999505 55.851248 28.039598 55.835868 28.169857 C 55.820498 28.300115 55.795438 28.528699 55.780058 28.677836 C 55.764682 28.826971 55.349631 29.042789 54.857633 29.157393 C 54.365637 29.271998 53.889153 29.477173 53.798783 29.61318 C 53.708421 29.749186 53.634452 30.111834 53.634452 30.419332 C 53.634452 30.726831 53.741928 31.129353 53.873714 31.313851 C 54.066215 31.583355 54.092022 31.550674 54.003422 31.146419 C 53.942762 30.869672 53.930384 30.643091 53.976034 30.643091 C 54.021689 30.643091 54.163367 30.838721 54.29126 31.07769 C 54.455639 31.384837 54.447548 31.679567 54.263354 32.08383 C 54.120046 32.398356 53.918576 32.655888 53.81532 32.655888 C 53.712062 32.655888 53.627218 32.555129 53.627218 32.432129 C 53.627218 32.30913 53.462521 32.20837 53.260832 32.20837 C 53.059143 32.20837 52.772363 32.375011 52.623661 32.578373 C 52.385744 32.903746 52.322615 32.859339 52.096045 32.209403 C 51.954438 31.803191 51.83818 31.445216 51.83818 31.413586 C 51.83818 31.381966 52.064758 31.399144 52.341508 31.452344 C 52.844646 31.549067 52.844896 31.549184 52.336857 31.283362 C 52.057434 31.137163 51.767925 30.774824 51.693486 30.478243 C 51.619049 30.181664 51.671147 29.69002 51.809757 29.385803 C 51.948366 29.081588 52.059471 28.762229 52.056771 28.675769 C 52.054036 28.589307 51.854948 28.770314 51.614421 29.077812 C 51.236263 29.56125 51.176887 29.580345 51.172587 29.218888 C 51.169851 28.988981 51.514998 28.228154 51.939982 27.528552 C 52.364967 26.828952 52.943947 26.13638 53.226208 25.989111 C 53.543756 25.823432 54.525095 25.742555 55.800728 25.777755 z M 72.992961 25.802043 C 73.018966 25.803369 73.047795 25.812494 73.07771 25.830981 C 73.197371 25.904933 73.404602 26.371147 73.538147 26.867094 C 73.671662 27.363038 73.74973 27.860227 73.71178 27.971936 C 73.673832 28.083646 73.466593 27.748138 73.251343 27.226245 C 73.036093 26.704353 72.860152 26.14676 72.860152 25.987044 C 72.860152 25.867245 72.914944 25.798062 72.992961 25.802043 z M 79.850423 25.802559 C 79.838138 25.831614 79.894002 25.910807 80.01217 26.05319 C 80.16763 26.240505 80.332583 26.393738 80.379073 26.393738 C 80.425563 26.393738 80.463822 26.304108 80.463822 26.194267 C 80.463822 26.084428 80.298308 25.931199 80.096403 25.853719 C 79.942934 25.794829 79.862708 25.773505 79.850423 25.802559 z M 63.243685 26.183415 C 63.29773 26.183415 63.35203 26.20391 63.39303 26.24491 C 63.47503 26.32691 63.407685 26.393738 63.243685 26.393738 C 63.079686 26.393738 63.012857 26.32691 63.094857 26.24491 C 63.135856 26.20391 63.18964 26.183415 63.243685 26.183415 z M 64.888546 26.451615 C 64.859492 26.4639 64.880815 26.544129 64.939705 26.697595 C 65.01718 26.899491 65.170414 27.065015 65.280253 27.065015 C 65.390092 27.065015 65.480241 27.026715 65.480241 26.980265 C 65.480241 26.933824 65.327009 26.768821 65.139693 26.613363 C 64.997309 26.495199 64.917599 26.439331 64.888546 26.451615 z M 64.427592 26.701213 C 64.387058 26.719087 64.361963 26.762691 64.361963 26.82782 C 64.361963 26.958079 64.462724 27.065015 64.585722 27.065015 C 64.708721 27.065015 64.808964 27.020553 64.808964 26.966313 C 64.808964 26.912072 64.708721 26.805655 64.585722 26.729635 C 64.524223 26.691627 64.468126 26.683338 64.427592 26.701213 z M 63.830212 26.70483 C 63.74871 26.707573 63.691203 26.796139 63.691203 26.939958 C 63.691203 27.131715 63.735148 27.288774 63.789388 27.288774 C 63.843629 27.288774 63.946004 27.195019 64.016764 27.080518 C 64.087528 26.966018 64.043068 26.808952 63.918062 26.731702 C 63.886811 26.712387 63.85738 26.703915 63.830212 26.70483 z M 65.815621 26.841256 C 65.754114 26.841256 65.703483 26.891377 65.703483 26.952877 C 65.703483 27.014383 65.754121 27.065015 65.815621 27.065015 C 65.877119 27.065015 65.927242 27.014377 65.927242 26.952877 C 65.927242 26.891369 65.877121 26.841256 65.815621 26.841256 z M 61.343026 28.183293 C 61.404533 28.183293 61.454647 28.233414 61.454647 28.294914 C 61.454647 28.356411 61.404526 28.406535 61.343026 28.406535 C 61.281518 28.406535 61.230888 28.356414 61.230888 28.294914 C 61.230888 28.233406 61.281526 28.183293 61.343026 28.183293 z M 78.227266 28.419971 C 78.173223 28.419971 78.119443 28.440466 78.078438 28.481466 C 77.996437 28.563466 78.063273 28.630294 78.227266 28.630294 C 78.391289 28.630294 78.458621 28.563466 78.376611 28.481466 C 78.335611 28.440466 78.28131 28.419971 78.227266 28.419971 z M 73.642533 28.854053 C 73.703984 28.854053 73.754671 28.904174 73.754671 28.965674 C 73.754671 29.02718 73.704043 29.077812 73.642533 29.077812 C 73.581073 29.077812 73.530912 29.027174 73.530912 28.965674 C 73.530912 28.904176 73.581023 28.854053 73.642533 28.854053 z M 52.996765 29.085563 C 52.917609 29.088221 52.809734 29.172069 52.723914 29.307772 C 52.609489 29.488708 52.514457 29.89447 52.512557 30.209526 C 52.510674 30.52458 52.720828 31.009139 52.979195 31.286462 C 53.237561 31.56378 53.505938 31.733304 53.576058 31.663184 C 53.646174 31.593068 53.468533 31.285818 53.18125 30.980021 C 52.722896 30.492126 52.69206 30.351748 52.928035 29.833838 C 53.075938 29.509227 53.137251 29.183675 53.064461 29.110885 C 53.046263 29.092686 53.02315 29.084677 52.996765 29.085563 z M 76.952409 29.830221 C 76.894426 29.8882 77.018301 30.296139 77.227327 30.736625 C 77.436355 31.177112 77.696599 31.53761 77.805587 31.53761 C 77.914542 31.53761 78.003507 31.473746 78.003507 31.396016 C 78.003507 31.318287 77.7907 30.910865 77.530668 30.490129 C 77.270636 30.069394 77.010409 29.772241 76.952409 29.830221 z M 69.393697 29.972331 C 69.332237 29.972331 69.282076 30.022452 69.282076 30.083952 C 69.282076 30.14546 69.332187 30.195573 69.393697 30.195573 C 69.455156 30.195573 69.505318 30.145452 69.505318 30.083952 C 69.505318 30.022446 69.455207 29.972331 69.393697 29.972331 z M 71.609583 30.012122 C 71.556117 30.004084 71.518115 30.072573 71.518115 30.195573 C 71.518115 30.359574 71.58545 30.426918 71.66746 30.344918 C 71.74947 30.262917 71.74947 30.128745 71.66746 30.046745 C 71.646957 30.026245 71.627404 30.014801 71.609583 30.012122 z M 71.609583 33.366956 C 71.556117 33.358919 71.518115 33.427407 71.518115 33.550407 C 71.518115 33.714407 71.58545 33.781235 71.66746 33.699235 C 71.74947 33.617236 71.74947 33.483062 71.66746 33.401062 C 71.646957 33.380562 71.627404 33.369634 71.609583 33.366956 z M 53.753825 33.427417 C 53.80708 33.415601 53.926372 33.466325 54.135714 33.575212 C 54.409695 33.717717 54.675642 33.871436 54.726892 33.916276 C 54.778142 33.961116 54.612811 33.997408 54.359473 33.997408 C 54.106134 33.997408 53.840184 33.844206 53.768294 33.65686 C 53.713364 33.513716 53.700569 33.439233 53.753825 33.427417 z M 52.312052 33.550407 C 52.435052 33.550407 52.473338 33.651168 52.397319 33.774166 C 52.321301 33.897167 52.158582 33.997408 52.035583 33.997408 C 51.912584 33.997408 51.874297 33.897167 51.950317 33.774166 C 52.026334 33.651168 52.189052 33.550407 52.312052 33.550407 z M 53.515597 33.774166 C 53.577104 33.774166 53.627218 33.824287 53.627218 33.885787 C 53.627218 33.947285 53.577096 33.997408 53.515597 33.997408 C 53.454089 33.997408 53.403975 33.947287 53.403975 33.885787 C 53.403975 33.824278 53.454097 33.774166 53.515597 33.774166 z M 56.402242 34.037716 C 56.420063 34.040395 56.43962 34.051839 56.46012 34.072339 C 56.54212 34.15434 56.54212 34.288512 56.46012 34.370512 C 56.378118 34.452512 56.310775 34.385166 56.310775 34.221167 C 56.310775 34.098166 56.348779 34.029679 56.402242 34.037716 z M 55.482402 34.304883 C 55.522935 34.287008 55.578515 34.294778 55.640015 34.332788 C 55.763014 34.408805 55.863774 34.515743 55.863774 34.569983 C 55.863774 34.624223 55.763014 34.668685 55.640015 34.668685 C 55.517015 34.668685 55.416256 34.56175 55.416256 34.43149 C 55.416256 34.36636 55.441868 34.322758 55.482402 34.304883 z M 51.055798 34.444926 C 51.117307 34.444926 51.167419 34.495047 51.167419 34.556547 C 51.167419 34.618045 51.117298 34.668685 51.055798 34.668685 C 50.994302 34.668685 50.94366 34.618047 50.94366 34.556547 C 50.94366 34.495038 50.994298 34.444926 51.055798 34.444926 z M 53.795166 34.448027 C 53.948914 34.446143 54.074736 34.545685 54.074736 34.668685 C 54.074736 34.791685 53.798033 34.890726 53.459786 34.888826 C 52.980549 34.886159 52.918815 34.837616 53.180216 34.668685 C 53.364715 34.549451 53.641417 34.449927 53.795166 34.448027 z M 50.2729 34.905363 C 50.326946 34.905363 50.380729 34.925858 50.421729 34.966858 C 50.503725 35.048859 50.436898 35.115686 50.2729 35.115686 C 50.108901 35.115686 50.041556 35.048858 50.123556 34.966858 C 50.164555 34.925858 50.218855 34.905363 50.2729 34.905363 z M 52.285697 34.905363 C 52.339743 34.905363 52.393526 34.925858 52.434526 34.966858 C 52.516523 35.048859 52.449695 35.115686 52.285697 35.115686 C 52.121698 35.115686 52.054353 35.048858 52.136353 34.966858 C 52.177352 34.925858 52.231652 34.905363 52.285697 34.905363 z M 54.883472 35.025252 C 55.072284 35.023879 55.215361 35.048634 55.266394 35.099666 C 55.368456 35.201729 55.507429 35.700203 55.575419 36.207092 C 55.668551 36.901439 55.622692 37.129044 55.389901 37.130033 C 55.219955 37.130791 54.806056 37.274632 54.47006 37.44991 C 53.859158 37.768599 53.859034 37.768559 53.520247 36.627738 C 53.33392 36.000286 53.223444 35.445045 53.274784 35.393705 C 53.326122 35.342368 53.753714 35.213621 54.224597 35.107418 C 54.460039 35.054278 54.694659 35.026625 54.883472 35.025252 z M 72.003357 35.025252 C 72.077878 35.023106 72.172975 35.036683 72.294295 35.059875 C 72.598038 35.11794 72.975503 35.324274 73.133004 35.518762 C 73.331676 35.764097 73.336631 35.822961 73.150057 35.710999 C 72.984436 35.611609 72.752024 35.788592 72.544409 36.171436 C 72.294318 36.632601 72.204477 36.688605 72.198177 36.388477 C 72.19325 36.165971 72.088631 36.046323 71.965633 36.122343 C 71.836043 36.202434 71.741874 35.985575 71.741874 35.607129 C 71.741874 35.17671 71.779793 35.031691 72.003357 35.025252 z M 75.780387 35.339445 C 75.910657 35.339445 75.955079 35.440205 75.879089 35.563204 C 75.803068 35.686203 75.696631 35.786446 75.642411 35.786446 C 75.588211 35.786446 75.543709 35.686203 75.543709 35.563204 C 75.543709 35.440205 75.650125 35.339445 75.780387 35.339445 z M 52.559066 35.473804 C 52.712714 35.461233 52.903685 35.868858 52.995215 36.405013 C 53.084777 36.929649 53.212555 37.447625 53.279435 37.555847 C 53.34632 37.664068 53.242808 37.81323 53.048958 37.88761 C 52.855104 37.962002 52.406215 38.023002 52.051603 38.023002 C 51.665633 38.023002 51.323575 37.866097 51.199459 37.631812 C 51.085428 37.416563 50.888656 36.863159 50.762276 36.401912 C 50.532493 35.563286 50.532751 35.563164 51.409265 35.529614 C 51.891348 35.511164 52.408721 35.486094 52.559066 35.473804 z M 71.853495 36.680965 C 71.915036 36.680965 71.965633 36.731603 71.965633 36.793103 C 71.965633 36.854612 71.915005 36.904724 71.853495 36.904724 C 71.791946 36.904724 71.741874 36.854603 71.741874 36.793103 C 71.741874 36.731597 71.791985 36.680965 71.853495 36.680965 z M 73.083394 36.904724 C 73.097789 36.913156 73.036442 36.99692 72.908211 37.161039 C 72.750131 37.36334 72.649382 37.665101 72.684452 37.831799 C 72.719513 37.998495 72.597139 38.134623 72.412634 38.134623 C 72.228138 38.134623 71.994383 38.235382 71.892769 38.358382 C 71.783149 38.491026 71.748647 38.445725 71.808537 38.246761 C 71.86402 38.062265 72.022596 37.936442 72.16097 37.967192 C 72.299344 37.997944 72.412634 37.884447 72.412634 37.715011 C 72.412634 37.545571 72.589092 37.268872 72.804342 37.100061 C 72.978964 36.963115 73.069 36.896293 73.083394 36.904724 z M 71.853495 37.128483 C 71.915036 37.128483 71.965633 37.178604 71.965633 37.240104 C 71.965633 37.301612 71.915005 37.352242 71.853495 37.352242 C 71.791946 37.352242 71.741874 37.301604 71.741874 37.240104 C 71.741874 37.178596 71.791985 37.128483 71.853495 37.128483 z M 55.655001 37.51554 C 55.81991 37.508103 55.896572 37.563137 55.940771 37.67832 C 56.00148 37.836527 56.120351 38.424215 56.204321 38.984184 C 56.356997 40.002308 56.356821 40.002259 55.495321 40.241471 C 55.021495 40.373039 54.563248 40.48107 54.476778 40.481767 C 54.390309 40.482454 54.214715 40.105856 54.086621 39.644609 C 53.958526 39.183362 53.853225 38.639065 53.852527 38.43538 C 53.851724 38.196786 54.203409 37.945211 54.841097 37.72793 C 55.237447 37.592882 55.490092 37.522976 55.655001 37.51554 z M 80.127926 38.023002 C 80.189386 38.023002 80.240063 38.073123 80.240063 38.134623 C 80.240063 38.196131 80.189436 38.246761 80.127926 38.246761 C 80.066466 38.246761 80.016305 38.196123 80.016305 38.134623 C 80.016305 38.073116 80.066416 38.023002 80.127926 38.023002 z M 52.913566 38.260714 C 53.35632 38.267816 53.386978 38.421189 53.501127 39.029659 C 53.585111 39.477328 53.701143 39.967219 53.758993 40.117965 C 53.827334 40.29606 53.471092 40.472457 52.742 40.62181 C 51.784057 40.818042 51.605112 40.800446 51.518302 40.499854 C 51.462377 40.306207 51.385944 39.746884 51.348804 39.257035 C 51.281282 38.366404 51.281264 38.366363 52.314636 38.291203 C 52.572136 38.272474 52.765981 38.258346 52.913566 38.260714 z M 69.617456 39.81204 C 69.555906 39.81204 69.505318 39.862161 69.505318 39.923661 C 69.505318 39.98517 69.555946 40.035799 69.617456 40.035799 C 69.678997 40.035799 69.729077 39.985161 69.729077 39.923661 C 69.729077 39.862153 69.678966 39.81204 69.617456 39.81204 z M 80.240063 39.824959 C 80.294106 39.824959 80.347887 39.845454 80.388892 39.886454 C 80.470894 39.968454 80.404057 40.035799 80.240063 40.035799 C 80.076041 40.035799 80.008709 39.968454 80.090719 39.886454 C 80.131719 39.845454 80.186021 39.824959 80.240063 39.824959 z M 74.98457 40.035799 C 75.04602 40.035799 75.096191 40.08592 75.096191 40.14742 C 75.096191 40.208928 75.04608 40.259558 74.98457 40.259558 C 74.92311 40.259558 74.872949 40.20892 74.872949 40.14742 C 74.872949 40.085923 74.92306 40.035799 74.98457 40.035799 z M 70.077893 40.259558 C 70.023652 40.259558 69.916688 40.3598 69.840698 40.4828 C 69.764678 40.6058 69.809146 40.706559 69.9394 40.706559 C 70.069663 40.706559 70.176595 40.6058 70.176595 40.4828 C 70.176595 40.3598 70.132113 40.259558 70.077893 40.259558 z M 56.199154 40.4828 C 56.260662 40.4828 56.310775 40.533438 56.310775 40.594938 C 56.310775 40.656446 56.260654 40.706559 56.199154 40.706559 C 56.137646 40.706559 56.087533 40.656438 56.087533 40.594938 C 56.087533 40.53343 56.137654 40.4828 56.199154 40.4828 z M 67.912651 40.706559 C 68.020594 40.706559 68.236105 40.860152 68.391691 41.047624 C 68.547263 41.235095 68.610257 41.452812 68.531217 41.531832 C 68.452189 41.610858 68.387557 41.547414 68.387557 41.390755 C 68.387557 41.229446 68.241633 41.161792 68.05166 41.234692 C 67.847327 41.313105 67.71628 41.235283 67.71628 41.035221 C 67.71628 40.854583 67.804715 40.706559 67.912651 40.706559 z M 73.195532 40.706559 C 73.257082 40.706559 73.307153 40.757197 73.307153 40.818697 C 73.307153 40.880205 73.257042 40.930318 73.195532 40.930318 C 73.134081 40.930318 73.083911 40.880197 73.083911 40.818697 C 73.083911 40.75719 73.134022 40.706559 73.195532 40.706559 z M 52.937854 40.957707 C 53.015544 40.960907 53.0826 40.98153 53.119755 41.018685 C 53.194066 41.092992 53.061981 41.146207 52.826233 41.136507 C 52.56571 41.125776 52.512441 41.072505 52.690841 41.001115 C 52.77156 40.96881 52.860164 40.954507 52.937854 40.957707 z M 69.100692 40.97321 C 69.083672 40.990227 69.099316 41.039471 69.148751 41.119454 C 69.236507 41.261459 69.352913 41.377319 69.407133 41.377319 C 69.461333 41.377319 69.505318 41.333374 69.505318 41.279134 C 69.505318 41.224893 69.389451 41.108512 69.247453 41.020752 C 69.167478 40.971321 69.117712 40.956193 69.100692 40.97321 z M 67.157141 41.601078 C 67.218601 41.601078 67.269279 41.651716 67.269279 41.713216 C 67.269279 41.774723 67.218651 41.824837 67.157141 41.824837 C 67.095681 41.824837 67.04552 41.774716 67.04552 41.713216 C 67.04552 41.651708 67.095631 41.601078 67.157141 41.601078 z " />
  </g>
</svg>
