<?xml version="1.0" encoding="UTF-8" standalone="no"?>
<!-- Created with Inkscape (http://www.inkscape.org/) -->

<svg
   width="81mm"
   height="42mm"
   viewBox="0 0 81 42"
   version="1.1"
   id="svg1"
   inkscape:version="1.3 (0e150ed6c4, 2023-07-21)"
   sodipodi:docname="drawing.svg"
   xmlns:inkscape="http://www.inkscape.org/namespaces/inkscape"
   xmlns:sodipodi="http://sodipodi.sourceforge.net/DTD/sodipodi-0.dtd"
   xmlns="http://www.w3.org/2000/svg"
   xmlns:svg="http://www.w3.org/2000/svg">
  <sodipodi:namedview
     id="namedview1"
     pagecolor="#ffffff"
     bordercolor="#666666"
     borderopacity="1.0"
     inkscape:showpageshadow="2"
     inkscape:pageopacity="0.0"
     inkscape:pagecheckerboard="0"
     inkscape:deskcolor="#d1d1d1"
     inkscape:document-units="mm"
     inkscape:zoom="3.3722088"
     inkscape:cx="162.05995"
     inkscape:cy="143.97092"
     inkscape:window-width="1497"
     inkscape:window-height="1415"
     inkscape:window-x="0"
     inkscape:window-y="0"
     inkscape:window-maximized="1"
     inkscape:current-layer="layer4" />
  <defs
     id="defs1">
    <inkscape:path-effect
       effect="fillet_chamfer"
       id="path-effect5"
       is_visible="true"
       lpeversion="1"
       nodesatellites_param="F,0,0,1,0,3.67,0,1 @ F,0,0,1,0,3.67,0,1 @ F,0,0,1,0,3.67,0,1 @ F,0,0,1,0,3.67,0,1"
       radius="3.67"
       unit="mm"
       method="auto"
       mode="F"
       chamfer_steps="1"
       flexible="false"
       use_knot_distance="true"
       apply_no_radius="true"
       apply_with_radius="true"
       only_selected="false"
       hide_knots="false" />
    <inkscape:path-effect
       effect="fillet_chamfer"
       id="path-effect3"
       is_visible="true"
       lpeversion="1"
       nodesatellites_param="F,0,0,1,0,3.67,0,1 @ F,0,0,1,0,3.67,0,1 @ F,0,0,1,0,3.67,0,1 @ F,0,0,1,0,3.67,0,1"
       radius="3.67"
       unit="mm"
       method="auto"
       mode="F"
       chamfer_steps="1"
       flexible="false"
       use_knot_distance="true"
       apply_no_radius="true"
       apply_with_radius="true"
       only_selected="false"
       hide_knots="false" />
    <inkscape:path-effect
       effect="fillet_chamfer"
       id="path-effect2"
       is_visible="true"
       lpeversion="1"
       nodesatellites_param="F,0,0,1,0,0,0,1 @ F,0,0,1,0,0,0,1 @ F,0,0,1,0,0,0,1 @ F,0,0,1,0,0,0,1"
       radius="0"
       unit="px"
       method="auto"
       mode="F"
       chamfer_steps="1"
       flexible="false"
       use_knot_distance="true"
       apply_no_radius="true"
       apply_with_radius="true"
       only_selected="false"
       hide_knots="false" />
    <inkscape:path-effect
       effect="fillet_chamfer"
       id="path-effect1"
       is_visible="true"
       lpeversion="1"
       nodesatellites_param="F,0,0,1,0,0,0,1 @ F,0,0,1,0,0,0,1 @ F,0,0,1,0,0,0,1 @ F,0,0,1,0,0,0,1"
       radius="0"
       unit="px"
       method="auto"
       mode="F"
       chamfer_steps="1"
       flexible="false"
       use_knot_distance="true"
       apply_no_radius="true"
       apply_with_radius="true"
       only_selected="false"
       hide_knots="false" />
  </defs>
  <g
     inkscape:label="cut"
     inkscape:groupmode="layer"
     id="layer1">
    <path
       style="fill:#000000;fill-opacity:1;stroke:none;stroke-width:0.264583;stroke-opacity:1"
       id="rect1"
       width="99.260269"
       height="100.14645"
       x="66.410027"
       y="75.282455"
       sodipodi:type="rect"
       transform="matrix(0.40298097,0,0,0.41938583,-26.761977,-31.572395)"
       inkscape:path-effect="#path-effect3"
       d="M 70.080027,75.282455 H 162.0003 a 3.67,3.67 45 0 1 3.67,3.67 V 171.7589 a 3.67,3.67 135 0 1 -3.67,3.67 H 70.080027 a 3.67,3.67 45 0 1 -3.67,-3.67 V 78.952455 a 3.67,3.67 135 0 1 3.67,-3.67 z" />
    <path
       style="fill:#000000;fill-opacity:1;stroke:none;stroke-width:0.264583;stroke-opacity:1"
       id="path1"
       width="99.260269"
       height="100.14645"
       x="66.410027"
       y="75.282455"
       sodipodi:type="rect"
       transform="matrix(0.40298097,0,0,0.41938583,14.238023,-31.572395)"
       inkscape:path-effect="#path-effect5"
       d="M 70.080027,75.282455 H 162.0003 a 3.67,3.67 45 0 1 3.67,3.67 V 171.7589 a 3.67,3.67 135 0 1 -3.67,3.67 H 70.080027 a 3.67,3.67 45 0 1 -3.67,-3.67 V 78.952455 a 3.67,3.67 135 0 1 3.67,-3.67 z" />
  </g>
  <g
     inkscape:groupmode="layer"
     id="layer2"
     inkscape:label="tag">
    <circle
       style="fill:#ff0000;fill-opacity:1;stroke:none;stroke-width:0.264583;stroke-opacity:1"
       id="path3"
       cx="20"
       cy="21"
       r="12.75" />
  </g>
  <g
     inkscape:groupmode="layer"
     id="layer3"
     inkscape:label="magnets">
    <circle
       style="fill:#ff0000;fill-opacity:1;stroke:none;stroke-width:0.264583;stroke-opacity:1"
       id="path4"
       cx="7.25"
       cy="35"
       r="2.55" />
    <circle
       style="fill:#ff0000;fill-opacity:1;stroke:none;stroke-width:0.264583;stroke-opacity:1"
       id="path4-5"
       cx="32.75"
       cy="7"
       r="2.55" />
  </g>
  <g
     inkscape:groupmode="layer"
     id="layer4"
     inkscape:label="engrave">
    <path
       style="display:inline;fill:#00ffff;stroke:none;stroke-width:0.0695914"
       d="m 47.109698,3.9069482 c 0.889005,0.7692939 1.880277,1.437929 2.820773,2.1433016 0.412445,0.3093347 0.897798,0.8218471 1.410387,0.943007 0.653668,0.1545055 1.649368,-0.3339934 2.301157,-0.4725902 1.631617,-0.346945 3.311407,-0.5632516 4.97347,-0.6770714 2.657111,-0.181964 5.385484,-0.064392 8.016935,0.3704683 0.870383,0.1438356 1.741587,0.2917476 2.598081,0.5058696 0.43318,0.1082956 0.95788,0.3802816 1.410387,0.2733237 0.512588,-0.1211599 0.99794,-0.6336723 1.410387,-0.943007 0.940497,-0.7053726 1.931771,-1.3740077 2.820774,-2.1433016 0,3.8146063 -2.003991,7.1826158 -2.004233,10.9861708 -5.9e-5,0.89559 2.1e-5,1.784471 0.128356,2.672313 0.05432,0.375768 0.147977,0.819891 0.614008,0.851192 0.369723,0.02483 0.625496,-0.287072 0.659661,-0.6285 0.0965,-0.964368 -0.14168,-2.059124 -0.140101,-3.043467 0.0053,-3.316672 1.748425,-6.2677821 1.932638,-9.5757834 0.03953,-0.709899 0.447462,-2.3819812 -0.04078,-2.9522823 -0.500815,-0.5849802 -1.25261,0.1808497 -1.669167,0.4932678 L 71.605887,4.7699978 C 71.249056,5.0376209 70.788002,5.5377416 70.343961,5.6337339 69.625582,5.7890321 68.408358,5.2235269 67.671649,5.1006002 65.674368,4.7673334 63.677773,4.5921273 61.658949,4.5037176 59.465412,4.4076602 57.142675,4.6155034 54.978169,4.9784842 54.003252,5.1419743 52.680191,5.7240054 51.71201,5.6436994 51.292019,5.6088577 50.848165,5.1242318 50.524315,4.8813436 L 47.703544,2.7657639 C 47.321334,2.4791048 46.678368,1.7861938 46.148762,2.0647503 45.419072,2.448543 45.88095,4.4789487 45.919369,5.1688736 c 0.187109,3.3602156 1.932421,6.3502514 1.932637,9.7242454 6e-5,0.938109 -0.232219,1.974338 -0.140098,2.895005 0.03416,0.341425 0.289931,0.653331 0.659657,0.6285 0.466032,-0.0313 0.559693,-0.475424 0.614009,-0.851192 0.128336,-0.887845 0.128415,-1.776723 0.128357,-2.672313 -2.44e-4,-3.801846 -2.004233,-7.1711796 -2.004233,-10.9861708 m 7.423087,7.0102938 c -4.540232,0.714654 -4.841991,7.302054 -0.519615,8.598868 0.718631,0.215606 1.417492,0.230592 2.152695,0.106593 4.45562,-0.751474 4.670815,-7.306375 0.445386,-8.574124 -0.646576,-0.193991 -1.410994,-0.236398 -2.078466,-0.131337 m 11.431557,0 c -0.612171,0.09561 -1.185879,0.31929 -1.70731,0.653299 -3.751345,2.402967 -1.629846,8.764014 2.895005,8.115796 0.74304,-0.106446 1.451887,-0.344834 2.078464,-0.766136 3.865172,-2.598899 1.214537,-8.702761 -3.266159,-8.002959 m -10.615016,1.207797 c 4.066961,0.06041 3.991886,6.405855 -0.07423,6.327153 -4.121425,-0.07977 -4.044281,-6.38833 0.07423,-6.327153 m 11.357325,0 c 4.119228,0.05483 4.04657,6.406914 -0.07423,6.327153 -4.066967,-0.07873 -3.99285,-6.381278 0.07423,-6.327153 m -11.580018,1.913106 c -1.635751,0.268527 -1.258226,2.713373 0.371154,2.472187 1.575034,-0.23314 1.185938,-2.727803 -0.371154,-2.472187 m 11.357325,5.8e-5 c -1.607196,0.271587 -1.169045,2.752339 0.445386,2.463538 1.593953,-0.285137 1.123231,-2.728603 -0.445386,-2.463538 M 53.419323,38.647002 c 0.03771,1.604378 1.756747,1.336156 2.895004,1.336156 0.509686,0 1.109909,0.08283 1.557704,-0.213699 0.366837,-0.242923 0.532135,-0.628858 0.594992,-1.048225 h 5.047699 c 0.06286,0.419369 0.228154,0.805298 0.594994,1.048225 0.447793,0.296529 1.048018,0.213699 1.557704,0.213699 1.138261,0 2.857282,0.268222 2.895003,-1.336156 1.900011,-0.15519 3.481132,-1.614868 4.50254,-3.117698 2.0742,-3.051833 2.623626,-6.636926 2.623626,-10.243861 0,-1.402515 -0.198121,-2.793522 -0.52924,-4.15693 -0.106174,-0.437185 -0.178305,-1.165349 -0.661663,-1.354998 -0.929598,-0.364738 -2.554359,1.035866 -3.093009,1.651978 -2.094501,2.39572 -2.400515,5.870096 -2.004806,8.90765 0.118072,0.906345 0.201595,1.865848 0.461135,2.745455 0.116338,0.394274 0.520555,0.664486 0.923993,0.444411 0.382873,-0.208854 0.308317,-0.680063 0.241593,-1.037171 -0.183898,-0.984171 -0.352442,-1.972106 -0.447332,-2.969235 -0.266144,-2.796689 0.235066,-7.181562 3.327788,-8.313859 0.190143,1.472356 0.525565,2.887117 0.590924,4.379623 0.15835,3.615875 -0.957659,8.213129 -3.782853,10.667767 -0.479338,0.416468 -1.673382,1.320862 -2.372466,1.087173 -0.293033,-0.09795 -0.499966,-0.444503 -0.745517,-0.625692 -0.610847,-0.450732 -1.411637,-0.6274 -2.152409,-0.447448 -0.763371,0.185445 -1.058078,0.89889 -1.710233,1.150351 -0.450369,0.173655 -1.151324,0.04479 -1.630158,0.04479 -1.19238,0 -2.534346,0.174267 -3.711257,-0.01099 -0.394202,-0.06206 -0.604528,-0.467655 -0.891344,-0.706913 -0.394351,-0.328964 -0.897417,-0.518645 -1.410101,-0.541094 -0.606726,-0.02657 -1.212571,0.142814 -1.707024,0.500999 -0.248522,0.180035 -0.44725,0.540179 -0.745516,0.632283 -0.306549,0.09466 -0.758565,-0.116773 -1.036312,-0.235982 -1.813948,-0.778557 -3.084182,-2.692077 -3.800666,-4.463304 -0.899048,-2.222547 -1.423794,-4.717975 -1.318342,-7.126166 0.06422,-1.466612 0.404127,-2.85889 0.590925,-4.305391 3.088012,1.130569 3.593795,5.520514 3.327789,8.31386 -0.09763,1.025191 -0.304988,2.027992 -0.4632,3.043465 -0.05726,0.367595 -0.09646,0.833571 0.328771,0.994386 0.384827,0.145536 0.734495,-0.113079 0.847927,-0.474826 0.271445,-0.865675 0.353972,-1.84881 0.465661,-2.746486 0.379413,-3.049444 0.07404,-6.387116 -1.94329,-8.833475 -0.530801,-0.643685 -2.202371,-2.099651 -3.154298,-1.726153 -0.485367,0.190438 -0.552535,0.917459 -0.661892,1.354998 -0.346255,1.385378 -0.529009,2.80487 -0.529009,4.231161 0,3.515046 0.540204,7.026784 2.524136,10.021169 1.063161,1.60465 2.626433,3.011033 4.602029,3.266158 m 7.645782,-15.662716 h -0.148462 c -0.371713,-0.980693 -1.216236,-2.060255 -1.858752,-2.890937 -0.234718,-0.303458 -0.681089,-0.516858 -1.004063,-0.194568 -0.363025,0.362251 -0.08186,0.884241 0.141874,1.229733 0.630106,0.973035 1.284867,1.931287 1.929144,2.895005 0.244201,0.365278 0.565908,0.884092 1.087632,0.686921 0.394132,-0.148952 0.622242,-0.653648 0.842373,-0.983846 l 1.435128,-2.152695 c 0.222205,-0.333309 0.550306,-0.702628 0.601579,-1.113464 0.06142,-0.492112 -0.396646,-0.886818 -0.866828,-0.644194 -0.318538,0.164374 -0.508484,0.579987 -0.699753,0.866887 l -0.593847,0.890771 c -0.301028,0.451543 -0.673095,0.901369 -0.866025,1.410387 m -6.605406,3.76779 c -0.720596,0.262045 -0.328919,0.993565 0.07343,1.329684 0.597042,0.498767 1.507018,0.616683 2.226583,0.326538 0.526973,-0.212491 1.73178,-1.508449 0.51933,-1.683657 -0.571494,-0.08258 -0.879589,0.6389 -1.484331,0.546936 C 55.316814,27.198912 54.993407,26.558 54.4597,26.752081 m 5.04982,-8.68e-4 c -0.643479,0.252642 -0.311926,1.010241 0.07211,1.315708 0.635844,0.505754 1.552343,0.642382 2.300011,0.310328 0.495753,-0.220177 1.646027,-1.541812 0.445101,-1.657481 -0.553966,-0.05336 -0.842791,0.611153 -1.410102,0.558622 -0.516865,-0.04786 -0.846409,-0.747326 -1.407122,-0.527177 m 5.0477,0 c -0.687499,0.269926 -0.248065,1.063994 0.146344,1.360382 0.645977,0.485437 1.561306,0.591292 2.300012,0.253052 0.518496,-0.23741 1.568712,-1.544786 0.371096,-1.644076 -0.552989,-0.04585 -0.836189,0.624634 -1.41033,0.552091 -0.506375,-0.06398 -0.859631,-0.736405 -1.40712,-0.521449 m -8.239629,3.19171 c -0.731537,0.29304 -0.184726,1.091285 0.219486,1.382152 0.653968,0.470585 1.498218,0.533418 2.226869,0.202872 0.523487,-0.237474 1.578449,-1.568623 0.370869,-1.628841 -0.552345,-0.02754 -0.844678,0.64707 -1.4101,0.550031 -0.504691,-0.08662 -0.838825,-0.733862 -1.407124,-0.506214 m 5.715779,0 c -0.685914,0.27448 -0.243959,1.044044 0.148176,1.343372 0.656944,0.501472 1.548528,0.590371 2.298179,0.24085 0.497364,-0.231892 1.52627,-1.516964 0.371097,-1.625117 -0.547994,-0.05131 -0.843796,0.613902 -1.410329,0.547165 -0.51235,-0.06035 -0.846074,-0.730784 -1.407123,-0.50627 m -2.451738,3.114263 c -0.668046,0.174195 -0.438075,0.929073 -0.07211,1.270686 0.574691,0.536458 1.403803,0.698235 2.149432,0.475056 0.526734,-0.157662 1.826669,-1.182741 0.876739,-1.679646 -0.600673,-0.314211 -1.020621,0.53295 -1.619048,0.477115 -0.489958,-0.04571 -0.818628,-0.677861 -1.335012,-0.543211 M 57.2051,38.721241 h -2.523851 c 0.07589,-1.65682 2.382155,-1.610779 2.523851,0 m 10.095401,0 h -2.52385 c 0.141704,-1.610781 2.447956,-1.656818 2.52385,0 z"
       id="path1-5" />
  </g>
</svg>
