<?xml version="1.0" encoding="UTF-8" standalone="no"?>
<!-- Generator: Adobe Illustrator 14.0.0, SVG Export Plug-In . SVG Version: 6.00 Build 43363)  -->

<svg
   version="1.1"
   id="svg2816"
   inkscape:version="1.3 (0e150ed6c4, 2023-07-21)"
   sodipodi:docname="contactless_indicator.svg"
   x="0px"
   y="0px"
   width="98.365601"
   height="124.65948"
   viewBox="0 0 98.365603 124.65948"
   enable-background="new 0 0 313.581 186.091"
   xml:space="preserve"
   xmlns:inkscape="http://www.inkscape.org/namespaces/inkscape"
   xmlns:sodipodi="http://sodipodi.sourceforge.net/DTD/sodipodi-0.dtd"
   xmlns="http://www.w3.org/2000/svg"
   xmlns:svg="http://www.w3.org/2000/svg">&#10;<defs
   id="defs1">&#10;	&#10;	&#10;		<inkscape:perspective
   id="perspective2824"
   inkscape:persp3d-origin="0.5 : -61.098194 : 1"
   sodipodi:type="inkscape:persp3d"
   inkscape:vp_z="1 : -60.931528 : 1"
   inkscape:vp_y="0 : 1000 : 0"
   inkscape:vp_x="0 : -60.931528 : 1">&#10;		</inkscape:perspective>&#10;</defs>&#10;<sodipodi:namedview
   id="namedview2818"
   inkscape:pageshadow="2"
   inkscape:pageopacity="0"
   inkscape:cy="120.72821"
   inkscape:cx="118.63994"
   inkscape:zoom="3.830919"
   showgrid="false"
   borderopacity="1"
   bordercolor="#666666"
   pagecolor="#ffffff"
   guidetolerance="10"
   gridtolerance="10"
   objecttolerance="10"
   inkscape:window-maximized="1"
   inkscape:current-layer="svg2816"
   inkscape:window-y="0"
   inkscape:window-x="0"
   inkscape:window-height="1415"
   inkscape:window-width="2560"
   inkscape:showpageshadow="2"
   inkscape:pagecheckerboard="0"
   inkscape:deskcolor="#d1d1d1">&#10;	</sodipodi:namedview>&#10;<path
   id="path2828"
   d="m 75.375665,124.362 c -2.001,-0.579 -4.029,-2.96 -4.455,-5.233 -0.278,-1.48 0.061,-2.507 2.182,-6.61 8.571,-16.579995 12.296,-31.837995 12.296,-50.357995 0,-17.898 -3.298,-31.824 -11.491,-48.515 -1.759,-3.583 -3.198,-6.9100002 -3.198,-7.3910002 0,-1.776 1.486,-4.351 3.095,-5.36100005 2.207,-1.385 5.905,-1.126 7.675,0.53600005 0.68,0.639 2.448,3.541 3.928,6.447 5.862,11.5110002 9.879,24.1400002 11.862,37.2850002 1.227,8.135 1.471,23.553 0.491,31 -1.809,13.738 -5.435,25.995995 -11.241,38.004995 -3.509,7.259 -5.712,10.245 -7.556,10.245 -0.369,0 -0.971,0.092 -1.337,0.205 -0.368,0.111 -1.38,-0.003 -2.251,-0.255 z m -23.857,-12.481 c -3.069,-0.893 -5.282,-4.658 -4.395,-7.479 0.215,-0.683 1.66,-3.829 3.21,-6.990995 6.565,-13.388 9.296,-27.74 7.958,-41.831 -1.1,-11.578 -3.175,-18.88 -8.402,-29.564 -3.507,-7.168 -3.67,-8.279 -1.631,-11.165 1.939,-2.744 6.778,-3.189 9.32,-0.857 1.762,1.616 7.242,13.06 9.357,19.541 7,21.448 5.932,44.472 -3.039,65.542 -4.595,10.792995 -7.821,14.129995 -12.378,12.803995 z m -24.602,-12.656995 c -1.896,-0.855 -3.528,-2.86 -3.972,-4.881 -0.271,-1.231 0.195,-2.593 2.445,-7.149 8.263,-16.735 8.352,-32.854 0.272,-49.2 -3.548,-7.179 -3.626,-8.608 -0.625,-11.439 1.481,-1.397 2.11,-1.644 4.19,-1.644 3.489,0 5.298,1.753 8.416,8.157 4.795,9.85 6.758,18.395 6.742,29.343 -0.017,11.253 -1.852,18.978 -6.975,29.365 -2.934,5.947 -4.384,7.517 -7.321,7.92 -0.896,0.123 -2.323,-0.09 -3.172,-0.472 z m -22.9570005,-11.79 c -1.502,-0.622 -3.21699999,-2.666 -3.72699999,-4.443 -0.569,-1.986 -0.103,-3.562 2.15199999,-7.27 2.9,-4.769 3.575,-7.328 3.575,-13.561 0,-6.232 -0.675,-8.792 -3.575,-13.561 -0.983,-1.617 -1.96999999,-3.554 -2.19399999,-4.305 -0.934,-3.143 1.68499999,-6.995 5.20299999,-7.655 2.982,-0.56 5.0300005,0.771 7.7720005,5.051 7.939,12.392 7.938,28.946 -0.004,41.233 -2.801,4.335 -5.9250005,5.867 -9.2020005,4.511 z"
   sodipodi:nodetypes="cccscsccccccsccsccccccccscccccsccccccccscccscc" />&#10;</svg>
