<?xml version="1.0" encoding="UTF-8" standalone="no"?>
<svg
   version="1.1"
   width="99.099998mm"
   height="79.099998mm"
   viewBox="0 0 99.099999 79.099998"
   id="svg51"
   sodipodi:docname="seinot-panel.svg"
   inkscape:version="1.3 (0e150ed6c4, 2023-07-21)"
   xmlns:inkscape="http://www.inkscape.org/namespaces/inkscape"
   xmlns:sodipodi="http://sodipodi.sourceforge.net/DTD/sodipodi-0.dtd"
   xmlns="http://www.w3.org/2000/svg"
   xmlns:svg="http://www.w3.org/2000/svg"
   xmlns:rdf="http://www.w3.org/1999/02/22-rdf-syntax-ns#"
   xmlns:cc="http://creativecommons.org/ns#"
   xmlns:dc="http://purl.org/dc/elements/1.1/">
  <defs
     id="defs51" />
  <sodipodi:namedview
     id="namedview51"
     pagecolor="#ffffff"
     bordercolor="#666666"
     borderopacity="1.0"
     inkscape:showpageshadow="2"
     inkscape:pageopacity="0.0"
     inkscape:pagecheckerboard="0"
     inkscape:deskcolor="#d1d1d1"
     inkscape:document-units="mm"
     inkscape:zoom="4.8082027"
     inkscape:cx="170.95785"
     inkscape:cy="133.20986"
     inkscape:window-width="2560"
     inkscape:window-height="1415"
     inkscape:window-x="0"
     inkscape:window-y="0"
     inkscape:window-maximized="1"
     inkscape:current-layer="svg51" />
  <title
     id="title1">SVG Image created as seinot-panel-Edge_Cuts.svg date 2023/10/14 21:39:51 </title>
  <desc
     id="desc1">Image generated by PCBNEW </desc>
  <path
     d="m 95.05,79.05 h -91"
     id="path3"
     style="fill:none;fill-opacity:0;stroke:#d0d2cd;stroke-width:0.1;stroke-linecap:round;stroke-linejoin:round;stroke-opacity:1" />
  <circle
     cx="80.050003"
     cy="57.549999"
     r="4"
     id="circle4"
     style="fill:none;fill-opacity:0;stroke:#d0d2cd;stroke-width:0.15;stroke-linecap:round;stroke-linejoin:round;stroke-opacity:1" />
  <path
     d="m 0.05,75.05 a 4,4 0 0 0 4,4"
     id="path5"
     style="fill:none;fill-opacity:0;stroke:#d0d2cd;stroke-width:0.1;stroke-linecap:round;stroke-linejoin:round;stroke-opacity:1" />
  <path
     d="m 99.05,4.05 v 71"
     id="path6"
     style="fill:none;fill-opacity:0;stroke:#d0d2cd;stroke-width:0.1;stroke-linecap:round;stroke-linejoin:round;stroke-opacity:1" />
  <path
     d="m 99.05,4.05 a 4,4 0 0 0 -4,-4"
     id="path7"
     style="fill:none;fill-opacity:0;stroke:#d0d2cd;stroke-width:0.1;stroke-linecap:round;stroke-linejoin:round;stroke-opacity:1" />
  <circle
     cx="5.0500002"
     cy="5.0500002"
     r="1.75"
     id="circle7"
     style="fill:none;fill-opacity:0;stroke:#d0d2cd;stroke-width:0.1;stroke-linecap:round;stroke-linejoin:round;stroke-opacity:1" />
  <path
     style="fill:none;fill-opacity:0;stroke:#d0d2cd;stroke-width:0.15;stroke-linecap:round;stroke-linejoin:round;stroke-opacity:1"
     d="M 61.7,33.8 H 80.9 V 46.3 H 61.7 Z"
     id="path8" />
  <path
     d="m 4.05,0.05 a 4,4 0 0 0 -4,4"
     id="path9"
     style="fill:none;fill-opacity:0;stroke:#d0d2cd;stroke-width:0.1;stroke-linecap:round;stroke-linejoin:round;stroke-opacity:1" />
  <circle
     cx="5.0500002"
     cy="74.050003"
     r="1.75"
     id="circle9"
     style="fill:none;fill-opacity:0;stroke:#d0d2cd;stroke-width:0.1;stroke-linecap:round;stroke-linejoin:round;stroke-opacity:1" />
  <path
     d="m 0.05,4.05 v 71"
     id="path10"
     style="fill:none;fill-opacity:0;stroke:#d0d2cd;stroke-width:0.1;stroke-linecap:round;stroke-linejoin:round;stroke-opacity:1" />
  <path
     d="m 4.05,0.05 h 91"
     id="path11"
     style="fill:none;fill-opacity:0;stroke:#d0d2cd;stroke-width:0.1;stroke-linecap:round;stroke-linejoin:round;stroke-opacity:1" />
  <circle
     cx="94.050003"
     cy="5.0500002"
     r="1.75"
     id="circle11"
     style="fill:none;fill-opacity:0;stroke:#d0d2cd;stroke-width:0.1;stroke-linecap:round;stroke-linejoin:round;stroke-opacity:1" />
  <path
     d="m 95.05,79.05 a 4,4 0 0 0 4,-4"
     id="path12"
     style="fill:none;fill-opacity:0;stroke:#d0d2cd;stroke-width:0.1;stroke-linecap:round;stroke-linejoin:round;stroke-opacity:1" />
  <circle
     cx="65.050003"
     cy="57.549999"
     r="6"
     id="circle12"
     style="fill:none;fill-opacity:0;stroke:#d0d2cd;stroke-width:0.1;stroke-linecap:round;stroke-linejoin:round;stroke-opacity:1" />
  <circle
     cx="65.175003"
     cy="22.65"
     r="1.25"
     id="circle13"
     style="fill:none;fill-opacity:0;stroke:#d0d2cd;stroke-width:0.1;stroke-linecap:round;stroke-linejoin:round;stroke-opacity:1" />
  <circle
     cx="94.050003"
     cy="74.050003"
     r="1.75"
     id="circle14"
     style="fill:none;fill-opacity:0;stroke:#d0d2cd;stroke-width:0.1;stroke-linecap:round;stroke-linejoin:round;stroke-opacity:1" />
  <circle
     cx="71.300003"
     cy="22.65"
     r="3.5"
     id="circle15"
     style="fill:none;fill-opacity:0;stroke:#d0d2cd;stroke-width:0.1;stroke-linecap:round;stroke-linejoin:round;stroke-opacity:1" />
  <path
     d="m 15.05,18.55 a 1.5,1.5 0 0 0 -1.5,1.5"
     id="path20"
     style="fill:none;fill-opacity:0;stroke:#f2eda1;stroke-width:1;stroke-linecap:round;stroke-linejoin:round;stroke-opacity:1" />
  <path
     style="fill:#f2eda1;fill-opacity:1;fill-rule:evenodd;stroke:#f2eda1;stroke-width:0;stroke-linecap:round;stroke-linejoin:round;stroke-opacity:1"
     d="m 30.3611,34.6075 0.0414,0.0021 0.0403,0.0037 0.0391,0.0051 0.0382,0.0069 0.0372,0.0085 0.0363,0.0103 0.0356,0.0122 0.0348,0.0141 0.0341,0.0161 0.0336,0.0181 0.0331,0.0203 0.0327,0.0224 0.0323,0.0248 0.032,0.0271 0.0318,0.0295 0.0316,0.032 0.0316,0.0345 0.0315,0.0371 0.0317,0.0399 0.0318,0.0426 0.032,0.0454 0.065,0.0997 0.0667,0.1118 0.069,0.1246 0.0719,0.1379 0.0754,0.1517 0.1146,0.2425 0.106,0.239 0.0975,0.2365 0.0892,0.2346 0.0811,0.2334 0.0732,0.233 0.0653,0.2333 0.0578,0.2342 0.0502,0.2359 0.043,0.2383 0.0359,0.2415 0.0289,0.2454 0.0221,0.2499 0.0154,0.2552 0.009,0.2612 0.0027,0.268 -0.0032,0.2738 -0.0092,0.2641 -0.0155,0.2556 -0.0219,0.2483 -0.0287,0.2421 -0.0357,0.2371 -0.0431,0.2334 -0.0507,0.2309 -0.0587,0.2295 -0.0668,0.2294 -0.0753,0.2305 -0.0841,0.2327 -0.0932,0.2361 -0.1024,0.2408 -0.1122,0.2467 -0.122,0.2537 -0.0706,0.1408 -0.0665,0.1279 -0.0631,0.1156 -0.0602,0.1038 -0.0579,0.0928 -0.0563,0.0823 -0.055,0.0725 -0.0545,0.0632 -0.0545,0.0547 -0.055,0.0467 -0.0563,0.0393 -0.0579,0.0326 -0.0603,0.0265 -0.0631,0.021 -0.0667,0.0161 -0.0706,0.012 -0.023,0.0025 -0.0244,0.0015 -0.0257,6e-4 -0.0267,-4e-4 -0.0274,-0.0013 -0.028,-0.0022 -0.0284,-0.0031 -0.0285,-0.0038 -0.0285,-0.0046 -0.0281,-0.0054 -0.0277,-0.0061 -0.0269,-0.0068 -0.026,-0.0075 -0.0249,-0.008 -0.0235,-0.0087 -0.0219,-0.0092 -0.0466,-0.0229 -0.0456,-0.0263 -0.0444,-0.0295 -0.0431,-0.0323 -0.0415,-0.035 -0.0398,-0.0375 -0.0379,-0.0397 -0.0359,-0.0418 -0.0336,-0.0436 -0.0311,-0.0451 -0.0286,-0.0465 -0.0258,-0.0477 -0.0228,-0.0486 -0.0196,-0.0493 -0.0164,-0.0498 -0.0128,-0.0501 -0.0055,-0.0308 -0.0031,-0.0319 -5e-4,-0.0165 10e-5,-0.0169 9e-4,-0.0175 0.0017,-0.0181 0.0056,-0.0384 0.0089,-0.0418 0.0124,-0.0457 0.0162,-0.0503 0.02,-0.0555 0.0242,-0.0612 0.0284,-0.0675 0.033,-0.0745 0.0377,-0.082 0.0426,-0.0902 0.0478,-0.0988 0.0531,-0.1082 0.1923,-0.4141 0.1669,-0.4125 0.1416,-0.4108 0.1163,-0.4094 0.0909,-0.4082 0.0656,-0.4071 0.0402,-0.4061 0.0149,-0.4054 -0.0104,-0.4048 -0.0358,-0.4043 -0.0611,-0.4041 -0.0864,-0.404 -0.1118,-0.404 -0.1371,-0.4042 -0.1624,-0.4046 -0.1877,-0.4051 -0.0827,-0.1694 -0.0719,-0.1529 -0.0614,-0.1379 -0.0508,-0.1243 -0.0404,-0.1119 -0.03,-0.101 -0.0196,-0.0916 -0.006,-0.0426 -0.0035,-0.0407 -9e-4,-0.0391 0.0016,-0.0376 0.0042,-0.0362 0.0066,-0.0351 0.0092,-0.0341 0.0116,-0.0332 0.0141,-0.0327 0.0166,-0.0321 0.0406,-0.0635 0.0503,-0.0638 0.06,-0.0653 0.0697,-0.0683 0.0355,-0.0329 0.0333,-0.0295 0.0315,-0.0263 0.0302,-0.0232 0.0294,-0.0204 0.029,-0.0177 0.0145,-0.0079 0.0145,-0.0073 0.0147,-0.0067 0.0148,-0.0061 0.0151,-0.0056 0.0153,-0.0051 0.0157,-0.0046 0.0161,-0.0041 0.0336,-0.0069 0.0359,-0.0052 0.0386,-0.0037 0.0418,-0.0025 0.0454,-0.0014 0.0494,-4e-4 z"
     id="path22" />
  <path
     d="m 53.55,20.05 v 39"
     id="path24"
     style="fill:none;fill-opacity:0;stroke:#f2eda1;stroke-width:1;stroke-linecap:round;stroke-linejoin:round;stroke-opacity:1" />
  <path
     d="m 52.05,60.55 a 1.5,1.5 0 0 0 1.5,-1.5"
     id="path25"
     style="fill:none;fill-opacity:0;stroke:#f2eda1;stroke-width:1;stroke-linecap:round;stroke-linejoin:round;stroke-opacity:1" />
  <path
     d="m 53.55,20.05 a 1.5,1.5 0 0 0 -1.5,-1.5"
     id="path26"
     style="fill:none;fill-opacity:0;stroke:#f2eda1;stroke-width:1;stroke-linecap:round;stroke-linejoin:round;stroke-opacity:1" />
  <path
     style="fill:#f2eda1;fill-opacity:1;fill-rule:evenodd;stroke:#f2eda1;stroke-width:0;stroke-linecap:round;stroke-linejoin:round;stroke-opacity:1"
     d="m 36.7451,31.3139 0.0701,0.0073 0.0687,0.0119 0.0668,0.0166 0.064,0.0212 0.0608,0.0257 0.0567,0.0302 0.0267,0.0168 0.0254,0.0178 0.0241,0.019 0.0227,0.0201 0.0185,0.0193 0.0216,0.0258 0.0245,0.032 0.027,0.0377 0.0294,0.043 0.0313,0.0478 0.0678,0.1084 0.0728,0.1224 0.0756,0.1329 0.0763,0.14 0.0748,0.1436 0.1426,0.2872 0.1368,0.2906 0.131,0.2938 0.1251,0.297 0.1193,0.2999 0.1134,0.3028 0.1074,0.3056 0.1015,0.3083 0.0955,0.3107 0.0894,0.3132 0.0833,0.3155 0.0772,0.3177 0.071,0.3197 0.0649,0.3217 0.0586,0.3235 0.0523,0.3253 0.0547,0.4448 0.0422,0.5114 0.0292,0.5545 0.0159,0.5739 0.0022,0.5696 -0.0119,0.5417 -0.0263,0.4902 -0.0411,0.4149 -0.1011,0.6727 -0.1242,0.6562 -0.1478,0.6417 -0.1721,0.629 -0.1969,0.6184 -0.2222,0.6095 -0.2481,0.6026 -0.2746,0.5976 -0.1663,0.334 -0.0775,0.1477 -0.074,0.1352 -0.0706,0.123 -0.0676,0.111 -0.0646,0.0992 -0.0618,0.0877 -0.0593,0.0765 -0.0569,0.0654 -0.0546,0.0548 -0.0526,0.0441 -0.0508,0.034 -0.0491,0.0239 -0.0476,0.0142 -0.0463,0.0047 -0.0197,5e-4 -0.0218,0.0016 -0.0232,0.0025 -0.0239,0.0033 -0.0239,0.004 -0.0232,0.0047 -0.0217,0.005 -0.0195,0.0055 -0.0101,0.0024 -0.012,0.0017 -0.0136,0.0011 -0.0152,4e-4 -0.0165,-2e-4 -0.0178,-8e-4 -0.0189,-0.0015 -0.0199,-0.002 -0.0206,-0.0025 -0.0212,-0.0031 -0.0217,-0.0037 -0.022,-0.0041 -0.0222,-0.0047 -0.0222,-0.0051 -0.0221,-0.0056 -0.0218,-0.006 v 0 L 36.3988,47.7555 36.374,47.7463 36.3492,47.7357 36.3246,47.724 36.3001,47.711 36.2757,47.6968 36.2278,47.6652 36.181,47.6294 l -0.0453,-0.0395 -0.0435,-0.0428 -0.0414,-0.0458 -0.0389,-0.0485 -0.0362,-0.0507 -0.0331,-0.0526 -0.0297,-0.0542 -0.026,-0.0552 -0.022,-0.0561 -0.0094,-0.0282 -0.0083,-0.0282 -0.0071,-0.0283 -0.0059,-0.0282 -0.0059,-0.0361 -0.0037,-0.0354 -0.0014,-0.0354 2e-4,-0.0179 10e-4,-0.0181 0.0016,-0.0185 0.0024,-0.0189 0.0031,-0.0194 0.0039,-0.0199 0.0103,-0.0421 0.0139,-0.0454 0.0175,-0.0495 0.0215,-0.0543 0.0256,-0.0597 0.0301,-0.0658 0.0346,-0.0726 0.0395,-0.0801 0.0446,-0.0883 0.0499,-0.0971 0.2051,-0.4093 0.1903,-0.4062 0.1758,-0.4038 0.1613,-0.4024 0.1472,-0.4018 0.1333,-0.4022 0.1195,-0.4035 0.106,-0.4055 0.0928,-0.4085 0.0796,-0.4125 0.0669,-0.4172 0.0541,-0.4229 0.0418,-0.4295 0.0296,-0.4369 0.0175,-0.4452 0.0059,-0.4545 -0.0052,-0.438 -0.0157,-0.427 -0.0266,-0.4173 -0.0377,-0.4089 -0.0491,-0.4018 -0.0609,-0.3961 -0.0731,-0.3915 -0.0854,-0.3884 -0.0981,-0.3864 -0.1111,-0.386 -0.1245,-0.3866 -0.138,-0.3887 -0.152,-0.3921 -0.1663,-0.3967 -0.1808,-0.4027 -0.1957,-0.4099 -0.085,-0.1755 -0.0793,-0.1683 -0.0718,-0.1571 -0.0627,-0.1419 -0.0518,-0.1227 -0.0391,-0.0993 -0.0247,-0.0722 -0.0065,-0.0245 -0.0022,-0.0163 0.0023,-0.0452 0.0066,-0.0473 0.0107,-0.0488 0.0145,-0.0499 0.018,-0.0505 0.0214,-0.0507 0.0243,-0.0505 0.0271,-0.0497 0.0296,-0.0486 0.0319,-0.0469 0.0338,-0.0447 0.0355,-0.0423 0.0369,-0.0392 0.0382,-0.0357 0.039,-0.0318 0.0397,-0.0274 0.0279,-0.0166 0.029,-0.0152 0.0609,-0.0268 0.0642,-0.0218 0.0669,-0.0168 0.0688,-0.0119 0.0701,-0.007 0.0708,-0.0022 z"
     id="path27" />
  <path
     d="m 15.05,18.55 h 37"
     id="path29"
     style="fill:none;fill-opacity:0;stroke:#f2eda1;stroke-width:1;stroke-linecap:round;stroke-linejoin:round;stroke-opacity:1" />
  <path
     d="m 13.55,59.05 a 1.5,1.5 0 0 0 1.5,1.5"
     id="path30"
     style="fill:none;fill-opacity:0;stroke:#f2eda1;stroke-width:1;stroke-linecap:round;stroke-linejoin:round;stroke-opacity:1" />
  <path
     d="m 52.05,60.55 h -37"
     id="path31"
     style="fill:none;fill-opacity:0;stroke:#f2eda1;stroke-width:1;stroke-linecap:round;stroke-linejoin:round;stroke-opacity:1" />
  <path
     style="fill:#f2eda1;fill-opacity:1;fill-rule:evenodd;stroke:#f2eda1;stroke-width:0;stroke-linecap:round;stroke-linejoin:round;stroke-opacity:1"
     d="m 27.3759,36.144 0.0331,0.0031 0.0326,0.0048 0.0323,0.0064 0.0319,0.0081 0.0315,0.0099 0.0313,0.0116 0.031,0.0134 0.0308,0.0152 0.0307,0.017 0.0305,0.0188 0.0304,0.0208 0.0303,0.0226 0.0304,0.0246 0.0303,0.0265 0.0305,0.0285 0.0305,0.0304 0.0615,0.0672 0.0625,0.0754 0.0636,0.0839 0.0651,0.0927 0.067,0.1016 0.1846,0.3136 0.16,0.3248 0.1354,0.3345 0.1108,0.3425 0.0861,0.3488 0.0615,0.3536 0.0369,0.3567 0.0123,0.3581 -0.0123,0.358 -0.037,0.3562 -0.0616,0.3528 -0.0862,0.3477 -0.1108,0.341 -0.1354,0.3327 -0.1601,0.3227 -0.1847,0.3111 -0.07,0.1032 -0.0709,0.0945 -0.0358,0.0439 -0.0361,0.0418 -0.0363,0.0396 -0.0365,0.0374 -0.0367,0.0353 -0.0369,0.033 -0.0372,0.0308 -0.0373,0.0287 -0.0375,0.0264 -0.0378,0.0243 -0.0379,0.022 -0.0382,0.0198 -0.0383,0.0177 -0.0385,0.0154 -0.0386,0.0132 -0.0389,0.011 -0.039,0.0088 -0.0391,0.0066 -0.0394,0.0043 -0.0394,0.0022 -0.0397,-1e-4 -0.0398,-0.0023 -0.0399,-0.0046 -0.0401,-0.0067 -0.0402,-0.009 -0.0403,-0.0112 -0.0405,-0.0135 -0.0405,-0.0157 v 0 l -0.0187,-0.0083 -0.0189,-0.0093 -0.0379,-0.0216 -0.038,-0.0255 -0.0379,-0.0288 -0.0375,-0.0319 -0.0367,-0.0348 -0.0357,-0.0371 -0.0345,-0.0393 -0.0329,-0.0411 -0.0311,-0.0425 -0.0291,-0.0437 -0.0266,-0.0444 -0.0241,-0.045 -0.0211,-0.0451 -0.0179,-0.0449 -0.0145,-0.0445 -0.0125,-0.0487 -0.0091,-0.0479 -0.0056,-0.0477 -0.002,-0.0478 4e-4,-0.0242 0.0014,-0.0244 0.0024,-0.0247 0.0033,-0.025 0.0099,-0.0514 0.0141,-0.0536 0.0184,-0.0563 0.023,-0.0594 0.0276,-0.0631 0.0325,-0.0673 0.0374,-0.0718 0.0425,-0.0771 0.0478,-0.0826 0.0532,-0.0887 0.0685,-0.1151 0.062,-0.1093 0.0556,-0.1048 0.0496,-0.1014 0.044,-0.099 0.0385,-0.0979 0.0335,-0.0979 0.0286,-0.099 0.0242,-0.1013 0.02,-0.1047 0.016,-0.1092 0.0125,-0.115 0.0092,-0.1218 0.0062,-0.1297 0.0034,-0.1388 0.0011,-0.1491 -0.0011,-0.1491 -0.0034,-0.1389 -0.0062,-0.1297 -0.0092,-0.1217 -0.0125,-0.115 -0.016,-0.1092 -0.02,-0.1047 -0.0242,-0.1013 -0.0286,-0.0991 -0.0335,-0.0978 -0.0385,-0.098 -0.044,-0.099 L 26.9536,38.0697 26.898,37.965 26.836,37.8556 26.7675,37.7405 26.7189,37.6587 26.6715,37.5753 26.6263,37.4925 26.5847,37.4128 26.5478,37.3385 26.5168,37.2719 26.4929,37.2153 26.484,37.1915 26.4773,37.171 26.467,37.1318 26.4595,37.0921 26.4546,37.052 l -0.0023,-0.0403 10e-5,-0.0405 0.0026,-0.0405 0.005,-0.0406 0.0072,-0.0404 0.0095,-0.0403 0.0117,-0.0399 0.0138,-0.0395 0.0158,-0.0391 0.0178,-0.0385 0.0198,-0.0377 0.0216,-0.0371 0.0233,-0.0361 0.0252,-0.0352 0.0267,-0.0341 0.0284,-0.033 0.0299,-0.0317 0.0313,-0.0304 0.0328,-0.0289 0.0341,-0.0275 0.0354,-0.0258 0.0366,-0.024 0.0377,-0.0223 0.0389,-0.0204 0.0398,-0.0183 0.0408,-0.0163 0.0417,-0.0141 0.0425,-0.0118 0.0433,-0.0094 0.0366,-0.0062 0.0359,-0.0047 0.0353,-0.0032 0.0347,-0.0016 0.0342,-1e-4 z"
     id="path32" />
  <path
     style="fill:#f2eda1;fill-opacity:1;fill-rule:evenodd;stroke:#f2eda1;stroke-width:0;stroke-linecap:round;stroke-linejoin:round;stroke-opacity:1"
     d="m 33.555,32.9643 0.0439,0.0029 0.0437,0.0049 0.0433,0.007 0.0427,0.009 0.0422,0.011 0.0413,0.0131 0.0404,0.0152 0.0394,0.0173 0.0383,0.0193 0.037,0.0215 0.0356,0.0235 0.034,0.0257 0.0324,0.0279 0.0492,0.0548 0.0594,0.0825 0.0682,0.1072 0.0756,0.129 0.0816,0.1481 0.0863,0.1642 0.1811,0.3654 0.1833,0.3956 0.1745,0.4027 0.1547,0.3871 0.0665,0.1805 0.0575,0.168 0.1611,0.5343 0.1361,0.5386 0.1112,0.5421 0.0863,0.5448 0.0614,0.5471 0.0365,0.5485 0.0117,0.5493 -0.013,0.5494 -0.0379,0.5488 -0.0626,0.5475 -0.0872,0.5456 -0.112,0.543 -0.1365,0.5396 -0.1612,0.5356 -0.1857,0.5309 -0.2103,0.5256 -0.1119,0.2562 -0.1082,0.2337 -0.1051,0.2116 -0.1023,0.1902 -0.1002,0.1692 -0.0986,0.1487 -0.0974,0.1289 -0.0969,0.1096 -0.0968,0.0908 -0.0973,0.0725 -0.049,0.0296 -0.0493,0.0253 -0.0497,0.0209 -0.0501,0.0168 -0.0506,0.0125 -0.0512,0.0085 -0.0518,0.0045 -0.0526,5e-4 -0.1074,-0.0106 -0.1111,-0.0256 v 0 L 33.2298,46.1001 33.1928,46.0857 33.1566,46.0694 33.1212,46.0511 33.0866,46.0309 33.053,46.009 33.0204,45.9854 32.9889,45.9603 32.9584,45.9336 32.9291,45.9056 32.901,45.8762 32.8742,45.8457 32.8487,45.814 32.8245,45.7813 32.8018,45.7476 32.7806,45.7132 32.7608,45.6779 32.7427,45.6421 32.7262,45.6056 32.7114,45.5687 32.6984,45.5314 32.6872,45.4939 32.6778,45.4561 32.6703,45.4182 32.6649,45.3804 32.6614,45.3426 32.66,45.305 l 7e-4,-0.0374 0.003,-0.0369 0.0051,-0.0366 0.0075,-0.0359 0.0098,-0.0354 0.018,-0.0485 0.0315,-0.0753 0.0433,-0.0982 0.0533,-0.1174 0.1297,-0.2772 0.1489,-0.3082 0.1568,-0.3336 0.145,-0.3363 0.133,-0.3388 0.1209,-0.3411 0.1089,-0.3431 0.0968,-0.3449 0.0846,-0.3465 0.0724,-0.3478 0.0602,-0.3489 0.0478,-0.3498 0.0355,-0.3503 0.0231,-0.3508 0.0107,-0.3509 -0.0018,-0.3508 -0.0143,-0.3504 -0.0269,-0.3499 -0.0612,-0.5499 -0.0361,-0.2587 -0.0405,-0.2499 -0.0452,-0.2427 -0.0503,-0.2367 -0.0559,-0.2325 -0.0618,-0.2295 -0.0682,-0.2282 -0.0751,-0.2282 -0.0823,-0.2299 -0.09,-0.2329 -0.098,-0.2375 -0.1066,-0.2435 -0.2403,-0.511 -0.1535,-0.3201 -0.0618,-0.1356 -0.0521,-0.1214 -0.0425,-0.1088 -0.0334,-0.0975 -0.0242,-0.0878 -0.0155,-0.0797 -0.0069,-0.0731 0.0015,-0.0679 0.0097,-0.0644 0.0176,-0.0622 0.0253,-0.0617 0.0328,-0.0626 0.0401,-0.0651 0.0471,-0.0691 0.0252,-0.0332 0.0273,-0.0313 0.0292,-0.0296 0.0312,-0.0277 0.0329,-0.0259 0.0345,-0.024 0.036,-0.0222 0.0373,-0.0204 0.0386,-0.0184 0.0397,-0.0166 0.0407,-0.0147 0.0416,-0.0128 0.0423,-0.0108 0.0429,-0.0089 0.0434,-0.007 0.0438,-0.005 0.044,-0.0031 0.0441,-0.0011 z"
     id="path33" />
  <path
     d="m 13.55,59.05 v -39"
     id="path34"
     style="fill:none;fill-opacity:0;stroke:#f2eda1;stroke-width:1;stroke-linecap:round;stroke-linejoin:round;stroke-opacity:1" />
  <path
     style="fill:#f2eda1;fill-opacity:1;fill-rule:evenodd;stroke:#f2eda1;stroke-width:0;stroke-linecap:round;stroke-linejoin:round;stroke-opacity:1"
     d="m 35.552,8.7128 -0.0031,0.133 -0.0091,0.1292 -0.0152,0.1256 -0.0212,0.1217 -0.0274,0.1181 -0.0334,0.1143 -0.0395,0.1106 -0.0456,0.1069 -0.0516,0.1032 -0.0577,0.0994 -0.0638,0.0957 -0.0699,0.092 -0.0759,0.0883 -0.082,0.0845 -0.0881,0.0808 -0.0942,0.0771 -0.0991,0.0729 -0.1033,0.0682 -0.1075,0.0635 -0.1118,0.0587 -0.116,0.0541 -0.1202,0.0494 -0.1245,0.0446 -0.1286,0.04 -0.1329,0.0353 -0.1372,0.0305 -0.1413,0.0259 -0.1456,0.0211 -0.1499,0.0165 -0.154,0.0117 -0.0786,0.0042 -0.0797,0.0029 -0.0807,0.0018 -0.0818,6e-4 -0.0841,-4e-4 L 32.5142,10.9936 32.4317,10.9918 32.3499,10.9892 32.269,10.9859 32.1889,10.9819 32.1095,10.9771 32.0309,10.9716 31.9146,10.962 31.8,10.9507 31.6873,10.9378 31.5763,10.9232 31.4671,10.907 31.4311,10.9013 31.3254,10.8834 31.2231,10.8642 31.124,10.8437 31.0284,10.8219 30.936,10.7989 30.847,10.7745 30.7613,10.7488 30.6789,10.7217 30.5999,10.6934 30.5242,10.6638 30.4756,10.6433 V 9.6957 l 0.0776,0.0341 0.081,0.0335 0.0845,0.0329 0.088,0.0323 0.0915,0.0316 0.0949,0.0311 0.0984,0.0304 0.1018,0.0298 0.1053,0.0292 0.1088,0.0286 0.0745,0.0187 0.1132,0.0265 0.1139,0.0239 0.1147,0.0213 0.1153,0.0187 0.1161,0.0161 0.0778,0.0093 0.0781,0.0081 0.0784,0.007 0.0788,0.0058 0.0791,0.0046 0.0794,0.0035 0.0797,0.0023 0.08,0.0012 0.0402,2e-4 0.1108,-0.0014 0.1074,-0.0041 0.1039,-0.0069 0.1004,-0.0096 0.0969,-0.0124 0.0935,-0.0151 0.09,-0.0179 0.0864,-0.0206 0.0831,-0.0233 0.0795,-0.0261 0.076,-0.0289 L 33.8271,9.9785 33.9294,9.926 34.0239,9.8672 34.0826,9.8246 34.164,9.7565 34.2373,9.684 34.3027,9.6072 34.36,9.526 34.4094,9.4404 34.4507,9.3505 34.4841,9.2562 34.5094,9.1575 34.5267,9.0545 34.5361,8.9471 34.5379,8.8731 34.5352,8.7759 34.5272,8.6826 34.514,8.5932 34.4954,8.5077 34.4715,8.4261 34.4422,8.3484 34.4077,8.2747 34.3679,8.2048 34.3221,8.1375 34.2687,8.0715 34.2078,8.0066 34.1393,7.943 34.0632,7.8806 33.9795,7.8194 33.9118,7.7743 33.8398,7.7299 33.7895,7.7007 33.7097,7.6569 33.6243,7.6125 33.5332,7.5676 33.4364,7.5222 33.334,7.4763 33.2259,7.4298 33.1507,7.3986 33.0729,7.3671 32.9927,7.3354 32.9099,7.3035 32.8246,7.2714 32.7368,7.239 32.6464,7.2064 32.5204,7.159 32.3983,7.1104 32.2801,7.0604 32.1658,7.0091 32.0554,6.9565 31.9489,6.9026 31.8463,6.8473 31.7476,6.7907 31.6529,6.7327 31.562,6.6734 31.4751,6.6129 31.392,6.5509 31.3129,6.4877 31.2376,6.4231 31.1663,6.3572 31.0989,6.29 31.0357,6.2203 30.9766,6.1475 30.9216,6.0717 30.8707,5.9927 30.8238,5.9107 30.781,5.8256 30.7423,5.7374 30.7076,5.6461 30.6771,5.5518 30.6506,5.4543 30.6282,5.3538 30.6098,5.2502 30.5956,5.1435 30.5854,5.0338 30.5793,4.9209 30.5772,4.805 30.5785,4.7248 30.5823,4.6462 30.5928,4.531 l 0.0163,-0.1119 0.022,-0.1087 0.0277,-0.1053 0.0335,-0.102 0.0391,-0.0988 0.045,-0.0954 0.0506,-0.0921 0.0564,-0.0889 0.0201,-0.0289 0.0634,-0.0842 0.0679,-0.0805 0.0722,-0.0769 0.0767,-0.0731 0.0811,-0.0694 0.0856,-0.0657 0.09,-0.062 0.0944,-0.0582 0.0988,-0.0546 0.1033,-0.0509 0.0713,-0.0318 0.0732,-0.0303 0.0746,-0.0283 0.0759,-0.0264 0.0773,-0.0244 0.0787,-0.0225 0.08,-0.0205 0.0814,-0.0186 0.0827,-0.0166 0.0841,-0.0146 0.0854,-0.0127 0.0868,-0.0108 0.0882,-0.0088 0.0895,-0.0068 0.0909,-0.0049 0.0922,-0.0029 0.0936,-10e-4 0.0826,4e-4 0.0818,0.0014 0.0808,0.0023 0.0799,0.0031 0.0791,0.0041 0.0782,0.0049 0.1156,0.0091 0.1136,0.0112 0.1116,0.0131 0.1096,0.0152 0.1076,0.0173 0.1057,0.0192 0.0693,0.014 0.1024,0.0219 0.1007,0.0231 0.099,0.0244 0.0971,0.0257 0.0955,0.027 0.0937,0.0283 0.0919,0.0295 0.0902,0.0307 0.0884,0.0321 0.0867,0.0333 0.0568,0.0229 L 35.0439,4.0332 34.9652,3.9963 34.8852,3.9606 34.804,3.926 34.7213,3.8925 34.6374,3.86 34.5522,3.8287 34.4657,3.7985 34.3779,3.7694 34.2888,3.7413 34.1983,3.7144 34.1373,3.6971 34.0453,3.6726 33.9527,3.6506 33.8593,3.631 33.7652,3.6137 33.6703,3.5989 33.5748,3.5865 33.4785,3.5765 33.3815,3.5688 33.2838,3.5636 33.1853,3.5608 l -0.066,-5e-4 -0.0928,0.0013 -0.09,0.0038 -0.087,0.0063 -0.0841,0.0089 -0.0812,0.0114 -0.0784,0.0139 -0.112,0.0257 -0.1055,0.0313 -0.099,0.0371 -0.0925,0.0428 -0.086,0.0484 -0.0794,0.0542 -0.0493,0.0393 -0.0681,0.0623 -0.0614,0.066 -0.0547,0.0697 -0.048,0.0734 -0.0413,0.0772 -0.0346,0.0808 -0.0279,0.0846 -0.0212,0.0883 -0.0145,0.0919 -0.0078,0.0957 -0.0015,0.0659 0.0026,0.1 0.0079,0.0957 0.0131,0.0916 0.0184,0.0874 0.0236,0.0831 0.0289,0.0789 0.0341,0.0747 0.0394,0.0705 0.0458,0.0671 0.0524,0.0653 0.059,0.0636 0.0656,0.0619 0.0721,0.0602 0.0788,0.0585 0.0854,0.0568 0.0683,0.0415 0.0236,0.0136 0.0742,0.0406 0.0789,0.0412 0.0837,0.0419 0.0884,0.0424 0.0931,0.0431 0.0979,0.0437 0.1026,0.0443 0.1074,0.045 0.0742,0.0303 0.0763,0.0306 0.0784,0.0308 0.0805,0.0311 0.0878,0.0327 0.0861,0.0329 0.0843,0.0333 0.0827,0.0336 0.0809,0.034 0.0791,0.0342 0.0775,0.0346 0.0757,0.0349 0.074,0.0352 0.0723,0.0355 0.0705,0.0359 0.1026,0.0543 0.0987,0.0551 0.0948,0.0558 0.0308,0.0188 0.0899,0.0575 0.0857,0.0595 0.0816,0.0617 0.0774,0.0638 0.0732,0.0658 0.0691,0.0679 0.065,0.0701 0.0608,0.0721 0.0566,0.0742 0.0525,0.0764 0.0326,0.052 0.0454,0.0807 0.041,0.0844 0.0364,0.0882 0.032,0.092 0.0276,0.0958 0.023,0.0995 0.0186,0.1034 0.0142,0.1071 0.0097,0.1108 0.0052,0.1147 z"
     id="path36" />
  <path
     style="fill:#f2eda1;fill-opacity:1;fill-rule:evenodd;stroke:#f2eda1;stroke-width:0;stroke-linecap:round;stroke-linejoin:round;stroke-opacity:1"
     d="M 41.6268,10.87 H 37.1366 V 2.8667 h 4.4902 v 0.8187 h -3.4781 v 2.6143 h 3.2749 v 0.8187 h -3.2749 v 2.9329 h 3.4781 z"
     id="path37" />
  <path
     style="fill:#f2eda1;fill-opacity:1;fill-rule:evenodd;stroke:#f2eda1;stroke-width:0;stroke-linecap:round;stroke-linejoin:round;stroke-opacity:1"
     d="m 45.6187,10.87 h -2.9036 v -0.5764 l 0.9457,-0.2091 V 3.7772 L 42.7151,3.5544 V 2.8667 h 2.9036 v 0.6877 l -0.9438,0.2228 v 6.3073 l 0.9438,0.2091 z"
     id="path38" />
  <path
     style="fill:#f2eda1;fill-opacity:1;fill-rule:evenodd;stroke:#f2eda1;stroke-width:0;stroke-linecap:round;stroke-linejoin:round;stroke-opacity:1"
     d="M 53.5185,10.87 H 52.3363 L 48.0376,4.3165 h -0.0449 l 0.0056,0.0996 0.0044,0.0786 0.0046,0.0819 0.0048,0.0852 0.005,0.0885 0.0053,0.0917 0.0054,0.0951 0.0056,0.0984 0.0059,0.1016 0.0061,0.105 0.002,0.0357 0.0063,0.108 0.0057,0.1086 0.005,0.1092 0.0045,0.1097 0.0038,0.1104 0.0032,0.1109 0.0025,0.1115 0.002,0.1121 0.0013,0.1127 8e-4,0.1132 10e-5,0.0759 v 4.41 h -0.934 V 2.8667 h 1.1704 l 4.287,6.6531 h 0.0449 L 52.6463,9.4318 52.6417,9.3428 52.6374,9.2591 52.6328,9.1668 52.6289,9.0866 52.6246,9.0009 52.6236,8.9786 52.6192,8.8876 52.6148,8.7945 52.6104,8.6993 52.606,8.602 52.6016,8.5025 52.5972,8.4008 52.5928,8.2971 52.5895,8.2178 52.5884,8.1911 52.5856,8.1115 52.5831,8.0331 52.5801,7.9304 52.5777,7.8298 52.5757,7.7314 52.5743,7.6351 l -10e-4,-0.0942 -5e-4,-0.092 -1e-4,-0.0452 v -4.537 h 0.9458 z"
     id="path39" />
  <path
     style="fill:#f2eda1;fill-opacity:1;fill-rule:evenodd;stroke:#f2eda1;stroke-width:0;stroke-linecap:round;stroke-linejoin:round;stroke-opacity:1"
     d="m 59.1287,2.7436 0.146,0.006 0.1429,0.01 0.14,0.014 0.137,0.018 0.134,0.022 0.131,0.026 0.128,0.03 0.125,0.034 0.1221,0.038 0.119,0.042 0.116,0.046 0.1131,0.05 0.1101,0.0539 0.107,0.058 0.1041,0.062 0.1013,0.0654 0.0981,0.0686 0.095,0.0719 0.0919,0.0751 0.0887,0.0784 0.0856,0.0816 0.0825,0.0849 0.0794,0.0882 0.0762,0.0913 0.0731,0.0947 0.07,0.0979 0.0668,0.1011 0.0637,0.1044 0.0606,0.1076 0.0575,0.1109 0.0543,0.1142 0.0511,0.117 0.0478,0.1195 0.0445,0.1221 0.0412,0.1245 0.0379,0.127 0.0347,0.1296 0.0313,0.132 0.028,0.1346 0.0247,0.137 0.0215,0.1396 0.0181,0.142 0.0148,0.1446 0.0116,0.147 0.0082,0.1496 0.005,0.1521 0.0016,0.1546 -0.0016,0.1545 -0.005,0.1521 -0.0082,0.1496 -0.0116,0.147 -0.0148,0.1446 -0.0181,0.1421 -0.0215,0.1395 -0.0247,0.1371 -0.028,0.1345 -0.0313,0.1321 -0.0347,0.1295 -0.0379,0.127 -0.0412,0.1246 -0.0445,0.122 -0.0478,0.1195 -0.0511,0.117 -0.0543,0.1142 -0.0575,0.111 -0.0606,0.1078 -0.0637,0.1046 -0.0668,0.1014 -0.07,0.0982 -0.0731,0.0951 -0.0762,0.0918 -0.0794,0.0887 -0.0825,0.0854 -0.0856,0.0823 -0.0887,0.0791 -0.0919,0.0759 -0.095,0.0727 -0.0981,0.0695 -0.1013,0.0663 -0.1041,0.0625 -0.1072,0.0584 -0.1103,0.0544 -0.1134,0.0504 -0.1164,0.0463 -0.1196,0.0424 -0.1226,0.0382 -0.1257,0.0343 -0.1288,0.0302 -0.1319,0.0262 -0.1349,0.0222 -0.1381,0.0181 -0.1411,0.0141 -0.1442,0.0101 -0.1473,0.006 L 58.968,10.9951 58.8136,10.993 58.6624,10.987 58.5146,10.9769 58.37,10.9628 58.2287,10.9447 58.0907,10.9225 57.9559,10.8963 57.8245,10.8661 57.6963,10.8318 57.5714,10.7936 57.4498,10.7512 57.3315,10.7049 57.2164,10.6545 57.1046,10.6001 56.9962,10.5417 56.891,10.4792 56.7893,10.4129 56.6909,10.3433 56.5958,10.2705 56.504,10.1944 56.4154,10.1151 56.3302,10.0326 56.2482,9.9469 56.1695,9.8579 56.0941,9.7656 56.0219,9.6702 55.9531,9.5715 55.8875,9.4695 55.8252,9.3643 55.7662,9.2559 55.7105,9.1443 55.658,9.0294 55.609,8.9117 55.5632,8.7915 55.5206,8.6688 55.4811,8.5437 55.4447,8.4161 55.4116,8.2861 55.3815,8.1536 55.3547,8.0187 55.331,7.8813 55.3104,7.7415 55.2931,7.5992 55.2788,7.4544 55.2678,7.3072 55.2599,7.1575 55.2551,7.0053 55.2536,6.8566 h 1.0707 l 6e-4,0.096 0.0019,0.0946 0.0032,0.0934 0.0043,0.0921 0.0057,0.0908 0.0069,0.0895 0.0081,0.0883 0.0094,0.0869 0.0106,0.0857 0.0119,0.0844 0.0131,0.0831 0.0144,0.0818 0.0157,0.0805 0.0169,0.0792 0.0181,0.078 0.0194,0.0767 0.0426,0.1494 0.0476,0.1443 0.0525,0.1392 0.0576,0.1341 0.0626,0.1289 0.0676,0.1237 0.0726,0.1186 0.0776,0.1135 0.0829,0.1074 0.0886,0.1005 0.0942,0.0935 0.0998,0.0867 0.1055,0.0797 0.1111,0.0727 0.1167,0.0659 0.1224,0.0589 0.1279,0.052 0.1337,0.045 0.1392,0.0381 0.1449,0.0312 0.1505,0.0243 0.1562,0.0173 0.0802,0.0061 0.0816,0.0043 0.083,0.0026 0.0844,9e-4 0.0851,-9e-4 0.0837,-0.0026 0.0822,-0.0043 0.0808,-0.0061 0.0793,-0.0078 0.0778,-0.0095 0.1514,-0.0243 0.1455,-0.0312 0.1397,-0.0381 0.1339,-0.045 0.1281,-0.052 0.1223,-0.0589 0.1164,-0.0659 0.1107,-0.0727 0.1048,-0.0797 0.099,-0.0867 0.0932,-0.0935 0.0873,-0.1005 0.0816,-0.1074 0.0764,-0.1135 0.0715,-0.1186 0.0666,-0.1237 0.0616,-0.1289 0.0567,-0.1341 0.0518,-0.1392 0.0468,-0.1443 0.0419,-0.1494 0.0191,-0.0767 0.0179,-0.078 0.0167,-0.0792 0.0154,-0.0805 0.0141,-0.0818 0.013,-0.0831 0.0117,-0.0844 0.0105,-0.0857 0.0092,-0.0869 0.008,-0.0883 0.0068,-0.0895 0.0056,-0.0908 0.0043,-0.0921 0.0031,-0.0934 0.0018,-0.0946 6e-4,-0.096 -6e-4,-0.0959 L 61.5995,6.666 61.5964,6.5727 61.5921,6.4807 61.5865,6.39 61.5797,6.3006 61.5717,6.2125 61.5625,6.1257 61.552,6.0402 61.5403,5.9561 61.5273,5.8732 61.5132,5.7917 61.4978,5.7114 61.4811,5.6325 61.4632,5.5549 61.4441,5.4786 61.4022,5.3299 61.3554,5.1864 61.3036,5.0482 61.2469,4.9152 61.1853,4.7875 61.1187,4.665 61.0472,4.5477 60.9708,4.4357 60.8893,4.3297 60.8021,4.2305 60.7091,4.1382 60.6104,4.0527 60.506,3.974 60.3959,3.9022 60.28,3.8373 60.1584,3.7791 60.0311,3.7279 59.8981,3.6834 59.7594,3.6458 59.6149,3.615 59.4647,3.5911 59.3088,3.574 59.2286,3.568 59.1471,3.5637 l -0.083,-0.0025 -0.0844,-9e-4 -0.0844,9e-4 -0.083,0.0025 -0.0816,0.0043 -0.0803,0.006 -0.0788,0.0077 -0.1535,0.0205 -0.1479,0.0273 -0.1423,0.0342 -0.1367,0.0411 -0.1311,0.0478 -0.1256,0.0548 -0.1199,0.0615 -0.1144,0.0684 -0.1088,0.0752 -0.1031,0.0821 -0.0977,0.0889 -0.092,0.0957 -0.0864,0.1026 -0.0411,0.0539 -0.0783,0.112 L 56.8195,4.665 56.7513,4.7875 56.6881,4.9152 56.63,5.0482 56.577,5.1864 56.529,5.3299 56.486,5.4786 56.4664,5.5549 56.4481,5.6325 56.4311,5.7114 56.4153,5.7917 56.4007,5.8732 56.3875,5.9561 56.3755,6.0402 56.3647,6.1257 56.3553,6.2125 56.3471,6.3006 56.3401,6.39 56.3344,6.4807 56.33,6.5727 56.3268,6.666 56.325,6.7607 56.3243,6.8566 H 55.2536 V 6.8507 L 55.2551,6.6976 55.2599,6.5469 55.2678,6.3987 55.2788,6.253 55.2931,6.1097 55.3104,5.9688 55.331,5.8304 55.3547,5.6945 55.3815,5.561 55.4116,5.43 55.4447,5.3015 55.4811,5.1754 55.5206,5.0517 55.5632,4.9305 55.609,4.8118 55.658,4.6955 55.7105,4.5821 55.7662,4.4718 55.8252,4.3646 55.8875,4.2607 55.9531,4.1598 56.0219,4.0622 56.0941,3.9677 56.1695,3.8764 56.2482,3.7882 56.3302,3.7032 56.4154,3.6213 56.504,3.5426 56.5958,3.4671 56.6909,3.3947 56.7893,3.3255 56.891,3.2594 56.9962,3.1967 57.1048,3.138 57.2168,3.0834 57.3322,3.0329 57.4509,2.9863 57.573,2.9439 57.6985,2.9054 57.8274,2.871 57.9596,2.8407 58.0952,2.8144 58.2342,2.7922 58.3766,2.774 58.5223,2.7598 58.6714,2.7497 58.8239,2.7436 58.9797,2.7416 Z"
     id="path40" />
  <path
     style="fill:#f2eda1;fill-opacity:1;fill-rule:evenodd;stroke:#f2eda1;stroke-width:0;stroke-linecap:round;stroke-linejoin:round;stroke-opacity:1"
     d="M 66.6118,10.87 H 65.5997 V 3.6854 H 63.0908 V 2.8667 h 6.0201 v 0.8187 h -2.4991 z"
     id="path41" />
  <path
     style="fill:#f2eda1;fill-opacity:1;fill-rule:evenodd;stroke:#f2eda1;stroke-width:0;stroke-linecap:round;stroke-linejoin:round;stroke-opacity:1"
     d="m 79.6119,74.88 h -1.3282 v -0.192 l 0.5266,-0.5368 0.0188,-0.019 0.0184,-0.0187 0.0181,-0.0185 0.0177,-0.0182 0.0173,-0.0179 0.0169,-0.0177 0.0166,-0.0174 0.0161,-0.0171 0.0159,-0.0169 0.0154,-0.0166 0.0151,-0.0163 0.0146,-0.0161 0.0144,-0.0158 0.0139,-0.0156 0.0136,-0.0153 0.0132,-0.015 0.0128,-0.0149 0.0184,-0.0224 0.0176,-0.0222 0.0167,-0.0222 0.0158,-0.0221 0.0149,-0.022 0.014,-0.0219 0.0131,-0.0218 0.0122,-0.0218 0.0113,-0.0216 0.0105,-0.0216 0.0096,-0.0218 0.0086,-0.0222 0.0077,-0.0225 0.0068,-0.0229 0.0058,-0.0233 0.0049,-0.0236 0.0039,-0.024 0.003,-0.0244 0.0021,-0.0248 0.0011,-0.0251 2e-4,-0.017 -4e-4,-0.0205 -0.0012,-0.02 -0.0031,-0.0287 -0.005,-0.0273 -0.0066,-0.0259 -0.0084,-0.0245 -0.0101,-0.023 -0.0119,-0.0217 -0.0135,-0.0202 -0.0154,-0.0188 -0.017,-0.0174 -0.0061,-0.0055 -0.0189,-0.0155 -0.02,-0.014 -0.021,-0.0125 -0.0221,-0.011 -0.0231,-0.0094 -0.0242,-0.0079 -0.0252,-0.0064 -0.0263,-0.0048 -0.0273,-0.0033 -0.0284,-0.0018 -0.0195,-3e-4 -0.0271,5e-4 -0.0266,0.0014 -0.0259,0.0024 -0.0253,0.0034 -0.0247,0.0044 -0.0241,0.0053 -0.0235,0.0063 -0.0228,0.0073 -0.0222,0.0083 -0.0216,0.0092 -0.0141,0.0067 -0.0208,0.0107 -0.0209,0.0115 -0.021,0.0122 -0.0211,0.0129 -0.0211,0.0138 -0.0212,0.0144 -0.0213,0.0152 -0.0214,0.016 -0.0214,0.0167 -0.0216,0.0174 -0.0143,0.0121 -0.1319,-0.1651 0.0148,-0.0128 0.0152,-0.0125 0.0154,-0.0123 0.0157,-0.0121 0.0159,-0.0118 0.0163,-0.0115 0.0165,-0.0113 0.0168,-0.0111 0.0171,-0.0109 0.0173,-0.0106 0.0177,-0.0103 0.0179,-0.0101 0.0182,-0.0099 0.0185,-0.0096 0.0187,-0.0094 0.0191,-0.0092 0.0193,-0.0088 0.0196,-0.0081 0.0199,-0.0077 0.0202,-0.007 0.0206,-0.0065 0.0208,-0.006 0.0211,-0.0053 0.0214,-0.0048 0.0217,-0.0043 0.022,-0.0036 0.0223,-0.0031 0.0226,-0.0026 0.0229,-0.002 0.0232,-0.0014 0.0235,-8e-4 0.0237,-3e-4 0.0348,6e-4 0.0337,0.0016 0.0329,0.0028 0.0319,0.0039 0.0311,0.0051 0.03,0.0061 0.0292,0.0073 0.0283,0.0084 0.0273,0.0095 0.0264,0.0106 0.0255,0.0117 0.0245,0.0129 0.0236,0.014 0.0227,0.0151 0.0218,0.0162 0.0209,0.0173 0.0197,0.0183 0.0185,0.0192 0.0172,0.02 0.0159,0.0209 0.0147,0.0217 0.0134,0.0226 0.0121,0.0234 0.0108,0.0243 0.0096,0.0251 0.0083,0.026 0.007,0.0268 0.0057,0.0277 0.0045,0.0285 0.0032,0.0294 0.0019,0.0302 6e-4,0.0311 -2e-4,0.0198 -8e-4,0.0196 -0.0021,0.0291 -0.0032,0.0288 -0.0044,0.0284 -0.0055,0.0281 -0.0067,0.0277 -0.0078,0.0273 -0.0089,0.027 -0.0101,0.0267 -0.0113,0.0263 -0.0039,0.0087 -0.0126,0.026 -0.0134,0.0259 -0.0095,0.0172 -0.0098,0.0172 -0.0103,0.0172 -0.0106,0.0171 -0.011,0.0172 -0.0115,0.017 -0.0118,0.0171 -0.0122,0.017 -0.0126,0.017 -0.0131,0.017 -0.0134,0.0169 -0.0138,0.0169 -0.0142,0.0168 -0.0146,0.0169 -0.0148,0.017 -0.0152,0.0172 -0.0155,0.0173 -0.0158,0.0174 -0.0161,0.0176 -0.0165,0.0177 -0.0167,0.0179 -0.017,0.018 -0.0174,0.0182 -0.0176,0.0183 -0.018,0.0185 -0.0183,0.0186 -0.0185,0.0187 -0.0189,0.0189 -0.0192,0.0191 -0.4192,0.4167 h 1.0156 z"
     id="path44" />
  <path
     style="fill:#f2eda1;fill-opacity:1;fill-rule:evenodd;stroke:#f2eda1;stroke-width:0;stroke-linecap:round;stroke-linejoin:round;stroke-opacity:1"
     d="m 80.5722,72.8482 0.0206,8e-4 0.0202,0.0013 0.02,0.0018 0.0195,0.0024 0.0382,0.0064 0.0368,0.0084 0.0355,0.0106 0.0341,0.0127 0.0328,0.0149 0.0315,0.0169 0.0301,0.0191 0.0287,0.0212 0.0274,0.0233 0.0261,0.0254 0.0247,0.0275 0.0234,0.0297 0.0221,0.0317 0.0105,0.0167 0.0102,0.0171 0.0099,0.0176 0.0096,0.018 0.0092,0.0184 0.0089,0.0188 0.0086,0.0193 0.0083,0.0196 0.008,0.0201 0.0076,0.0206 0.0073,0.0209 0.007,0.0214 0.0066,0.0218 0.0063,0.0222 0.006,0.0227 0.0057,0.0231 0.0054,0.0235 0.005,0.0239 0.0047,0.0244 0.0044,0.0248 0.004,0.0252 0.0038,0.0256 0.0034,0.0261 0.003,0.0265 0.0028,0.0269 0.0024,0.0273 0.0021,0.0278 0.0018,0.0282 0.0015,0.0286 0.0011,0.029 8e-4,0.0295 5e-4,0.0299 2e-4,0.0303 -1e-4,0.0201 -2e-4,0.0199 -3e-4,0.0198 -5e-4,0.0195 -0.0013,0.0386 -0.0018,0.0379 -0.0024,0.0371 -0.0029,0.0364 -0.0034,0.0358 -0.004,0.035 -0.0044,0.0343 -0.0051,0.0335 -0.0055,0.0329 -0.006,0.0322 -0.0066,0.0314 -0.0071,0.0307 -0.0077,0.03 -0.0081,0.0293 -0.0088,0.0286 -0.0093,0.0276 -0.01,0.0269 -0.0106,0.026 -0.0112,0.0251 -0.0118,0.0243 -0.0125,0.0235 -0.013,0.0226 -0.0137,0.0218 -0.0143,0.0209 -0.0149,0.0201 -0.0156,0.0192 -0.0161,0.0184 -0.0168,0.0176 -0.0174,0.0167 -0.018,0.0159 -0.0186,0.0149 -0.0194,0.014 -0.0201,0.0131 -0.0209,0.012 -0.0216,0.0111 -0.0224,0.0102 -0.0231,0.0092 -0.0239,0.0082 -0.0246,0.0072 -0.0254,0.0063 -0.0261,0.0053 -0.0268,0.0043 -0.0276,0.0034 -0.0284,0.0024 -0.0291,0.0015 -0.0298,5e-4 -0.0211,-3e-4 -0.0208,-8e-4 -0.0204,-0.0013 -0.0201,-0.0019 -0.0197,-0.0024 -0.0194,-0.003 -0.0376,-0.0074 -0.0363,-0.0097 -0.0349,-0.0117 -0.0335,-0.0139 -0.0321,-0.016 -0.0308,-0.0182 -0.0293,-0.0203 -0.0279,-0.0224 -0.0266,-0.0246 -0.0251,-0.0267 -0.0238,-0.0289 -0.0223,-0.031 -0.021,-0.0331 -0.0099,-0.0173 -0.0097,-0.0178 -0.0093,-0.0181 -0.009,-0.0186 -0.0087,-0.019 -0.0083,-0.0194 -0.0081,-0.0198 -0.0077,-0.0202 -0.0075,-0.0207 -0.0071,-0.021 -0.0068,-0.0215 -0.0064,-0.0219 -0.0062,-0.0223 -0.0058,-0.0227 -0.0056,-0.0231 -0.0052,-0.0235 -0.0049,-0.024 -0.0045,-0.0243 -0.0043,-0.0248 -0.0039,-0.0252 -0.0037,-0.0256 -0.0033,-0.026 -0.003,-0.0264 -0.0027,-0.0268 -0.0023,-0.0273 -0.0021,-0.0276 -0.0017,-0.0281 -0.0015,-0.0285 -0.0011,-0.0289 -8e-4,-0.0293 -4e-4,-0.0297 -2e-4,-0.0302 h 0.2477 l 10e-5,0.0258 2e-4,0.0254 5e-4,0.0249 7e-4,0.0246 8e-4,0.0241 0.001,0.0238 0.0012,0.0233 0.0014,0.0229 0.0015,0.0225 0.0018,0.0221 0.0019,0.0217 0.0021,0.0213 0.0023,0.0209 0.0025,0.0204 0.0027,0.0201 0.0028,0.0196 0.0063,0.0381 0.007,0.0365 0.0077,0.0348 0.0085,0.0332 0.0092,0.0315 0.01,0.0299 0.0106,0.0283 0.0115,0.0266 0.0123,0.025 0.0133,0.0234 0.0144,0.0217 0.0155,0.0201 0.0164,0.0186 0.0176,0.0169 0.0186,0.0153 0.0196,0.0137 0.0207,0.012 0.0217,0.0105 0.0227,0.0089 0.0239,0.0072 0.0248,0.0056 0.0259,0.0041 0.027,0.0024 0.028,8e-4 0.0275,-8e-4 0.0266,-0.0024 0.0256,-0.004 0.0246,-0.0056 0.0236,-0.0072 0.0227,-0.0088 0.0216,-0.0104 0.0206,-0.012 0.0196,-0.0136 0.0186,-0.0152 0.0177,-0.0168 0.0166,-0.0183 0.0156,-0.02 0.0147,-0.0216 0.0136,-0.0232 0.0127,-0.0248 0.0117,-0.0265 0.0111,-0.0281 0.0102,-0.0298 0.0095,-0.0315 0.0087,-0.0332 0.008,-0.0348 0.0072,-0.0365 0.0065,-0.0381 0.0029,-0.0197 0.0028,-0.0201 0.0025,-0.0206 0.0024,-0.0209 0.0022,-0.0214 0.002,-0.0218 0.0018,-0.0222 0.0016,-0.0226 0.0014,-0.023 0.0013,-0.0235 0.001,-0.0239 9e-4,-0.0243 6e-4,-0.0247 5e-4,-0.0251 3e-4,-0.0255 1e-4,-0.026 -1e-4,-0.0256 -3e-4,-0.0252 -5e-4,-0.0248 -6e-4,-0.0243 -9e-4,-0.024 -0.001,-0.0236 -0.0013,-0.0232 -0.0014,-0.0228 -0.0016,-0.0223 -0.0018,-0.022 -0.002,-0.0215 -0.0022,-0.0212 -0.0024,-0.0208 -0.0025,-0.0203 -0.0028,-0.02 -0.0029,-0.0195 -0.0065,-0.0379 -0.0072,-0.0362 -0.008,-0.0347 -0.0087,-0.033 L 80.9062,73.3438 80.896,73.314 80.8849,73.2858 80.8732,73.2592 80.8605,73.2342 80.8469,73.2108 80.8322,73.189 80.8166,73.1688 80.8,73.1502 80.7823,73.1333 80.7637,73.118 80.7441,73.1042 80.7235,73.0921 80.7019,73.0816 80.6792,73.0728 80.6556,73.0655 80.631,73.0598 l -0.0256,-0.004 -0.0266,-0.0024 -0.0275,-8e-4 -0.028,8e-4 -0.027,0.0024 -0.0259,0.004 -0.0248,0.0057 -0.0239,0.0073 -0.0227,0.0088 -0.0217,0.0105 -0.0207,0.0121 -0.0196,0.0138 -0.0186,0.0153 -0.0176,0.0169 -0.0164,0.0186 -0.0155,0.0202 -0.0144,0.0218 -0.0133,0.0234 -0.0123,0.025 -0.0115,0.0266 -0.0106,0.0282 -0.01,0.0298 -0.0092,0.0314 -0.0085,0.033 -0.0077,0.0347 -0.007,0.0362 -0.0063,0.0379 -0.0028,0.0195 -0.0027,0.02 -0.0025,0.0203 -0.0023,0.0208 -0.0021,0.0212 -0.0019,0.0215 -0.0018,0.022 -0.0015,0.0223 -0.0014,0.0228 -0.0012,0.0232 -0.001,0.0236 -8e-4,0.024 -7e-4,0.0243 -5e-4,0.0248 -2e-4,0.0252 -10e-5,0.0256 h -0.2477 l 1e-4,-0.0203 2e-4,-0.02 3e-4,-0.0199 4e-4,-0.0197 0.0013,-0.0389 0.0018,-0.0381 0.0024,-0.0374 0.0028,-0.0366 0.0033,-0.0359 0.0039,-0.0351 0.0044,-0.0343 0.0049,-0.0337 0.0054,-0.0328 0.0059,-0.0322 0.0064,-0.0313 0.007,-0.0307 0.0075,-0.0298 0.008,-0.0292 0.0086,-0.0283 0.0092,-0.0275 0.0099,-0.0267 0.0105,-0.0258 0.0111,-0.0249 0.0117,-0.0242 0.0123,-0.0232 0.013,-0.0225 0.0136,-0.0216 0.0142,-0.0207 0.0148,-0.0199 0.0155,-0.0191 0.0161,-0.0182 0.0167,-0.0174 0.0173,-0.0165 0.018,-0.0157 0.0186,-0.0148 0.0194,-0.0138 0.0202,-0.0129 0.0208,-0.0119 0.0216,-0.011 0.0223,-0.01 0.023,-0.0091 0.0238,-0.0081 0.0245,-0.0071 0.0252,-0.0062 0.0259,-0.0053 0.0267,-0.0043 0.0274,-0.0033 0.0281,-0.0024 0.0288,-0.0014 0.0296,-5e-4 z"
     id="path45" />
  <path
     style="fill:#f2eda1;fill-opacity:1;fill-rule:evenodd;stroke:#f2eda1;stroke-width:0;stroke-linecap:round;stroke-linejoin:round;stroke-opacity:1"
     d="m 82.8125,74.88 h -1.3282 v -0.192 l 0.5266,-0.5368 0.0188,-0.019 0.0184,-0.0187 0.018,-0.0185 0.0177,-0.0182 0.0173,-0.0179 0.017,-0.0177 0.0165,-0.0174 0.0162,-0.0171 0.0158,-0.0169 0.0154,-0.0166 0.0151,-0.0163 0.0147,-0.0161 0.0143,-0.0158 0.014,-0.0156 0.0135,-0.0153 0.0132,-0.015 0.0128,-0.0149 0.0185,-0.0224 0.0176,-0.0222 0.0166,-0.0222 0.0158,-0.0221 0.0149,-0.022 0.014,-0.0219 0.0131,-0.0218 0.0123,-0.0218 0.0113,-0.0216 0.0104,-0.0216 0.0096,-0.0218 0.0087,-0.0222 0.0077,-0.0225 0.0068,-0.0229 0.0058,-0.0233 0.0049,-0.0236 0.0039,-0.024 0.003,-0.0244 0.002,-0.0248 0.0011,-0.0251 2e-4,-0.017 -3e-4,-0.0205 -0.0012,-0.02 -0.0032,-0.0287 -0.0049,-0.0273 -0.0066,-0.0259 -0.0084,-0.0245 -0.0101,-0.023 -0.0119,-0.0217 -0.0136,-0.0202 -0.0153,-0.0188 -0.0171,-0.0174 -0.006,-0.0055 -0.019,-0.0155 -0.0199,-0.014 -0.0211,-0.0125 -0.0221,-0.011 -0.0231,-0.0094 -0.0241,-0.0079 -0.0253,-0.0064 -0.0262,-0.0048 -0.0273,-0.0033 -0.0284,-0.0018 -0.0195,-3e-4 -0.0272,5e-4 -0.0265,0.0014 -0.0259,0.0024 -0.0254,0.0034 -0.0247,0.0044 -0.024,0.0053 -0.0235,0.0063 -0.0228,0.0073 -0.0223,0.0083 -0.0216,0.0092 -0.014,0.0067 -0.0208,0.0107 -0.021,0.0115 -0.0209,0.0122 -0.0211,0.0129 -0.0211,0.0138 -0.0213,0.0144 -0.0212,0.0152 -0.0214,0.016 -0.0215,0.0167 -0.0215,0.0174 -0.0144,0.0121 -0.1319,-0.1651 0.0149,-0.0128 0.0151,-0.0125 0.0154,-0.0123 0.0157,-0.0121 0.016,-0.0118 0.0162,-0.0115 0.0166,-0.0113 0.0168,-0.0111 0.017,-0.0109 0.0174,-0.0106 0.0176,-0.0103 0.018,-0.0101 0.0182,-0.0099 0.0184,-0.0096 0.0188,-0.0094 0.019,-0.0092 0.0194,-0.0088 0.0196,-0.0081 0.0199,-0.0077 0.0202,-0.007 0.0205,-0.0065 0.0208,-0.006 0.0211,-0.0053 0.0214,-0.0048 0.0217,-0.0043 0.022,-0.0036 0.0223,-0.0031 0.0226,-0.0026 0.0229,-0.002 0.0232,-0.0014 0.0235,-8e-4 0.0238,-3e-4 0.0347,6e-4 0.0338,0.0016 0.0329,0.0028 0.0319,0.0039 0.031,0.0051 0.0301,0.0061 0.0292,0.0073 0.0282,0.0084 0.0273,0.0095 0.0264,0.0106 0.0255,0.0117 0.0246,0.0129 0.0236,0.014 0.0227,0.0151 0.0218,0.0162 0.0208,0.0173 0.0198,0.0183 0.0185,0.0192 0.0172,0.02 0.0159,0.0209 0.0147,0.0217 0.0133,0.0226 0.0122,0.0234 0.0108,0.0243 0.0096,0.0251 0.0082,0.026 0.007,0.0268 0.0058,0.0277 0.0044,0.0285 0.0032,0.0294 0.0019,0.0302 7e-4,0.0311 -3e-4,0.0198 -7e-4,0.0196 -0.0021,0.0291 -0.0033,0.0288 -0.0043,0.0284 -0.0056,0.0281 -0.0066,0.0277 -0.0078,0.0273 -0.009,0.027 -0.0101,0.0267 -0.0112,0.0263 -0.004,0.0087 -0.0125,0.026 -0.0135,0.0259 -0.0094,0.0172 -0.0099,0.0172 -0.0102,0.0172 -0.0106,0.0171 -0.0111,0.0172 -0.0114,0.017 -0.0118,0.0171 -0.0123,0.017 -0.0126,0.017 -0.013,0.017 -0.0134,0.0169 -0.0138,0.0169 -0.0143,0.0168 -0.0145,0.0169 -0.0149,0.017 -0.0152,0.0172 -0.0155,0.0173 -0.0158,0.0174 -0.0161,0.0176 -0.0164,0.0177 -0.0167,0.0179 -0.0171,0.018 -0.0173,0.0182 -0.0177,0.0183 -0.0179,0.0185 -0.0183,0.0186 -0.0186,0.0187 -0.0189,0.0189 -0.0192,0.0191 -0.4191,0.4167 h 1.0156 z"
     id="path46" />
  <path
     style="fill:#f2eda1;fill-opacity:1;fill-rule:evenodd;stroke:#f2eda1;stroke-width:0;stroke-linecap:round;stroke-linejoin:round;stroke-opacity:1"
     d="m 84.337,73.351 -4e-4,0.0253 -0.0013,0.0246 -0.0022,0.024 -0.0031,0.0233 -0.004,0.0226 -0.0048,0.022 -0.0058,0.0213 -0.0066,0.0207 -0.0075,0.0201 -0.0084,0.0194 -0.0092,0.0187 -0.0102,0.0181 -0.011,0.0174 -0.0119,0.0168 -0.0128,0.0161 -0.0136,0.0155 -0.0144,0.0147 -0.0149,0.0142 -0.0156,0.0135 -0.0162,0.0128 -0.0169,0.0123 -0.0174,0.0115 -0.0181,0.011 -0.0187,0.0103 -0.0193,0.0097 -0.0199,0.0091 -0.0205,0.0084 -0.0212,0.0078 -0.0217,0.0072 -0.0224,0.0065 -0.023,0.0059 -0.0237,0.0053 v 0.0112 l 0.0298,0.0039 0.0289,0.0046 0.0278,0.0053 0.0269,0.0061 0.0259,0.0068 0.0249,0.0075 0.024,0.0083 0.023,0.0091 0.022,0.0097 0.021,0.0105 0.0201,0.0113 0.0191,0.012 0.0181,0.0127 0.0172,0.0135 0.0162,0.0142 0.0152,0.015 0.0143,0.0155 0.0134,0.0162 0.0124,0.0167 0.0116,0.0174 0.0106,0.0179 0.0097,0.0185 0.0088,0.0191 0.0078,0.0197 0.0069,0.0203 0.006,0.0209 0.0051,0.0215 0.0042,0.022 0.0032,0.0227 0.0023,0.0233 0.0014,0.0238 5e-4,0.0244 -3e-4,0.0214 -0.001,0.0212 -0.0016,0.0208 -0.0022,0.0205 -0.0029,0.0202 -0.0035,0.02 -0.0041,0.0196 -0.0048,0.0194 -0.0054,0.019 -0.0061,0.0188 -0.0067,0.0185 -0.0073,0.0181 -0.008,0.0179 -0.0086,0.0176 -0.0092,0.0173 -0.0099,0.017 -0.0106,0.0166 -0.0112,0.0162 -0.0119,0.0156 -0.0127,0.0153 -0.0133,0.0147 -0.014,0.0143 -0.0147,0.0138 -0.0154,0.0134 -0.0161,0.0129 -0.0168,0.0124 -0.0175,0.012 -0.0182,0.0115 -0.0189,0.011 -0.0195,0.0106 -0.0203,0.0101 -0.021,0.0096 -0.0216,0.0091 -0.0224,0.0086 -0.0231,0.0079 -0.0239,0.0073 -0.0247,0.0068 -0.0254,0.0062 -0.0262,0.0056 -0.027,0.005 -0.0277,0.0044 -0.0284,0.0038 -0.0293,0.0032 -0.0299,0.0027 -0.0308,0.002 -0.0315,0.0015 -0.0322,9e-4 -0.0331,3e-4 -0.0195,-1e-4 -0.0291,-5e-4 -0.0286,-9e-4 -0.0283,-0.0013 -0.0279,-0.0017 -0.0275,-0.0022 -0.0271,-0.0025 -0.0267,-0.0029 -0.0264,-0.0034 -0.0259,-0.0038 -0.0256,-0.0042 -0.0251,-0.0047 -0.025,-0.0054 -0.0249,-0.006 -0.0246,-0.0068 -0.0244,-0.0073 -0.0242,-0.0081 -0.0241,-0.0087 -0.0239,-0.0093 -0.0236,-0.01 -0.0235,-0.0107 -0.0156,-0.0075 v -0.2267 l 0.0239,0.0113 0.0243,0.0107 0.0246,0.0103 0.0249,0.0098 0.0252,0.0094 0.0257,0.0089 0.0259,0.0084 0.0263,0.008 0.0266,0.0075 0.027,0.0071 0.0182,0.0044 0.0274,0.0061 0.0272,0.0055 0.027,0.0049 0.0267,0.0043 0.0266,0.0037 0.0264,0.0031 0.0262,0.0025 0.026,0.0019 0.0258,0.0014 0.0256,7e-4 0.017,10e-5 0.0331,-4e-4 0.032,-0.0013 0.0309,-0.002 0.0296,-0.0029 0.0285,-0.0037 0.0272,-0.0045 0.0261,-0.0053 0.025,-0.0062 0.0237,-0.0069 0.0226,-0.0078 0.0214,-0.0087 0.0202,-0.0094 0.019,-0.0102 0.0178,-0.0111 0.0167,-0.0119 0.0155,-0.0127 0.0145,-0.0135 0.02,-0.0213 0.0179,-0.0227 0.0157,-0.0242 0.0137,-0.0255 0.0116,-0.0269 0.0065,-0.0187 0.0056,-0.0194 0.0047,-0.0199 0.0037,-0.0206 0.0028,-0.0213 0.0019,-0.0218 0.001,-0.0224 1e-4,-0.0115 -6e-4,-0.023 -0.0017,-0.0223 -0.0029,-0.0214 -0.004,-0.0205 L 84.1253,74.2049 84.1189,74.186 84.1114,74.1679 84.098,74.1422 84.082,74.1184 84.0635,74.0965 84.0423,74.0764 84.0267,74.064 84.01,74.0525 l -0.0179,-0.0107 -0.0189,-0.01 -0.0198,-0.0094 -0.0208,-0.0087 -0.0217,-0.0081 -0.0227,-0.0074 -0.0236,-0.0067 -0.0245,-0.0062 -0.0255,-0.0055 -0.0264,-0.0048 -0.0274,-0.0042 -0.0283,-0.0035 -0.0292,-0.0029 -0.0302,-0.0023 -0.0311,-0.0016 -0.0321,-10e-4 -0.033,-3e-4 H 83.383 v -0.2047 h 0.1969 l 0.0305,-4e-4 0.0295,-0.0012 0.0286,-0.0021 0.0277,-0.0029 0.0268,-0.0038 0.0258,-0.0045 0.0249,-0.0055 0.0239,-0.0062 0.023,-0.0071 0.0221,-0.0079 0.0211,-0.0087 0.0202,-0.0096 0.0193,-0.0104 0.0183,-0.0112 0.0174,-0.0121 0.0165,-0.0129 0.0155,-0.0135 0.0145,-0.0142 0.0135,-0.0146 0.0125,-0.0152 0.0169,-0.0238 0.0146,-0.025 0.0124,-0.0262 0.0101,-0.0275 0.0055,-0.0189 0.0045,-0.0195 0.0035,-0.0201 0.0025,-0.0206 0.0015,-0.0211 5e-4,-0.0216 -9e-4,-0.0275 L 84.08,73.3125 84.0757,73.2874 84.0696,73.2636 84.0618,73.2409 84.0523,73.2194 84.041,73.199 84.028,73.1799 84.0132,73.1619 83.9968,73.1452 83.9848,73.1346 83.9658,73.12 83.9455,73.1068 83.924,73.095 l -0.0228,-0.0104 -0.024,-0.0089 -0.0252,-0.0074 -0.0266,-0.006 -0.0277,-0.0046 -0.029,-0.0031 -0.02,-0.0013 -0.0206,-6e-4 -0.0105,-1e-4 -0.0202,2e-4 -0.0198,6e-4 -0.0291,0.0016 -0.0282,0.0025 -0.0273,0.0034 -0.0266,0.0043 -0.0256,0.0051 -0.0249,0.0061 -0.024,0.0069 -0.0231,0.0078 -0.0224,0.0087 -0.0072,0.0031 -0.0216,0.0097 -0.0215,0.0101 -0.0215,0.0106 -0.0215,0.0111 -0.0214,0.0116 -0.0213,0.012 -0.0213,0.0125 -0.0212,0.013 -0.0212,0.0134 -0.0211,0.0139 -0.0141,0.0096 -0.124,-0.1778 0.0205,-0.0154 0.0214,-0.015 0.0223,-0.0146 0.0233,-0.0141 0.0241,-0.0138 0.0251,-0.0134 0.026,-0.013 0.0178,-0.0085 0.0182,-0.0083 0.0187,-0.0081 0.019,-0.0079 0.0194,-0.0077 0.0099,-0.0038 0.0201,-0.0074 0.0204,-0.007 0.0208,-0.0064 0.021,-0.006 0.0215,-0.0054 0.0218,-0.005 0.0221,-0.0046 0.0224,-0.004 0.0228,-0.0036 0.0232,-0.0031 0.0234,-0.0026 0.0238,-0.0022 0.0242,-0.0017 0.0245,-0.0011 0.0248,-8e-4 0.0252,-2e-4 0.0387,6e-4 0.0375,0.0016 0.0362,0.0028 0.035,0.0039 0.0337,0.005 0.0324,0.0061 0.0312,0.0072 0.0299,0.0083 0.0287,0.0095 0.0274,0.0105 0.0261,0.0117 0.0248,0.0128 0.0236,0.0138 0.0224,0.015 0.021,0.0161 0.0198,0.0172 0.0186,0.0181 0.0174,0.0187 0.0162,0.0193 0.0149,0.0198 0.0138,0.0205 0.0126,0.021 0.0114,0.0217 0.0102,0.0223 0.009,0.0228 0.0078,0.0235 0.0065,0.0241 0.0054,0.0246 0.0042,0.0253 0.003,0.0258 0.0018,0.0265 z"
     id="path47" />
  <metadata
     id="metadata51">
    <rdf:RDF>
      <cc:Work
         rdf:about="">
        <dc:title>SVG Image created as seinot-panel-Edge_Cuts.svg date 2023/10/14 21:39:51 </dc:title>
      </cc:Work>
    </rdf:RDF>
  </metadata>
</svg>
