<?xml version="1.0" standalone="no"?>
 <!DOCTYPE svg PUBLIC "-//W3C//DTD SVG 1.1//EN" 
 "http://www.w3.org/Graphics/SVG/1.1/DTD/svg11.dtd"> 
<svg
  xmlns:svg="http://www.w3.org/2000/svg"
  xmlns="http://www.w3.org/2000/svg"
  xmlns:xlink="http://www.w3.org/1999/xlink"
  version="1.1"
  width="297.0022mm" height="210.0072mm" viewBox="0.0000 0.0000 297.0022 210.0072">
<title>SVG Image created as seinot-panel-Edge_Cuts.svg date 2023/10/06 21:27:38 </title>
  <desc>Image generated by PCBNEW </desc>
<g style="fill:#000000; fill-opacity:1.0000;stroke:#000000; stroke-opacity:1.0000;
stroke-linecap:round; stroke-linejoin:round;"
 transform="translate(0 0) scale(1 1)">
</g>
<g style="fill:#000000; fill-opacity:0.0; 
stroke:#000000; stroke-width:0.0000; stroke-opacity:1; 
stroke-linecap:round; stroke-linejoin:round;">
</g>
<g style="fill:#000000; fill-opacity:0.0; 
stroke:#000000; stroke-width:0.1000; stroke-opacity:1; 
stroke-linecap:round; stroke-linejoin:round;">
<circle cx="15.6250" cy="-16.9000" r="1.2500" /> 
<circle cx="44.5000" cy="-34.5000" r="1.7500" /> 
<circle cx="-44.5000" cy="-34.5000" r="1.7500" /> 
<circle cx="-44.5000" cy="34.5000" r="1.7500" /> 
<circle cx="44.5000" cy="34.5000" r="1.7500" /> 
<path d="M45.5000 39.5000
L-45.5000 39.5000
" />
</g>
<g style="fill:#000000; fill-opacity:0.0; 
stroke:#000000; stroke-width:0.1500; stroke-opacity:1; 
stroke-linecap:round; stroke-linejoin:round;">
<circle cx="30.5000" cy="18.0000" r="4.0000" /> 
</g>
<g style="fill:#000000; fill-opacity:0.0; 
stroke:#000000; stroke-width:0.1000; stroke-opacity:1; 
stroke-linecap:round; stroke-linejoin:round;">
<path d="M-49.5000 35.5000 A4.0000 4.0000 0.0 0 0 -45.5000 39.5000" />
<path d="M49.5000 -35.5000
L49.5000 35.5000
" />
<path d="M49.5000 -35.5000 A4.0000 4.0000 0.0 0 0 45.5000 -39.5000" />
</g>
<g style="fill:#000000; fill-opacity:0.0; 
stroke:#000000; stroke-width:0.1500; stroke-opacity:1; 
stroke-linecap:round; stroke-linejoin:round;">
<path style="fill:#000000; fill-opacity:0.0; 
stroke:#000000; stroke-width:0.1500; stroke-opacity:1; 
stroke-linecap:round; stroke-linejoin:round;fill:none"
d="M 12.1500,-5.7500
31.3500,-5.7500
31.3500,6.7500
12.1500,6.7500
Z" /> 
</g>
<g style="fill:#000000; fill-opacity:0.0; 
stroke:#000000; stroke-width:0.1000; stroke-opacity:1; 
stroke-linecap:round; stroke-linejoin:round;">
<path d="M-45.5000 -39.5000 A4.0000 4.0000 0.0 0 0 -49.5000 -35.5000" />
<path d="M-49.5000 -35.5000
L-49.5000 35.5000
" />
<path d="M-45.5000 -39.5000
L45.5000 -39.5000
" />
<path d="M45.5000 39.5000 A4.0000 4.0000 0.0 0 0 49.5000 35.5000" />
<circle cx="15.5000" cy="18.0000" r="6.0000" /> 
<circle cx="21.7500" cy="-16.9000" r="3.5000" /> 
<g >
</g>
<g >
</g>
<g >
</g>
</g> 
</svg>
