<?xml version="1.0" standalone="no"?>
 <!DOCTYPE svg PUBLIC "-//W3C//DTD SVG 1.1//EN" 
 "http://www.w3.org/Graphics/SVG/1.1/DTD/svg11.dtd"> 
<svg
  xmlns:svg="http://www.w3.org/2000/svg"
  xmlns="http://www.w3.org/2000/svg"
  xmlns:xlink="http://www.w3.org/1999/xlink"
  version="1.1"
  width="297.0022mm" height="210.0072mm" viewBox="0.0000 0.0000 297.0022 210.0072">
<title>SVG Image created as seinot-panel-F_Silkscreen.svg date 2023/10/11 22:04:21 </title>
  <desc>Image generated by PCBNEW </desc>
<g style="fill:#000000; fill-opacity:1.0000;stroke:#000000; stroke-opacity:1.0000;
stroke-linecap:round; stroke-linejoin:round;"
 transform="translate(0 0) scale(1 1)">
</g>
<g style="fill:#000000; fill-opacity:0.0; 
stroke:#000000; stroke-width:0.0000; stroke-opacity:1; 
stroke-linecap:round; stroke-linejoin:round;">
</g>
<g style="fill:#000000; fill-opacity:0.0; 
stroke:#000000; stroke-width:1.0000; stroke-opacity:1; 
stroke-linecap:round; stroke-linejoin:round;">
<path d="M-34.5000 -21.0000 A1.5000 1.5000 0.0 0 0 -36.0000 -19.5000" />
</g>
<g style="fill:#000000; fill-opacity:0.0; 
stroke:#000000; stroke-width:0.0000; stroke-opacity:1; 
stroke-linecap:round; stroke-linejoin:round;">
</g>
<g style="fill:#000000; fill-opacity:1.0000; 
stroke:#000000; stroke-width:0.0000; stroke-opacity:1; 
stroke-linecap:round; stroke-linejoin:round;">
<path style="fill:#000000; fill-opacity:1.0000; 
stroke:#000000; stroke-width:0.0000; stroke-opacity:1; 
stroke-linecap:round; stroke-linejoin:round;fill-rule:evenodd;"
d="M -19.1889,-4.9425
-19.1475,-4.9404
-19.1072,-4.9367
-19.0681,-4.9316
-19.0299,-4.9247
-18.9927,-4.9162
-18.9564,-4.9059
-18.9208,-4.8937
-18.8860,-4.8796
-18.8519,-4.8635
-18.8183,-4.8454
-18.7852,-4.8251
-18.7525,-4.8027
-18.7202,-4.7779
-18.6882,-4.7508
-18.6564,-4.7213
-18.6248,-4.6893
-18.5932,-4.6548
-18.5617,-4.6177
-18.5300,-4.5778
-18.4982,-4.5352
-18.4662,-4.4898
-18.4012,-4.3901
-18.3345,-4.2783
-18.2655,-4.1537
-18.1936,-4.0158
-18.1182,-3.8641
-18.0036,-3.6216
-17.8976,-3.3826
-17.8001,-3.1461
-17.7109,-2.9115
-17.6298,-2.6781
-17.5566,-2.4451
-17.4913,-2.2118
-17.4335,-1.9776
-17.3833,-1.7417
-17.3403,-1.5034
-17.3044,-1.2619
-17.2755,-1.0165
-17.2534,-0.7666
-17.2380,-0.5114
-17.2290,-0.2502
-17.2263,0.0178
-17.2295,0.2916
-17.2387,0.5557
-17.2542,0.8113
-17.2761,1.0596
-17.3048,1.3017
-17.3405,1.5388
-17.3836,1.7722
-17.4343,2.0031
-17.4930,2.2326
-17.5598,2.4620
-17.6351,2.6925
-17.7192,2.9252
-17.8124,3.1613
-17.9148,3.4021
-18.0270,3.6488
-18.1490,3.9025
-18.2196,4.0433
-18.2861,4.1712
-18.3492,4.2868
-18.4094,4.3906
-18.4673,4.4834
-18.5236,4.5657
-18.5786,4.6382
-18.6331,4.7014
-18.6876,4.7561
-18.7426,4.8028
-18.7989,4.8421
-18.8568,4.8747
-18.9171,4.9012
-18.9802,4.9222
-19.0469,4.9383
-19.1175,4.9503
-19.1405,4.9528
-19.1649,4.9543
-19.1906,4.9549
-19.2173,4.9545
-19.2447,4.9532
-19.2727,4.9510
-19.3011,4.9479
-19.3296,4.9441
-19.3581,4.9395
-19.3862,4.9341
-19.4139,4.9280
-19.4408,4.9212
-19.4668,4.9137
-19.4917,4.9057
-19.5152,4.8970
-19.5371,4.8878
-19.5837,4.8649
-19.6293,4.8386
-19.6737,4.8091
-19.7168,4.7768
-19.7583,4.7418
-19.7981,4.7043
-19.8360,4.6646
-19.8719,4.6228
-19.9055,4.5792
-19.9366,4.5341
-19.9652,4.4876
-19.9910,4.4399
-20.0138,4.3913
-20.0334,4.3420
-20.0498,4.2922
-20.0626,4.2421
-20.0681,4.2113
-20.0712,4.1794
-20.0717,4.1629
-20.0716,4.1460
-20.0707,4.1285
-20.0690,4.1104
-20.0634,4.0720
-20.0545,4.0302
-20.0421,3.9845
-20.0259,3.9342
-20.0059,3.8787
-19.9817,3.8175
-19.9533,3.7500
-19.9203,3.6755
-19.8826,3.5935
-19.8400,3.5033
-19.7922,3.4045
-19.7391,3.2963
-19.5468,2.8822
-19.3799,2.4697
-19.2383,2.0589
-19.1220,1.6495
-19.0311,1.2413
-18.9655,0.8342
-18.9253,0.4281
-18.9104,0.0227
-18.9208,-0.3821
-18.9566,-0.7864
-19.0177,-1.1905
-19.1041,-1.5945
-19.2159,-1.9985
-19.3530,-2.4027
-19.5154,-2.8073
-19.7031,-3.2124
-19.7858,-3.3818
-19.8577,-3.5347
-19.9191,-3.6726
-19.9699,-3.7969
-20.0103,-3.9088
-20.0403,-4.0098
-20.0599,-4.1014
-20.0659,-4.1440
-20.0694,-4.1847
-20.0703,-4.2238
-20.0687,-4.2614
-20.0645,-4.2976
-20.0579,-4.3327
-20.0487,-4.3668
-20.0371,-4.4000
-20.0230,-4.4327
-20.0064,-4.4648
-19.9658,-4.5283
-19.9155,-4.5921
-19.8555,-4.6574
-19.7858,-4.7257
-19.7503,-4.7586
-19.7170,-4.7881
-19.6855,-4.8144
-19.6553,-4.8376
-19.6259,-4.8580
-19.5969,-4.8757
-19.5824,-4.8836
-19.5679,-4.8909
-19.5532,-4.8976
-19.5384,-4.9037
-19.5233,-4.9093
-19.5080,-4.9144
-19.4923,-4.9190
-19.4762,-4.9231
-19.4426,-4.9300
-19.4067,-4.9352
-19.3681,-4.9389
-19.3263,-4.9414
-19.2809,-4.9428
-19.2315,-4.9432
Z" /> 
</g>
<g style="fill:#000000; fill-opacity:1.0000; 
stroke:#000000; stroke-width:1.0000; stroke-opacity:1; 
stroke-linecap:round; stroke-linejoin:round;">
</g>
<g style="fill:#000000; fill-opacity:0.0; 
stroke:#000000; stroke-width:1.0000; stroke-opacity:1; 
stroke-linecap:round; stroke-linejoin:round;">
<path d="M4.0000 -19.5000
L4.0000 19.5000
" />
<path d="M2.5000 21.0000 A1.5000 1.5000 0.0 0 0 4.0000 19.5000" />
<path d="M4.0000 -19.5000 A1.5000 1.5000 0.0 0 0 2.5000 -21.0000" />
</g>
<g style="fill:#000000; fill-opacity:0.0; 
stroke:#000000; stroke-width:0.0000; stroke-opacity:1; 
stroke-linecap:round; stroke-linejoin:round;">
</g>
<g style="fill:#000000; fill-opacity:1.0000; 
stroke:#000000; stroke-width:0.0000; stroke-opacity:1; 
stroke-linecap:round; stroke-linejoin:round;">
<path style="fill:#000000; fill-opacity:1.0000; 
stroke:#000000; stroke-width:0.0000; stroke-opacity:1; 
stroke-linecap:round; stroke-linejoin:round;fill-rule:evenodd;"
d="M -12.8049,-8.2361
-12.7348,-8.2288
-12.6661,-8.2169
-12.5993,-8.2003
-12.5353,-8.1791
-12.4745,-8.1534
-12.4178,-8.1232
-12.3911,-8.1064
-12.3657,-8.0886
-12.3416,-8.0696
-12.3189,-8.0495
-12.3004,-8.0302
-12.2788,-8.0044
-12.2543,-7.9724
-12.2273,-7.9347
-12.1979,-7.8917
-12.1666,-7.8439
-12.0988,-7.7355
-12.0260,-7.6131
-11.9504,-7.4802
-11.8741,-7.3402
-11.7993,-7.1966
-11.6567,-6.9094
-11.5199,-6.6188
-11.3889,-6.3250
-11.2638,-6.0280
-11.1445,-5.7281
-11.0311,-5.4253
-10.9237,-5.1197
-10.8222,-4.8114
-10.7267,-4.5007
-10.6373,-4.1875
-10.5540,-3.8720
-10.4768,-3.5543
-10.4058,-3.2346
-10.3409,-2.9129
-10.2823,-2.5894
-10.2300,-2.2641
-10.1753,-1.8193
-10.1331,-1.3079
-10.1039,-0.7534
-10.0880,-0.1795
-10.0858,0.3901
-10.0977,0.9318
-10.1240,1.4220
-10.1651,1.8369
-10.2662,2.5096
-10.3904,3.1658
-10.5382,3.8075
-10.7103,4.4365
-10.9072,5.0549
-11.1294,5.6644
-11.3775,6.2670
-11.6521,6.8646
-11.8184,7.1986
-11.8959,7.3463
-11.9699,7.4815
-12.0405,7.6045
-12.1081,7.7155
-12.1727,7.8147
-12.2345,7.9024
-12.2938,7.9789
-12.3507,8.0443
-12.4053,8.0991
-12.4579,8.1432
-12.5087,8.1772
-12.5578,8.2011
-12.6054,8.2153
-12.6517,8.2200
-12.6714,8.2205
-12.6932,8.2221
-12.7164,8.2246
-12.7403,8.2279
-12.7642,8.2319
-12.7874,8.2366
-12.8091,8.2416
-12.8286,8.2471
-12.8387,8.2495
-12.8507,8.2512
-12.8643,8.2523
-12.8795,8.2527
-12.8960,8.2525
-12.9138,8.2517
-12.9327,8.2502
-12.9526,8.2482
-12.9732,8.2457
-12.9944,8.2426
-13.0161,8.2389
-13.0381,8.2348
-13.0603,8.2301
-13.0825,8.2250
-13.1046,8.2194
-13.1264,8.2134
-13.1264,8.2134
-13.1512,8.2055
-13.1760,8.1963
-13.2008,8.1857
-13.2254,8.1740
-13.2499,8.1610
-13.2743,8.1468
-13.3222,8.1152
-13.3690,8.0794
-13.4143,8.0399
-13.4578,7.9971
-13.4992,7.9513
-13.5381,7.9028
-13.5743,7.8521
-13.6074,7.7995
-13.6371,7.7453
-13.6631,7.6901
-13.6851,7.6340
-13.6945,7.6058
-13.7028,7.5776
-13.7099,7.5493
-13.7158,7.5211
-13.7217,7.4850
-13.7254,7.4496
-13.7268,7.4142
-13.7266,7.3963
-13.7256,7.3782
-13.7240,7.3597
-13.7216,7.3408
-13.7185,7.3214
-13.7146,7.3015
-13.7043,7.2594
-13.6904,7.2140
-13.6729,7.1645
-13.6514,7.1102
-13.6258,7.0505
-13.5957,6.9847
-13.5611,6.9121
-13.5216,6.8320
-13.4770,6.7437
-13.4271,6.6466
-13.2220,6.2373
-13.0317,5.8311
-12.8559,5.4273
-12.6946,5.0249
-12.5474,4.6231
-12.4141,4.2209
-12.2946,3.8174
-12.1886,3.4119
-12.0958,3.0034
-12.0162,2.5909
-11.9493,2.1737
-11.8952,1.7508
-11.8534,1.3213
-11.8238,0.8844
-11.8063,0.4392
-11.8004,-0.0153
-11.8056,-0.4533
-11.8213,-0.8803
-11.8479,-1.2976
-11.8856,-1.7065
-11.9347,-2.1083
-11.9956,-2.5044
-12.0687,-2.8959
-12.1541,-3.2843
-12.2522,-3.6707
-12.3633,-4.0567
-12.4878,-4.4433
-12.6258,-4.8320
-12.7778,-5.2241
-12.9441,-5.6208
-13.1249,-6.0235
-13.3206,-6.4334
-13.4056,-6.6089
-13.4849,-6.7772
-13.5567,-6.9343
-13.6194,-7.0762
-13.6712,-7.1989
-13.7103,-7.2982
-13.7350,-7.3704
-13.7415,-7.3949
-13.7437,-7.4112
-13.7414,-7.4564
-13.7348,-7.5037
-13.7241,-7.5525
-13.7096,-7.6024
-13.6916,-7.6529
-13.6702,-7.7036
-13.6459,-7.7541
-13.6188,-7.8038
-13.5892,-7.8524
-13.5573,-7.8993
-13.5235,-7.9440
-13.4880,-7.9863
-13.4511,-8.0255
-13.4129,-8.0612
-13.3739,-8.0930
-13.3342,-8.1204
-13.3063,-8.1370
-13.2773,-8.1522
-13.2164,-8.1790
-13.1522,-8.2008
-13.0853,-8.2176
-13.0165,-8.2295
-12.9464,-8.2365
-12.8756,-8.2387
Z" /> 
</g>
<g style="fill:#000000; fill-opacity:1.0000; 
stroke:#000000; stroke-width:1.0000; stroke-opacity:1; 
stroke-linecap:round; stroke-linejoin:round;">
</g>
<g style="fill:#000000; fill-opacity:0.0; 
stroke:#000000; stroke-width:1.0000; stroke-opacity:1; 
stroke-linecap:round; stroke-linejoin:round;">
<path d="M-34.5000 -21.0000
L2.5000 -21.0000
" />
<path d="M-36.0000 19.5000 A1.5000 1.5000 0.0 0 0 -34.5000 21.0000" />
<path d="M2.5000 21.0000
L-34.5000 21.0000
" />
</g>
<g style="fill:#000000; fill-opacity:0.0; 
stroke:#000000; stroke-width:0.0000; stroke-opacity:1; 
stroke-linecap:round; stroke-linejoin:round;">
</g>
<g style="fill:#000000; fill-opacity:1.0000; 
stroke:#000000; stroke-width:0.0000; stroke-opacity:1; 
stroke-linecap:round; stroke-linejoin:round;">
<path style="fill:#000000; fill-opacity:1.0000; 
stroke:#000000; stroke-width:0.0000; stroke-opacity:1; 
stroke-linecap:round; stroke-linejoin:round;fill-rule:evenodd;"
d="M -22.1741,-3.4060
-22.1410,-3.4029
-22.1084,-3.3981
-22.0761,-3.3917
-22.0442,-3.3836
-22.0127,-3.3737
-21.9814,-3.3621
-21.9504,-3.3487
-21.9196,-3.3335
-21.8889,-3.3165
-21.8584,-3.2977
-21.8280,-3.2769
-21.7977,-3.2543
-21.7673,-3.2297
-21.7370,-3.2032
-21.7065,-3.1747
-21.6760,-3.1443
-21.6145,-3.0771
-21.5520,-3.0017
-21.4884,-2.9178
-21.4233,-2.8251
-21.3563,-2.7235
-21.1717,-2.4099
-21.0117,-2.0851
-20.8763,-1.7506
-20.7655,-1.4081
-20.6794,-1.0593
-20.6179,-0.7057
-20.5810,-0.3490
-20.5687,0.0091
-20.5810,0.3671
-20.6180,0.7233
-20.6796,1.0761
-20.7658,1.4238
-20.8766,1.7648
-21.0120,2.0975
-21.1721,2.4202
-21.3568,2.7313
-21.4268,2.8345
-21.4977,2.9290
-21.5335,2.9729
-21.5696,3.0147
-21.6059,3.0543
-21.6424,3.0917
-21.6791,3.1270
-21.7160,3.1600
-21.7532,3.1908
-21.7905,3.2195
-21.8280,3.2459
-21.8658,3.2702
-21.9037,3.2922
-21.9419,3.3120
-21.9802,3.3297
-22.0187,3.3451
-22.0573,3.3583
-22.0962,3.3693
-22.1352,3.3781
-22.1743,3.3847
-22.2137,3.3890
-22.2531,3.3912
-22.2928,3.3911
-22.3326,3.3888
-22.3725,3.3842
-22.4126,3.3775
-22.4528,3.3685
-22.4931,3.3573
-22.5336,3.3438
-22.5741,3.3281
-22.5741,3.3281
-22.5928,3.3198
-22.6117,3.3105
-22.6496,3.2889
-22.6876,3.2634
-22.7255,3.2346
-22.7630,3.2027
-22.7997,3.1679
-22.8354,3.1308
-22.8699,3.0915
-22.9028,3.0504
-22.9339,3.0079
-22.9630,2.9642
-22.9896,2.9198
-23.0137,2.8748
-23.0348,2.8297
-23.0527,2.7848
-23.0672,2.7403
-23.0797,2.6916
-23.0888,2.6437
-23.0944,2.5960
-23.0964,2.5482
-23.0960,2.5240
-23.0946,2.4996
-23.0922,2.4749
-23.0889,2.4499
-23.0790,2.3985
-23.0649,2.3449
-23.0465,2.2886
-23.0235,2.2292
-22.9959,2.1661
-22.9634,2.0988
-22.9260,2.0270
-22.8835,1.9499
-22.8357,1.8673
-22.7825,1.7786
-22.7140,1.6635
-22.6520,1.5542
-22.5964,1.4494
-22.5468,1.3480
-22.5028,1.2490
-22.4643,1.1511
-22.4308,1.0532
-22.4022,0.9542
-22.3780,0.8529
-22.3580,0.7482
-22.3420,0.6390
-22.3295,0.5240
-22.3203,0.4022
-22.3141,0.2725
-22.3107,0.1337
-22.3096,-0.0154
-22.3107,-0.1645
-22.3141,-0.3034
-22.3203,-0.4331
-22.3295,-0.5548
-22.3420,-0.6698
-22.3580,-0.7790
-22.3780,-0.8837
-22.4022,-0.9850
-22.4308,-1.0841
-22.4643,-1.1819
-22.5028,-1.2799
-22.5468,-1.3789
-22.5964,-1.4803
-22.6520,-1.5850
-22.7140,-1.6944
-22.7825,-1.8095
-22.8311,-1.8913
-22.8785,-1.9747
-22.9237,-2.0575
-22.9653,-2.1372
-23.0022,-2.2115
-23.0332,-2.2781
-23.0571,-2.3347
-23.0660,-2.3585
-23.0727,-2.3790
-23.0830,-2.4182
-23.0905,-2.4579
-23.0954,-2.4980
-23.0977,-2.5383
-23.0976,-2.5788
-23.0950,-2.6193
-23.0900,-2.6599
-23.0828,-2.7003
-23.0733,-2.7406
-23.0616,-2.7805
-23.0478,-2.8200
-23.0320,-2.8591
-23.0142,-2.8976
-22.9944,-2.9353
-22.9728,-2.9724
-22.9495,-3.0085
-22.9243,-3.0437
-22.8976,-3.0778
-22.8692,-3.1108
-22.8393,-3.1425
-22.8080,-3.1729
-22.7752,-3.2018
-22.7411,-3.2293
-22.7057,-3.2551
-22.6691,-3.2791
-22.6314,-3.3014
-22.5925,-3.3218
-22.5527,-3.3401
-22.5119,-3.3564
-22.4702,-3.3705
-22.4277,-3.3823
-22.3844,-3.3917
-22.3478,-3.3979
-22.3119,-3.4026
-22.2766,-3.4058
-22.2419,-3.4074
-22.2077,-3.4075
Z" /> 
<path style="fill:#000000; fill-opacity:1.0000; 
stroke:#000000; stroke-width:0.0000; stroke-opacity:1; 
stroke-linecap:round; stroke-linejoin:round;fill-rule:evenodd;"
d="M -15.9950,-6.5857
-15.9511,-6.5828
-15.9074,-6.5779
-15.8641,-6.5709
-15.8214,-6.5619
-15.7792,-6.5509
-15.7379,-6.5378
-15.6975,-6.5226
-15.6581,-6.5053
-15.6198,-6.4860
-15.5828,-6.4645
-15.5472,-6.4410
-15.5132,-6.4153
-15.4808,-6.3874
-15.4316,-6.3326
-15.3722,-6.2501
-15.3040,-6.1429
-15.2284,-6.0139
-15.1468,-5.8658
-15.0605,-5.7016
-14.8794,-5.3362
-14.6961,-4.9406
-14.5216,-4.5379
-14.3669,-4.1508
-14.3004,-3.9703
-14.2429,-3.8023
-14.0818,-3.2680
-13.9457,-2.7294
-13.8345,-2.1873
-13.7482,-1.6425
-13.6868,-1.0954
-13.6503,-0.5469
-13.6386,0.0024
-13.6516,0.5518
-13.6895,1.1006
-13.7521,1.6481
-13.8393,2.1937
-13.9513,2.7367
-14.0878,3.2763
-14.2490,3.8119
-14.4347,4.3428
-14.6450,4.8684
-14.7569,5.1246
-14.8651,5.3583
-14.9702,5.5699
-15.0725,5.7601
-15.1727,5.9293
-15.2713,6.0780
-15.3687,6.2069
-15.4656,6.3165
-15.5624,6.4073
-15.6597,6.4798
-15.7087,6.5094
-15.7580,6.5347
-15.8077,6.5556
-15.8578,6.5724
-15.9084,6.5849
-15.9596,6.5934
-16.0114,6.5979
-16.0640,6.5984
-16.1714,6.5878
-16.2825,6.5622
-16.2825,6.5622
-16.3202,6.5501
-16.3572,6.5357
-16.3934,6.5194
-16.4288,6.5011
-16.4634,6.4809
-16.4970,6.4590
-16.5296,6.4354
-16.5611,6.4103
-16.5916,6.3836
-16.6209,6.3556
-16.6490,6.3262
-16.6758,6.2957
-16.7013,6.2640
-16.7255,6.2313
-16.7482,6.1976
-16.7694,6.1632
-16.7892,6.1279
-16.8073,6.0921
-16.8238,6.0556
-16.8386,6.0187
-16.8516,5.9814
-16.8628,5.9439
-16.8722,5.9061
-16.8797,5.8682
-16.8851,5.8304
-16.8886,5.7926
-16.8900,5.7550
-16.8893,5.7176
-16.8863,5.6807
-16.8812,5.6441
-16.8737,5.6082
-16.8639,5.5728
-16.8459,5.5243
-16.8144,5.4490
-16.7711,5.3508
-16.7178,5.2334
-16.5881,4.9562
-16.4392,4.6480
-16.2824,4.3144
-16.1374,3.9781
-16.0044,3.6393
-15.8835,3.2982
-15.7746,2.9551
-15.6778,2.6102
-15.5932,2.2637
-15.5208,1.9159
-15.4606,1.5670
-15.4128,1.2172
-15.3773,0.8669
-15.3542,0.5161
-15.3435,0.1652
-15.3453,-0.1856
-15.3596,-0.5360
-15.3865,-0.8859
-15.4477,-1.4358
-15.4838,-1.6945
-15.5243,-1.9444
-15.5695,-2.1871
-15.6198,-2.4238
-15.6757,-2.6563
-15.7375,-2.8858
-15.8057,-3.1140
-15.8808,-3.3422
-15.9631,-3.5721
-16.0531,-3.8050
-16.1511,-4.0425
-16.2577,-4.2860
-16.4980,-4.7970
-16.6515,-5.1171
-16.7133,-5.2527
-16.7654,-5.3741
-16.8079,-5.4829
-16.8413,-5.5804
-16.8655,-5.6682
-16.8810,-5.7479
-16.8879,-5.8210
-16.8864,-5.8889
-16.8767,-5.9533
-16.8591,-6.0155
-16.8338,-6.0772
-16.8010,-6.1398
-16.7609,-6.2049
-16.7138,-6.2740
-16.6886,-6.3072
-16.6613,-6.3385
-16.6321,-6.3681
-16.6009,-6.3958
-16.5680,-6.4217
-16.5335,-6.4457
-16.4975,-6.4679
-16.4602,-6.4883
-16.4216,-6.5067
-16.3819,-6.5233
-16.3412,-6.5380
-16.2996,-6.5508
-16.2573,-6.5616
-16.2144,-6.5705
-16.1710,-6.5775
-16.1272,-6.5825
-16.0832,-6.5856
-16.0391,-6.5867
Z" /> 
</g>
<g style="fill:#000000; fill-opacity:1.0000; 
stroke:#000000; stroke-width:1.0000; stroke-opacity:1; 
stroke-linecap:round; stroke-linejoin:round;">
</g>
<g style="fill:#000000; fill-opacity:0.0; 
stroke:#000000; stroke-width:1.0000; stroke-opacity:1; 
stroke-linecap:round; stroke-linejoin:round;">
<path d="M-36.0000 19.5000
L-36.0000 -19.5000
" />
</g>
<g style="fill:#000000; fill-opacity:0.0; 
stroke:#000000; stroke-width:0.8000; stroke-opacity:1; 
stroke-linecap:round; stroke-linejoin:round;">
<text x="0.0000" y="-28.0000"
textLength="39.2977" font-size="10.6667" lengthAdjust="spacingAndGlyphs"
text-anchor="middle" opacity="0">SEINOT</text>
<g class="stroked-text"><desc>SEINOT</desc>
</g>
<g style="fill:#000000; fill-opacity:1.0000; 
stroke:#000000; stroke-width:0.0000; stroke-opacity:1; 
stroke-linecap:round; stroke-linejoin:round;">
<path style="fill:#000000; fill-opacity:1.0000; 
stroke:#000000; stroke-width:0.0000; stroke-opacity:1; 
stroke-linecap:round; stroke-linejoin:round;fill-rule:evenodd;"
d="M -13.9980,-30.8372
-14.0011,-30.7042
-14.0102,-30.5750
-14.0254,-30.4494
-14.0466,-30.3277
-14.0740,-30.2096
-14.1074,-30.0953
-14.1469,-29.9847
-14.1925,-29.8778
-14.2441,-29.7746
-14.3018,-29.6752
-14.3656,-29.5795
-14.4355,-29.4875
-14.5114,-29.3992
-14.5934,-29.3147
-14.6815,-29.2339
-14.7757,-29.1568
-14.8748,-29.0839
-14.9781,-29.0157
-15.0856,-28.9522
-15.1974,-28.8935
-15.3134,-28.8394
-15.4336,-28.7900
-15.5581,-28.7454
-15.6867,-28.7054
-15.8196,-28.6701
-15.9568,-28.6396
-16.0981,-28.6137
-16.2437,-28.5926
-16.3936,-28.5761
-16.5476,-28.5644
-16.6262,-28.5602
-16.7059,-28.5573
-16.7866,-28.5555
-16.8684,-28.5549
-16.9525,-28.5553
-17.0358,-28.5564
-17.1183,-28.5582
-17.2001,-28.5608
-17.2810,-28.5641
-17.3611,-28.5681
-17.4405,-28.5729
-17.5191,-28.5784
-17.6354,-28.5880
-17.7500,-28.5993
-17.8627,-28.6122
-17.9737,-28.6268
-18.0829,-28.6430
-18.1189,-28.6487
-18.2246,-28.6666
-18.3269,-28.6858
-18.4260,-28.7063
-18.5216,-28.7281
-18.6140,-28.7511
-18.7030,-28.7755
-18.7887,-28.8012
-18.8711,-28.8283
-18.9501,-28.8566
-19.0258,-28.8862
-19.0744,-28.9067
-19.0744,-29.8543
-18.9968,-29.8202
-18.9158,-29.7867
-18.8313,-29.7538
-18.7433,-29.7215
-18.6518,-29.6899
-18.5569,-29.6588
-18.4585,-29.6284
-18.3567,-29.5986
-18.2514,-29.5694
-18.1426,-29.5408
-18.0681,-29.5221
-17.9549,-29.4956
-17.8410,-29.4717
-17.7263,-29.4504
-17.6110,-29.4317
-17.4949,-29.4156
-17.4171,-29.4063
-17.3390,-29.3982
-17.2606,-29.3912
-17.1818,-29.3854
-17.1027,-29.3808
-17.0233,-29.3773
-16.9436,-29.3750
-16.8636,-29.3738
-16.8234,-29.3736
-16.7126,-29.3750
-16.6052,-29.3791
-16.5013,-29.3860
-16.4009,-29.3956
-16.3040,-29.4080
-16.2105,-29.4231
-16.1205,-29.4410
-16.0341,-29.4616
-15.9510,-29.4849
-15.8715,-29.5110
-15.7955,-29.5399
-15.7229,-29.5715
-15.6206,-29.6240
-15.5261,-29.6828
-15.4674,-29.7254
-15.3860,-29.7935
-15.3127,-29.8660
-15.2473,-29.9428
-15.1900,-30.0240
-15.1406,-30.1096
-15.0993,-30.1995
-15.0659,-30.2938
-15.0406,-30.3925
-15.0233,-30.4955
-15.0139,-30.6029
-15.0121,-30.6769
-15.0148,-30.7741
-15.0228,-30.8674
-15.0360,-30.9568
-15.0546,-31.0423
-15.0785,-31.1239
-15.1078,-31.2016
-15.1423,-31.2753
-15.1821,-31.3452
-15.2279,-31.4125
-15.2813,-31.4785
-15.3422,-31.5434
-15.4107,-31.6070
-15.4868,-31.6694
-15.5705,-31.7306
-15.6382,-31.7757
-15.7102,-31.8201
-15.7605,-31.8493
-15.8403,-31.8931
-15.9257,-31.9375
-16.0168,-31.9824
-16.1136,-32.0278
-16.2160,-32.0737
-16.3241,-32.1202
-16.3993,-32.1514
-16.4771,-32.1829
-16.5573,-32.2146
-16.6401,-32.2465
-16.7254,-32.2786
-16.8132,-32.3110
-16.9036,-32.3436
-17.0296,-32.3910
-17.1517,-32.4396
-17.2699,-32.4896
-17.3842,-32.5409
-17.4946,-32.5935
-17.6011,-32.6474
-17.7037,-32.7027
-17.8024,-32.7593
-17.8971,-32.8173
-17.9880,-32.8766
-18.0749,-32.9371
-18.1580,-32.9991
-18.2371,-33.0623
-18.3124,-33.1269
-18.3837,-33.1928
-18.4511,-33.2600
-18.5143,-33.3297
-18.5734,-33.4025
-18.6284,-33.4783
-18.6793,-33.5573
-18.7262,-33.6393
-18.7690,-33.7244
-18.8077,-33.8126
-18.8424,-33.9039
-18.8729,-33.9982
-18.8994,-34.0957
-18.9218,-34.1962
-18.9402,-34.2998
-18.9544,-34.4065
-18.9646,-34.5162
-18.9707,-34.6291
-18.9728,-34.7450
-18.9715,-34.8252
-18.9677,-34.9038
-18.9572,-35.0190
-18.9409,-35.1309
-18.9189,-35.2396
-18.8912,-35.3449
-18.8577,-35.4469
-18.8186,-35.5457
-18.7736,-35.6411
-18.7230,-35.7332
-18.6666,-35.8221
-18.6465,-35.8510
-18.5831,-35.9352
-18.5152,-36.0157
-18.4430,-36.0926
-18.3663,-36.1657
-18.2852,-36.2351
-18.1996,-36.3008
-18.1096,-36.3628
-18.0152,-36.4210
-17.9164,-36.4756
-17.8131,-36.5265
-17.7418,-36.5583
-17.6686,-36.5886
-17.5940,-36.6169
-17.5181,-36.6433
-17.4408,-36.6677
-17.3621,-36.6902
-17.2821,-36.7107
-17.2007,-36.7293
-17.1180,-36.7459
-17.0339,-36.7605
-16.9485,-36.7732
-16.8617,-36.7840
-16.7735,-36.7928
-16.6840,-36.7996
-16.5931,-36.8045
-16.5009,-36.8074
-16.4073,-36.8084
-16.3247,-36.8080
-16.2429,-36.8066
-16.1621,-36.8043
-16.0822,-36.8012
-16.0031,-36.7971
-15.9249,-36.7922
-15.8093,-36.7831
-15.6957,-36.7719
-15.5841,-36.7588
-15.4745,-36.7436
-15.3669,-36.7263
-15.2612,-36.7071
-15.1919,-36.6931
-15.0895,-36.6712
-14.9888,-36.6481
-14.8898,-36.6237
-14.7927,-36.5980
-14.6972,-36.5710
-14.6035,-36.5427
-14.5116,-36.5132
-14.4214,-36.4825
-14.3330,-36.4504
-14.2463,-36.4171
-14.1895,-36.3942
-14.5061,-35.5168
-14.5848,-35.5537
-14.6648,-35.5894
-14.7460,-35.6240
-14.8287,-35.6575
-14.9126,-35.6900
-14.9978,-35.7213
-15.0843,-35.7515
-15.1721,-35.7806
-15.2612,-35.8087
-15.3517,-35.8356
-15.4127,-35.8529
-15.5047,-35.8774
-15.5973,-35.8994
-15.6907,-35.9190
-15.7848,-35.9363
-15.8797,-35.9511
-15.9752,-35.9635
-16.0715,-35.9735
-16.1685,-35.9812
-16.2662,-35.9864
-16.3647,-35.9892
-16.4307,-35.9897
-16.5235,-35.9884
-16.6135,-35.9846
-16.7005,-35.9783
-16.7846,-35.9694
-16.8658,-35.9580
-16.9442,-35.9441
-17.0562,-35.9184
-17.1617,-35.8871
-17.2607,-35.8500
-17.3532,-35.8072
-17.4392,-35.7588
-17.5186,-35.7046
-17.5679,-35.6653
-17.6360,-35.6030
-17.6974,-35.5370
-17.7521,-35.4673
-17.8001,-35.3939
-17.8414,-35.3167
-17.8760,-35.2359
-17.9039,-35.1513
-17.9251,-35.0630
-17.9396,-34.9711
-17.9474,-34.8754
-17.9489,-34.8095
-17.9463,-34.7095
-17.9384,-34.6138
-17.9253,-34.5222
-17.9069,-34.4348
-17.8833,-34.3517
-17.8544,-34.2728
-17.8203,-34.1981
-17.7809,-34.1276
-17.7351,-34.0605
-17.6827,-33.9952
-17.6237,-33.9316
-17.5581,-33.8697
-17.4860,-33.8095
-17.4072,-33.7510
-17.3218,-33.6942
-17.2535,-33.6527
-17.2299,-33.6391
-17.1557,-33.5985
-17.0768,-33.5573
-16.9931,-33.5154
-16.9047,-33.4730
-16.8116,-33.4299
-16.7137,-33.3862
-16.6111,-33.3419
-16.5037,-33.2969
-16.4295,-33.2666
-16.3532,-33.2360
-16.2748,-33.2052
-16.1943,-33.1741
-16.1065,-33.1414
-16.0204,-33.1085
-15.9361,-33.0752
-15.8534,-33.0416
-15.7725,-33.0076
-15.6934,-32.9734
-15.6159,-32.9388
-15.5402,-32.9039
-15.4662,-32.8687
-15.3939,-32.8332
-15.3234,-32.7973
-15.2208,-32.7430
-15.1221,-32.6879
-15.0273,-32.6321
-14.9965,-32.6133
-14.9066,-32.5558
-14.8209,-32.4963
-14.7393,-32.4346
-14.6619,-32.3708
-14.5887,-32.3050
-14.5196,-32.2371
-14.4546,-32.1670
-14.3938,-32.0949
-14.3372,-32.0207
-14.2847,-31.9443
-14.2521,-31.8923
-14.2067,-31.8116
-14.1657,-31.7272
-14.1293,-31.6390
-14.0973,-31.5470
-14.0697,-31.4512
-14.0467,-31.3517
-14.0281,-31.2483
-14.0139,-31.1412
-14.0042,-31.0304
-13.9990,-30.9157
Z" /> 
<path style="fill:#000000; fill-opacity:1.0000; 
stroke:#000000; stroke-width:0.0000; stroke-opacity:1; 
stroke-linecap:round; stroke-linejoin:round;fill-rule:evenodd;"
d="M -7.9232,-28.6800
-12.4134,-28.6800
-12.4134,-36.6833
-7.9232,-36.6833
-7.9232,-35.8646
-11.4013,-35.8646
-11.4013,-33.2503
-8.1264,-33.2503
-8.1264,-32.4316
-11.4013,-32.4316
-11.4013,-29.4987
-7.9232,-29.4987
Z" /> 
<path style="fill:#000000; fill-opacity:1.0000; 
stroke:#000000; stroke-width:0.0000; stroke-opacity:1; 
stroke-linecap:round; stroke-linejoin:round;fill-rule:evenodd;"
d="M -3.9313,-28.6800
-6.8349,-28.6800
-6.8349,-29.2564
-5.8892,-29.4655
-5.8892,-35.7728
-6.8349,-35.9956
-6.8349,-36.6833
-3.9313,-36.6833
-3.9313,-35.9956
-4.8751,-35.7728
-4.8751,-29.4655
-3.9313,-29.2564
Z" /> 
<path style="fill:#000000; fill-opacity:1.0000; 
stroke:#000000; stroke-width:0.0000; stroke-opacity:1; 
stroke-linecap:round; stroke-linejoin:round;fill-rule:evenodd;"
d="M 3.9685,-28.6800
2.7863,-28.6800
-1.5124,-35.2335
-1.5573,-35.2335
-1.5517,-35.1339
-1.5473,-35.0553
-1.5427,-34.9734
-1.5379,-34.8882
-1.5329,-34.7997
-1.5276,-34.7080
-1.5222,-34.6129
-1.5166,-34.5145
-1.5107,-34.4129
-1.5046,-34.3079
-1.5026,-34.2722
-1.4963,-34.1642
-1.4906,-34.0556
-1.4856,-33.9464
-1.4811,-33.8367
-1.4773,-33.7263
-1.4741,-33.6154
-1.4716,-33.5039
-1.4696,-33.3918
-1.4683,-33.2791
-1.4675,-33.1659
-1.4674,-33.0900
-1.4674,-28.6800
-2.4014,-28.6800
-2.4014,-36.6833
-1.2310,-36.6833
3.0560,-30.0302
3.1009,-30.0302
3.0963,-30.1182
3.0917,-30.2072
3.0874,-30.2909
3.0828,-30.3832
3.0789,-30.4634
3.0746,-30.5491
3.0736,-30.5714
3.0692,-30.6624
3.0648,-30.7555
3.0604,-30.8507
3.0560,-30.9480
3.0516,-31.0475
3.0472,-31.1492
3.0428,-31.2529
3.0395,-31.3322
3.0384,-31.3589
3.0356,-31.4385
3.0331,-31.5169
3.0301,-31.6196
3.0277,-31.7202
3.0257,-31.8186
3.0243,-31.9149
3.0233,-32.0091
3.0228,-32.1011
3.0227,-32.1463
3.0227,-36.6833
3.9685,-36.6833
Z" /> 
<path style="fill:#000000; fill-opacity:1.0000; 
stroke:#000000; stroke-width:0.0000; stroke-opacity:1; 
stroke-linecap:round; stroke-linejoin:round;fill-rule:evenodd;"
d="M 9.5787,-36.8064
9.7247,-36.8004
9.8676,-36.7904
10.0076,-36.7764
10.1446,-36.7584
10.2786,-36.7364
10.4096,-36.7104
10.5376,-36.6804
10.6626,-36.6464
10.7847,-36.6084
10.9037,-36.5664
11.0197,-36.5204
11.1328,-36.4704
11.2429,-36.4165
11.3499,-36.3585
11.4540,-36.2965
11.5553,-36.2311
11.6534,-36.1625
11.7484,-36.0906
11.8403,-36.0155
11.9290,-35.9371
12.0146,-35.8555
12.0971,-35.7706
12.1765,-35.6824
12.2527,-35.5911
12.3258,-35.4964
12.3958,-35.3985
12.4626,-35.2974
12.5263,-35.1930
12.5869,-35.0854
12.6444,-34.9745
12.6987,-34.8603
12.7498,-34.7433
12.7976,-34.6238
12.8421,-34.5017
12.8833,-34.3772
12.9212,-34.2502
12.9559,-34.1206
12.9872,-33.9886
13.0152,-33.8540
13.0399,-33.7170
13.0614,-33.5774
13.0795,-33.4354
13.0943,-33.2908
13.1059,-33.1438
13.1141,-32.9942
13.1191,-32.8421
13.1207,-32.6875
13.1191,-32.5330
13.1141,-32.3809
13.1059,-32.2313
13.0943,-32.0843
13.0795,-31.9397
13.0614,-31.7976
13.0399,-31.6581
13.0152,-31.5210
12.9872,-31.3865
12.9559,-31.2544
12.9212,-31.1249
12.8833,-30.9979
12.8421,-30.8733
12.7976,-30.7513
12.7498,-30.6318
12.6987,-30.5148
12.6444,-30.4006
12.5869,-30.2896
12.5263,-30.1818
12.4626,-30.0772
12.3958,-29.9758
12.3258,-29.8776
12.2527,-29.7825
12.1765,-29.6907
12.0971,-29.6020
12.0146,-29.5166
11.9290,-29.4343
11.8403,-29.3552
11.7484,-29.2793
11.6534,-29.2066
11.5553,-29.1371
11.4540,-29.0708
11.3499,-29.0083
11.2427,-28.9499
11.1324,-28.8955
11.0190,-28.8451
10.9026,-28.7988
10.7830,-28.7564
10.6604,-28.7182
10.5347,-28.6839
10.4059,-28.6537
10.2740,-28.6275
10.1391,-28.6053
10.0010,-28.5872
9.8599,-28.5731
9.7157,-28.5630
9.5684,-28.5570
9.4180,-28.5549
9.2636,-28.5570
9.1124,-28.5630
8.9646,-28.5731
8.8200,-28.5872
8.6787,-28.6053
8.5407,-28.6275
8.4059,-28.6537
8.2745,-28.6839
8.1463,-28.7182
8.0214,-28.7564
7.8998,-28.7988
7.7815,-28.8451
7.6664,-28.8955
7.5546,-28.9499
7.4462,-29.0083
7.3410,-29.0708
7.2393,-29.1371
7.1409,-29.2067
7.0458,-29.2795
6.9540,-29.3556
6.8654,-29.4349
6.7802,-29.5174
6.6982,-29.6031
6.6195,-29.6921
6.5441,-29.7844
6.4719,-29.8798
6.4031,-29.9785
6.3375,-30.0805
6.2752,-30.1857
6.2162,-30.2941
6.1605,-30.4057
6.1080,-30.5206
6.0590,-30.6383
6.0132,-30.7585
5.9706,-30.8812
5.9311,-31.0063
5.8947,-31.1339
5.8616,-31.2639
5.8315,-31.3964
5.8047,-31.5313
5.7810,-31.6687
5.7604,-31.8085
5.7431,-31.9508
5.7288,-32.0956
5.7178,-32.2428
5.7099,-32.3925
5.7051,-32.5447
5.7036,-32.6934
6.7743,-32.6934
6.7749,-32.5974
6.7768,-32.5028
6.7800,-32.4094
6.7843,-32.3173
6.7900,-32.2265
6.7969,-32.1370
6.8050,-32.0487
6.8144,-31.9618
6.8250,-31.8761
6.8369,-31.7917
6.8500,-31.7086
6.8644,-31.6268
6.8801,-31.5463
6.8970,-31.4671
6.9151,-31.3891
6.9345,-31.3124
6.9771,-31.1630
7.0247,-31.0187
7.0772,-30.8795
7.1348,-30.7454
7.1974,-30.6165
7.2650,-30.4928
7.3376,-30.3742
7.4152,-30.2607
7.4981,-30.1533
7.5867,-30.0528
7.6809,-29.9593
7.7807,-29.8726
7.8862,-29.7929
7.9973,-29.7202
8.1140,-29.6543
8.2364,-29.5954
8.3643,-29.5434
8.4980,-29.4984
8.6372,-29.4603
8.7821,-29.4291
8.9326,-29.4048
9.0888,-29.3875
9.1690,-29.3814
9.2506,-29.3771
9.3336,-29.3745
9.4180,-29.3736
9.5031,-29.3745
9.5868,-29.3771
9.6690,-29.3814
9.7498,-29.3875
9.8291,-29.3953
9.9069,-29.4048
10.0583,-29.4291
10.2038,-29.4603
10.3435,-29.4984
10.4774,-29.5434
10.6055,-29.5954
10.7278,-29.6543
10.8442,-29.7202
10.9549,-29.7929
11.0597,-29.8726
11.1587,-29.9593
11.2519,-30.0528
11.3392,-30.1533
11.4208,-30.2607
11.4972,-30.3742
11.5687,-30.4928
11.6353,-30.6165
11.6969,-30.7454
11.7536,-30.8795
11.8054,-31.0187
11.8522,-31.1630
11.8941,-31.3124
11.9132,-31.3891
11.9311,-31.4671
11.9478,-31.5463
11.9632,-31.6268
11.9773,-31.7086
11.9903,-31.7917
12.0020,-31.8761
12.0125,-31.9618
12.0217,-32.0487
12.0297,-32.1370
12.0365,-32.2265
12.0421,-32.3173
12.0464,-32.4094
12.0495,-32.5028
12.0513,-32.5974
12.0519,-32.6934
12.0513,-32.7893
12.0495,-32.8840
12.0464,-32.9773
12.0421,-33.0693
12.0365,-33.1600
12.0297,-33.2494
12.0217,-33.3375
12.0125,-33.4243
12.0020,-33.5098
11.9903,-33.5939
11.9773,-33.6768
11.9632,-33.7583
11.9478,-33.8386
11.9311,-33.9175
11.9132,-33.9951
11.8941,-34.0714
11.8522,-34.2201
11.8054,-34.3636
11.7536,-34.5018
11.6969,-34.6348
11.6353,-34.7625
11.5687,-34.8850
11.4972,-35.0023
11.4208,-35.1143
11.3393,-35.2203
11.2521,-35.3195
11.1591,-35.4118
11.0604,-35.4973
10.9560,-35.5760
10.8459,-35.6478
10.7300,-35.7127
10.6084,-35.7709
10.4811,-35.8221
10.3481,-35.8666
10.2094,-35.9042
10.0649,-35.9350
9.9147,-35.9589
9.7588,-35.9760
9.6786,-35.9820
9.5971,-35.9863
9.5141,-35.9888
9.4297,-35.9897
9.3453,-35.9888
9.2623,-35.9863
9.1807,-35.9820
9.1004,-35.9760
9.0216,-35.9683
8.8681,-35.9478
8.7202,-35.9205
8.5779,-35.8863
8.4412,-35.8452
8.3101,-35.7974
8.1845,-35.7426
8.0646,-35.6811
7.9502,-35.6127
7.8414,-35.5375
7.7383,-35.4554
7.6406,-35.3665
7.5486,-35.2708
7.4622,-35.1682
7.4211,-35.1143
7.3428,-35.0023
7.2695,-34.8850
7.2013,-34.7625
7.1381,-34.6348
7.0800,-34.5018
7.0270,-34.3636
6.9790,-34.2201
6.9360,-34.0714
6.9164,-33.9951
6.8981,-33.9175
6.8811,-33.8386
6.8653,-33.7583
6.8507,-33.6768
6.8375,-33.5939
6.8255,-33.5098
6.8147,-33.4243
6.8053,-33.3375
6.7971,-33.2494
6.7901,-33.1600
6.7844,-33.0693
6.7800,-32.9773
6.7768,-32.8840
6.7750,-32.7893
6.7743,-32.6934
5.7036,-32.6934
5.7036,-32.6993
5.7051,-32.8524
5.7099,-33.0031
5.7178,-33.1513
5.7288,-33.2970
5.7431,-33.4403
5.7604,-33.5812
5.7810,-33.7196
5.8047,-33.8555
5.8315,-33.9890
5.8616,-34.1200
5.8947,-34.2485
5.9311,-34.3746
5.9706,-34.4983
6.0132,-34.6195
6.0590,-34.7382
6.1080,-34.8545
6.1605,-34.9679
6.2162,-35.0782
6.2752,-35.1854
6.3375,-35.2893
6.4031,-35.3902
6.4719,-35.4878
6.5441,-35.5823
6.6195,-35.6736
6.6982,-35.7618
6.7802,-35.8468
6.8654,-35.9287
6.9540,-36.0074
7.0458,-36.0829
7.1409,-36.1553
7.2393,-36.2245
7.3410,-36.2906
7.4462,-36.3533
7.5548,-36.4120
7.6668,-36.4666
7.7822,-36.5171
7.9009,-36.5637
8.0230,-36.6061
8.1485,-36.6446
8.2774,-36.6790
8.4096,-36.7093
8.5452,-36.7356
8.6842,-36.7578
8.8266,-36.7760
8.9723,-36.7902
9.1214,-36.8003
9.2739,-36.8064
9.4297,-36.8084
Z" /> 
<path style="fill:#000000; fill-opacity:1.0000; 
stroke:#000000; stroke-width:0.0000; stroke-opacity:1; 
stroke-linecap:round; stroke-linejoin:round;fill-rule:evenodd;"
d="M 17.0618,-28.6800
16.0497,-28.6800
16.0497,-35.8646
13.5408,-35.8646
13.5408,-36.6833
19.5609,-36.6833
19.5609,-35.8646
17.0618,-35.8646
Z" /> 
</g></g>
<g style="fill:#000000; fill-opacity:1.0000; 
stroke:#000000; stroke-width:0.1500; stroke-opacity:1; 
stroke-linecap:round; stroke-linejoin:round;">
</g>
<g style="fill:#000000; fill-opacity:0.0; 
stroke:#000000; stroke-width:0.1500; stroke-opacity:1; 
stroke-linecap:round; stroke-linejoin:round;">
<text x="35.0000" y="35.5000"
textLength="6.4011" font-size="2.6667" lengthAdjust="spacingAndGlyphs"
text-anchor="end" opacity="0">2023</text>
<g class="stroked-text"><desc>2023</desc>
</g>
<g style="fill:#000000; fill-opacity:1.0000; 
stroke:#000000; stroke-width:0.0000; stroke-opacity:1; 
stroke-linecap:round; stroke-linejoin:round;">
<path style="fill:#000000; fill-opacity:1.0000; 
stroke:#000000; stroke-width:0.0000; stroke-opacity:1; 
stroke-linecap:round; stroke-linejoin:round;fill-rule:evenodd;"
d="M 30.0619,35.3300
28.7337,35.3300
28.7337,35.1380
29.2603,34.6012
29.2791,34.5822
29.2975,34.5635
29.3156,34.5450
29.3333,34.5268
29.3506,34.5089
29.3675,34.4912
29.3841,34.4738
29.4002,34.4567
29.4161,34.4398
29.4315,34.4232
29.4466,34.4069
29.4612,34.3908
29.4756,34.3750
29.4895,34.3594
29.5031,34.3441
29.5163,34.3291
29.5291,34.3142
29.5475,34.2918
29.5651,34.2696
29.5818,34.2474
29.5976,34.2253
29.6125,34.2033
29.6265,34.1814
29.6396,34.1596
29.6518,34.1378
29.6631,34.1162
29.6736,34.0946
29.6832,34.0728
29.6918,34.0506
29.6995,34.0281
29.7063,34.0052
29.7121,33.9819
29.7170,33.9583
29.7209,33.9343
29.7239,33.9099
29.7260,33.8851
29.7271,33.8600
29.7273,33.8430
29.7269,33.8225
29.7257,33.8025
29.7226,33.7738
29.7176,33.7465
29.7110,33.7206
29.7026,33.6961
29.6925,33.6731
29.6806,33.6514
29.6671,33.6312
29.6517,33.6124
29.6347,33.5950
29.6286,33.5895
29.6097,33.5740
29.5897,33.5600
29.5687,33.5475
29.5466,33.5365
29.5235,33.5271
29.4993,33.5192
29.4741,33.5128
29.4478,33.5080
29.4205,33.5047
29.3921,33.5029
29.3726,33.5026
29.3455,33.5031
29.3189,33.5045
29.2930,33.5069
29.2677,33.5103
29.2430,33.5147
29.2189,33.5200
29.1954,33.5263
29.1726,33.5336
29.1504,33.5419
29.1288,33.5511
29.1147,33.5578
29.0939,33.5685
29.0730,33.5800
29.0520,33.5922
29.0309,33.6051
29.0098,33.6189
28.9886,33.6333
28.9673,33.6485
28.9459,33.6645
28.9245,33.6812
28.9029,33.6986
28.8886,33.7107
28.7567,33.5456
28.7715,33.5328
28.7867,33.5203
28.8021,33.5080
28.8178,33.4959
28.8337,33.4841
28.8500,33.4726
28.8665,33.4613
28.8833,33.4502
28.9004,33.4393
28.9177,33.4287
28.9354,33.4184
28.9533,33.4083
28.9715,33.3984
28.9900,33.3888
29.0087,33.3794
29.0278,33.3702
29.0471,33.3614
29.0667,33.3533
29.0866,33.3456
29.1068,33.3386
29.1274,33.3321
29.1482,33.3261
29.1693,33.3208
29.1907,33.3160
29.2124,33.3117
29.2344,33.3081
29.2567,33.3050
29.2793,33.3024
29.3022,33.3004
29.3254,33.2990
29.3489,33.2982
29.3726,33.2979
29.4074,33.2985
29.4411,33.3001
29.4740,33.3029
29.5059,33.3068
29.5370,33.3119
29.5670,33.3180
29.5962,33.3253
29.6245,33.3337
29.6518,33.3432
29.6782,33.3538
29.7037,33.3655
29.7282,33.3784
29.7518,33.3924
29.7745,33.4075
29.7963,33.4237
29.8172,33.4410
29.8369,33.4593
29.8554,33.4785
29.8726,33.4985
29.8885,33.5194
29.9032,33.5411
29.9166,33.5637
29.9287,33.5871
29.9395,33.6114
29.9491,33.6365
29.9574,33.6625
29.9644,33.6893
29.9701,33.7170
29.9746,33.7455
29.9778,33.7749
29.9797,33.8051
29.9803,33.8362
29.9801,33.8560
29.9793,33.8756
29.9772,33.9047
29.9740,33.9335
29.9696,33.9619
29.9641,33.9900
29.9574,34.0177
29.9496,34.0450
29.9407,34.0720
29.9306,34.0987
29.9193,34.1250
29.9154,34.1337
29.9028,34.1597
29.8894,34.1856
29.8799,34.2028
29.8701,34.2200
29.8598,34.2372
29.8492,34.2543
29.8382,34.2715
29.8267,34.2885
29.8149,34.3056
29.8027,34.3226
29.7901,34.3396
29.7770,34.3566
29.7636,34.3735
29.7498,34.3904
29.7356,34.4072
29.7210,34.4241
29.7062,34.4411
29.6910,34.4583
29.6755,34.4756
29.6597,34.4930
29.6436,34.5106
29.6271,34.5283
29.6104,34.5462
29.5934,34.5642
29.5760,34.5824
29.5584,34.6007
29.5404,34.6192
29.5221,34.6378
29.5036,34.6565
29.4847,34.6754
29.4655,34.6945
29.0463,35.1112
30.0619,35.1112
Z" /> 
<path style="fill:#000000; fill-opacity:1.0000; 
stroke:#000000; stroke-width:0.0000; stroke-opacity:1; 
stroke-linecap:round; stroke-linejoin:round;fill-rule:evenodd;"
d="M 31.0222,33.2982
31.0428,33.2990
31.0630,33.3003
31.0830,33.3021
31.1025,33.3045
31.1407,33.3109
31.1775,33.3193
31.2130,33.3299
31.2471,33.3426
31.2799,33.3575
31.3114,33.3744
31.3415,33.3935
31.3702,33.4147
31.3976,33.4380
31.4237,33.4634
31.4484,33.4909
31.4718,33.5206
31.4939,33.5523
31.5044,33.5690
31.5146,33.5861
31.5245,33.6037
31.5341,33.6217
31.5433,33.6401
31.5522,33.6589
31.5608,33.6782
31.5691,33.6978
31.5771,33.7179
31.5847,33.7385
31.5920,33.7594
31.5990,33.7808
31.6056,33.8026
31.6119,33.8248
31.6179,33.8475
31.6236,33.8706
31.6290,33.8941
31.6340,33.9180
31.6387,33.9424
31.6431,33.9672
31.6471,33.9924
31.6509,34.0180
31.6543,34.0441
31.6573,34.0706
31.6601,34.0975
31.6625,34.1248
31.6646,34.1526
31.6664,34.1808
31.6679,34.2094
31.6690,34.2384
31.6698,34.2679
31.6703,34.2978
31.6705,34.3281
31.6704,34.3482
31.6702,34.3681
31.6699,34.3879
31.6694,34.4074
31.6681,34.4460
31.6663,34.4839
31.6639,34.5210
31.6610,34.5574
31.6576,34.5932
31.6536,34.6282
31.6492,34.6625
31.6441,34.6960
31.6386,34.7289
31.6326,34.7611
31.6260,34.7925
31.6189,34.8232
31.6112,34.8532
31.6031,34.8825
31.5943,34.9111
31.5850,34.9387
31.5750,34.9656
31.5644,34.9916
31.5532,35.0167
31.5414,35.0410
31.5289,35.0645
31.5159,35.0871
31.5022,35.1089
31.4879,35.1298
31.4730,35.1499
31.4574,35.1691
31.4413,35.1875
31.4245,35.2051
31.4071,35.2218
31.3891,35.2377
31.3705,35.2526
31.3511,35.2666
31.3310,35.2797
31.3101,35.2917
31.2885,35.3028
31.2661,35.3130
31.2430,35.3222
31.2191,35.3304
31.1945,35.3376
31.1691,35.3439
31.1430,35.3492
31.1162,35.3535
31.0886,35.3569
31.0602,35.3593
31.0311,35.3608
31.0013,35.3613
30.9802,35.3610
30.9594,35.3602
30.9390,35.3589
30.9189,35.3570
30.8992,35.3546
30.8798,35.3516
30.8422,35.3442
30.8059,35.3345
30.7710,35.3228
30.7375,35.3089
30.7054,35.2929
30.6746,35.2747
30.6453,35.2544
30.6174,35.2320
30.5908,35.2074
30.5657,35.1807
30.5419,35.1518
30.5196,35.1208
30.4986,35.0877
30.4887,35.0704
30.4790,35.0526
30.4697,35.0345
30.4607,35.0159
30.4520,34.9969
30.4437,34.9775
30.4356,34.9577
30.4279,34.9375
30.4204,34.9168
30.4133,34.8958
30.4065,34.8743
30.4001,34.8524
30.3939,34.8301
30.3881,34.8074
30.3825,34.7843
30.3773,34.7608
30.3724,34.7368
30.3679,34.7125
30.3636,34.6877
30.3597,34.6625
30.3560,34.6369
30.3527,34.6109
30.3497,34.5845
30.3470,34.5577
30.3447,34.5304
30.3426,34.5028
30.3409,34.4747
30.3394,34.4462
30.3383,34.4173
30.3375,34.3880
30.3371,34.3583
30.3369,34.3281
30.5846,34.3281
30.5847,34.3539
30.5849,34.3793
30.5854,34.4042
30.5861,34.4288
30.5869,34.4529
30.5879,34.4767
30.5891,34.5000
30.5905,34.5229
30.5920,34.5454
30.5938,34.5675
30.5957,34.5892
30.5978,34.6105
30.6001,34.6314
30.6026,34.6518
30.6053,34.6719
30.6081,34.6915
30.6144,34.7296
30.6214,34.7661
30.6291,34.8009
30.6376,34.8341
30.6468,34.8656
30.6568,34.8955
30.6674,34.9238
30.6789,34.9504
30.6912,34.9754
30.7045,34.9988
30.7189,35.0205
30.7344,35.0406
30.7508,35.0592
30.7684,35.0761
30.7870,35.0914
30.8066,35.1051
30.8273,35.1171
30.8490,35.1276
30.8717,35.1365
30.8956,35.1437
30.9204,35.1493
30.9463,35.1534
30.9733,35.1558
31.0013,35.1566
31.0288,35.1558
31.0554,35.1534
31.0810,35.1494
31.1056,35.1438
31.1292,35.1366
31.1519,35.1278
31.1735,35.1174
31.1941,35.1054
31.2137,35.0918
31.2323,35.0766
31.2500,35.0598
31.2666,35.0415
31.2822,35.0215
31.2969,34.9999
31.3105,34.9767
31.3232,34.9519
31.3349,34.9254
31.3460,34.8973
31.3562,34.8675
31.3657,34.8360
31.3744,34.8028
31.3824,34.7680
31.3896,34.7315
31.3961,34.6934
31.3990,34.6737
31.4018,34.6536
31.4043,34.6330
31.4067,34.6121
31.4089,34.5907
31.4109,34.5689
31.4127,34.5467
31.4143,34.5241
31.4157,34.5011
31.4170,34.4776
31.4180,34.4537
31.4189,34.4294
31.4195,34.4047
31.4200,34.3796
31.4203,34.3541
31.4204,34.3281
31.4203,34.3025
31.4200,34.2773
31.4195,34.2525
31.4189,34.2282
31.4180,34.2042
31.4170,34.1806
31.4157,34.1574
31.4143,34.1346
31.4127,34.1123
31.4109,34.0903
31.4089,34.0688
31.4067,34.0476
31.4043,34.0268
31.4018,34.0065
31.3990,33.9865
31.3961,33.9670
31.3896,33.9291
31.3824,33.8929
31.3744,33.8582
31.3657,33.8252
31.3562,33.7938
31.3460,33.7640
31.3349,33.7358
31.3232,33.7092
31.3105,33.6842
31.2969,33.6608
31.2822,33.6390
31.2666,33.6188
31.2500,33.6002
31.2323,33.5833
31.2137,33.5680
31.1941,33.5542
31.1735,33.5421
31.1519,33.5316
31.1292,33.5228
31.1056,33.5155
31.0810,33.5098
31.0554,33.5058
31.0288,33.5034
31.0013,33.5026
30.9733,33.5034
30.9463,33.5058
30.9204,33.5098
30.8956,33.5155
30.8717,33.5228
30.8490,33.5316
30.8273,33.5421
30.8066,33.5542
30.7870,33.5680
30.7684,33.5833
30.7508,33.6002
30.7344,33.6188
30.7189,33.6390
30.7045,33.6608
30.6912,33.6842
30.6789,33.7092
30.6674,33.7358
30.6568,33.7640
30.6468,33.7938
30.6376,33.8252
30.6291,33.8582
30.6214,33.8929
30.6144,33.9291
30.6081,33.9670
30.6053,33.9865
30.6026,34.0065
30.6001,34.0268
30.5978,34.0476
30.5957,34.0688
30.5938,34.0903
30.5920,34.1123
30.5905,34.1346
30.5891,34.1574
30.5879,34.1806
30.5869,34.2042
30.5861,34.2282
30.5854,34.2525
30.5849,34.2773
30.5847,34.3025
30.5846,34.3281
30.3369,34.3281
30.3370,34.3078
30.3372,34.2878
30.3375,34.2679
30.3379,34.2482
30.3392,34.2093
30.3410,34.1712
30.3434,34.1338
30.3462,34.0972
30.3495,34.0613
30.3534,34.0262
30.3578,33.9919
30.3627,33.9582
30.3681,33.9254
30.3740,33.8932
30.3804,33.8619
30.3874,33.8312
30.3949,33.8014
30.4029,33.7722
30.4115,33.7439
30.4207,33.7164
30.4306,33.6897
30.4411,33.6639
30.4522,33.6390
30.4639,33.6148
30.4762,33.5916
30.4892,33.5691
30.5028,33.5475
30.5170,33.5268
30.5318,33.5069
30.5473,33.4878
30.5634,33.4696
30.5801,33.4522
30.5974,33.4357
30.6154,33.4200
30.6340,33.4052
30.6534,33.3914
30.6736,33.3785
30.6944,33.3666
30.7160,33.3556
30.7383,33.3456
30.7613,33.3365
30.7851,33.3284
30.8096,33.3213
30.8348,33.3151
30.8607,33.3098
30.8874,33.3055
30.9148,33.3022
30.9429,33.2998
30.9717,33.2984
31.0013,33.2979
Z" /> 
<path style="fill:#000000; fill-opacity:1.0000; 
stroke:#000000; stroke-width:0.0000; stroke-opacity:1; 
stroke-linecap:round; stroke-linejoin:round;fill-rule:evenodd;"
d="M 33.2625,35.3300
31.9343,35.3300
31.9343,35.1380
32.4609,34.6012
32.4797,34.5822
32.4981,34.5635
32.5161,34.5450
32.5338,34.5268
32.5511,34.5089
32.5681,34.4912
32.5846,34.4738
32.6008,34.4567
32.6166,34.4398
32.6320,34.4232
32.6471,34.4069
32.6618,34.3908
32.6761,34.3750
32.6901,34.3594
32.7036,34.3441
32.7168,34.3291
32.7296,34.3142
32.7481,34.2918
32.7657,34.2696
32.7823,34.2474
32.7981,34.2253
32.8130,34.2033
32.8270,34.1814
32.8401,34.1596
32.8524,34.1378
32.8637,34.1162
32.8741,34.0946
32.8837,34.0728
32.8924,34.0506
32.9001,34.0281
32.9069,34.0052
32.9127,33.9819
32.9176,33.9583
32.9215,33.9343
32.9245,33.9099
32.9265,33.8851
32.9276,33.8600
32.9278,33.8430
32.9275,33.8225
32.9263,33.8025
32.9231,33.7738
32.9182,33.7465
32.9116,33.7206
32.9032,33.6961
32.8931,33.6731
32.8812,33.6514
32.8676,33.6312
32.8523,33.6124
32.8352,33.5950
32.8292,33.5895
32.8102,33.5740
32.7903,33.5600
32.7692,33.5475
32.7471,33.5365
32.7240,33.5271
32.6999,33.5192
32.6746,33.5128
32.6484,33.5080
32.6211,33.5047
32.5927,33.5029
32.5732,33.5026
32.5460,33.5031
32.5195,33.5045
32.4936,33.5069
32.4682,33.5103
32.4435,33.5147
32.4195,33.5200
32.3960,33.5263
32.3732,33.5336
32.3509,33.5419
32.3293,33.5511
32.3153,33.5578
32.2945,33.5685
32.2735,33.5800
32.2526,33.5922
32.2315,33.6051
32.2104,33.6189
32.1891,33.6333
32.1679,33.6485
32.1465,33.6645
32.1250,33.6812
32.1035,33.6986
32.0891,33.7107
31.9572,33.5456
31.9721,33.5328
31.9872,33.5203
32.0026,33.5080
32.0183,33.4959
32.0343,33.4841
32.0505,33.4726
32.0671,33.4613
32.0839,33.4502
32.1009,33.4393
32.1183,33.4287
32.1359,33.4184
32.1539,33.4083
32.1721,33.3984
32.1905,33.3888
32.2093,33.3794
32.2283,33.3702
32.2477,33.3614
32.2673,33.3533
32.2872,33.3456
32.3074,33.3386
32.3279,33.3321
32.3487,33.3261
32.3698,33.3208
32.3912,33.3160
32.4129,33.3117
32.4349,33.3081
32.4572,33.3050
32.4798,33.3024
32.5027,33.3004
32.5259,33.2990
32.5494,33.2982
32.5732,33.2979
32.6079,33.2985
32.6417,33.3001
32.6746,33.3029
32.7065,33.3068
32.7375,33.3119
32.7676,33.3180
32.7968,33.3253
32.8250,33.3337
32.8523,33.3432
32.8787,33.3538
32.9042,33.3655
32.9288,33.3784
32.9524,33.3924
32.9751,33.4075
32.9969,33.4237
33.0177,33.4410
33.0375,33.4593
33.0560,33.4785
33.0732,33.4985
33.0891,33.5194
33.1038,33.5411
33.1171,33.5637
33.1293,33.5871
33.1401,33.6114
33.1497,33.6365
33.1579,33.6625
33.1649,33.6893
33.1707,33.7170
33.1751,33.7455
33.1783,33.7749
33.1802,33.8051
33.1809,33.8362
33.1806,33.8560
33.1799,33.8756
33.1778,33.9047
33.1745,33.9335
33.1702,33.9619
33.1646,33.9900
33.1580,34.0177
33.1502,34.0450
33.1412,34.0720
33.1311,34.0987
33.1199,34.1250
33.1159,34.1337
33.1034,34.1597
33.0899,34.1856
33.0805,34.2028
33.0706,34.2200
33.0604,34.2372
33.0498,34.2543
33.0387,34.2715
33.0273,34.2885
33.0155,34.3056
33.0032,34.3226
32.9906,34.3396
32.9776,34.3566
32.9642,34.3735
32.9504,34.3904
32.9361,34.4072
32.9216,34.4241
32.9067,34.4411
32.8915,34.4583
32.8760,34.4756
32.8602,34.4930
32.8441,34.5106
32.8277,34.5283
32.8110,34.5462
32.7939,34.5642
32.7766,34.5824
32.7589,34.6007
32.7410,34.6192
32.7227,34.6378
32.7041,34.6565
32.6852,34.6754
32.6660,34.6945
32.2469,35.1112
33.2625,35.1112
Z" /> 
<path style="fill:#000000; fill-opacity:1.0000; 
stroke:#000000; stroke-width:0.0000; stroke-opacity:1; 
stroke-linecap:round; stroke-linejoin:round;fill-rule:evenodd;"
d="M 34.7870,33.8010
34.7866,33.8263
34.7853,33.8509
34.7831,33.8749
34.7800,33.8982
34.7760,33.9208
34.7712,33.9428
34.7654,33.9641
34.7588,33.9848
34.7513,34.0049
34.7429,34.0243
34.7337,34.0430
34.7235,34.0611
34.7125,34.0785
34.7006,34.0953
34.6878,34.1114
34.6742,34.1269
34.6598,34.1416
34.6449,34.1558
34.6293,34.1693
34.6131,34.1821
34.5962,34.1944
34.5788,34.2059
34.5607,34.2169
34.5420,34.2272
34.5227,34.2369
34.5028,34.2460
34.4823,34.2544
34.4611,34.2622
34.4394,34.2694
34.4170,34.2759
34.3940,34.2818
34.3703,34.2871
34.3703,34.2983
34.4001,34.3022
34.4290,34.3068
34.4568,34.3121
34.4837,34.3182
34.5096,34.3250
34.5345,34.3325
34.5585,34.3408
34.5815,34.3499
34.6035,34.3596
34.6245,34.3701
34.6446,34.3814
34.6637,34.3934
34.6818,34.4061
34.6990,34.4196
34.7152,34.4338
34.7304,34.4488
34.7447,34.4643
34.7581,34.4805
34.7705,34.4972
34.7821,34.5146
34.7927,34.5325
34.8024,34.5510
34.8112,34.5701
34.8190,34.5898
34.8259,34.6101
34.8319,34.6310
34.8370,34.6525
34.8412,34.6745
34.8444,34.6972
34.8467,34.7205
34.8481,34.7443
34.8486,34.7687
34.8483,34.7901
34.8473,34.8113
34.8457,34.8321
34.8435,34.8526
34.8406,34.8728
34.8371,34.8928
34.8330,34.9124
34.8282,34.9318
34.8228,34.9508
34.8167,34.9696
34.8100,34.9881
34.8027,35.0062
34.7947,35.0241
34.7861,35.0417
34.7769,35.0590
34.7670,35.0760
34.7564,35.0926
34.7452,35.1088
34.7333,35.1244
34.7206,35.1397
34.7073,35.1544
34.6933,35.1687
34.6786,35.1825
34.6632,35.1959
34.6471,35.2088
34.6303,35.2212
34.6128,35.2332
34.5946,35.2447
34.5757,35.2557
34.5562,35.2663
34.5359,35.2764
34.5149,35.2860
34.4933,35.2951
34.4709,35.3037
34.4478,35.3116
34.4239,35.3189
34.3992,35.3257
34.3738,35.3319
34.3476,35.3375
34.3206,35.3425
34.2929,35.3469
34.2645,35.3507
34.2352,35.3539
34.2053,35.3566
34.1745,35.3586
34.1430,35.3601
34.1108,35.3610
34.0777,35.3613
34.0582,35.3612
34.0291,35.3607
34.0005,35.3598
33.9722,35.3585
33.9443,35.3568
33.9168,35.3546
33.8897,35.3521
33.8630,35.3492
33.8366,35.3458
33.8107,35.3420
33.7851,35.3378
33.7600,35.3331
33.7350,35.3277
33.7101,35.3217
33.6855,35.3149
33.6611,35.3076
33.6369,35.2995
33.6128,35.2908
33.5889,35.2815
33.5653,35.2715
33.5418,35.2608
33.5262,35.2533
33.5262,35.0266
33.5501,35.0379
33.5744,35.0486
33.5990,35.0589
33.6239,35.0687
33.6491,35.0781
33.6748,35.0870
33.7007,35.0954
33.7270,35.1034
33.7536,35.1109
33.7806,35.1180
33.7988,35.1224
33.8262,35.1285
33.8534,35.1340
33.8804,35.1389
33.9071,35.1432
33.9337,35.1469
33.9601,35.1500
33.9863,35.1525
34.0123,35.1544
34.0381,35.1558
34.0637,35.1565
34.0807,35.1566
34.1138,35.1562
34.1458,35.1549
34.1767,35.1529
34.2063,35.1500
34.2348,35.1463
34.2620,35.1418
34.2881,35.1365
34.3131,35.1303
34.3368,35.1234
34.3594,35.1156
34.3808,35.1069
34.4010,35.0975
34.4200,35.0873
34.4378,35.0762
34.4545,35.0643
34.4700,35.0516
34.4845,35.0381
34.5045,35.0168
34.5224,34.9941
34.5381,34.9699
34.5518,34.9444
34.5634,34.9175
34.5699,34.8988
34.5755,34.8794
34.5802,34.8595
34.5839,34.8389
34.5867,34.8176
34.5886,34.7958
34.5896,34.7734
34.5897,34.7619
34.5891,34.7389
34.5874,34.7166
34.5845,34.6952
34.5805,34.6747
34.5753,34.6549
34.5689,34.6360
34.5614,34.6179
34.5480,34.5922
34.5320,34.5684
34.5135,34.5465
34.4923,34.5264
34.4767,34.5140
34.4600,34.5025
34.4421,34.4918
34.4232,34.4818
34.4034,34.4724
34.3826,34.4637
34.3609,34.4556
34.3382,34.4482
34.3146,34.4415
34.2901,34.4353
34.2646,34.4298
34.2382,34.4250
34.2108,34.4208
34.1825,34.4173
34.1533,34.4144
34.1231,34.4121
34.0920,34.4105
34.0599,34.4095
34.0269,34.4092
33.8330,34.4092
33.8330,34.2045
34.0299,34.2045
34.0604,34.2041
34.0899,34.2029
34.1185,34.2008
34.1462,34.1979
34.1730,34.1941
34.1988,34.1896
34.2237,34.1841
34.2476,34.1779
34.2706,34.1708
34.2927,34.1629
34.3138,34.1542
34.3340,34.1446
34.3533,34.1342
34.3716,34.1230
34.3890,34.1109
34.4055,34.0980
34.4210,34.0845
34.4355,34.0703
34.4490,34.0557
34.4615,34.0405
34.4784,34.0167
34.4930,33.9917
34.5054,33.9655
34.5155,33.9380
34.5210,33.9191
34.5255,33.8996
34.5290,33.8795
34.5315,33.8589
34.5330,33.8378
34.5335,33.8162
34.5326,33.7887
34.5300,33.7625
34.5257,33.7374
34.5196,33.7136
34.5118,33.6909
34.5023,33.6694
34.4910,33.6490
34.4780,33.6299
34.4632,33.6119
34.4468,33.5952
34.4348,33.5846
34.4158,33.5700
34.3955,33.5568
34.3740,33.5450
34.3512,33.5346
34.3272,33.5257
34.3020,33.5183
34.2754,33.5123
34.2477,33.5077
34.2187,33.5046
34.1987,33.5033
34.1781,33.5027
34.1676,33.5026
34.1474,33.5028
34.1276,33.5034
34.0985,33.5050
34.0703,33.5075
34.0430,33.5109
34.0164,33.5152
33.9908,33.5203
33.9659,33.5264
33.9419,33.5333
33.9188,33.5411
33.8964,33.5498
33.8892,33.5529
33.8676,33.5626
33.8461,33.5727
33.8246,33.5833
33.8031,33.5944
33.7817,33.6060
33.7604,33.6180
33.7391,33.6305
33.7179,33.6435
33.6967,33.6569
33.6756,33.6708
33.6615,33.6804
33.5375,33.5026
33.5580,33.4872
33.5794,33.4722
33.6017,33.4576
33.6250,33.4435
33.6491,33.4297
33.6742,33.4163
33.7002,33.4033
33.7180,33.3948
33.7362,33.3865
33.7549,33.3784
33.7739,33.3705
33.7933,33.3628
33.8032,33.3590
33.8233,33.3516
33.8437,33.3446
33.8645,33.3382
33.8855,33.3322
33.9070,33.3268
33.9288,33.3218
33.9509,33.3172
33.9733,33.3132
33.9961,33.3096
34.0193,33.3065
34.0427,33.3039
34.0665,33.3017
34.0907,33.3000
34.1152,33.2989
34.1400,33.2981
34.1652,33.2979
34.2039,33.2985
34.2414,33.3001
34.2776,33.3029
34.3126,33.3068
34.3463,33.3118
34.3787,33.3179
34.4099,33.3251
34.4398,33.3334
34.4685,33.3429
34.4959,33.3534
34.5220,33.3651
34.5468,33.3779
34.5704,33.3917
34.5928,33.4067
34.6138,33.4228
34.6336,33.4400
34.6522,33.4581
34.6696,33.4768
34.6858,33.4961
34.7007,33.5159
34.7145,33.5364
34.7271,33.5574
34.7385,33.5791
34.7487,33.6014
34.7577,33.6242
34.7655,33.6477
34.7720,33.6718
34.7774,33.6964
34.7816,33.7217
34.7846,33.7475
34.7864,33.7740
Z" /> 
</g><g >
</g>
<g >
</g>
<g >
</g>
</g> 
</svg>
